<?xml version="1.0" encoding="UTF-8"?>
<svg xmlns="http://www.w3.org/2000/svg" id="Layer_1" data-name="Layer 1" viewBox="0 0 24 24" width="512" height="512"><path d="M19,0H5C2.24,0,0,2.24,0,5v14c0,2.76,2.24,5,5,5h14c2.76,0,5-2.24,5-5V5c0-2.76-2.24-5-5-5Zm-1.83,11.62l-2.17,1.77,.9,2.73c.12,.37,0,.78-.31,1.01-.31,.24-.73,.25-1.06,.04l-2.52-1.64-2.48,1.66c-.15,.1-.33,.15-.51,.15-.19,0-.39-.06-.55-.18-.31-.23-.44-.64-.32-1.01l.86-2.76-2.18-1.77c-.29-.25-.4-.65-.27-1.01,.13-.36,.48-.6,.86-.6h2.75l.97-2.61c.13-.36,.48-.6,.86-.6s.73,.24,.86,.6l.97,2.61h2.75c.38,0,.73,.24,.86,.6,.13,.36,.02,.77-.27,1.02Z"/></svg>
