<?xml version="1.0" encoding="UTF-8"?>
<svg xmlns="http://www.w3.org/2000/svg" id="Layer_1" data-name="Layer 1" viewBox="0 0 24 24" width="512" height="512"><path d="m19.65,19.535c-2.874,2.874-6.532,4.362-9.931,4.362-2.397,0-4.664-.744-6.438-2.26.119-.861,1.174-6.318,9.039-8.776,6.907-2.157,9.26-6.463,10.053-8.881,2.925,4.339,1.881,10.951-2.723,15.554Zm-7.926-8.582c7.864-2.457,8.919-7.914,9.039-8.776C16.473-1.49,9.294-.622,4.394,4.28-.21,8.883-1.254,15.495,1.671,19.834c.793-2.417,3.146-6.723,10.053-8.881Z"/></svg>
