<?xml version="1.0" encoding="UTF-8"?>
<svg xmlns="http://www.w3.org/2000/svg" id="Layer_1" data-name="Layer 1" viewBox="0 0 24 24" width="512" height="512"><path d="M21.976,10h-6.976c-1.654,0-3-1.346-3-3V.024c-.161-.011-.322-.024-.485-.024H7C4.243,0,2,2.243,2,5v14c0,2.757,2.243,5,5,5h10c2.757,0,5-2.243,5-5v-7.5c0-.163-.013-1.339-.024-1.5Zm-13.683,7.789l2.019,2.019c.391,.391,.391,1.023,0,1.414-.195,.195-.451,.293-.707,.293s-.512-.098-.707-.293l-2.019-2.019c-1.17-1.169-1.17-3.073,0-4.243l2.062-2.062c.391-.391,1.023-.391,1.414,0,.391,.39,.391,1.023,0,1.414l-2.062,2.062c-.39,.39-.39,1.024,0,1.415Zm8.828,1.414l-2.019,2.019c-.195,.195-.451,.293-.707,.293s-.512-.098-.707-.293c-.391-.391-.391-1.023,0-1.414l2.019-2.019c.39-.39,.39-1.024,0-1.415l-2.062-2.062c-.391-.391-.391-1.024,0-1.414,.391-.391,1.023-.391,1.414,0l2.062,2.062c1.17,1.169,1.17,3.073,0,4.243Zm-3.121-12.203V.46c.913,.346,1.753,.879,2.465,1.59l3.484,3.486c.712,.711,1.245,1.551,1.591,2.464h-6.54c-.552,0-1-.449-1-1Z"/></svg>
