<?xml version="1.0" encoding="UTF-8"?>
<svg xmlns="http://www.w3.org/2000/svg" id="Layer_1" data-name="Layer 1" viewBox="0 0 24 24">
  <path d="m19,5H5C2.243,5,0,7.243,0,10v9c0,2.757,2.243,5,5,5h14c2.757,0,5-2.243,5-5v-9c0-2.757-2.243-5-5-5Zm-1.5,12.4c-.956,2.187-3.115,3.6-5.5,3.6-1.474,0-2.88-.548-3.961-1.496v.496c0,.553-.448,1-1,1s-1-.447-1-1v-2c0-1.103.897-2,2-2h1.961c.552,0,1,.447,1,1s-.448,1-1,1h-.643c.721.634,1.659,1,2.643,1,1.591,0,3.03-.942,3.667-2.4.222-.507.811-.738,1.317-.516.506.221.737.811.516,1.316Zm.5-5.4c0,1.103-.897,2-2,2h-2c-.552,0-1-.447-1-1s.448-1,1-1h.643c-.721-.634-1.659-1-2.643-1-1.591,0-3.03.942-3.667,2.4-.165.376-.532.6-.917.6-.134,0-.27-.026-.4-.084-.506-.221-.737-.811-.516-1.316.956-2.187,3.115-3.6,5.5-3.6,1.492,0,2.913.562,4,1.532v-.532c0-.553.448-1,1-1s1,.447,1,1v2ZM6.25,3l1.35-1.8c.564-.752,1.461-1.2,2.4-1.2h4c.938,0,1.835.448,2.399,1.199l1.35,1.801H6.25Z"/>
</svg>
