<?xml version="1.0" encoding="UTF-8"?>
<svg xmlns="http://www.w3.org/2000/svg" id="Layer_1" data-name="Layer 1" viewBox="0 0 24 24" width="512" height="512"><path d="m5.876,9.4c-.038,0-.071.026-.079.063l-.811,3.437h1.757l-.787-3.437c-.009-.037-.041-.063-.079-.063Z"/><path d="m19,4h-6v16h6c2.757,0,5-2.243,5-5v-6c0-2.757-2.243-5-5-5Zm3,5.637c0,.34-.276.616-.616.616h-.316c-.121,1.275-.617,2.731-1.607,3.866.542.329,1.192.564,1.984.639.315.03.555.296.555.613v.021c0,.366-.316.648-.68.613-1.137-.109-2.059-.489-2.808-1.022-.753.538-1.686.915-2.832,1.022-.364.034-.679-.248-.679-.613v-.021c0-.321.248-.584.568-.614.788-.075,1.438-.307,1.977-.635-.331-.379-.607-.794-.833-1.227-.213-.408.089-.896.55-.896h.01c.226,0,.437.122.541.323.185.352.416.691.693,1.002.818-.92,1.192-2.108,1.303-3.071h-4.191c-.34,0-.616-.276-.616-.616v-.021c0-.34.276-.616.616-.616h2.257v-.384c0-.34.276-.616.616-.616h.021c.34,0,.616.276.616.616v.384h2.257c.34,0,.616.276.616.616v.021Z"/><path d="m11,4h-6C2.238,4,0,6.239,0,9v6C0,17.762,2.238,20,5,20h6V4Zm-2.988,12h-.002c-.326,0-.609-.225-.682-.543l-.265-1.157h-2.409l-.274,1.161c-.075.316-.356.539-.681.539-.451,0-.784-.421-.681-.86l1.413-5.993c.201-.866,1.137-1.406,2.056-1.021.439.184.734.606.842,1.07l1.363,5.948c.1.438-.232.856-.682.856Z"/></svg>
