<?xml version="1.0" encoding="UTF-8"?>
<svg xmlns="http://www.w3.org/2000/svg" id="Layer_1" data-name="Layer 1" viewBox="0 0 24 24" width="512" height="512"><path d="m14.417,16.902c.492.559.691,1.327.578,2.224l-.541,2.865c-.257,1.172-1.454,2.009-2.454,2.009s-2.172-.837-2.423-1.98l-.536-2.834c-.124-.956.076-1.725.568-2.283.528-.599,1.333-.902,2.392-.902,1.083,0,1.888.304,2.416.902Zm-.417-4.902c0-1.105-.895-2-2-2s-2,.895-2,2,.895,2,2,2,2-.895,2-2ZM12,0C5.383,0,0,5.383,0,12c0,4.071,2.039,7.831,5.453,10.059.463.301,1.083.171,1.384-.292.302-.462.171-1.082-.291-1.384-2.847-1.856-4.546-4.99-4.546-8.383C2,6.486,6.486,2,12,2s10,4.486,10,10c0,3.393-1.699,6.526-4.546,8.383-.462.302-.593.922-.291,1.384.191.294.512.454.838.454.188,0,.376-.053.545-.162,3.415-2.228,5.453-5.987,5.453-10.059C24,5.383,18.617,0,12,0Zm5.833,15.871c.764-1.148,1.167-2.487,1.167-3.871,0-3.859-3.14-7-7-7s-7,3.141-7,7c0,1.336.402,2.657,1.163,3.822.302.463.921.593,1.384.29.462-.302.592-.921.291-1.384-.548-.839-.837-1.782-.837-2.729,0-2.757,2.243-5,5-5s5,2.243,5,5c0,.988-.288,1.944-.833,2.764-.306.46-.181,1.081.279,1.387.17.113.363.167.553.167.324,0,.641-.156.833-.446Z"/></svg>
