<?xml version="1.0" encoding="UTF-8"?>
<svg xmlns="http://www.w3.org/2000/svg" id="Layer_1" data-name="Layer 1" viewBox="0 0 24 24">
  <path d="m13.27,7.48L20.077.673c.897-.897,2.353-.897,3.25,0s.897,2.353,0,3.25l-6.807,6.807c-.813.813-1.915,1.27-3.065,1.27h-1.455v-1.455c0-1.15.457-2.252,1.27-3.065Zm-4.974,14.646c-4.001-2.223-6.295-5.913-6.295-10.126C2,6.486,6.486,2,12,2c.927,0,1.844.127,2.728.376.091.026.183.038.272.038.436,0,.837-.287.962-.728.15-.532-.159-1.085-.69-1.234-1.061-.3-2.162-.452-3.272-.452C5.383,0,0,5.383,0,12c0,4.96,2.669,9.288,7.324,11.874.154.086.321.126.485.126.352,0,.692-.186.875-.515.269-.482.094-1.091-.388-1.359Zm14.019-14.088c-.531.149-.84.702-.69,1.233.25.885.376,1.803.376,2.729,0,3.309-2.691,6-6,6s-6-2.691-6-6c0-.553-.448-1-1-1s-1,.447-1,1c0,4.411,3.589,8,8,8s8-3.589,8-8c0-1.11-.152-2.211-.452-3.271-.149-.532-.702-.844-1.234-.69Z"/>
</svg>
