<?xml version="1.0" encoding="UTF-8"?>
<svg xmlns="http://www.w3.org/2000/svg" id="Layer_1" data-name="Layer 1" viewBox="0 0 24 24" width="512" height="512"><path d="M14.082,11.41l-3-2.349c-1.814-1.418-4.349-1.42-6.163,0l-3,2.348c-1.219,.955-1.918,2.39-1.918,3.938v4.152c0,2.481,2.019,4.5,4.5,4.5h7c2.481,0,4.5-2.019,4.5-4.5v-4.152c0-1.548-.699-2.982-1.918-3.938Zm-4.082,6.59c0,.552-.448,1-1,1h-2c-.552,0-1-.448-1-1v-2c0-.552,.448-1,1-1h2c.552,0,1,.448,1,1v2Zm13.604,4.253c-.577,1.077-1.695,1.747-2.917,1.747h-4.508c1.125-1.169,1.821-2.754,1.821-4.5v-4.152c0-2.166-.979-4.175-2.685-5.512l-3.002-2.351c-1.015-.793-2.191-1.254-3.398-1.414,.057-.167,.128-.33,.226-.483,.024-.038,4.133-4.835,4.133-4.835,.99-1.01,2.51-.957,3.404-.053,0,0,4.157,4.851,4.181,4.889,.439,.681,.483,1.552,.084,2.256-.327,.577-.981,.904-.981,.904l2.666,3.895c.404,.598,.44,1.465,.061,2.188-.361,.687-1.092,1.053-1.092,1.053l1.878,3.022c.646,1.011,.698,2.287,.13,3.347Z"/></svg>
