<?xml version="1.0" encoding="UTF-8"?>
<svg xmlns="http://www.w3.org/2000/svg" id="Layer_1" data-name="Layer 1" viewBox="0 0 24 24" width="512" height="512"><path d="m12,11.001h-4v-2.501c0-.827.673-1.5,1.5-1.5h2.5c1.103,0,2,.897,2,2s-.897,2-2,2Zm2.049,2h-6.048v2.5c0,.827.673,1.5,1.5,1.5h4.545c1.078,0,1.955-.876,1.955-1.955,0-.605-.204-1.101-.573-1.472-.368-.37-.857-.573-1.379-.573Zm9.952-8.001v14c0,2.757-2.243,5-5,5H5c-2.757,0-5-2.243-5-5V5C0,2.243,2.243,0,5,0h14c2.757,0,5,2.243,5,5Zm-6,9.971c0-1.062-.41-2.06-1.155-2.808-.433-.435-.95-.756-1.514-.95.422-.634.669-1.395.669-2.212,0-2.206-1.794-4-4-4h-2.5c-1.93,0-3.5,1.57-3.5,3.5v7c0,1.929,1.57,3.5,3.5,3.5h4.545c2.181,0,3.955-1.774,3.955-4.03Z"/></svg>
