<?xml version="1.0" encoding="UTF-8"?>
<svg xmlns="http://www.w3.org/2000/svg" id="Layer_1" data-name="Layer 1" viewBox="0 0 24 24" width="512" height="512"><path d="M13.27,19.48c-.81,.81-1.27,1.92-1.27,3.06v1.45h1.45c1.15,0,2.25-.46,3.06-1.27l6.81-6.81c.9-.9,.9-2.35,0-3.25-.9-.9-2.35-.9-3.25,0l-6.81,6.81Zm-3.24,2.52H5c-2.76,0-5-2.24-5-5V5C0,2.24,2.24,0,5,0h12c2.76,0,5,2.24,5,5v5.03c-.1,0-.2-.03-.3-.03-1,0-1.94,.36-2.7,.98V5c0-1.1-.9-2-2-2h-3.67c-.8,0-1.56,.32-2.12,.88l-3.33,3.33c-.56,.56-.88,1.33-.88,2.12v3.67c0,1.1,.9,2,2,2h4c1.1,0,2-.9,2-2v-3c0-.55-.45-1-1-1s-1,.45-1,1v3h-4v-3.67c0-.27,.11-.52,.29-.71l3.33-3.33c.19-.19,.44-.29,.71-.29h3.67v7.92l-4.08,4.08H5V7.81l2.71-3.1c.29-.29,.37-.72,.22-1.09-.15-.37-.52-.62-.92-.62h-2c-1.1,0-2,.9-2,2v12c0,1.1,.9,2,2,2h6.09c-.6,.89-.97,1.92-1.06,3Z"/></svg>
