<?xml version="1.0" encoding="UTF-8"?>
<svg xmlns="http://www.w3.org/2000/svg" id="Layer_1" data-name="Layer 1" viewBox="0 0 24 24">
  <path d="m10.5,2.5c0-.828.672-1.5,1.5-1.5s1.5.672,1.5,1.5-.672,1.5-1.5,1.5-1.5-.672-1.5-1.5ZM3,13c0-.828-.672-1.5-1.5-1.5S0,12.172,0,13s.672,1.5,1.5,1.5,1.5-.672,1.5-1.5Zm21,0c0-.828-.672-1.5-1.5-1.5s-1.5.672-1.5,1.5.672,1.5,1.5,1.5,1.5-.672,1.5-1.5ZM6,5.5c0-.828-.672-1.5-1.5-1.5s-1.5.672-1.5,1.5c0,.828.672,1.5,1.5,1.5s1.5-.672,1.5-1.5Zm15,15c0-.828-.672-1.5-1.5-1.5s-1.5.672-1.5,1.5c0,.828.672,1.5,1.5,1.5s1.5-.672,1.5-1.5Zm-16.5-1.5c-.828,0-1.5.672-1.5,1.5,0,.828.672,1.5,1.5,1.5s1.5-.672,1.5-1.5c0-.828-.672-1.5-1.5-1.5Zm15-15c-.828,0-1.5.672-1.5,1.5,0,.828.672,1.5,1.5,1.5s1.5-.672,1.5-1.5c0-.828-.672-1.5-1.5-1.5Zm-7.5,2c-3.86,0-7,3.14-7,7,0,3.519,2.613,6.432,6,6.92v-6.92c0-.552.448-1,1-1s1,.448,1,1v6.92c3.387-.488,6-3.401,6-6.92,0-3.86-3.14-7-7-7Z"/>
</svg>
