<?xml version="1.0" encoding="UTF-8"?>
<svg xmlns="http://www.w3.org/2000/svg" id="Layer_1" data-name="Layer 1" viewBox="0 0 24 24" width="512" height="512"><path d="m9.536,8.122c.944.944,1.464,2.2,1.464,3.535v11.343c0,.552-.448,1-1,1s-1-.448-1-1v-11.343c0-.153-.013-.306-.036-.457-.181,1.301-.927,2.498-2.127,3.201-.72.401-1.482.591-2.223.591-1.504,0-2.918-.784-3.709-2.182C.141,11.457,0,10.128,0,8,0,5.683,1.175,2.52,4.471.591,5.476.004,6.647-.153,7.766.148c1.131.305,2.075,1.04,2.657,2.069,1.09,1.928.577,4.355-1.112,5.679l.225.225ZM19.529.591c-1.004-.587-2.176-.744-3.295-.443-1.131.305-2.075,1.04-2.657,2.069-1.09,1.928-.577,4.355,1.112,5.679l-.225.225c-.944.944-1.464,2.2-1.464,3.535v11.343c0,.552.448,1,1,1s1-.448,1-1v-11.343c0-.153.012-.306.036-.456.18,1.3.924,2.496,2.12,3.196.009.005.08.045.088.05.681.378,1.41.559,2.126.559,1.494,0,2.927-.786,3.725-2.196.765-1.353.905-2.681.905-4.81,0-2.317-1.174-5.48-4.471-7.409Z"/></svg>
