<?xml version="1.0" encoding="UTF-8"?>
<svg xmlns="http://www.w3.org/2000/svg" id="Layer_1" data-name="Layer 1" viewBox="0 0 24 24" width="512" height="512"><path d="m12,0C5.383,0,0,5.383,0,12s5.383,12,12,12,12-5.383,12-12S18.617,0,12,0Zm4.889,14.659c-.72,2.047-2.822,3.591-4.889,3.591-2.757,0-5-2.243-5-5v-2.5c0-2.757,2.243-5,5-5,1.434,0,2.8.617,3.75,1.693.365.414.326,1.046-.088,1.412-.414.365-1.046.326-1.412-.088-.57-.646-1.39-1.016-2.25-1.016-1.654,0-3,1.346-3,3v2.5c0,1.654,1.346,3,3,3,1.218,0,2.565-1.012,3.002-2.255l-2.002.005c-.552,0-1-.447-1-1s.448-1,1-1h1.954c.665,0,1.292.325,1.678.87.377.532.471,1.184.258,1.79Z"/></svg>
