<?xml version="1.0" encoding="UTF-8"?>
<svg xmlns="http://www.w3.org/2000/svg" id="Layer_1" data-name="Layer 1" viewBox="0 0 24 24" width="512" height="512"><path d="M12,0C5.383,0,0,5.383,0,12s5.383,12,12,12,12-5.383,12-12S18.617,0,12,0ZM6,13c-.256,0-.512-.098-.707-.293-.391-.391-.391-1.023,0-1.414l1.293-1.293-1.293-1.293c-.391-.391-.391-1.023,0-1.414s1.023-.391,1.414,0l1.293,1.293,1.293-1.293c.391-.391,1.023-.391,1.414,0s.391,1.023,0,1.414l-1.293,1.293,1.293,1.293c.391,.391,.391,1.023,0,1.414-.195,.195-.451,.293-.707,.293s-.512-.098-.707-.293l-1.293-1.293-1.293,1.293c-.195,.195-.451,.293-.707,.293Zm8.388,4.999c-1.151,0-3.63,0-4.788,0-.405,0-.707-.397-.573-.78,.375-1.072,1.532-2.22,2.972-2.22s2.6,1.15,2.965,2.224c.13,.382-.173,.775-.576,.775Zm4.319-6.706c.391,.391,.391,1.023,0,1.414-.195,.195-.451,.293-.707,.293s-.512-.098-.707-.293l-1.293-1.293-1.293,1.293c-.195,.195-.451,.293-.707,.293s-.512-.098-.707-.293c-.391-.391-.391-1.023,0-1.414l1.293-1.293-1.293-1.293c-.391-.391-.391-1.023,0-1.414s1.023-.391,1.414,0l1.293,1.293,1.293-1.293c.391-.391,1.023-.391,1.414,0s.391,1.023,0,1.414l-1.293,1.293,1.293,1.293Z"/></svg>
