<?xml version="1.0" encoding="UTF-8"?>
<svg xmlns="http://www.w3.org/2000/svg" id="Layer_1" data-name="Layer 1" viewBox="0 0 24 24" width="512" height="512"><path d="M14,7V.46c.91,.35,1.75,.88,2.46,1.59l3.48,3.49c.71,.71,1.24,1.55,1.59,2.46h-6.54c-.55,0-1-.45-1-1Zm4,10c0-2.21-1.79-4-4-4s-4,1.79-4,4c0,1.48,.8,2.77,2,3.46v2.81c0,.64,.78,.96,1.23,.51l.77-.77,.77,.77c.45,.45,1.23,.13,1.23-.51v-2.81c1.2-.69,2-1.98,2-3.46Zm3.98-7h-6.98c-1.65,0-3-1.35-3-3V.02c-.16-.01-.32-.02-.49-.02H7C4.24,0,2,2.24,2,5v14c0,2.76,2.24,5,5,5h3v-2.53c-1.23-1.1-2-2.69-2-4.47,0-3.31,2.69-6,6-6s6,2.69,6,6c0,1.78-.77,3.37-2,4.47v2.43c2.28-.46,4-2.48,4-4.9V10.49c0-.16-.01-.32-.02-.49Z"/></svg>
