<?xml version="1.0" encoding="UTF-8"?>
<svg xmlns="http://www.w3.org/2000/svg" id="Layer_1" data-name="Layer 1" viewBox="0 0 24 24" width="512" height="512"><path d="m17,24h-2c-.552,0-1-.447-1-1s.448-1,1-1h2c.552,0,1,.447,1,1s-.448,1-1,1Zm-5-1c0-.553-.448-1-1-1h-2c-.552,0-1,.447-1,1s.448,1,1,1h2c.552,0,1-.447,1-1Zm12,0c0-.553-.448-1-1-1h-2c-.552,0-1,.447-1,1s.448,1,1,1h2c.552,0,1-.447,1-1Zm-.818-22.209c-1.055-1.056-2.902-1.053-3.951-.004l-9.127,9.037,4.03,3.957,9.048-9.034c.528-.528.819-1.23.819-1.978s-.291-1.45-.818-1.978Zm-10.52,14.347h0c-.73,2.495-2.724,4.695-5.106,5.748-1.497.661-3.083,1.03-4.715,1.096-.215.009-.586,0-1.007,0-.773,0-1.213-.324-1.446-.596-.357-.417-.426-.946-.371-1.302.033-.211.133-.406.285-.558l8.38-8.297,3.979,3.908Z"/></svg>
