<?xml version="1.0" encoding="UTF-8"?>
<svg xmlns="http://www.w3.org/2000/svg" id="Layer_1" data-name="Layer 1" viewBox="0 0 24 24" width="512" height="512"><path d="M3.5,2.5c0-1.38,1.12-2.5,2.5-2.5s2.5,1.12,2.5,2.5-1.12,2.5-2.5,2.5-2.5-1.12-2.5-2.5Zm3.5,3.5h-2c-2.21,0-4,1.79-4,4v3c0,1.48,.81,2.77,2,3.46v6.54c0,.55,.45,1,1,1s1-.45,1-1v-6h2v6c0,.55,.45,1,1,1s1-.45,1-1v-6.54c1.19-.69,2-1.99,2-3.46v-3c0-2.21-1.79-4-4-4Zm11-1c1.38,0,2.5-1.12,2.5-2.5s-1.12-2.5-2.5-2.5-2.5,1.12-2.5,2.5,1.12,2.5,2.5,2.5Zm4.98,11.63l-.88-7.01c-.26-2.06-2.02-3.62-4.1-3.62s-3.84,1.56-4.1,3.62l-.88,7.01c-.11,.85,.16,1.71,.73,2.36,.34,.39,.77,.67,1.25,.84v3.17c0,.55,.45,1,1,1s1-.45,1-1v-3h2v3c0,.55,.45,1,1,1s1-.45,1-1v-3.17c.48-.17,.91-.46,1.25-.84,.57-.65,.83-1.5,.73-2.36Z"/></svg>
