<?xml version="1.0" encoding="UTF-8"?>
<svg xmlns="http://www.w3.org/2000/svg" id="Layer_1" data-name="Layer 1" viewBox="0 0 24 24" width="512" height="512"><path d="M23.24,21.65c-.89,1.41-2.45,2.35-4.24,2.35H5c-2.76,0-5-2.24-5-5v-2.59l3.98-3.98c.56-.56,1.48-.56,2.05,0l5.58,5.58c1.32,1.32,3.48,1.32,4.8,0l.58-.58c.55-.55,1.5-.55,2.05,0l4.21,4.21Zm-2.31-14.28l.7-1.74,1.74-.7c.38-.15,.63-.52,.63-.93s-.25-.78-.63-.93l-1.74-.7-.7-1.74c-.15-.38-.52-.63-.93-.63s-.78,.25-.93,.63l-.69,1.73-1.73,.66c-.38,.14-.64,.51-.65,.92,0,.41,.23,.78,.61,.94l1.76,.74,.7,1.75c.15,.38,.52,.63,.93,.63s.78-.25,.93-.63Zm3.07-.54v12.17c0,.19-.01,.37-.03,.55l-3.53-3.53c-1.34-1.34-3.53-1.34-4.88,0l-.58,.58c-.54,.54-1.43,.54-1.97,0l-5.58-5.58c-1.34-1.34-3.53-1.34-4.88,0L0,13.59V5C0,2.24,2.24,0,5,0h12.17l-.32,.8-.91,.34c-1.15,.44-1.92,1.52-1.94,2.75-.02,1.23,.7,2.34,1.83,2.82l.99,.42,.39,.98c.46,1.15,1.55,1.89,2.79,1.89s2.33-.74,2.79-1.89l.38-.95,.83-.33Zm-15-1.33c0-.83-.67-1.5-1.5-1.5s-1.5,.67-1.5,1.5,.67,1.5,1.5,1.5,1.5-.67,1.5-1.5Zm8,5c0-.46-.31-.86-.76-.97l-1.42-.35-.35-1.42c-.11-.44-.51-.76-.97-.76s-.86,.31-.97,.76l-.35,1.41-1.4,.32c-.45,.1-.77,.5-.77,.96,0,.46,.3,.86,.74,.98l1.43,.39,.36,1.43c.11,.44,.51,.76,.97,.76s.86-.31,.97-.76l.35-1.42,1.42-.35c.44-.11,.76-.51,.76-.97Z"/></svg>
