<?xml version="1.0" encoding="UTF-8"?>
<svg xmlns="http://www.w3.org/2000/svg" id="Layer_1" data-name="Layer 1" viewBox="0 0 24 24" width="512" height="512"><path d="M23.71,22.29l-1.71-1.71V11.62c.62-.71,1.01-1.63,1-2.64-.01-.08-.03-.17-.04-.25l-1.17-4.1c-.61-2.14-2.57-3.62-4.79-3.62v4c0,.55-.45,1-1,1s-1-.45-1-1V1h-6V5c0,.55-.45,1-1,1s-1-.45-1-1V1c-1.26,0-2.42,.48-3.31,1.28L1.71,.29C1.32-.1,.68-.1,.29,.29S-.1,1.32,.29,1.71L22.29,23.71c.2,.2,.45,.29,.71,.29s.51-.1,.71-.29c.39-.39,.39-1.02,0-1.41ZM14,12.44c.38-.22,.71-.5,1-.83,.73,.84,1.8,1.38,3,1.38h1c.35,0,.68-.06,1-.14v5.73l-6-6v-.14ZM17,1h0s-.01,0-.02,0h.02ZM7.02,1s-.01,0-.02,0h0s.02,0,.02,0Zm5.72,16l1.26,1.26v1.74c0,1.66-1.34,3-3,3H5c-1.66,0-3-1.34-3-3V11.62c-.62-.71-1-1.62-1-2.64,.01-.09,.03-.17,.04-.26l.76-2.67,6.3,6.3c-.61,.39-1.32,.64-2.1,.64h-1c-.35,0-.68-.06-1-.14v4.14H12.74Z"/></svg>
