<?xml version="1.0" encoding="UTF-8"?>
<svg xmlns="http://www.w3.org/2000/svg" id="Layer_1" data-name="Layer 1" viewBox="0 0 24 24" width="512" height="512"><path d="m22.109,4h-4.101c-.465-2.279-2.485-4-4.899-4h-2c-2.414,0-4.435,1.721-4.899,4H2.109c-.553,0-1,.448-1,1s.447,1,1,1h.86l1.296,13.479c.248,2.578,2.388,4.521,4.978,4.521h5.727c2.594,0,4.733-1.947,4.978-4.528l1.276-13.472h.886c.553,0,1-.448,1-1s-.447-1-1-1Zm-11-2h2c1.304,0,2.415.836,2.828,2h-7.656c.413-1.164,1.524-2,2.828-2Zm4.598,11.895c-.195.195-.451.293-.707.293s-.512-.098-.707-.293l-1.293-1.293v4.398c0,.552-.447,1-1,1s-1-.448-1-1v-4.398l-1.293,1.293c-.391.391-1.023.391-1.414,0-.391-.39-.391-1.023,0-1.414l1.613-1.614c1.156-1.155,3.035-1.153,4.188,0l1.613,1.614c.391.391.391,1.024,0,1.414Z"/></svg>
