<?xml version="1.0" encoding="UTF-8"?>
<svg xmlns="http://www.w3.org/2000/svg" id="Layer_1" data-name="Layer 1" viewBox="0 0 24 24" width="512" height="512"><path d="m20,23c0,.553-.447,1-1,1H1c-.553,0-1-.447-1-1,0-3.525,2.042-6.574,5-8.05v3.328c-.595.346-1,.984-1,1.723,0,1.105.895,2,2,2s2-.895,2-2c0-.738-.405-1.376-1-1.723v-4.046c.644-.147,1.312-.232,2-.232h2c.338,0,.671.022,1,.059v4.125c-1.161.414-2,1.514-2,2.816v1c0,.553.447,1,1,1s1-.447,1-1v-1c0-.552.448-1,1-1s1,.448,1,1v1c0,.553.447,1,1,1s1-.447,1-1v-1c0-1.302-.839-2.402-2-2.816v-3.659c3.49,1.239,6,4.565,6,8.475Zm2.631-14.647c.944-.991,1.428-2.27,1.363-3.601C23.867,2.173,21.827.133,19.248.006c-1.328-.068-2.611.419-3.603,1.363-1.046.996-1.646,2.397-1.646,3.845v2.458c0,1.6,1.037,2.328,2,2.328h2.782c1.449,0,2.852-.601,3.849-1.647Zm-10.631-.681v-2.458c0-1.299.357-2.568,1-3.677-1.062-.953-2.461-1.537-4-1.537C5.686,0,3,2.686,3,6s2.686,6,6,6c1.515,0,2.894-.566,3.95-1.491-.57-.709-.95-1.65-.95-2.837Z"/></svg>
