<?xml version="1.0" encoding="UTF-8"?>
<svg xmlns="http://www.w3.org/2000/svg" id="Layer_1" data-name="Layer 1" viewBox="0 0 24 24" width="512" height="512"><path d="m14.505,20.934c-.925.959-1.949,1.785-2.807,2.411-.593.433-1.301.656-2.021.656-.408,0-.819-.071-1.216-.217-2.567-.938-6.945-3.004-7.423-6.293L.039,10.623c-.259-1.785.804-3.519,2.528-4.124,1.013-.355,2.019-.645,3.008-.867l-.618,4.251c-.048.329-.069.654-.065.975-.715.11-1.233.804-1.427,1.714-.065.304.194.579.501.535l1.279-.183c.342,1.041.909,2.028,1.606,2.945-1.092.548-1.872,1.591-2.22,2.822-.13.461.394.829.792.563,1.116-.746,2.15-1.189,3.263-1.364.781.739,1.608,1.406,2.405,1.989.947.693,2.068,1.06,3.241,1.06.058,0,.115-.001.173-.003Zm-2.732-14.109l2.468.353c.307.044.566-.231.501-.535-.195-.914-.717-1.611-1.439-1.716-.723-.104-1.418.42-1.862,1.244-.147.273.024.61.331.654Zm12.187-1.264l-1,6.868c-.479,3.289-4.855,5.354-7.422,6.293-.393.144-.801.214-1.207.214-.731,0-1.453-.229-2.06-.674-2.198-1.609-5.815-4.799-5.336-8.093l.999-6.868c.259-1.78,1.77-3.149,3.593-3.255,1.759-.1,3.45-.042,5.027.18,1.577.222,3.218.628,4.877,1.21,1.725.605,2.788,2.34,2.529,4.125Zm-5.985,4.933c-2.261.525-3.976.281-5.999-.854-.431-.242-.944.177-.771.64.557,1.491,1.756,2.637,3.328,2.859,1.572.223,3.047-.541,4-1.819.294-.394-.079-.937-.558-.826Zm1.434-3.185c-.195-.914-.717-1.611-1.439-1.716-.723-.104-1.418.42-1.862,1.244-.147.273.024.61.331.654l2.468.353c.307.044.566-.231.501-.535Z"/></svg>
