<?xml version="1.0" encoding="UTF-8"?>
<svg xmlns="http://www.w3.org/2000/svg" id="Layer_1" data-name="Layer 1" viewBox="0 0 24 24" width="512" height="512"><path d="M19,1c0-.552,.447-1,1-1h3c.379,0,.725,.214,.895,.553,.169,.339,.133,.744-.095,1.047l-1.8,2.4h1c.553,0,1,.448,1,1s-.447,1-1,1h-3c-.379,0-.725-.214-.895-.553-.169-.339-.133-.744,.095-1.047l1.8-2.4h-1c-.553,0-1-.448-1-1Zm4.29,6.972s0,0,0,0c-.003,0-.003,0,0,0Zm-3.29,.028h3.299c.445,1.253,.701,2.596,.701,4,0,6.617-5.383,12-12,12S0,18.617,0,12,5.383,0,12,0c1.79,0,3.483,.405,5.01,1.11,.027,.719,.299,1.376,.747,1.88l-.156,.209c-.686,.914-.795,2.117-.283,3.144,.513,1.021,1.54,1.656,2.683,1.656ZM11,4c0,.552,.447,1,1,1h1l-1.8,2.4c-.228,.303-.264,.708-.095,1.047,.17,.339,.516,.553,.895,.553h3c.553,0,1-.448,1-1s-.447-1-1-1h-1l1.8-2.4c.228-.303,.264-.708,.095-1.047-.17-.339-.516-.553-.895-.553h-3c-.553,0-1,.448-1,1Zm-3.021,9.997c1.029,0,2.077-.5,2.807-1.341,.361-.417,.316-1.049-.101-1.411-.417-.361-1.048-.318-1.411,.1-.349,.402-.845,.652-1.295,.652h-.007c-.424-.002-.82-.219-1.179-.643-.357-.421-.986-.476-1.41-.117-.421,.356-.474,.988-.117,1.409,.938,1.108,1.982,1.346,2.693,1.351h.02Zm6.021,4.003c0-1.105-.895-2-2-2s-2,.895-2,2,.895,2,2,2,2-.895,2-2Zm4.685-6.755c-.417-.361-1.049-.318-1.411,.1-.349,.402-.845,.652-1.295,.652h-.007c-.424-.002-.82-.219-1.179-.643-.356-.421-.986-.476-1.41-.117-.421,.356-.474,.988-.117,1.409,.938,1.108,1.982,1.346,2.693,1.351h.02c1.029,0,2.077-.5,2.807-1.341,.361-.417,.316-1.049-.101-1.411Z"/></svg>
