<?xml version="1.0" encoding="UTF-8"?>
<svg xmlns="http://www.w3.org/2000/svg" id="Layer_1" data-name="Layer 1" viewBox="0 0 24 24" width="512" height="512"><path d="m17,0H6.967C4.224,0,2,2.229,2,4.973v12.052c.699-.527,1.525-.86,2.395-.964.199-.041.402-.061.605-.061h17V5c0-2.761-2.239-5-5-5Zm-7.304,7.528c-.114.285-.39.472-.697.472s-.583-.187-.697-.472l-.523-1.308-1.308-.523c-.285-.114-.472-.39-.472-.697s.187-.583.472-.697l1.308-.523.523-1.308c.114-.285.39-.472.697-.472s.583.187.697.472l.52,1.301,1.299.492c.287.108.479.381.484.687.005.307-.176.586-.459.705l-1.318.556-.526,1.316Zm7.563,3.899l-1.432.385-.357,1.43c-.111.445-.511.757-.97.757s-.859-.312-.97-.757l-.354-1.418-1.418-.354c-.445-.111-.757-.511-.757-.97s.312-.859.757-.97l1.418-.354.354-1.418c.111-.445.511-.757.97-.757s.859.312.97.757l.351,1.406,1.404.325c.447.103.767.498.775.956.008.459-.297.865-.74.984Zm-12.26,6.572h17v1c0,2.761-2.239,5-5,5H5c-1.657,0-3-1.343-3-3s1.343-3,3-3Z"/></svg>
