<?xml version="1.0" encoding="UTF-8"?>
<svg xmlns="http://www.w3.org/2000/svg" id="Layer_1" data-name="Layer 1" viewBox="0 0 24 24" width="512" height="512"><path d="m22.853,2.275c-.805-.195-1.616.299-1.811,1.104l-1.8,6.952c-.117.458-.575.742-1.037.643-.487-.105-.79-.593-.667-1.076l2.077-8.044c.195-.805-.299-1.616-1.104-1.811-.805-.195-1.616.299-1.811,1.104l-2.34,9.206c-.071.28-.467.283-.543.005L11.308,1.146c-.196-.805-1.007-1.299-1.812-1.103-.805.196-1.299,1.007-1.103,1.812l2.167,7.977c.118.433-.124.882-.55,1.023-.454.15-.941-.107-1.075-.566l-1.978-6.813c-.196-.805-1.007-1.299-1.812-1.103-.805.196-1.299,1.007-1.103,1.812l2.78,10.919c.139.58-.541,1.003-.999.622l-2.429-2.222c-.088-.088-.24-.201-.441-.333-.843-.47-1.954-.284-2.584.561-.604.81-.437,1.965.276,2.68l5.494,5.669c1.189,1.227,2.825,1.92,4.533,1.92h4.537c3.023,0,5.574-2.249,5.953-5.248l.631-4.998,2.164-9.667c.195-.805-.299-1.616-1.104-1.811Z"/></svg>
