<?xml version="1.0" encoding="UTF-8"?>
<svg xmlns="http://www.w3.org/2000/svg" id="Layer_1" data-name="Layer 1" viewBox="0 0 24 24" width="512" height="512"><path d="M15.04,19.3c.63,.63,.18,1.7-.7,1.7H5c-2.76,0-5-2.24-5-5V8c0-.49,.07-.96,.2-1.41,.22-.74,1.13-1,1.68-.45l1.86,1.86c-.47,.77-.74,1.71-.74,2.75v2.5c0,2.71,1.84,4.75,4.28,4.75h.44c1.6,0,2.98-.9,3.71-2.31l3.61,3.61Zm8.96-3.3V8c0-2.76-2.24-5-5-5H5c-.19,0-.37,.01-.56,.03L1.71,.29C1.32-.1,.68-.1,.29,.29S-.1,1.32,.29,1.71L5.17,6.58c.62-.37,1.34-.58,2.12-.58h.36c1.19,0,2.34,.59,3.14,1.63,.34,.44,.26,1.06-.17,1.4-.44,.34-1.06,.26-1.4-.17-.43-.55-.99-.86-1.57-.86h-.36c-.21,0-.42,.03-.61,.08l6.48,6.48c-.1-.42-.15-.86-.15-1.32v-2.5c0-2.71,1.84-4.75,4.28-4.75h.36c1.19,0,2.34,.59,3.14,1.63,.34,.44,.26,1.06-.17,1.4-.44,.34-1.06,.26-1.4-.17-.43-.55-.99-.86-1.57-.86h-.36c-1.34,0-2.28,1.13-2.28,2.75v2.5c0,1.62,.94,2.75,2.28,2.75h.36c.58,0,1.14-.3,1.57-.86,.34-.44,.97-.51,1.4-.17,.44,.34,.51,.97,.17,1.4-.81,1.03-1.95,1.63-3.14,1.63h-.36c-.26,0-.52-.02-.77-.07l5.78,5.78c.2,.2,.45,.29,.71,.29s.51-.1,.71-.29c.39-.39,.39-1.02,0-1.41l-2.06-2.06c1.41-.89,2.35-2.45,2.35-4.24ZM5,13.25c0,1.62,.94,2.75,2.28,2.75h.44c1.06,0,1.89-.72,2.17-1.85l-4.67-4.67c-.14,.37-.22,.8-.22,1.27v2.5Z"/></svg>
