<?xml version="1.0" encoding="UTF-8"?>
<svg xmlns="http://www.w3.org/2000/svg" id="Layer_1" data-name="Layer 1" viewBox="0 0 24 24" width="512" height="512"><path d="M24,18v2c0,2.21-1.79,4-4,4H4c-2.21,0-4-1.79-4-4v-2c0-2.21,1.79-4,4-4h7v-4h-1.45c-.69,0-1.04-.83-.55-1.32l2.45-2.45c.3-.3,.79-.3,1.1,0l2.45,2.45c.49,.49,.14,1.32-.55,1.32h-1.45v4h7c2.21,0,4,1.79,4,4Zm0-14v2c0,2.21-1.79,4-4,4h-2c-.55,0-1-.45-1-1v-1c0-.27,.11-.52,.29-.71l4.38-4.38c-.36-.55-.97-.91-1.68-.91h-.59l-3.35,3.35c-.2,.2-.45,.29-.71,.29s-.51-.1-.71-.29c-.39-.39-.39-1.02,0-1.41l1.93-1.93h-3.17l-7.71,7.71c-.19,.19-.44,.29-.71,.29h-1C1.79,10,0,8.21,0,6v-2C0,1.79,1.79,0,4,0H20c2.21,0,4,1.79,4,4ZM2,4v.59l2.59-2.59h-.59c-1.1,0-2,.9-2,2ZM10.59,2h-3.17L2.32,7.09c.36,.55,.97,.91,1.68,.91h.59L10.59,2Zm11.41,3.41l-2.59,2.59h.59c1.1,0,2-.9,2-2v-.59Z"/></svg>
