<?xml version="1.0" encoding="UTF-8"?>
<svg xmlns="http://www.w3.org/2000/svg" id="Layer_1" data-name="Layer 1" viewBox="0 0 24 24" width="512" height="512"><path d="M23.13,18.09l-1.61,1.61c-.2,.2-.45,.29-.71,.29s-.51-.1-.71-.29c-.39-.39-.39-1.02,0-1.41l1.29-1.29h-7.4c-.55,0-1-.45-1-1s.45-1,1-1h7.4l-1.29-1.29c-.39-.39-.39-1.02,0-1.41s1.02-.39,1.41,0l1.61,1.61c1.15,1.15,1.15,3.03,0,4.19ZM13,8h6.54c-.35-.91-.88-1.75-1.59-2.46l-3.48-3.49c-.71-.71-1.55-1.24-2.46-1.59V7c0,.55,.45,1,1,1Zm4.81,11h-3.81c-1.65,0-3-1.35-3-3s1.35-3,3-3h3.81c0-.77,.29-1.54,.88-2.12,.37-.37,.82-.63,1.29-.76v-.12h-6.98c-1.65,0-3-1.35-3-3V.02c-.16-.01-.32-.02-.49-.02H5C2.24,0,0,2.24,0,5v14c0,2.76,2.24,5,5,5H15c1.81,0,3.4-.97,4.28-2.42-.21-.13-.41-.28-.59-.46-.58-.58-.88-1.35-.88-2.12Z"/></svg>
