<?xml version="1.0" encoding="UTF-8"?>
<svg xmlns="http://www.w3.org/2000/svg" id="Layer_1" data-name="Layer 1" viewBox="0 0 24 24" width="512" height="512"><path d="m19,0h-4c-2.757,0-5,2.243-5,5v14c0,2.757,2.243,5,5,5h4c2.757,0,5-2.243,5-5V5c0-2.757-2.243-5-5-5Zm-2,5c1.105,0,2,.895,2,2s-.895,2-2,2-2-.895-2-2,.895-2,2-2Zm0,15c-2.206,0-4-1.794-4-4s1.794-4,4-4,4,1.794,4,4-1.794,4-4,4Zm-9-5.723v3.445c-.295.172-.634.277-1,.277-1.105,0-2-.895-2-2s.895-2,2-2c.366,0,.705.106,1,.277Zm2.008,9.62c-.326.067-.663.102-1.008.102h-4c-2.757,0-5-2.243-5-5V5C0,2.243,2.243,0,5,0h4c.345,0,.682.035,1.008.102-1.24,1.264-2.008,2.992-2.008,4.898v.277c-.295-.172-.634-.277-1-.277-1.105,0-2,.895-2,2s.895,2,2,2c.366,0,.705-.106,1-.277v3.419c-.322-.084-.653-.142-1-.142-2.206,0-4,1.794-4,4s1.794,4,4,4c.368,0,.717-.066,1.055-.159.189,1.571.898,2.983,1.952,4.057Zm4.992-7.898c0-1.105.895-2,2-2s2,.895,2,2-.895,2-2,2-2-.895-2-2Z"/></svg>
