<?xml version="1.0" encoding="UTF-8"?>
<svg xmlns="http://www.w3.org/2000/svg" id="Layer_1" data-name="Layer 1" viewBox="0 0 24 24" width="512" height="512"><path d="m16.459,23.809c-2.553-.881-4.437-3.865-4.437-7.402,0-3.896,2.286-7.12,5.234-7.602.243.346,1.905,2.965-.134,7.166-1.722,3.549-1.26,6.278-.663,7.838Zm3.126-14.803c.597,1.56,1.059,4.289-.663,7.838-2.039,4.201-.377,6.82-.134,7.166,2.948-.482,5.234-3.706,5.234-7.602,0-3.537-1.884-6.52-4.437-7.402Zm-12.235-1.153c-4.249,1.471-5.141,4.292-5.303,5.015.907.681,2.031,1.042,3.278,1.042.323,0,.654-.024.991-.072,1.799-.257,3.58-1.188,5.014-2.623,2.528-2.528,3.317-6.001,2.142-8.464-.723,1.561-2.378,3.806-6.121,5.103Zm-.655-1.891c4.253-1.473,5.143-4.298,5.304-5.017C10.855.088,9.365-.256,7.729-.022c-1.799.257-3.58,1.188-5.014,2.623C.186,5.129-.603,8.602.573,11.065c.723-1.561,2.378-3.806,6.121-5.103Z"/></svg>
