<?xml version="1.0" encoding="UTF-8"?>
<svg xmlns="http://www.w3.org/2000/svg" id="Layer_1" data-name="Layer 1" viewBox="0 0 24 24" width="512" height="512"><path d="m18.829,2.416C16.815.617,14.111-.245,11.403.063,7.174.539,3.898,3.976,3.095,8.15c-.13.673-.078,1.594-.078,1.908s.264,1.308.385,1.808c.327,1.354.61,2.523.61,6.131-.011,1.916.873,3.678,2.426,4.835,1.038.773,2.304,1.163,3.569,1.163,1.159,0,2.318-.327,3.303-.985.89-.596,1.603-1.405,2.061-2.34.797-1.626,1.633-2.714,2.632-3.425,2.503-1.781,3.998-4.675,3.998-7.743,0-2.701-1.156-5.284-3.171-7.085Zm-1.829,8.085c-.553,0-1-.448-1-1,0-1.93-1.57-3.5-3.5-3.5-1.765,0-3.247,1.282-3.492,2.999,1.65.005,2.992,1.35,2.992,3.001s-1.346,3-3,3c-.553,0-1-.448-1-1s.447-1,1-1,1-.449,1-1-.448-1-1-1c-.97,0-1.994-.812-1.994-2.111.309-2.787,2.671-4.889,5.494-4.889,3.032,0,5.5,2.467,5.5,5.5,0,.552-.447,1-1,1Z"/></svg>
