<?xml version="1.0" encoding="UTF-8"?>
<svg xmlns="http://www.w3.org/2000/svg" id="Layer_1" data-name="Layer 1" viewBox="0 0 24 24" width="512" height="512"><path d="M17,5c-.429,0-.826-.279-.957-.711-.373-1.234-1.111-1.974-2.323-2.329-.53-.155-.834-.711-.679-1.241,.156-.53,.713-.833,1.241-.679,1.843,.54,3.114,1.809,3.677,3.671,.16,.529-.14,1.087-.668,1.247-.096,.029-.194,.043-.29,.043ZM4.96,22.281c.155-.53-.149-1.085-.679-1.241-1.212-.355-1.951-1.095-2.323-2.329-.16-.529-.718-.825-1.247-.668-.529,.16-.828,.718-.668,1.247,.562,1.862,1.834,3.131,3.677,3.671,.094,.027,.188,.041,.281,.041,.433,0,.832-.283,.959-.72ZM22.957,7c0-1.105-.895-2-2-2s-2,.895-2,2v2.853L10.518,1.439c-.586-.586-1.535-.586-2.121,0-.586,.585-.586,1.536,0,2.121l5.569,5.552c.242,.243,.242,.637,0,.879s-.638,.243-.881,0c-.01-.01-7.566-7.552-7.566-7.552-.586-.586-1.535-.586-2.121,0-.586,.585-.586,1.536,0,2.121l7.572,7.549c.242,.243,.242,.637,0,.879-.243,.243-.638,.243-.881,0-.005-.005-6.569-6.55-6.569-6.55-.586-.586-1.535-.586-2.121,0-.586,.585-.586,1.536,0,2.121,0,0,6.571,6.542,6.574,6.545,.243,.243,.243,.638,0,.881s-.636,.243-.879,0l-3.573-3.548c-.585-.586-1.535-.586-2.121,0s-.586,1.535,0,2.121l6.929,6.904c1.69,1.69,3.911,2.535,6.131,2.535s4.441-.845,6.131-2.535c1.528-1.527,2.369-3.559,2.369-5.719V7Z"/></svg>
