<?xml version="1.0" encoding="UTF-8"?>
<svg xmlns="http://www.w3.org/2000/svg" id="Layer_1" data-name="Layer 1" viewBox="0 0 24 24" width="512" height="512"><path d="M15,5.97l1.08,3.03h-2.16l1.08-3.03ZM5,16h1V.1C3.67,.58,2,2.62,2,5v12.02c.7-.53,1.53-.86,2.4-.96,.2-.04,.4-.06,.6-.06Zm-3,5c0,1.66,1.34,3,3,3h12c2.76,0,5-2.24,5-5v-1H5c-1.66,0-3,1.34-3,3ZM22,5v11H8V0h9c2.76,0,5,2.24,5,5Zm-2.84,6.66l-2.74-7.69c-.22-.6-.77-.99-1.41-.99s-1.19,.39-1.41,1l-2.74,7.69c-.23,.65,.25,1.34,.94,1.34h0c.42,0,.8-.27,.94-.66l.48-1.34h3.59l.48,1.34c.14,.4,.52,.66,.94,.66,.69,0,1.17-.68,.94-1.34Z"/></svg>
