<?xml version="1.0" encoding="UTF-8"?>
<svg xmlns="http://www.w3.org/2000/svg" id="Layer_1" data-name="Layer 1" viewBox="0 0 24 24" width="512" height="512"><path d="M22,13h-7.5c-1.933,0-3.5-1.567-3.5-3.5h0c0-1.933,1.567-3.5,3.5-3.5h7.5c1.105,0,2,.895,2,2v3c0,1.105-.895,2-2,2Zm-12.977-4c.254-2.799,2.613-5,5.477-5h4.971C17.022,1.027,13.319-.427,9.452,.106,4.786,.748,1.026,4.415,.181,9H9.023Zm5.477,6c-2.512,0-4.637-1.694-5.292-4H0c.002,2.415,.788,4.752,2.26,6.674,.477,.624,.74,1.461,.74,2.355v.971c0,1.654,1.346,3,3,3h7c1.654,0,3-1.346,3-3h.494c2.499,0,4.629-1.868,4.957-4.345l.219-1.655h-7.169Z"/></svg>
