<?xml version="1.0" encoding="UTF-8"?>
<svg xmlns="http://www.w3.org/2000/svg" id="Layer_1" data-name="Layer 1" viewBox="0 0 24 24" width="512" height="512"><path d="m24,19c0,.553-.448,1-1,1h-3v3c0,.553-.448,1-1,1s-1-.447-1-1v-3h-3c-.552,0-1-.447-1-1s.448-1,1-1h3v-3c0-.553.448-1,1-1s1,.447,1,1v3h3c.552,0,1,.447,1,1ZM5.5,7h0c1.93,0,3.5-1.57,3.5-3.5S7.43,0,5.5,0h0C3.57,0,2,1.57,2,3.5s1.57,3.5,3.5,3.5Zm10,0c1.93,0,3.5-1.57,3.5-3.5s-1.57-3.5-3.5-3.5-3.5,1.57-3.5,3.5,1.57,3.5,3.5,3.5Zm-8.5,4.5c0,1.93,1.57,3.5,3.5,3.5s3.5-1.57,3.5-3.5-1.57-3.5-3.5-3.5-3.5,1.57-3.5,3.5Zm-2,0c0-1.293.451-2.481,1.201-3.421-.23-.025-.463-.044-.701-.044C2.436,8.035-.016,10.094,0,13.028c.003.541.465.972,1.006.972h4.602c-.385-.751-.607-1.599-.607-2.5Zm7,7.5c0-.964.465-1.814,1.174-2.363-.796-.386-1.709-.602-2.674-.602-3.064,0-5.516,2.059-5.5,4.993.003.541.465.972,1.006.972h8.988s.001,0,.002,0c-1.653-.002-2.996-1.347-2.996-3Zm2.799-10.921c.75.94,1.201,2.128,1.201,3.421,0,.901-.222,1.749-.607,2.5h.792c.414-1.161,1.514-2,2.816-2,.765,0,1.457.297,1.987.77-.13-2.794-2.577-4.734-5.487-4.734-.239,0-.471.019-.701.043Z"/></svg>
