<?xml version="1.0" encoding="UTF-8"?>
<svg xmlns="http://www.w3.org/2000/svg" id="Layer_1" data-name="Layer 1" viewBox="0 0 24 24" width="512" height="512"><path d="m10,24H2.465c-1.082,0-1.998-.665-2.335-1.693s.009-2.107.881-2.748l7.804-5.729c.233-.172.203-.396.164-.515-.039-.117-.146-.315-.434-.315H1.011C.458,13,.011,12.552.011,12s.448-1,1-1h7.535c1.082,0,1.998.665,2.335,1.693.337,1.029-.009,2.108-.881,2.749l-7.804,5.729c-.233.172-.203.396-.164.514s.146.315.434.315h7.535c.552,0,1,.447,1,1s-.448,1-1,1Zm14.002-3c0-.553-.448-1-1-1h-3.805l4.02-3.517c.684-.503.956-1.349.691-2.155s-.983-1.328-1.832-1.328h-4.077c-.552,0-1,.447-1,1s.448,1,1,1h3.88l-4.02,3.517c-.684.503-.956,1.349-.691,2.155s.983,1.328,1.832,1.328h4.002c.552,0,1-.447,1-1Zm-5.002-12c0-.552-.448-1-1-1l-4.995-.042,5.155-4.236c.731-.537,1.021-1.441.739-2.304-.282-.862-1.05-1.419-1.957-1.419h-4.938c-.552,0-1,.448-1,1s.448,1,1,1l4.995.042-5.156,4.236c-.731.537-1.021,1.441-.739,2.304.283.862,1.051,1.418,1.957,1.418h4.938c.552,0,1-.448,1-1Z"/></svg>
