<?xml version="1.0" encoding="UTF-8"?>
<svg xmlns="http://www.w3.org/2000/svg" id="Layer_1" data-name="Layer 1" viewBox="0 0 24 24">
  <path d="m19.725,7.985l-3.71-3.71,3.507-3.507c1.024-1.024,2.685-1.024,3.71,0,1.024,1.024,1.024,2.685,0,3.71l-3.507,3.507ZM1.065,19.248c-.677.737-1.065,1.694-1.065,2.699v2.053h2.053c1.004,0,1.962-.388,2.699-1.065l-3.686-3.686Zm1.402-1.426l3.71,3.71,5.547-5.547-3.71-3.71-5.547,5.547Zm12.094-4.675l3.749-3.749-3.71-3.71-3.749,3.749L1.707.293C1.316-.098.684-.098.293.293S-.098,1.316.293,1.707l22,22c.195.195.451.293.707.293s.512-.098.707-.293c.391-.391.391-1.023,0-1.414l-9.145-9.145Z"/>
</svg>
