<?xml version="1.0" encoding="UTF-8"?>
<svg xmlns="http://www.w3.org/2000/svg" id="Layer_1" data-name="Layer 1" viewBox="0 0 24 24">
  <path d="m23,1c-.552,0-1,.447-1,1v6.591l-6.184-4.848c-1.157-.851-2.671-.974-3.95-.325-1.284.65-2.056,1.892-2.073,3.326l-3.771-3.001c-1.175-.863-2.651-.984-3.949-.325-1.298.658-2.073,1.92-2.073,3.375v10.421c0,1.455.775,2.717,2.073,3.375,1.278.649,2.79.525,3.98-.348l3.74-2.983c.016,1.437.788,2.68,2.072,3.331.529.269,1.121.411,1.712.411.806,0,1.58-.254,2.263-.755l6.16-4.838v6.593c0,.553.448,1,1,1s1-.447,1-1V2c0-.553-.448-1-1-1Z"/>
</svg>
