<?xml version="1.0" encoding="UTF-8"?>
<svg xmlns="http://www.w3.org/2000/svg" id="Layer_1" data-name="Layer 1" viewBox="0 0 24 24" width="512" height="512"><path d="M11.96,17.86s.02,0,.04,0c1.99,0,3.72-1.08,4.67-2.67-.32-.04-.66-.05-1.04-.05-1.73,0-3.18,1.15-3.67,2.72Z"/><path d="M12,0C5.38,0,0,5.38,0,12s5.38,12,12,12,12-5.38,12-12S18.62,0,12,0ZM5,9c0-1.65,1.35-3,3-3s3,1.35,3,3v1c0,.55-.45,1-1,1s-1-.45-1-1v-.65c-.15,.09-.31,.15-.5,.15-.55,0-1-.45-1-1,0-.15,.04-.28,.09-.41-.35,.16-.59,.5-.59,.91v1c0,.55-.45,1-1,1s-1-.45-1-1v-1Zm13.97,5.45c-.88,3.02-3.66,5.22-6.97,5.22s-6.08-2.21-6.97-5.22c-.17-.57,.29-1.13,.88-1.13h12.17c.59,0,1.05,.56,.88,1.13Zm.03-4.45c0,.55-.45,1-1,1s-1-.45-1-1v-.65c-.15,.09-.31,.15-.5,.15-.55,0-1-.45-1-1,0-.15,.04-.28,.09-.41-.35,.16-.59,.5-.59,.91v1c0,.55-.45,1-1,1s-1-.45-1-1v-1c0-1.65,1.35-3,3-3s3,1.35,3,3v1Z"/></svg>
