<?xml version="1.0" encoding="UTF-8"?>
<svg xmlns="http://www.w3.org/2000/svg" id="Layer_1" data-name="Layer 1" viewBox="0 0 24 24" width="512" height="512"><path d="M11.5,10h7c2.49,0,4.5,2.01,4.5,4.5v3.5H7v-3.5c0-2.49,2.01-4.5,4.5-4.5Zm10.5,10h-3.59c-.27,0-.52,.11-.71,.29l-.41,.41c-.19,.19-.44,.29-.71,.29h-3.17c-.27,0-.52-.11-.71-.29l-.41-.41c-.19-.19-.44-.29-.71-.29h-3.59c-1.1,0-2,.9-2,2s.9,2,2,2h14c1.1,0,2-.9,2-2s-.9-2-2-2ZM11.5,8h6.47c-.13-1.24-.72-2.39-1.67-3.22l-.3-.27V1c0-.55-.45-1-1-1s-1,.45-1,1v1.75l-1.92-1.69C10.27-.36,7.73-.36,5.92,1.06L1.92,4.19c-1.22,.95-1.92,2.39-1.92,3.94v5.87c0,2.21,1.79,4,4,4h1v-3.5c0-3.58,2.92-6.5,6.5-6.5Z"/></svg>
