<?xml version="1.0" encoding="UTF-8"?>
<svg xmlns="http://www.w3.org/2000/svg" id="Layer_1" data-name="Layer 1" viewBox="0 0 24 24" width="512" height="512"><path d="M23.707,22.293l-3.732-3.732c1.947-2.052,3.025-4.721,3.025-7.561,0-2.938-1.144-5.701-3.222-7.778C17.7,1.145,14.938,0,12,0c-2.84,0-5.51,1.078-7.561,3.025L1.707,.293C1.316-.098,.684-.098,.293,.293S-.098,1.316,.293,1.707L22.293,23.707c.195,.195,.451,.293,.707,.293s.512-.098,.707-.293c.391-.391,.391-1.023,0-1.414ZM3.158,7.321c-.248-.248-.607-.347-.947-.264-.34,.084-.611,.34-.715,.674-1.215,3.917-.171,8.149,2.754,11.073l3.943,3.643c1.023,1.001,2.375,1.552,3.807,1.552s2.784-.551,3.787-1.533l.545-.503c.2-.185,.316-.442,.321-.714,.005-.272-.101-.535-.293-.727L3.158,7.321Z"/></svg>
