<?xml version="1.0" encoding="UTF-8"?>
<svg xmlns="http://www.w3.org/2000/svg" id="Layer_1" data-name="Layer 1" viewBox="0 0 24 24" width="512" height="512"><path d="m19.503,11.003h-.503c0-1.655-1.346-3-3-3H4c-1.654,0-3,1.346-3,3v8c0,2.757,2.243,5,5,5h8c2.414,0,4.435-1.721,4.899-4h.601c1.93,0,3.5-1.57,3.5-3.499l.003-2.001c0-1.93-1.57-3.5-3.5-3.5Zm1.497,5.5c0,.827-.673,1.5-1.5,1.5h-.5v-5h.503c.827,0,1.5.673,1.5,1.498l-.003,2.001ZM8.76,3.415l2.829-2.829c.779-.779,2.048-.78,2.828,0l2.829,2.83c.378.377.586.879.586,1.414,0,.428-.139.832-.387,1.172h-8.883c-.568-.782-.506-1.882.198-2.586Zm-5.757,2.586s0,0,0,0V2c0-1.103.897-2,2-2h4c.107,0,.209.015.312.031l-1.969,1.969c-1.082,1.082-1.395,2.63-.976,4h-3.367Z"/></svg>
