<?xml version="1.0" encoding="UTF-8"?>
<svg xmlns="http://www.w3.org/2000/svg" id="Layer_1" data-name="Layer 1" viewBox="0 0 24 24" width="512" height="512"><path d="m11,14.848v4.152c0,1.926-1.295,3.612-3.156,4.107l-2.637.703c-.352.12-.777.189-1.204.19h-.006c-1.049,0-2.078-.428-2.826-1.176-.755-.753-1.17-1.757-1.17-2.827,0-1.402.16-2.805.475-4.169l1.656-7.177c.628-2.723,3.053-4.651,5.847-4.651h3.022v6.396c0,1.725-1.1,3.25-2.735,3.795l-2.581.86c-.523.175-.807.741-.632,1.265.14.419.529.684.948.684.104,0,.211-.017.316-.052l2.581-.86c.8-.267,1.503-.702,2.103-1.241Zm12.525.981l-1.656-7.177c-.628-2.723-3.053-4.651-5.847-4.651h-3.022v6.396c0,1.725,1.1,3.25,2.735,3.795l2.581.86c.523.175.807.741.632,1.265-.14.419-.529.684-.948.684-.104,0-.211-.017-.316-.052l-2.581-.86c-.8-.267-1.503-.702-2.103-1.241v4.155c0,1.926,1.296,3.611,3.157,4.105l2.578.685c.412.138.872.234,1.269.208,1.049,0,2.078-.428,2.826-1.176.755-.753,1.17-1.757,1.17-2.827,0-1.402-.16-2.805-.475-4.169ZM13,1c0-.552-.447-1-1-1s-1,.448-1,1v3h2V1Z"/></svg>
