<?xml version="1.0" encoding="UTF-8"?>
<svg xmlns="http://www.w3.org/2000/svg" id="Layer_1" data-name="Layer 1" viewBox="0 0 24 24">
  <path d="m6.172,5.189c-.112.42-.172.859-.172,1.311,0,3.038,2.686,5.5,6,5.5s6-2.462,6-5.5c0-.461-.062-.908-.179-1.336.145-.07.297-.193.463-.381,1.05-1.195.933-3.015-.262-4.066-1.195-1.05-3.015-.933-4.066.262-.081.092-.147.179-.2.261-.556-.156-1.145-.24-1.756-.24-.616,0-1.21.085-1.769.243-.067-.123-.169-.256-.313-.399-1.125-1.125-2.949-1.125-4.074,0-1.125,1.125-1.125,2.949,0,4.074.117.117.225.206.328.271Zm5.828,1.811c.828,0,1.5.448,1.5,1s-.672,1-1.5,1-1.5-.448-1.5-1,.672-1,1.5-1Zm-5.629,12.286s1.571,2.095,1.571,4.714h-1.562c-1.978,0-3.841-.932-5.028-2.514l-.775-1.033c-.822-1.096-.782-2.686.226-3.612,1.16-1.066,2.953-.878,3.875.351l1.693,2.095Zm17.053,1.165l-.776,1.035c-1.187,1.583-3.05,2.514-5.028,2.514h-1.583c0-3.667,1.531-4.897,1.531-4.897l1.755-1.912c.922-1.229,2.716-1.416,3.876-.35,1.008.926,1.047,2.515.226,3.609Zm-9.388,3.549h-4.093c0-3.194-1.77-5.646-2.016-5.971l-1.648-2.039c-.782-1.042-1.975-1.708-3.272-1.828-.149-.014-.297-.019-.445-.018l-2.036-2.953c-.868-1.157-.633-2.799.524-3.667.909-.682,2.117-.683,3.014-.091.491,3.697,3.864,6.567,7.938,6.567s7.447-2.87,7.938-6.567c.897-.592,2.105-.59,3.014.091,1.157.868,1.392,2.51.524,3.667l-2.036,2.953c-.148,0-.297.006-.445.02-1.26.115-2.422.747-3.204,1.737l-1.631,1.778c-.583.544-2.124,2.355-2.124,6.321Z"/>
</svg>
