<?xml version="1.0" encoding="UTF-8"?>
<svg xmlns="http://www.w3.org/2000/svg" id="Layer_1" data-name="Layer 1" viewBox="0 0 24 24" width="512" height="512"><path d="M7.24,8h6.75c-.6,.89-1.39,2.16-2.45,4H4.98c.87-1.59,1.61-2.9,2.26-4Zm10.76-2h5.86c-.29-1.52-1.05-2.92-2.23-4.01-1.03-.95-2.28-1.58-3.63-1.84V6ZM1.41,18h6.69c.76-1.27,1.47-2.46,1.78-3.02,.19-.34,.36-.66,.54-.98H3.82c-.74,1.24-1.69,2.81-2.41,4ZM18.09,8s0,.01,0,.02h0c-.18,.38-.27,.79-.27,1.22,0,1.33,.89,2.76,2.84,2.76,1.26,0,2.4-.77,2.83-1.93,.25-.68,.41-1.37,.47-2.07h-5.86Zm-2.46-2c.12-.07,.24-.13,.36-.17V.03c-1.88,.14-3.62,.96-4.91,2.35-.4,.42-1.12,1.21-2.64,3.62h7.19ZM.26,20c-.27,.62-.33,1.3-.13,1.96,.23,.75,.73,1.36,1.42,1.72,.43,.22,.88,.33,1.33,.33,1,0,1.97-.53,2.49-1.47,.14-.25,.77-1.29,1.52-2.53H.26Z"/></svg>
