<?xml version="1.0" encoding="UTF-8"?>
<svg xmlns="http://www.w3.org/2000/svg" id="Layer_1" data-name="Layer 1" viewBox="0 0 24 24">
  <path d="m9,24c.041,0-.041,0,0,0h0ZM2.009,7.017l8.984-.017c.723,0,1.157-.57.971-1.268C11.364,3.489,9.006,1.573,7.389.241c-.541-.446-1.347-.244-1.641.393-.835,1.808-.161,4.396-1.372,4.396-.5,0-.697-1.121-.876-1.593-.184-.486-.833-.595-1.153-.185-.448.575-1.055,1.563-1.303,2.493-.188.703.238,1.272.965,1.272ZM23,0h-1.024c-1.323,0-2.476.849-2.865,2.113-.072.234-.152.496-.239.782,0,0-.996-.308-1.243-.392-.522-.179-1.091.1-1.27.624-.179.522.101,1.091.623,1.269.261.089,1.319.417,1.319.417-.228.774-.476,1.622-.734,2.508,0,0-1.162-.36-1.415-.445-.523-.176-1.091.103-1.269.625-.177.523.104,1.091.626,1.268.265.09,1.498.472,1.498.472-.259.889-.519,1.783-.773,2.651-.834,2.366-2.229,5.109-3.759,5.109-1.318,0-1.472-1.049-1.476-1.5v-3.488c.012-.461.189-1.012.976-1.012.553,0,1-.448,1-1s-.447-1-1-1H.976C.423,9-.024,9.448-.024,10s.447,1,1,1c.351,0,.606.079.761.235.221.223.266.609.264.765v4.332c0,2.976,1.223,5.406,3.354,6.666,1.078.636,2.364.983,3.646,1.003,3.188,0,6.146-1.937,7.102-4.745.383-1.124,1.158-3.74,2.012-6.662.407-1.161,2.443-8.388,2.907-9.89.13-.42.514-.703.955-.703h1.024c.553,0,1-.448,1-1s-.447-1-1-1Z"/>
</svg>
