<?xml version="1.0" encoding="UTF-8"?>
<svg xmlns="http://www.w3.org/2000/svg" id="Layer_1" data-name="Layer 1" viewBox="0 0 24 24" width="512" height="512"><path d="m20.979,15.047c-.16,1.12-1.119,1.953-2.251,1.953h-.813c.367-1.185.634-2.517.812-4h.476c1.137,0,1.937.921,1.776,2.047ZM8.367,3.053c-2.552.463-4.486,2.414-5.123,4.839,1.924-1.372,4.452-2.222,7.755-2.62-.18-2.638-2.592-2.227-2.633-2.22Zm13.917,4.947h-5.285c0,7.523-1.439,11.813-5.203,14.043,0,0-.827.487-1.847.868-1.581.576-3.951,1.089-5.963,1.089-1.05,0-2.063-.418-2.816-1.171-.817-.817-1.241-1.941-1.162-3.085.154-2.238.504-4.116,1.081-5.698.41-1.152.873-1.852.873-1.852,2.231-3.757,6.521-5.194,14.037-5.194V1.715c0-1.417,1.614-2.215,2.751-1.369.968.72,1.586,1.676,1.82,3.082,1.407.234,2.362.852,3.082,1.82.845,1.137.047,2.751-1.369,2.751Zm-15.319,10.546l-1.5-1.5c-.391-.391-1.023-.391-1.414,0s-.391,1.023,0,1.414l1.5,1.5c.195.195.451.293.707.293s.512-.098.707-.293c.391-.391.391-1.023,0-1.414Zm3.751-2.25l-3.001-3c-.391-.391-1.023-.391-1.414,0s-.391,1.024,0,1.414l3.001,3c.195.195.451.293.707.293s.512-.098.707-.293c.391-.391.391-1.024,0-1.414Zm2.25-3.75l-1.5-1.5c-.391-.391-1.023-.391-1.414,0s-.391,1.023,0,1.414l1.5,1.5c.195.195.451.293.707.293s.512-.098.707-.293c.391-.391.391-1.023,0-1.414Z"/></svg>
