<?xml version="1.0" encoding="UTF-8"?>
<svg xmlns="http://www.w3.org/2000/svg" id="Layer_1" data-name="Layer 1" viewBox="0 0 24 24" width="512" height="512"><path d="M10,10c0-1.1,.9-2,2-2s2,.9,2,2-.9,2-2,2-2-.9-2-2Zm14-3v10c0,2.76-2.24,5-5,5H5c-2.76,0-5-2.24-5-5V7C0,4.24,2.24,2,5,2h14c2.76,0,5,2.24,5,5Zm-16,3c0,2.21,1.79,4,4,4s4-1.79,4-4-1.79-4-4-4-4,1.79-4,4Zm8.8,8.4c-1.15-1.52-2.9-2.4-4.8-2.4s-3.65,.88-4.8,2.4c-.33,.44-.24,1.07,.2,1.4,.44,.33,1.07,.24,1.4-.2,.76-1.02,1.93-1.6,3.2-1.6s2.44,.58,3.2,1.6c.2,.26,.5,.4,.8,.4,.21,0,.42-.07,.6-.2,.44-.33,.53-.96,.2-1.4Z"/></svg>
