<?xml version="1.0" encoding="UTF-8"?>
<svg xmlns="http://www.w3.org/2000/svg" id="Layer_1" data-name="Layer 1" viewBox="0 0 24 24" width="512" height="512"><path d="m17.974,7.173c-.332-.066-.603-.273-.742-.569-1.551-3.271-5.142-5.1-8.735-4.438-3.272.6-5.837,3.212-6.384,6.502-.161.972-.15,1.943.033,2.889.06.309-.073.653-.346.901-1.161,1.057-1.801,2.492-1.801,4.043,0,3.032,2.467,5.5,5.5,5.5h11.5c.025,0,.051,0,.076-.003,3.872-.295,6.913-3.579,6.923-7.481-.005-3.559-2.54-6.647-6.025-7.343Zm-6.974.827c0-.553.448-1,1-1s1,.447,1,1v6.5c0,.553-.448,1-1,1s-1-.447-1-1v-6.5Zm1,12c-.828,0-1.5-.672-1.5-1.5s.672-1.5,1.5-1.5,1.5.672,1.5,1.5-.672,1.5-1.5,1.5Z"/></svg>
