<?xml version="1.0" encoding="UTF-8"?>
<svg xmlns="http://www.w3.org/2000/svg" id="Layer_1" data-name="Layer 1" viewBox="0 0 24 24" width="512" height="512"><path d="m14,5.252c-.083,0-.166-.01-.25-.032-1.136-.292-2.365-.292-3.501,0-.538.136-1.08-.184-1.218-.719-.138-.535.184-1.08.719-1.218,1.462-.377,3.037-.377,4.499,0,.535.138.856.683.719,1.218-.116.451-.522.75-.968.75Zm-7.128,12.973c.401-.379.42-1.012.041-1.414-.403-.427-.753-.907-1.04-1.426-.287-.52-.507-1.071-.654-1.639-.138-.535-.684-.856-1.218-.718-.535.138-.856.684-.718,1.218.189.731.471,1.439.839,2.105s.818,1.283,1.336,1.832c.197.208.461.313.727.313.247,0,.493-.09.687-.273Zm11.642-.013c.521-.547.974-1.162,1.344-1.825.371-.664.657-1.372.849-2.103.14-.534-.179-1.081-.713-1.222-.537-.141-1.081.179-1.222.713-.149.569-.372,1.119-.661,1.637-.289.517-.641.996-1.046,1.421-.381.4-.365,1.033.035,1.414.193.185.441.276.689.276.264,0,.528-.104.724-.311Zm5.15-5.465c-.377.335-.945.337-1.324.005-.312-.274-.499-.439-.725-.564-2.169-1.203-4.915-.417-6.118,1.752-1.203,2.17-.417,4.915,1.753,6.118.241.134.692.27.99.36.483.146.806.635.721,1.132-.085.497-.518.849-1.006.838-1.146-.051-2.322-.369-3.229-.872-1.097-.609-2.031-1.512-2.717-2.602-.705,1.088-1.653,2.001-2.736,2.602-.907.503-2.083.821-3.229.872-.015,0-.03,0-.045,0-.485,0-.903-.35-.985-.832-.085-.497.214-.979.697-1.125.346-.104.797-.24,1.039-.374,2.169-1.204,2.956-3.948,1.752-6.118-1.204-2.17-3.947-2.956-6.118-1.752-.226.125-.413.29-.65.499-.379.334-.982.365-1.361.029-.377-.335-.482-.867-.196-1.283.659-.958,1.414-1.664,2.307-2.16.983-.545,2.093-.868,3.237-.954-.466-1.082-.72-2.232-.72-3.319s.245-2.14.729-3.113c.225-.452.749-.667,1.226-.499.476.167.753.662.647,1.154-.068.315-.102.637-.102.957,0,2.481,2.019,4.5,4.5,4.5s4.5-2.019,4.5-4.5c0-.32-.034-.642-.102-.957-.106-.493.171-.988.647-1.154.476-.168,1.001.046,1.226.499.484.973.729,2.02.729,3.113s-.254,2.236-.719,3.317c1.138.084,2.247.408,3.236.956h0c.893.496,1.647,1.202,2.307,2.16.286.416.218.979-.159,1.314Zm-9.665-.747c0-1.105-.895-2-2-2s-2,.895-2,2,.895,2,2,2,2-.895,2-2Z"/></svg>
