<?xml version="1.0" encoding="UTF-8"?>
<svg xmlns="http://www.w3.org/2000/svg" id="Layer_1" data-name="Layer 1" viewBox="0 0 24 24" width="512" height="512"><path d="m20.35,12l2.022-3.466c.429-.736.433-1.616.008-2.354-.424-.739-1.186-1.18-2.038-1.18h-4.076l-2.237-3.834c-.426-.73-1.185-1.166-2.03-1.166s-1.604.436-2.03,1.166l-2.236,3.834H3.659c-.852,0-1.613.441-2.038,1.18-.424.738-.421,1.618.008,2.354l2.022,3.466-2.022,3.466c-.429.736-.432,1.616-.008,2.354.424.739,1.186,1.18,2.038,1.18h4.075l2.236,3.834c.426.73,1.185,1.166,2.03,1.166s1.604-.436,2.03-1.166l2.237-3.834h4.076c.852,0,1.614-.441,2.038-1.18.424-.739.421-1.619-.008-2.354l-2.022-3.466Zm-.007-5c.176,0,.266.11.303.176.038.065.087.198-.001.35l-1.452,2.49-1.759-3.015h2.909Zm-2.308,5l-2.917,5h-6.235l-2.917-5,2.917-5h6.235l2.917,5ZM11.698,2.174c.088-.151.228-.174.302-.174.075,0,.214.022.302.173l1.649,2.827h-3.902l1.648-2.826ZM3.356,7.526c-.089-.152-.039-.285,0-.35.038-.066.127-.176.303-.176h2.909l-1.759,3.015-1.452-2.489Zm.302,9.474c-.176,0-.266-.11-.303-.176-.038-.065-.088-.198,0-.35l1.452-2.489,1.759,3.015h-2.909Zm8.644,4.827c-.088.151-.227.173-.302.173-.075,0-.214-.022-.302-.174l-1.648-2.826h3.902l-1.649,2.827Zm8.344-5.002c-.038.066-.127.176-.303.176h-2.909l1.759-3.015,1.452,2.49c.089.152.039.284.001.35Z"/></svg>
