<?xml version="1.0" encoding="UTF-8"?>
<svg xmlns="http://www.w3.org/2000/svg" id="Layer_1" data-name="Layer 1" viewBox="0 0 24 24" width="512" height="512"><path d="m1.573,11.333c-.382-.427-.564-.997-.501-1.566C1.695,4.199,6.395,0,12.004,0s10.321,4.199,10.932,9.768c.062.568-.121,1.139-.503,1.565-.38.424-.923.667-1.491.667H3.066c-.569,0-1.113-.244-1.493-.668Zm.431,4.668h9.999l2.544,2.544c.528.528,1.383.528,1.911,0l2.544-2.544h3.001c.552,0,1-.448,1-1s-.448-1-1-1h-1.001,0s-18.999,0-18.999,0c-.552,0-1,.448-1,1s.448,1,1,1Zm19,2h-1.173l-1.959,1.958c-.653.653-1.512.979-2.37.979s-1.716-.326-2.369-.979l-1.959-1.959H3.004c-1.103,0-2,.897-2,2,0,2.206,1.794,4,4,4h14c2.206,0,4-1.794,4-4,0-1.103-.897-2-2-2Z"/></svg>
