<?xml version="1.0" encoding="UTF-8"?>
<svg xmlns="http://www.w3.org/2000/svg" id="Layer_1" data-name="Layer 1" viewBox="0 0 24 24" width="512" height="512"><path d="M23.318,7.12c-.42-.2-.907-.146-1.313,.181l-3.005,3.699v-2.797c.001-.466-.259-.882-.68-1.084-.42-.2-.907-.146-1.313,.181l-3.006,3.701v-2.797c.001-.466-.259-.882-.68-1.084-.42-.2-.907-.146-1.313,.181l-3.723,3.711L6.336,1.577c-.197-.914-1.02-1.577-1.954-1.577H2C.895,0,0,.895,0,2V19c0,2.761,2.239,5,5,5h14c2.761,0,5-2.239,5-5V8.204c0-.466-.261-.882-.682-1.084Zm-13.318,10.88c0,.552-.448,1-1,1h-1c-.552,0-1-.448-1-1v-1c0-.552,.448-1,1-1h1c.552,0,1,.448,1,1v1Zm5,0c0,.552-.448,1-1,1h-1c-.552,0-1-.448-1-1v-1c0-.552,.448-1,1-1h1c.552,0,1,.448,1,1v1Zm5,0c0,.552-.448,1-1,1h-1c-.552,0-1-.448-1-1v-1c0-.552,.448-1,1-1h1c.552,0,1,.448,1,1v1Z"/></svg>
