<?xml version="1.0" encoding="UTF-8"?>
<svg xmlns="http://www.w3.org/2000/svg" id="Layer_1" data-name="Layer 1" viewBox="0 0 24 24" width="512" height="512"><path d="m18.995,18c-1.378,0-2.498-1.121-2.498-2.5s1.121-2.5,2.498-2.5,2.498,1.121,2.498,2.5-1.121,2.5-2.498,2.5Zm3.997,6h-7.995c-.309,0-.6-.143-.79-.387-.189-.245-.256-.563-.179-.862.56-2.173,2.648-3.75,4.966-3.75s4.405,1.577,4.966,3.75c.077.299.011.618-.179.862-.189.244-.48.387-.79.387Zm-10.899-1.749c.459-1.783,1.656-3.263,3.206-4.196-.504-.727-.803-1.606-.803-2.555,0-1.325.586-2.506,1.5-3.33v-7.173c0-2.76-2.237-4.997-4.997-4.997h-5.996C2.245,0,.008,2.237.008,4.997v14.003c0,2.761,2.239,5,5,5h5.99c.396,0,.777-.058,1.147-.145-.155-.519-.188-1.072-.051-1.604Zm-6.09-3.251h-.999c-.552,0-.999-.448-.999-1s.447-1,.999-1h.999c.552,0,.999.448.999,1s-.447,1-.999,1Zm0-4h-.999c-.552,0-.999-.448-.999-1s.447-1,.999-1h.999c.552,0,.999.448.999,1s-.447,1-.999,1Zm1.999-5c-.552,0-.999-.448-.999-1v-1h-.999c-.552,0-.999-.448-.999-1s.447-1,.999-1h.999v-1c0-.552.447-1,.999-1s.999.448.999,1v1h.999c.552,0,.999.448.999,1s-.447,1-.999,1h-.999v1c0,.552-.447,1-.999,1Zm2.998,9h-.999c-.552,0-.999-.448-.999-1s.447-1,.999-1h.999c.552,0,.999.448.999,1s-.447,1-.999,1Zm0-4h-.999c-.552,0-.999-.448-.999-1s.447-1,.999-1h.999c.552,0,.999.448.999,1s-.447,1-.999,1Z"/></svg>
