<?xml version="1.0" encoding="UTF-8"?>
<svg xmlns="http://www.w3.org/2000/svg" id="Layer_1" data-name="Layer 1" viewBox="0 0 24 24">
  <path d="m22.5,3c-.828,0-1.5.672-1.5,1.5v6.5c0,.552-.448,1-1,1h0c-.552,0-1-.448-1-1V2.5c0-.828-.672-1.5-1.5-1.5s-1.5.672-1.5,1.5v8.5c0,.552-.448,1-1,1h0c-.552,0-1-.448-1-1V1.5c0-.828-.672-1.5-1.5-1.5s-1.5.672-1.5,1.5v9.5c0,.552-.448,1-1,1h0c-.552,0-1-.448-1-1V3.58c0-.747-.511-1.44-1.248-1.56-.94-.153-1.752.568-1.752,1.479v12.654l-2.605-2.65c-.088-.088-.24-.201-.441-.333-.843-.47-1.954-.284-2.584.561-.604.81-.437,1.965.276,2.68l3.523,3.635c2.449,2.527,5.817,3.953,9.335,3.953h2.495c4.418,0,8-3.582,8-8V4.5c0-.828-.672-1.5-1.5-1.5Z"/>
</svg>
