<?xml version="1.0" encoding="UTF-8"?>
<svg xmlns="http://www.w3.org/2000/svg" id="Layer_1" data-name="Layer 1" viewBox="0 0 24 24" width="512" height="512"><path d="M12,0C5.373,0,0,5.373,0,12s5.373,12,12,12c1.405,0,2.747-.254,4-.697v-6.236c-.556,.256-1.241,.504-2,.683v3.25c0,.553-.448,1-1,1s-1-.447-1-1v-3c-3.107,0-5.563-2.162-5.666-2.254-.412-.368-.448-1-.08-1.412,.367-.412,1-.448,1.411-.081,.048,.042,2.021,1.747,4.335,1.747,2.384,0,4.391-1.435,4.411-1.449,.305-.22,.708-.252,1.042-.081,.334,.171,.546,.514,.546,.89v7.022c3.583-2.076,6-5.942,6-10.381C24,5.373,18.627,0,12,0Zm-2.581,8.908c-1.354,.625-2.748,1.833-2.762,1.846-.189,.165-.424,.246-.657,.246-.279,0-.557-.116-.754-.343-.363-.416-.319-1.048,.097-1.411,.066-.057,1.626-1.41,3.238-2.154,.501-.229,1.096-.013,1.327,.489,.231,.501,.013,1.096-.489,1.327Zm9.335,1.748c-.198,.228-.475,.344-.754,.344-.233,0-.467-.081-.656-.246-.014-.012-1.415-1.224-2.762-1.846-.501-.231-.72-.826-.489-1.327,.231-.502,.827-.72,1.327-.489,1.612,.744,3.172,2.098,3.238,2.154,.416,.363,.459,.994,.097,1.41Z"/></svg>
