<?xml version="1.0" encoding="UTF-8"?>
<svg xmlns="http://www.w3.org/2000/svg" id="Layer_1" data-name="Layer 1" viewBox="0 0 24 24" width="512" height="512"><path d="m2.395,16.061c-.87.104-1.696.437-2.395.964V5C0,2.624,1.672.575,4,.1v15.9h-1c-.203,0-.406.02-.605.061Zm15.605-6.061c.691,0,1.361.088,2,.252v-5.252c0-2.761-2.239-5-5-5H6v16h4.252c.888-3.45,4.02-6,7.748-6Zm-8,8H3c-1.657,0-3,1.343-3,3s1.343,3,3,3h9.709c-1.661-1.466-2.709-3.61-2.709-6Zm14,0c0,3.314-2.686,6-6,6s-6-2.686-6-6,2.686-6,6-6,6,2.686,6,6Zm-3.002-1.242l-1.5-1.5c-.251-.252-.629-.329-.957-.19-.328.136-.541.456-.541.812v1.121h-3c-.552,0-1,.447-1,1s.448,1,1,1h3v1.121c0,.355.213.676.541.812.109.045.223.067.336.067.229,0,.453-.089.621-.257l1.5-1.5c.685-.685.685-1.8,0-2.485Z"/></svg>
