<?xml version="1.0" encoding="UTF-8"?>
<svg xmlns="http://www.w3.org/2000/svg" id="Layer_1" data-name="Layer 1" viewBox="0 0 24 24" width="512" height="512"><path d="M12,0C5.383,0,0,5.383,0,12s5.383,12,12,12,12-5.383,12-12S18.617,0,12,0Zm3.5,7c.828,0,1.5,1.343,1.5,3s-.672,3-1.5,3-1.5-1.343-1.5-3,.672-3,1.5-3Zm-3.605,2.553c.247,.494,.047,1.095-.447,1.342l-4,2c-.144,.072-.296,.105-.446,.105-.367,0-.72-.202-.896-.553-.247-.494-.047-1.095,.447-1.342l4-2c.494-.247,1.094-.047,1.342,.447Zm-6.895,.448c-.396,0-.772-.238-.929-.63-.205-.513,.045-1.095,.558-1.299,1.213-.484,2.777-1.484,3.539-2.626,.305-.46,.928-.585,1.387-.277,.46,.307,.584,.927,.277,1.387-1.067,1.601-3.005,2.792-4.461,3.374-.122,.048-.247,.072-.371,.072Zm13.837,6.547c-.164,.251-1.666,2.453-3.837,2.453-1.161,0-2.03-.768-2.729-1.386-.26-.229-.652-.577-.81-.618-.15,.003-.339,.124-.657,.335-.423,.282-1.002,.668-1.805,.668-1.423,0-2.592-1.173-2.721-1.307-.383-.398-.37-1.031,.027-1.414,.397-.38,1.027-.371,1.411,.024,.223,.227,.829,.696,1.282,.696,.188,0,.377-.12,.695-.332,.423-.282,1.002-.668,1.805-.668,.834,0,1.476,.567,2.096,1.116,.469,.415,1,.884,1.404,.884,.956,0,1.949-1.22,2.163-1.547,.302-.462,.922-.59,1.384-.29,.463,.302,.593,.922,.29,1.384Z"/></svg>
