<?xml version="1.0" encoding="UTF-8"?>
<svg xmlns="http://www.w3.org/2000/svg" id="Layer_1" data-name="Layer 1" viewBox="0 0 24 24" width="512" height="512"><path d="M15,2h-6c-2.21,0-4,1.79-4,4v10c0,.55,.45,1,1,1h12c.55,0,1-.45,1-1V6c0-2.21-1.79-4-4-4Zm-.29,9.29c.39,.39,.39,1.02,0,1.41-.2,.2-.45,.29-.71,.29s-.51-.1-.71-.29l-1.29-1.29-1.29,1.29c-.2,.2-.45,.29-.71,.29s-.51-.1-.71-.29c-.39-.39-.39-1.02,0-1.41l1.29-1.29-1.29-1.29c-.39-.39-.39-1.02,0-1.41s1.02-.39,1.41,0l1.29,1.29,1.29-1.29c.39-.39,1.02-.39,1.41,0s.39,1.02,0,1.41l-1.29,1.29,1.29,1.29Zm9.29,4.71v2c0,2.21-1.79,4-4,4H4c-2.21,0-4-1.79-4-4v-2c0-1.86,1.28-3.41,3-3.86v3.86c0,1.65,1.35,3,3,3h12c1.65,0,3-1.35,3-3v-3.86c1.72,.45,3,2,3,3.86Z"/></svg>
