<?xml version="1.0" encoding="UTF-8"?>
<svg xmlns="http://www.w3.org/2000/svg" id="Layer_1" data-name="Layer 1" viewBox="0 0 24 24" width="512" height="512"><path d="M12,4.57l4.93-2.46L13.34,.32c-.84-.42-1.84-.42-2.68,0l-3.58,1.79,4.93,2.46Z"/><path d="M5,17.12L0,14.63v4.74c0,1.07,.57,2.07,1.51,2.6l3.49,2v-6.86Z"/><path d="M19,23.98l3.49-2c.93-.53,1.51-1.53,1.51-2.6v-4.74s-5,2.49-5,2.49v6.86Z"/><g><polygon points="4.89 10.84 .88 12.86 6 15.37 9.89 13.41 4.89 10.84"/><polygon points="11 11.73 11 6.23 6 3.74 6 9.16 11 11.73"/></g><g><polygon points="18 9.16 18 3.74 13 6.23 13 11.73 18 9.16"/><polygon points="19.11 10.84 14.11 13.41 18 15.37 23.12 12.86 19.11 10.84"/></g><g><polygon points="11 15.12 7 17.07 7 23.93 11 21.68 11 15.12"/><polygon points="13 15.12 13 21.67 17 23.91 17 17.05 13 15.12"/></g></svg>
