<?xml version="1.0" encoding="UTF-8"?>
<svg xmlns="http://www.w3.org/2000/svg" id="Layer_1" data-name="Layer 1" viewBox="0 0 24 24" width="512" height="512"><path d="M14,10.16c0,.87-1.17,2.35-3,3.79-1.83-1.44-3-2.92-3-3.79,0-.64,.45-1.16,1-1.16,.5,0,1,.31,1,1,0,.55,.45,1,1,1s1-.45,1-1c0-.69,.5-1,1-1,.55,0,1,.52,1,1.16Zm10,2.84c0,.97-.7,2-2,2h-.33l-.22,1.66c-.33,2.48-2.46,4.34-4.96,4.34h-.49c0,1.65-1.35,3-3,3H6c-1.65,0-3-1.35-3-3v-.97c0-.9-.26-1.73-.74-2.35C.58,15.48-.2,12.75,.05,9.98,.5,4.95,4.46,.79,9.45,.11c4.04-.56,7.91,1.06,10.35,4.31,1.27,1.57,4.2,7.16,4.2,8.58Zm-8-2.84c0-1.74-1.35-3.16-3-3.16-.78,0-1.48,.27-2,.73-.52-.46-1.22-.73-2-.73-1.65,0-3,1.42-3,3.16,0,2.03,2.12,4.09,3.9,5.47,.32,.25,.71,.38,1.1,.38s.77-.12,1.1-.38c1.78-1.38,3.9-3.44,3.9-5.47Z"/></svg>
