<?xml version="1.0" encoding="UTF-8"?>
<svg xmlns="http://www.w3.org/2000/svg" id="Layer_1" data-name="Layer 1" viewBox="0 0 24 24">
  <path d="m19,1H5C2.243,1,0,3.243,0,6v12c0,2.757,2.243,5,5,5h14c2.757,0,5-2.243,5-5V6c0-2.757-2.243-5-5-5ZM6.5,18.5c-.828,0-1.5-.672-1.5-1.5s.672-1.5,1.5-1.5,1.5.672,1.5,1.5-.672,1.5-1.5,1.5Zm0-5c-.828,0-1.5-.672-1.5-1.5s.672-1.5,1.5-1.5,1.5.672,1.5,1.5-.672,1.5-1.5,1.5Zm0-5c-.828,0-1.5-.672-1.5-1.5s.672-1.5,1.5-1.5,1.5.672,1.5,1.5-.672,1.5-1.5,1.5Zm11.5,9.5h-7c-.552,0-1-.448-1-1s.448-1,1-1h7c.552,0,1,.448,1,1s-.448,1-1,1Zm0-5h-7c-.552,0-1-.448-1-1s.448-1,1-1h7c.552,0,1,.448,1,1s-.448,1-1,1Zm0-5h-7c-.552,0-1-.448-1-1s.448-1,1-1h7c.552,0,1,.448,1,1s-.448,1-1,1Z"/>
</svg>
