<?xml version="1.0" encoding="UTF-8"?>
<svg xmlns="http://www.w3.org/2000/svg" id="Layer_1" data-name="Layer 1" viewBox="0 0 24 24">
  <path d="m22.5,3c-.828,0-1.5.672-1.5,1.5v6.5c0,.552-.448,1-1,1s-1-.448-1-1V2.5c0-.828-.672-1.5-1.5-1.5s-1.5.672-1.5,1.5v8.5c0,.552-.448,1-1,1s-1-.448-1-1V1.5c0-.828-.672-1.5-1.5-1.5s-1.5.672-1.5,1.5v9.5c0,.552-.448,1-1,1s-1-.448-1-1V3.58c0-.747-.511-1.44-1.248-1.56-.94-.153-1.752.568-1.752,1.479v12.654l-2.605-2.65c-.088-.088-.24-.201-.441-.333-.843-.47-1.954-.284-2.584.561-.604.81-.437,1.965.276,2.68l4.997,5.156c1.507,1.555,3.58,2.433,5.745,2.433h7.613c2.761,0,5-2.239,5-5V4.5c0-.828-.672-1.5-1.5-1.5Zm-7.182,13.638l-1.199.48-.48,1.199c-.104.261-.357.432-.638.432s-.534-.171-.638-.432l-.482-1.206-1.208-.509c-.259-.109-.426-.365-.421-.646.005-.281.181-.531.444-.63l1.191-.451.477-1.192c.104-.261.357-.432.638-.432s.534.171.638.432l.48,1.199,1.199.48c.261.104.432.357.432.638s-.171.534-.432.638Zm6.711,3.558l-1.308.523-.523,1.308c-.114.285-.39.472-.697.472s-.583-.187-.697-.472l-.526-1.316-1.318-.555c-.283-.119-.464-.398-.459-.705.006-.307.198-.579.485-.687l1.299-.492.52-1.301c.114-.285.39-.472.697-.472s.583.187.697.472l.523,1.308,1.308.523c.285.114.472.39.472.697s-.187.583-.472.697ZM2.5,9c-.256,0-.486-.156-.58-.393l-.439-1.097-1.099-.463C.147,6.948-.004,6.715,0,6.46c.005-.255.165-.482.404-.573l1.082-.41.433-1.084c.095-.237.325-.393.58-.393s.486.156.58.393l.436,1.09,1.09.436c.237.095.393.325.393.58s-.156.486-.393.58l-1.09.436-.436,1.09c-.095.237-.325.393-.58.393Z"/>
</svg>
