<?xml version="1.0" encoding="UTF-8"?>
<svg xmlns="http://www.w3.org/2000/svg" id="Layer_1" data-name="Layer 1" viewBox="0 0 24 24" width="512" height="512"><path d="M2.95,24c-.513,0-.945-.391-.991-.903-.253-2.858-1.614-4.973-1.629-4.996-.603-.922-.349-2.16,.57-2.767,.92-.607,2.099-.335,2.763,.556,.094,.126,2.875,3.008,3.329,6.994,.068,.593-.403,1.116-1,1.116H2.95Zm15.05,0c-.597,0-1.067-.523-1-1.116,.454-3.985,3.246-6.868,3.34-6.994,.664-.891,1.843-1.163,2.763-.556,.919,.606,1.172,1.845,.57,2.767-.015,.023-1.375,2.137-1.629,4.996-.045,.511-.477,.903-.991,.903h-3.054Zm-2.991-1.341c.43-3.769,2.548-6.647,3.772-8.027,1.202-1.615,3.36-2.081,5.111-1.13,.062-.493,.104-.992,.104-1.502C23.996,5.373,18.624,0,11.996,0S-.004,5.373-.004,12c0,.51,.042,1.01,.104,1.504,1.726-.94,3.857-.496,5.114,1.127,1.251,1.422,3.335,4.285,3.763,8.027,.036,.314,.005,.625-.057,.929,.983,.26,2.011,.413,3.076,.413s2.088-.152,3.07-.411c-.062-.304-.093-.615-.057-.93Zm-.656-16.303c.71-.71,2.246-.326,3.429,.857,1.184,1.184,1.568,2.719,.857,3.43-.71,.71-2.246,.326-3.429-.857-1.184-1.184-1.568-2.719-.857-3.429Zm-5.571,3.429c-1.184,1.184-2.719,1.568-3.429,.857-.71-.71-.326-2.246,.857-3.429,1.184-1.184,2.719-1.568,3.429-.857,.71,.71,.326,2.246-.857,3.429Zm6.214,6.214c0,1.657-1.343,3-3,3s-3-1.343-3-3v-1c0-1.657,1.343-3,3-3s3,1.343,3,3v1Z"/></svg>
