<?xml version="1.0" encoding="UTF-8"?>
<svg xmlns="http://www.w3.org/2000/svg" id="Layer_1" data-name="Layer 1" viewBox="0 0 24 24" width="512" height="512"><path d="M20.5,15h0c-.83,0-1.5-.67-1.5-1.5v-4c0-.83,.67-1.5,1.5-1.5h0c.83,0,1.5,.67,1.5,1.5v4c0,.83-.67,1.5-1.5,1.5Zm-2.5-1.5v-4c0-.83-.67-1.5-1.5-1.5h0c-.83,0-1.5,.67-1.5,1.5v4c0,.83,.67,1.5,1.5,1.5h0c.83,0,1.5-.67,1.5-1.5Zm2.5,3.5c-.74,0-1.43-.23-2-.63-.57,.4-1.26,.63-2,.63-1.87,0-3.4-1.47-3.5-3.31,0,0,0,0,0,0v-3.46L14.96,1.84c.1-.43,0-.88-.26-1.24C14.44,.25,14.04,.03,13.58,0c-.71-.05-1.39,.5-1.57,1.27l-2.01,8.7L7.99,1.27C7.81,.5,7.13-.04,6.42,0c-.46,.03-.85,.24-1.12,.6-.26,.35-.36,.8-.26,1.23l1.77,7.72c.68,.06,1.33,.29,1.9,.71,.96,.69,1.56,1.76,1.66,2.93,.08,1.03-.23,2.04-.87,2.83v.03c-.07,.07-2.28,2.28-2.62,2.63-.39,.39-1.02,.39-1.41,0-.39-.39-.39-1.02,0-1.41l2.33-2.33h0s0,0,0,0c.86-.86,.77-2.3-.26-3.05-.81-.58-1.94-.41-2.65,.29l-2.69,2.69c-1.6,1.6-1.6,4.19,0,5.79l1.59,1.59c1.13,1.13,2.65,1.76,4.24,1.76h8.97c2.76,0,5-2.24,5-5v-2.34c-.45,.22-.96,.34-1.5,.34Z"/></svg>
