<?xml version="1.0" encoding="UTF-8"?>
<svg xmlns="http://www.w3.org/2000/svg" id="Layer_1" data-name="Layer 1" viewBox="0 0 24 24" width="512" height="512"><path d="M21,7c0,.55-.45,1-1,1h-3.03c-.26,3.9-3.51,7-7.47,7h-2.7l8.83,7.23c.43,.35,.49,.98,.14,1.41-.2,.24-.49,.37-.78,.37-.22,0-.45-.07-.63-.23L3.37,14.77c-.33-.27-.45-.71-.31-1.11,.14-.4,.52-.66,.94-.66h5.5c2.86,0,5.22-2.2,5.47-5H4c-.55,0-1-.45-1-1s.45-1,1-1H14.79c-.66-2.3-2.77-4-5.29-4H4c-.55,0-1-.45-1-1s.45-1,1-1H20c.55,0,1,.45,1,1s-.45,1-1,1h-5.41c1.13,1.05,1.93,2.44,2.25,4h3.15c.55,0,1,.45,1,1Z"/></svg>
