<?xml version="1.0" encoding="UTF-8"?>
<svg xmlns="http://www.w3.org/2000/svg" id="Layer_1" data-name="Layer 1" viewBox="0 0 24 24" width="512" height="512"><path d="m7.5,13c-2.962,0-6.127,1.87-7.455,2.752.356-4.135,2.985-7.727,6.955-9.461V2h-1c-.552,0-1-.448-1-1h0c0-.552.448-1,1-1h12c.552,0,1,.448,1,1h0c0,.552-.448,1-1,1h-1v4.333c2.786,1.249,4.94,3.462,6.086,6.089-.96.657-3.986,2.579-6.586,2.579-1.652,0-2.865-.455-4.148-.937-1.395-.523-2.837-1.063-4.852-1.063Zm16.236,1.391c-1.436.927-4.429,2.609-7.236,2.609-2.015,0-3.457-.541-4.852-1.063-1.283-.482-2.496-.937-4.148-.937-3.119,0-6.863,2.772-6.9,2.8l-.499.327c.083.642.259,1.313.504,1.982.861,2.356,3.147,3.891,5.656,3.891h11.468c2.572,0,4.911-1.61,5.716-4.053.354-1.073.556-2.176.556-3.232,0-.788-.093-1.566-.264-2.323Z"/></svg>
