<?xml version="1.0" encoding="UTF-8"?>
<svg xmlns="http://www.w3.org/2000/svg" id="Layer_1" data-name="Layer 1" viewBox="0 0 24 24" width="512" height="512"><path d="m4.929,16.146c.391.391.391,1.023,0,1.414-.195.195-.451.293-.707.293s-.512-.098-.707-.293C-1.164,12.882-1.164,5.269,3.515.59c.391-.391,1.023-.391,1.414,0s.391,1.023,0,1.414c-3.898,3.899-3.898,10.243,0,14.142ZM20.485.59c-.391-.391-1.023-.391-1.414,0s-.391,1.023,0,1.414c3.898,3.899,3.898,10.243,0,14.142-.391.391-.391,1.023,0,1.414.195.195.451.293.707.293s.512-.098.707-.293c4.679-4.679,4.679-12.292,0-16.97Zm-8.485,5.41c-1.657,0-3,1.343-3,3,0,1.306.835,2.417,2,2.829v11.171c0,.552.448,1,1,1s1-.448,1-1v-11.171c1.165-.412,2-1.523,2-2.829,0-1.657-1.343-3-3-3Zm-3.536-1.95c-.391-.391-1.023-.391-1.414,0-2.729,2.729-2.729,7.17,0,9.899.195.195.451.293.707.293s.512-.098.707-.293c.391-.391.391-1.023,0-1.414-1.949-1.95-1.949-5.122,0-7.071.391-.391.391-1.023,0-1.414Zm8.485,0c-.391-.391-1.023-.391-1.414,0s-.391,1.023,0,1.414c1.949,1.95,1.949,5.122,0,7.071-.391.391-.391,1.023,0,1.414.195.195.451.293.707.293s.512-.098.707-.293c2.729-2.729,2.729-7.17,0-9.899Z"/></svg>
