<?xml version="1.0" encoding="UTF-8"?>
<svg xmlns="http://www.w3.org/2000/svg" id="Layer_1" data-name="Layer 1" viewBox="0 0 24 24" width="512" height="512"><path d="m19,0H5C2.243,0,0,2.243,0,5v14c0,2.757,2.243,5,5,5h14c2.757,0,5-2.243,5-5V5c0-2.757-2.243-5-5-5Zm-.061,6.326l-3.83,10.5c-.471,1.327-1.692,2.19-3.109,2.19s-2.639-.863-3.112-2.198l-3.827-10.492c-.189-.519.078-1.093.597-1.282.518-.187,1.092.078,1.282.597l3.83,10.5c.289.813,1.015.876,1.23.876s.941-.062,1.228-.868l3.833-10.508c.189-.519.764-.784,1.282-.597.519.189.786.764.597,1.282Z"/></svg>
