<?xml version="1.0" encoding="UTF-8"?>
<svg xmlns="http://www.w3.org/2000/svg" id="Layer_1" data-name="Layer 1" viewBox="0 0 24 24" width="512" height="512"><path d="M13,10.08v-1.08h2c.553,0,1-.448,1-1s-.447-1-1-1h-2V2.568l2.317,2.163c.193,.18,.438,.269,.683,.269,.268,0,.534-.106,.731-.317,.376-.404,.354-1.037-.049-1.414L14.121,.879c-1.17-1.169-3.073-1.17-4.218-.024l-2.586,2.414c-.403,.377-.425,1.01-.049,1.414,.379,.404,1.01,.426,1.414,.048l2.317-2.164V7h-2c-.553,0-1,.448-1,1s.447,1,1,1h2v1.08c-3.386,.488-6,3.401-6,6.92,0,3.86,3.141,7,7,7s7-3.14,7-7c0-3.519-2.614-6.432-6-6.92Z"/></svg>
