<?xml version="1.0" encoding="UTF-8"?>
<svg xmlns="http://www.w3.org/2000/svg" id="Layer_1" data-name="Layer 1" viewBox="0 0 24 24" width="512" height="512"><path d="M19.743,18.329c1.251-1.525,2.014-3.366,2.207-5.329h1.049c.552,0,1-.447,1-1s-.448-1-1-1h-1.049c-.226-2.293-1.228-4.42-2.88-6.071-1.651-1.651-3.778-2.653-6.071-2.879V1c0-.553-.448-1-1-1s-1,.447-1,1v1.049c-1.963,.194-3.804,.956-5.329,2.207L1.707,.293C1.316-.098,.684-.098,.293,.293S-.098,1.316,.293,1.707L10.973,12.387l11.32,11.32c.195,.195,.451,.293,.707,.293s.512-.098,.707-.293c.391-.391,.391-1.023,0-1.414l-3.964-3.964Zm-4.208-9.864c.944,.944,1.464,2.199,1.464,3.535,0,.996-.291,1.946-.829,2.757l-1.471-1.471c.19-.398,.3-.832,.3-1.286,0-.802-.312-1.555-.878-2.121-.921-.921-2.292-1.106-3.406-.577l-1.473-1.473c1.94-1.283,4.585-1.071,6.292,.636Zm.171,11.315c.243,.243,.344,.594,.268,.929-.076,.335-.318,.607-.643,.722-.762,.269-1.546,.435-2.333,.512v1.057c0,.553-.448,1-1,1s-1-.447-1-1v-1.06c-2.256-.231-4.42-1.218-6.071-2.869-1.651-1.651-2.63-3.815-2.861-6.071H1c-.552,0-1-.447-1-1s.448-1,1-1h1.075c.077-.787,.227-1.571,.495-2.333,.114-.323,.387-.566,.722-.643,.334-.075,.686,.025,.928,.269l2.865,2.865c-.047,.275-.085,.553-.085,.842,0,2.757,2.243,5,5,5,.288,0,.567-.038,.842-.085l2.865,2.865Z"/></svg>
