<?xml version="1.0" encoding="UTF-8"?>
<svg xmlns="http://www.w3.org/2000/svg" id="Layer_1" data-name="Layer 1" viewBox="0 0 24 24" width="512" height="512"><path d="m19,0H5C2.243,0,0,2.243,0,5v14c0,2.757,2.243,5,5,5h14c2.757,0,5-2.243,5-5V5c0-2.757-2.243-5-5-5Zm0,6.812v11.188c0,.553-.448,1-1,1s-1-.447-1-1V7.583l-4.142,6.931c-.361.604-1.355.604-1.717,0l-4.142-6.926v10.412c0,.553-.448,1-1,1s-1-.447-1-1V6.812c0-.817.479-1.496,1.221-1.73.751-.238,1.569.048,2.032.709l3.747,6.261,3.708-6.201c.501-.721,1.318-1.006,2.071-.77.742.234,1.221.913,1.221,1.73Z"/></svg>
