<?xml version="1.0" encoding="UTF-8"?>
<svg xmlns="http://www.w3.org/2000/svg" id="Layer_1" data-name="Layer 1" viewBox="0 0 24 24" width="512" height="512"><path d="m23.491,1.104l-.592-.593c-.679-.681-1.782-.682-2.462-.002l-.557.554c-.564.563-.88,1.327-.88,2.123v.4l-6.097,6.097c-1.355-1.054-3.057-1.683-4.903-1.683C3.589,8,0,11.589,0,16s3.589,8,8,8,8-3.589,8-8c0-1.846-.629-3.548-1.683-4.903l6.097-6.097h.396c.795,0,1.557-.315,2.12-.877l.559-.557c.68-.679.681-1.782.002-2.462Zm-14.784,18.603c-.195.195-.451.293-.707.293s-.512-.098-.707-.293l-3-3c-.391-.391-.391-1.023,0-1.414s1.023-.391,1.414,0l3,3c.391.391.391,1.023,0,1.414Z"/></svg>
