<?xml version="1.0" encoding="UTF-8"?>
<svg xmlns="http://www.w3.org/2000/svg" id="Layer_1" data-name="Layer 1" viewBox="0 0 24 24" width="512" height="512"><path d="M23.708,4.296c-.388-.39-1.02-.394-1.413-.005-.018,.018-.926,.892-2.587,1.786-.369-.917-1.098-2.721-1.43-3.48-.714-1.626-2.108-2.598-3.729-2.598-.86,0-1.828,.373-2.587,.98-.714-.604-1.697-.98-2.566-.98-1.154,0-2.729,.451-3.672,2.599-.332,.758-1.061,2.562-1.43,3.478-1.654-.891-2.562-1.76-2.588-1.786-.389-.389-1.021-.389-1.412,.002s-.391,1.023,0,1.414c.175,.176,4.377,4.293,11.707,4.293s11.532-4.117,11.707-4.293c.39-.39,.39-1.021,0-1.411Zm-2.612,5.568c-1.237,.622-2.75,1.209-4.504,1.613,.252,.268,.409,.627,.409,1.024,0,.828-.672,1.5-1.5,1.5s-1.5-.672-1.5-1.5c0-.222,.051-.43,.137-.62-.686,.071-1.393,.12-2.138,.12s-1.45-.049-2.136-.119c.086,.189,.137,.398,.137,.619,0,.828-.672,1.5-1.5,1.5s-1.5-.672-1.5-1.5c0-.397,.157-.755,.408-1.023-1.755-.403-3.269-.991-4.506-1.613-.575,1.262-.903,2.659-.903,4.137,0,5.523,4.477,10,10,10s10-4.477,10-10c0-1.477-.329-2.875-.903-4.136Zm-4.231,7.37c-.849,1.282-2.367,2.767-4.865,2.767s-4.022-1.484-4.871-2.767c-.395-.597,.157-1.365,.877-1.214,.93,.195,1.963,.98,3.995,.981,2.032,0,3.058-.785,3.988-.981,.72-.151,1.272,.617,.877,1.214Z"/></svg>
