<?xml version="1.0" encoding="UTF-8"?>
<svg xmlns="http://www.w3.org/2000/svg" id="Layer_1" data-name="Layer 1" viewBox="0 0 24 24" width="512" height="512"><path d="M4.008,16.129c.186,4.245,3.459,7.666,7.604,7.862,2.144,.101,4.222-.646,5.807-2.105,1.587-1.461,2.502-3.451,2.576-5.602,.073-2.101-.738-4.204-2.227-5.769-1.508-1.586-3.51-2.479-5.639-2.513-2.111-.024-4.2,.781-5.741,2.297-.135,.133-.265,.27-.389,.41v-.708c0-4.411,3.589-8,8-8h3c.553,0,1-.448,1-1s-.447-1-1-1h-3C8.486,0,4,4.486,4,10c0,0,.003,6.087,.008,6.129Zm7.992-6.129c3.314,0,6,2.686,6,6s-2.686,6-6,6-6-2.686-6-6,2.686-6,6-6Z"/></svg>
