<?xml version="1.0" encoding="UTF-8"?>
<svg xmlns="http://www.w3.org/2000/svg" id="Layer_1" data-name="Layer 1" viewBox="0 0 24 24" width="512" height="512"><path d="M7.66,8.36C3.96,9.9,1.45,11.68,.02,12.89c-.02-.29-.04-.59-.04-.89C-.03,10.18,.42,8.45,1.15,6.91c1.47,.24,3.76,.69,6.51,1.45ZM12,0c-1.96,0-3.8,.48-5.43,1.31,4.36,1.02,10.51,2.94,16.63,6.41C21.47,3.21,17.11,0,12,0Zm4.98,11.74c2.18,1,4.39,2.18,6.54,3.59-1.45,5-6.06,8.67-11.52,8.67S1.86,20.27,.45,15.22c.83-.81,3.02-2.72,6.77-4.48-.13,.22-.22,.48-.22,.76,0,.83,.67,1.5,1.5,1.5s1.5-.67,1.5-1.5c0-.71-.5-1.31-1.17-1.46,.62-.25,1.27-.5,1.96-.73,1.13,.38,2.31,.8,3.52,1.28-.19,.25-.31,.56-.31,.91,0,.83,.67,1.5,1.5,1.5,.75,0,1.36-.55,1.48-1.26Zm-.49,5.39c-.08-.05-2.05-1.13-4.49-1.13s-4.41,1.08-4.49,1.13c-.48,.27-.65,.88-.39,1.36,.27,.48,.88,.66,1.36,.39,.02,0,1.61-.88,3.52-.88s3.5,.87,3.51,.88c.15,.08,.32,.12,.48,.12,.35,0,.69-.18,.87-.51,.27-.48,.1-1.09-.39-1.36Zm7.4-6.67C16.5,5.88,8.8,3.77,4.25,2.85c-.76,.64-1.43,1.38-2.01,2.2,4.36,.76,13.32,2.87,21.7,8.17,.04-.4,.06-.81,.06-1.22,0-.52-.05-1.04-.11-1.54Z"/></svg>
