<?xml version="1.0" encoding="UTF-8"?>
<svg xmlns="http://www.w3.org/2000/svg" id="Layer_1" data-name="Layer 1" viewBox="0 0 24 24" width="512" height="512"><path d="m15.999,16.411c.051.123.137.438-.145.72l-.576.576c-.187.187-.444.293-.707.293h-5.143c-.263,0-.521-.106-.707-.293l-.6-.6c-.275-.275-.19-.585-.142-.705.049-.119.206-.399.62-.402h6.791c.397.003.558.289.607.411Zm8.001,6.589c0,.553-.447,1-1,1H1c-.553,0-1-.447-1-1s.447-1,1-1h1V2h-1c-.553,0-1-.447-1-1S.447,0,1,0h22c.553,0,1,.447,1,1s-.447,1-1,1h-1v20h1c.553,0,1,.447,1,1Zm-6.15-7.347c-.414-1.011-1.35-1.645-2.45-1.653h-2.399v-2h2c.553,0,1-.447,1-1s-.447-1-1-1h-2v-2h4c.553,0,1-.447,1-1s-.447-1-1-1h-4v-1c0-.553-.447-1-1-1s-1,.447-1,1v1h-4c-.553,0-1,.447-1,1s.447,1,1,1h4v2h-2c-.553,0-1,.447-1,1s.447,1,1,1h2v2h-2.44c-1.087.009-2.018.639-2.43,1.645s-.19,2.108.578,2.877l.6.6c.566.566,1.32.879,2.121.879h5.143c.801,0,1.555-.312,2.121-.879l.576-.576c.772-.772.995-1.881.581-2.892Z"/></svg>
