<?xml version="1.0" encoding="UTF-8"?>
<svg xmlns="http://www.w3.org/2000/svg" id="Layer_1" data-name="Layer 1" viewBox="0 0 24 24" width="512" height="512"><path d="M12,0C5.383,0,0,5.383,0,12s5.383,12,12,12,12-5.383,12-12S18.617,0,12,0ZM5.038,8.274c-.151-.531,.156-1.084,.688-1.236,.964-.275,1.977-.941,2.461-1.619,.321-.449,.946-.554,1.395-.232,.449,.32,.554,.945,.232,1.395-.746,1.045-2.136,1.979-3.539,2.381-.092,.025-.184,.038-.275,.038-.435,0-.835-.286-.961-.726Zm1.963,7.726c-.323,0-.641-.156-.833-.445-.307-.46-.183-1.08,.277-1.387l1.752-1.168-1.752-1.168c-.46-.307-.584-.927-.277-1.387,.306-.46,.925-.583,1.387-.277l3,2c.278,.186,.445,.498,.445,.832s-.167,.646-.445,.832l-3,2c-.171,.113-.363,.168-.554,.168Zm8.801,2.598c-.196,.264-.497,.402-.803,.402-.207,0-.417-.064-.597-.198-.007-.005-1.113-.802-2.402-.802s-2.396,.797-2.406,.805c-.447,.324-1.072,.229-1.396-.213-.327-.442-.236-1.065,.205-1.394,.066-.049,1.632-1.198,3.598-1.198s3.531,1.149,3.598,1.198c.442,.33,.534,.956,.204,1.399Zm1.753-4.43c.46,.307,.584,.927,.277,1.387-.192,.289-.51,.445-.833,.445-.19,0-.383-.055-.554-.168l-3-2c-.278-.186-.445-.498-.445-.832s.167-.646,.445-.832l3-2c.46-.306,1.081-.183,1.387,.277,.307,.46,.183,1.08-.277,1.387l-1.752,1.168,1.752,1.168Zm1.407-5.894c-.126,.439-.526,.726-.961,.726-.092,0-.184-.013-.275-.038-1.403-.401-2.793-1.336-3.539-2.381-.321-.449-.217-1.074,.232-1.395,.449-.322,1.073-.218,1.395,.232,.484,.678,1.497,1.344,2.461,1.619,.531,.152,.839,.705,.688,1.236Z"/></svg>
