<?xml version="1.0" encoding="UTF-8"?>
<svg xmlns="http://www.w3.org/2000/svg" id="Layer_1" data-name="Layer 1" viewBox="0 0 24 24" width="512" height="512"><path d="m6.919,16.394l-3,7c-.162.38-.531.606-.919.606-.131,0-.265-.025-.394-.081-.507-.218-.743-.806-.525-1.312l3-7c.217-.509.803-.747,1.313-.525.507.218.743.806.525,1.312Zm12-.787c-.217-.508-.804-.746-1.313-.525-.507.218-.743.806-.525,1.312l3,7c.162.38.531.606.919.606.131,0,.265-.025.394-.081.507-.218.743-.806.525-1.312l-3-7Zm-.981-10.409c-.395-2.929-2.902-5.197-5.938-5.197s-5.543,2.268-5.938,5.197c1.248,1.071,3.465,1.803,5.938,1.803s4.689-.732,5.938-1.803Zm2.148.604c-1.448,1.909-4.484,3.198-8.086,3.198s-6.638-1.29-8.086-3.198c-2.509.837-3.914,2.061-3.914,3.531,0,3.063,6.037,4.667,12,4.667s12-1.604,12-4.667c0-1.471-1.406-2.694-3.914-3.531Z"/></svg>
