<?xml version="1.0" encoding="UTF-8"?>
<svg xmlns="http://www.w3.org/2000/svg" id="Layer_1" data-name="Layer 1" viewBox="0 0 24 24" width="512" height="512"><path d="M19.778,3.222C17.7,1.144,14.937,0,12,0S6.3,1.145,4.222,3.222c-2.078,2.077-3.222,4.839-3.222,7.778s1.144,5.7,3.25,7.805l3.943,3.643c1.022,1.001,2.375,1.552,3.807,1.552s2.784-.551,3.786-1.533l3.992-3.689c2.078-2.078,3.222-4.84,3.222-7.778s-1.144-5.701-3.222-7.778Zm-3.657,7.899l-3.414,3.414c-.944,.944-2.199,1.464-3.535,1.464h-1.172c-.553,0-1-.448-1-1v-1.171c0-1.335,.521-2.591,1.465-3.536l3.414-3.414c1.17-1.17,3.072-1.17,4.242,0,.566,.566,.879,1.32,.879,2.121s-.313,1.555-.879,2.122Z"/><path d="M13.293,8.293l-3.414,3.414c-.566,.567-.879,1.32-.879,2.122v.171h.172c.79,0,1.562-.32,2.121-.878l3.414-3.415c.189-.189,.293-.44,.293-.707s-.104-.518-.293-.707c-.391-.391-1.023-.39-1.414,0Z"/></svg>
