<?xml version="1.0" encoding="UTF-8"?>
<svg xmlns="http://www.w3.org/2000/svg" id="Layer_1" data-name="Layer 1" viewBox="0 0 24 24" width="512" height="512"><path d="M12,0C5.383,0,0,5.383,0,12s5.383,12,12,12,12-5.383,12-12S18.617,0,12,0Zm-3.5,16c-.828,0-1.5-.672-1.5-1.5s.672-1.5,1.5-1.5,1.5,.672,1.5,1.5-.672,1.5-1.5,1.5Zm7,0c-.828,0-1.5-.672-1.5-1.5s.672-1.5,1.5-1.5,1.5,.672,1.5,1.5-.672,1.5-1.5,1.5Zm2.246-6.334c-.197,.221-.471,.334-.746,.334-.237,0-.475-.084-.666-.254-.018-.016-2.003-1.746-4.334-1.746s-4.316,1.73-4.336,1.748c-.413,.366-1.044,.328-1.411-.084-.366-.412-.331-1.042,.081-1.409,.103-.092,2.559-2.254,5.666-2.254s5.563,2.162,5.666,2.254c.412,.368,.448,1,.08,1.412Z"/></svg>
