<?xml version="1.0" encoding="UTF-8"?>
<svg xmlns="http://www.w3.org/2000/svg" id="Layer_1" data-name="Layer 1" viewBox="0 0 24 24" width="512" height="512"><path d="M14,7V.46c.91,.35,1.75,.88,2.46,1.59l3.48,3.49c.71,.71,1.24,1.55,1.59,2.46h-6.54c-.55,0-1-.45-1-1Zm8,3.49v8.51c0,2.76-2.24,5-5,5H7c-2.76,0-5-2.24-5-5V5C2,2.24,4.24,0,7,0h4.51c.16,0,.32,.01,.49,.02V7c0,1.65,1.35,3,3,3h6.98c.01,.16,.02,.32,.02,.49Zm-8.7,6.51l1.97-2.36c.35-.42,.3-1.05-.13-1.41-.43-.35-1.05-.3-1.41,.13l-1.73,2.08-1.73-2.08c-.35-.42-.98-.48-1.41-.13-.42,.35-.48,.98-.13,1.41l1.97,2.36-1.97,2.36c-.35,.42-.3,1.05,.13,1.41,.19,.16,.41,.23,.64,.23,.29,0,.57-.12,.77-.36l1.73-2.08,1.73,2.08c.2,.24,.48,.36,.77,.36,.23,0,.45-.08,.64-.23,.42-.35,.48-.98,.13-1.41l-1.97-2.36Z"/></svg>
