<?xml version="1.0" encoding="UTF-8"?>
<svg xmlns="http://www.w3.org/2000/svg" id="Layer_1" data-name="Layer 1" viewBox="0 0 24 24" width="512" height="512"><path d="M19,1.171v-.168c-.002-.552,.444-1.001,.997-1.003h.003c.551,0,.999,.446,1,.997v.171c0,.647,.251,1.254,.708,1.71,.833,.833,1.292,1.942,1.292,3.121,0,.552-.448,1-1,1s-1-.448-1-1c0-.635-.258-1.258-.707-1.707-.834-.834-1.293-1.943-1.293-3.122Zm-2,5.521v.308c0,.552,.448,1,1,1s1-.448,1-1v-.308c0-1.179-.459-2.288-1.292-3.121-.457-.457-.708-1.063-.708-1.708v-.864c0-.552-.448-1-1-1s-1,.448-1,1v.864c0,1.179,.459,2.287,1.293,3.122,.456,.456,.707,1.062,.707,1.707Zm7,8.308v4c0,2.045-1.237,3.802-3,4.576V15c0-.552-.448-1-1-1s-1,.448-1,1v9h-3V15c0-.552-.448-1-1-1s-1,.448-1,1v9h-4V15c0-.552-.448-1-1-1s-1,.448-1,1v9h-3V15c0-.552-.448-1-1-1s-1,.448-1,1v8.576c-1.763-.774-3-2.531-3-4.576v-4c0-1.304,.837-2.403,2-2.816v-1.684c0-1.93,1.57-3.5,3.5-3.5h.5c1.578,0,3.061,.772,3.966,2.065l2.054,2.935h8.979c1.657,0,3,1.343,3,3ZM5.5,5c1.381,0,2.5-1.119,2.5-2.5S6.881,0,5.5,0,3,1.119,3,2.5s1.119,2.5,2.5,2.5Z"/></svg>
