<?xml version="1.0" encoding="UTF-8"?>
<svg xmlns="http://www.w3.org/2000/svg" id="Layer_1" data-name="Layer 1" viewBox="0 0 24 24" width="512" height="512"><path d="m12,0C5.383,0,0,5.383,0,12s5.383,12,12,12,12-5.383,12-12S18.617,0,12,0Zm5.061,16.099c-.195,1.075-.974,1.804-1.946,1.888-.062.006-.125.008-.187.008-.916,0-1.733-.582-2.071-1.495l-.869-2.494-.886,2.481c-.364.983-1.251,1.597-2.237,1.498-.96-.082-1.729-.81-1.915-1.81l-.944-8.818c-.059-.55.339-1.042.888-1.101.551-.056,1.042.34,1.1.888l.933,8.742h0s.036.1.108.106c.078.004.14-.064.186-.189l1.836-5.14c.143-.397.52-.663.942-.663h.004c.424.002.801.271.94.671l1.795,5.152c.041.11.121.174.203.171.03-.003.108-.01.141-.184l.923-8.667c.059-.549.539-.949,1.101-.888.549.059.946.551.888,1.101l-.934,8.742Z"/></svg>
