<?xml version="1.0" encoding="UTF-8"?>
<svg xmlns="http://www.w3.org/2000/svg" id="Layer_1" data-name="Layer 1" viewBox="0 0 24 24" width="512" height="512"><path d="m12,0C5.383,0,0,5.383,0,12s5.383,12,12,12,12-5.383,12-12S18.617,0,12,0Zm7.879,9.121c-.563.563-1.326.879-2.121.879h-2.257l.993.993c.325.325.507.765.507,1.224v1.303c0,.314-.085.622-.247.891l-2.495,4.159c-.16.267-.448.43-.759.43h-.807c-.406,0-.76-.276-.859-.671l-.693-2.774c-.082-.327-.375-.556-.712-.556h-1.427c-1.105,0-2-.895-2-2v-1.045c0-.597.298-1.154.795-1.485l1.756-1.17c.293-.195.638-.3.99-.3h2.633c.457,0,.827-.37.827-.827v-.831c0-.219-.087-.43-.242-.585l-.801-.801c-.268-.268-.685-.32-1.01-.124l-1.546.928c-.262.157-.561.24-.867.24h-.726c-.446,0-.808-.362-.808-.808v-.826c0-.233-.101-.454-.276-.608l-1.245-1.089c1.583-1.053,3.481-1.67,5.52-1.67,4.049,0,7.536,2.424,9.107,5.893l-1.229,1.229Z"/></svg>
