<?xml version="1.0" encoding="UTF-8"?>
<svg xmlns="http://www.w3.org/2000/svg" id="Layer_1" data-name="Layer 1" viewBox="0 0 24 24" width="512" height="512"><path d="M24,7H0C0,4.243,2.243,2,5,2h14c2.757,0,5,2.243,5,5Zm0,2v8c0,2.757-2.243,5-5,5H5c-2.757,0-5-2.243-5-5V9H5v7c0,1.103,.897,2,2,2h4c.553,0,1-.447,1-1s-.447-1-1-1H7v-2h2c.553,0,1-.447,1-1s-.447-1-1-1h-2v-3H24Zm-11,5h2c.553,0,1-.447,1-1s-.447-1-1-1h-2c-.553,0-1,.447-1,1s.447,1,1,1Zm5,3c0-.553-.447-1-1-1h-2c-.553,0-1,.447-1,1s.447,1,1,1h2c.553,0,1-.447,1-1Z"/></svg>
