<?xml version="1.0" encoding="UTF-8"?>
<svg xmlns="http://www.w3.org/2000/svg" id="Layer_1" data-name="Layer 1" viewBox="0 0 24 24" width="512" height="512"><path d="m21.5,10c-1.381,0-2.5,1.119-2.5,2.5v1.5c0,.552-.448,1-1,1s-1-.448-1-1V5C17,2.078,14.48-.266,11.5.024c-2.597.254-4.5,2.589-4.5,5.199v3.777c0,.552-.448,1-1,1s-1-.448-1-1v-1.5c0-1.381-1.119-2.5-2.5-2.5S0,6.119,0,7.5v2.5c0,2.761,2.239,5,5,5h2v5c0,2.209,1.791,4,4,4h2c2.209,0,4-1.791,4-4h2c2.761,0,5-2.239,5-5v-2.5c0-1.381-1.119-2.5-2.5-2.5Zm-11,10c-.828,0-1.5-.672-1.5-1.5s.672-1.5,1.5-1.5,1.5.672,1.5,1.5-.672,1.5-1.5,1.5Zm0-12c-.828,0-1.5-.672-1.5-1.5s.672-1.5,1.5-1.5,1.5.672,1.5,1.5-.672,1.5-1.5,1.5Zm3,6c-.828,0-1.5-.672-1.5-1.5s.672-1.5,1.5-1.5,1.5.672,1.5,1.5-.672,1.5-1.5,1.5Z"/></svg>
