<?xml version="1.0" encoding="UTF-8"?>
<svg xmlns="http://www.w3.org/2000/svg" id="Layer_1" data-name="Layer 1" viewBox="0 0 24 24">
  <path d="m16.996,21c0,1.657.157,3-1.5,3-1.03,0-2.519-1.16-3.498-2.038-.979.877-2.468,2.038-3.498,2.038-1.657,0-1.5-1.343-1.5-3s-.157-3,1.5-3c1.03,0,2.519,1.16,3.498,2.038.979-.877,2.468-2.038,3.498-2.038,1.657,0,1.5,1.343,1.5,3Zm6.502-10.964c-.348-.627-.817-1.135-1.396-1.509-.407-.262-.613-.732-.513-1.173.155-.688.132-1.394-.07-2.097-.381-1.331-1.445-2.396-2.777-2.776-.703-.202-1.41-.227-2.097-.069-.444.097-.91-.107-1.173-.513-.373-.579-.88-1.05-1.507-1.396-1.213-.674-2.719-.674-3.928,0-.627.347-1.134.816-1.508,1.396-.263.407-.729.613-1.174.514-.688-.155-1.393-.133-2.095.07-1.332.381-2.396,1.444-2.778,2.776-.202.704-.225,1.41-.069,2.098.1.438-.107.91-.514,1.173-.579.374-1.049.882-1.396,1.508-.328.592-.502,1.271-.502,1.964s.174,1.372.501,1.963c.348.627.817,1.135,1.397,1.51.407.262.613.733.514,1.172-.156.688-.133,1.394.069,2.099.357,1.242,1.311,2.243,2.517,2.682,0-.015,0-.03,0-.044v-.762c-.01-1.236-.021-2.637,1.009-3.675.622-.627,1.461-.944,2.493-.944.198,0,.399.025.602.061-1.268-.907-2.102-2.383-2.102-4.061,0-2.761,2.239-5,5-5s5,2.239,5,5c0,1.677-.833,3.153-2.1,4.06.201-.035.4-.06.596-.06,1.032,0,1.871.317,2.493.944,1.029,1.038,1.019,2.438,1.009,3.674v.764c0,.015,0,.03,0,.045,1.209-.438,2.165-1.441,2.52-2.684.202-.703.226-1.409.069-2.098-.1-.439.106-.91.514-1.173.579-.373,1.049-.881,1.396-1.508.328-.591.502-1.271.502-1.964s-.174-1.373-.502-1.964Z"/>
</svg>
