<?xml version="1.0" encoding="UTF-8"?>
<svg xmlns="http://www.w3.org/2000/svg" id="Layer_1" data-name="Layer 1" viewBox="0 0 24 24">
  <path d="m18.25,22.5s-.642.689-.915.845c-.75.429-1.606.655-2.475.655h-5.727c-2.589,0-4.729-1.943-4.977-4.521l-1.282-12.3c11.315,11.157,15.375,15.322,15.375,15.322Zm5.457,1.207c-.195.195-.451.293-.707.293s-.512-.098-.707-.293L.293,1.707C-.098,1.316-.098.684.293.293S1.316-.098,1.707.293l3.707,3.707h.687c.465-2.279,2.484-4,4.899-4h2c2.414,0,4.434,1.721,4.899,4h4.101c.552,0,1,.447,1,1s-.448,1-1,1h-.885l-1.186,12.515,3.778,3.778c.391.391.391,1.023,0,1.414ZM15.816,4c-.414-1.161-1.514-2-2.816-2h-2c-1.302,0-2.402.839-2.816,2h7.631Z"/>
</svg>
