<?xml version="1.0" encoding="UTF-8"?>
<svg xmlns="http://www.w3.org/2000/svg" id="Layer_1" data-name="Layer 1" viewBox="0 0 24 24" width="512" height="512"><path d="m18,11.996v-7C18,2.239,15.757-.004,13-.004H5C2.243-.004,0,2.239,0,4.996v12.854c0,.793.435,1.519,1.134,1.894.318.171.667.255,1.015.255.416,0,.831-.121,1.191-.36l3.963-2.643h5.697c2.757,0,5-2.243,5-5Zm-9,2.004c-.552,0-1-.448-1-1s.448-1,1-1,1,.448,1,1-.448,1-1,1Zm1.447-4.371c-.447.246-.447.318-.447.371,0,.553-.448,1-1,1s-1-.447-1-1c0-1.308,1.038-1.879,1.481-2.123.29-.159.595-.535.502-1.066-.069-.392-.402-.725-.793-.793-.306-.056-.602.022-.832.216-.228.19-.358.47-.358.767,0,.553-.448,1-1,1s-1-.447-1-1c0-.889.391-1.727,1.072-2.299.681-.572,1.577-.814,2.463-.653,1.209.211,2.204,1.205,2.417,2.417.223,1.272-.382,2.543-1.506,3.164Zm13.553-.633v12.854c0,.793-.435,1.519-1.134,1.894-.318.171-.667.255-1.015.256-.416,0-.831-.121-1.19-.36l-3.964-2.644h-5.697c-1.45,0-2.747-.631-3.661-1.62l.569-.38h5.092c3.859,0,7-3.141,7-7v-7c0-.308-.027-.608-.065-.906,2.311.44,4.065,2.469,4.065,4.906Z"/></svg>
