<?xml version="1.0" encoding="UTF-8"?>
<svg xmlns="http://www.w3.org/2000/svg" id="Layer_1" data-name="Layer 1" viewBox="0 0 24 24" width="512" height="512"><path d="M9.5,2.5c0-1.381,1.119-2.5,2.5-2.5s2.5,1.119,2.5,2.5-1.119,2.5-2.5,2.5-2.5-1.119-2.5-2.5Zm-2.5,9.5v-2c0-2.206,1.794-4,4-4h2c2.206,0,4,1.794,4,4v2c0,1.304-.836,2.416-2,2.829v4.171c0,.552-.447,1-1,1s-1-.448-1-1v-4h-2v4c0,.552-.447,1-1,1s-1-.448-1-1v-4.171c-1.164-.413-2-1.525-2-2.829Zm11.203,3.587c-.296-.061-.601,.014-.834,.204-.233,.189-.369,.475-.369,.775v2.372c0,1.563-1.198,2.889-2.757,2.991-.701,.046-1.449,.071-2.243,.071s-1.542-.025-2.243-.071c-1.56-.102-2.757-1.427-2.757-2.991v-2.372c0-.301-.136-.586-.369-.775-.232-.19-.54-.265-.834-.204-3.738,.775-5.797,2.165-5.797,3.913,0,3.092,6.221,4.5,12,4.5s12-1.408,12-4.5c0-1.748-2.059-3.138-5.797-3.913Z"/></svg>
