<?xml version="1.0" encoding="UTF-8"?>
<svg xmlns="http://www.w3.org/2000/svg" id="Layer_1" data-name="Layer 1" viewBox="0 0 24 24" width="512" height="512"><path d="M17.43,11.35c.97-.99,1.57-2.35,1.57-3.85,0-3.03-2.47-5.5-5.5-5.5h-2.5V1c0-.55-.45-1-1-1s-1,.45-1,1v1h-1c-2.21,0-4,1.79-4,4v12c0,2.21,1.79,4,4,4h1v1c0,.55,.45,1,1,1s1-.45,1-1v-1h4.5c3.03,0,5.5-2.47,5.5-5.5,0-2.36-1.49-4.37-3.57-5.15Zm-3.93-7.35c1.93,0,3.5,1.57,3.5,3.5s-1.57,3.5-3.5,3.5h-2.5V4h2.5Zm-7.5,2c0-1.1,.9-2,2-2h1v7h-3V6Zm2,14c-1.1,0-2-.9-2-2v-5h3v7h-1Zm7.5,0h-4.5v-7h4.5c1.93,0,3.5,1.57,3.5,3.5s-1.57,3.5-3.5,3.5Z"/></svg>
