<?xml version="1.0" encoding="UTF-8"?>
<svg xmlns="http://www.w3.org/2000/svg" id="Layer_1" data-name="Layer 1" viewBox="0 0 24 24" width="512" height="512"><path d="M23.71,22.29c.39,.39,.39,1.02,0,1.41-.2,.2-.45,.29-.71,.29s-.51-.1-.71-.29l-2.54-2.54c-.79,.52-1.74,.83-2.75,.83-2.76,0-5-2.24-5-5s2.24-5,5-5,5,2.24,5,5c0,1.02-.31,1.96-.83,2.75l2.54,2.54ZM19,4c0-2.21-1.79-4-4-4h-6c-2.21,0-4,1.79-4,4v1h14v-1Zm-9,13c0-.7,.1-1.37,.29-2h-2.29c-1.65,0-3,1.35-3,3v3c0,1.65,1.35,3,3,3h8c.11,0,.22-.02,.33-.03-3.55-.34-6.33-3.33-6.33-6.97ZM19,7H5C2.24,7,0,9.24,0,12v4c0,2.05,1.24,3.8,3,4.58v-2.58c0-2.76,2.24-5,5-5h3.26c1.27-1.81,3.36-3,5.74-3,3.66,0,6.67,2.82,6.97,6.4,.01-.13,.03-.27,.03-.4v-4c0-2.76-2.24-5-5-5Z"/></svg>
