<?xml version="1.0" encoding="UTF-8"?>
<svg xmlns="http://www.w3.org/2000/svg" id="Layer_1" data-name="Layer 1" viewBox="0 0 24 24" width="512" height="512"><path d="m12.836.029c-3.465-.233-6.874,1.036-9.327,3.492C1.057,5.976-.211,9.378.029,12.854c.441,6.354,6.053,11.146,13.054,11.146h5.917c2.757,0,5-2.243,5-5v-6.66C24,5.862,19.097.454,12.836.029Zm-4.336,7.971c.828,0,1.5.672,1.5,1.5s-.672,1.5-1.5,1.5-1.5-.672-1.5-1.5.672-1.5,1.5-1.5Zm8.204,7.21c-.074.073-1.84,1.79-4.704,1.79s-4.63-1.716-4.704-1.79c-.392-.389-.396-1.021-.007-1.414.39-.392,1.021-.396,1.415-.007.046.045,1.28,1.21,3.296,1.21s3.25-1.166,3.302-1.215c.396-.382,1.028-.374,1.411.02.384.393.381,1.02-.009,1.406Zm-1.204-4.21c-.828,0-1.5-.672-1.5-1.5s.672-1.5,1.5-1.5,1.5.672,1.5,1.5-.672,1.5-1.5,1.5Z"/></svg>
