<?xml version="1.0" encoding="UTF-8"?>
<svg xmlns="http://www.w3.org/2000/svg" id="Layer_1" data-name="Layer 1" viewBox="0 0 24 24" width="512" height="512"><path d="M8,8v12c0,2.21-1.79,4-4,4S0,22.21,0,20V8c0-2.21,1.79-4,4-4s4,1.79,4,4Zm2,2h14v9c0,2.76-2.24,5-5,5H8.46c.95-1.06,1.54-2.46,1.54-4V10Zm8,4.5c0,.83,.67,1.5,1.5,1.5s1.5-.67,1.5-1.5-.67-1.5-1.5-1.5-1.5,.67-1.5,1.5Zm0,5c0,.83,.67,1.5,1.5,1.5s1.5-.67,1.5-1.5-.67-1.5-1.5-1.5-1.5,.67-1.5,1.5Zm-5-5c0,.83,.67,1.5,1.5,1.5s1.5-.67,1.5-1.5-.67-1.5-1.5-1.5-1.5,.67-1.5,1.5Zm0,5c0,.83,.67,1.5,1.5,1.5s1.5-.67,1.5-1.5-.67-1.5-1.5-1.5-1.5,.67-1.5,1.5Zm7-13.5c-1.1,0-2-.9-2-2V0h-4c-2.21,0-4,1.79-4,4v4h14v-2h-4Zm0-2h3.36c-.08-.1-.15-.2-.24-.29l-2.83-2.83c-.09-.09-.19-.16-.29-.24v3.36Z"/></svg>
