<?xml version="1.0" encoding="UTF-8"?>
<svg xmlns="http://www.w3.org/2000/svg" id="Layer_1" data-name="Layer 1" viewBox="0 0 24 24" width="512" height="512"><path d="m17.088,6.482c-1.213-.306-2.384-.311-3.474-.092-.397.08-.72-.296-.598-.683.406-1.295.977-2.482,1.818-3.505.395-.481.046-1.203-.577-1.203-3.641.001-6.882,2.382-7.773,5.913-.306,1.213-.311,2.384-.092,3.474.08.397-.296.72-.683.598-1.295-.406-2.482-.977-3.505-1.818-.481-.395-1.203-.046-1.203.577.001,3.641,2.382,6.882,5.912,7.773,1.21.305,2.379.311,3.467.093.397-.079.727.295.605.681-.406,1.294-.977,2.481-1.818,3.505-.391.477-.052,1.189.56,1.202,3.618-.027,6.904-2.401,7.79-5.912.306-1.213.311-2.384.092-3.474-.08-.397.296-.72.683-.598,1.295.406,2.482.977,3.505,1.818.481.395,1.203.046,1.203-.577-.001-3.641-2.382-6.882-5.912-7.773Zm-5.088,7.018c-.828,0-1.5-.672-1.5-1.5s.672-1.5,1.5-1.5,1.5.672,1.5,1.5-.672,1.5-1.5,1.5Z"/></svg>
