<?xml version="1.0" encoding="UTF-8"?>
<svg xmlns="http://www.w3.org/2000/svg" id="Layer_1" data-name="Layer 1" viewBox="0 0 24 24">
  <path d="m6,15.309c1.52.37,3.201.595,5,.658v8.007c-1.821-.078-3.513-.367-5-.824v-7.841Zm-6,2.191c0,1.963,1.538,3.692,4,4.874v-7.665c-1.619-.588-2.991-1.346-4-2.25v5.041Zm13,6.474c1.821-.078,3.513-.367,5-.824v-7.841c-1.52.37-3.201.595-5,.658v8.007Zm7-1.6c2.462-1.182,4-2.911,4-4.874v-5.041c-1.009.904-2.381,1.662-4,2.25v7.665Zm4-13.874c0-1.506-1.332-2.864-3.473-3.856l3.153-2.905c.406-.378.429-1.013.051-1.419-.376-.404-1.007-.429-1.414-.056l-10.118,9.256c-.405.37-1.033.345-1.407-.057-.379-.407-.353-1.045.058-1.42l5.174-4.72c-1.26-.206-2.61-.324-4.024-.324C5.373,3,0,5.462,0,8.5s5.373,5.5,12,5.5,12-2.462,12-5.5Z"/>
</svg>
