<?xml version="1.0" encoding="UTF-8"?>
<svg xmlns="http://www.w3.org/2000/svg" id="Layer_1" data-name="Layer 1" viewBox="0 0 24 24" width="512" height="512"><path d="m12,7V.46c.913.346,1.753.879,2.465,1.59l3.484,3.486c.712.711,1.245,1.551,1.591,2.464h-6.54c-.552,0-1-.449-1-1Zm1.27,12.48c-.813.813-1.27,1.915-1.27,3.065v1.455h1.455c1.15,0,2.252-.457,3.065-1.27l6.807-6.807c.897-.897.897-2.353,0-3.25-.897-.897-2.353-.897-3.25,0l-6.807,6.807Zm-3.27,3.065c0-1.692.659-3.283,1.855-4.479l6.807-6.807c.389-.389.842-.688,1.331-.901-.004-.12-.009-.239-.017-.359h-6.976c-1.654,0-3-1.346-3-3V.024c-.161-.011-.322-.024-.485-.024h-4.515C2.243,0,0,2.243,0,5v14c0,2.757,2.243,5,5,5h5v-1.455Z"/></svg>
