<?xml version="1.0" encoding="UTF-8"?>
<svg xmlns="http://www.w3.org/2000/svg" id="Layer_1" data-name="Layer 1" viewBox="0 0 24 24" width="512" height="512"><path d="M16,2.5c0-.828,.672-1.5,1.5-1.5s1.5,.672,1.5,1.5-.672,1.5-1.5,1.5-1.5-.672-1.5-1.5Zm-7.181,1.552c.749,.121,1.428,.434,2.024,.861,.094-.29,.157-.593,.157-.914,0-.101-.02-.196-.03-.294,.302,.183,.652,.294,1.03,.294,1.103,0,2-.897,2-2s-.897-2-2-2c-1.034,0-1.876,.791-1.979,1.797-.534-.49-1.24-.797-2.021-.797-1.654,0-3,1.346-3,3,0,.309,.061,.602,.148,.883,1.063-.739,2.374-1.042,3.671-.83Zm12.621,12.362l-1.421,1.421c-.243,.144-.561,.112-.771-.098-.229-.229-.246-.589-.052-.838l4.364-4.364c.586-.585,.586-1.536,0-2.121-.586-.586-1.535-.586-2.121,0l-4.358,4.358c-.249,.2-.614,.185-.845-.046-.208-.208-.241-.523-.1-.766l5.425-5.425c.586-.585,.586-1.536,0-2.121-.586-.586-1.535-.586-2.121,0l-5.358,5.358c-.249,.2-.614,.185-.845-.046-.208-.208-.241-.523-.1-.766l3.425-3.425c.586-.585,.586-1.536,0-2.121-.586-.586-1.535-.586-2.121,0l-4.439,4.439v-1.853c0-1.105-.895-2-2-2s-2,.895-2,2v7.746c0,2.16,.841,4.191,2.369,5.719,1.69,1.69,3.911,2.535,6.131,2.535s4.44-.845,6.131-2.535l2.929-2.93c.586-.586,.586-1.535,0-2.121s-1.536-.586-2.121,0Zm-14.875,5.735c-.041-.026-.113-.086-.207-.171-1.545-1.409-2.389-3.429-2.383-5.52l.026-8.458c0-1.105-.895-2-2-2S0,6.895,0,8v7.746s.014-.021,.014-.021c.095,1.5,.671,2.933,1.647,4.085l2.511,2.962c.446,.451,.878,.793,1.34,1.078,.164,.102,.345,.149,.524,.149,.335,0,.663-.168,.852-.475,.291-.47,.145-1.086-.325-1.376Z"/></svg>
