<?xml version="1.0" encoding="UTF-8"?>
<svg xmlns="http://www.w3.org/2000/svg" id="Layer_1" data-name="Layer 1" viewBox="0 0 24 24" width="512" height="512"><path d="M13,0H5C2.24,0,0,2.24,0,5v12.85c0,.79,.43,1.52,1.13,1.89,.32,.17,.67,.25,1.01,.25,.42,0,.83-.12,1.19-.36l3.96-2.64h5.7c2.76,0,5-2.24,5-5V5c0-2.76-2.24-5-5-5Zm-2.62,13h-.38c0,.55-.45,1-1,1s-1-.45-1-1h-.27c-1.07,0-2.06-.57-2.6-1.5-.28-.48-.11-1.09,.36-1.37,.48-.28,1.09-.11,1.37,.36,.18,.31,.51,.5,.87,.5h2.64c.34,0,.62-.28,.62-.62,0-.31-.22-.57-.52-.62l-3.28-.55c-1.27-.21-2.19-1.3-2.19-2.59,0-1.45,1.18-2.62,2.62-2.62h.38c0-.55,.45-1,1-1s1,.45,1,1h.27c1.07,0,2.06,.57,2.6,1.5,.28,.48,.11,1.09-.36,1.37-.48,.28-1.09,.11-1.37-.36-.18-.31-.51-.5-.87-.5h-2.64c-.34,0-.62,.28-.62,.62,0,.31,.22,.57,.52,.62l3.28,.55c1.27,.21,2.19,1.3,2.19,2.59,0,1.45-1.18,2.62-2.62,2.62Zm13.62-4v12.85c0,.79-.43,1.52-1.13,1.89-.32,.17-.67,.25-1.01,.26-.42,0-.83-.12-1.19-.36l-3.96-2.64h-5.7c-1.45,0-2.75-.63-3.66-1.62l.57-.38h5.09c3.86,0,7-3.14,7-7V5c0-.31-.03-.61-.07-.91,2.31,.44,4.07,2.47,4.07,4.91Z"/></svg>
