<?xml version="1.0" encoding="UTF-8"?>
<svg xmlns="http://www.w3.org/2000/svg" id="Layer_1" data-name="Layer 1" viewBox="0 0 24 24" width="512" height="512"><path d="m10.841,14.21c-1.332.489-2.191,1.69-2.191,3.061,0,1.324.543,2.921,1.614,4.745.361.616,1.029,1.02,1.736.983.725,0,1.374-.367,1.735-.982,1.051-1.792,1.594-3.363,1.614-4.671.013-.868-.353-1.732-1.004-2.371-.929-.911-2.271-1.217-3.504-.766Zm12.88.172c-.262-.841-.891-1.567-1.724-1.99-.821-.417-1.74-.506-2.584-.25-.382.115-.742.3-1.071.55-1.154.876-1.616,2.307-1.176,3.646.423,1.288,1.468,2.682,3.104,4.142.379.338.87.518,1.37.518.214,0,.429-.033.638-.101.693-.223,1.199-.772,1.354-1.468.459-2.065.489-3.763.088-5.047Zm-18.063-1.689c-.329-.25-.689-.435-1.07-.55-.848-.256-1.764-.167-2.585.25-.833.423-1.462,1.148-1.724,1.99-.401,1.284-.371,2.982.088,5.048.155.696.661,1.245,1.354,1.468.209.067.424.101.638.101.5,0,.991-.18,1.371-.518,1.636-1.46,2.681-2.854,3.104-4.142.439-1.338-.022-2.77-1.176-3.645ZM.288,2.702c-.387-.393-.382-1.025.01-1.413.393-.388,1.027-.383,1.414.009.046.047,4.689,4.675,10.237,4.704.017,0,.034-.001.052-.001s.034,0,.052.001c5.548-.029,10.19-4.657,10.237-4.704.388-.392,1.021-.396,1.414-.009.393.388.397,1.02.01,1.413-.136.138-2.248,2.252-5.423,3.768l1.13,2.636c.218.508-.018,1.096-.525,1.313-.128.055-.262.082-.394.082-.388,0-.757-.228-.919-.606l-1.143-2.666c-1.072.367-2.227.635-3.438.733v3.039c0,.552-.448,1-1,1s-1-.448-1-1v-3.039c-1.212-.098-2.366-.366-3.438-.733l-1.143,2.666c-.162.379-.531.606-.919.606-.131,0-.265-.026-.394-.082-.507-.217-.743-.805-.525-1.313l1.13-2.636C2.535,4.954.423,2.839.288,2.702Z"/></svg>
