<?xml version="1.0" encoding="UTF-8"?>
<svg xmlns="http://www.w3.org/2000/svg" id="Layer_1" data-name="Layer 1" viewBox="0 0 24 24" width="512" height="512"><path d="M23,8h-1.101c-.465-2.279-2.485-4-4.899-4H5C2.243,4,0,6.243,0,9v6c0,2.757,2.243,5,5,5h12c2.414,0,4.435-1.721,4.899-4h1.101c.552,0,1-.448,1-1v-6c0-.552-.448-1-1-1Zm-8.779,5.96l-1.728,3.484c-.175,.352-.529,.556-.897,.556-.149,0-.301-.033-.443-.104-.495-.246-.697-.846-.452-1.34l1.751-3.53,.013-.025h-3.042c-.621,0-1.206-.288-1.563-.769-.35-.472-.451-1.072-.277-1.646,.02-.065,.046-.128,.079-.188l2.108-3.875c.263-.485,.871-.664,1.356-.4,.485,.264,.665,.871,.4,1.356l-1.943,3.572,3.01-.05c.693,0,1.333,.389,1.668,1.016,.333,.621,.315,1.358-.041,1.944Z"/><path d="M23,8h-1.101c-.465-2.279-2.485-4-4.899-4H5C2.243,4,0,6.243,0,9v6c0,2.757,2.243,5,5,5h12c2.414,0,4.435-1.721,4.899-4h1.101c.552,0,1-.448,1-1v-6c0-.552-.448-1-1-1Zm-8.779,5.96l-1.728,3.484c-.175,.352-.529,.556-.897,.556-.149,0-.301-.033-.443-.104-.495-.246-.697-.846-.452-1.34l1.751-3.53,.013-.025h-3.042c-.621,0-1.206-.288-1.563-.769-.35-.472-.451-1.072-.277-1.646,.02-.065,.046-.128,.079-.188l2.108-3.875c.263-.485,.871-.664,1.356-.4,.485,.264,.665,.871,.4,1.356l-1.943,3.572,3.01-.05c.693,0,1.333,.389,1.668,1.016,.333,.621,.315,1.358-.041,1.944Z"/></svg>
