<?xml version="1.0" encoding="UTF-8"?>
<svg xmlns="http://www.w3.org/2000/svg" id="Layer_1" data-name="Layer 1" viewBox="0 0 24 24" width="512" height="512"><path d="M19.89,9.65c-.36-.42-.32-1.05,.1-1.41,.42-.36,1.05-.32,1.41,.1,1.07,1.24,1.85,2.71,2.32,4.38,.15,.53-.16,1.08-.69,1.23-.09,.03-.18,.04-.27,.04-.44,0-.84-.29-.96-.73-.39-1.39-1.04-2.6-1.91-3.62ZM1,22c-.07,0,.07,0,0,0H1Zm22.95-4.68c-1.36,4.08-4.31,4.68-5.95,4.68-1.41,0-2.64-.62-3.66-1.55-1.18,.93-2.63,1.55-4.34,1.55s-3.22-.95-4.63-2.4c-1.25,1.2-2.79,2.31-4.37,2.4-.46,0-.88-.33-.98-.8-.11-.54,.24-1.07,.78-1.18,1.15-.24,2.26-.96,3.27-1.96C1.64,14.78,0,10.24,0,7.5,0,4.57,2.54,2,5.43,2s5.57,2.62,5.57,5.5c0,2.69-1.65,7.29-4.29,10.61,1.08,1.15,2.22,1.89,3.29,1.89,1.17,0,2.19-.42,3.02-1.06-1.31-1.86-2.02-4.12-2.02-5.48,0-1.84,1.64-3.45,3.51-3.45s3.49,1.61,3.49,3.45c0,1.51-.77,3.77-2.23,5.58,.67,.59,1.42,.97,2.23,.97,1.95,0,3.32-1.12,4.05-3.32,.17-.52,.74-.81,1.27-.63,.52,.17,.81,.74,.63,1.27Zm-18.53-.83c2.14-2.88,3.59-6.79,3.59-8.99,0-1.8-1.74-3.5-3.57-3.5s-3.43,1.67-3.43,3.5c0,2.39,1.47,6.2,3.41,8.99Zm9.03,.97c1.02-1.4,1.55-3.05,1.55-4,0-.73-.74-1.45-1.49-1.45s-1.51,.73-1.51,1.45c0,.95,.55,2.6,1.45,4Z"/></svg>
