<?xml version="1.0" encoding="UTF-8"?>
<svg xmlns="http://www.w3.org/2000/svg" id="Layer_1" data-name="Layer 1" viewBox="0 0 24 24" width="512" height="512"><path d="M16,4c-1.46,0-2.82,.4-4,1.08-1.18-.68-2.54-1.08-4-1.08C3.59,4,0,7.59,0,12s3.59,8,8,8c1.46,0,2.82-.4,4-1.08,1.18,.68,2.54,1.08,4,1.08,4.41,0,8-3.59,8-8s-3.59-8-8-8Zm-5.19,11h2.38c-.32,.55-.72,1.04-1.19,1.46-.47-.42-.87-.91-1.19-1.46Zm1.19-7.46c.47,.42,.87,.91,1.19,1.46h-2.38c.32-.55,.72-1.04,1.19-1.46Zm-2,4.46c0-.34,.04-.67,.09-1h3.82c.06,.33,.09,.66,.09,1s-.04,.67-.09,1h-3.82c-.06-.33-.09-.66-.09-1Zm-8,0c0-3.31,2.69-6,6-6,.8,0,1.56,.16,2.26,.44-1.39,1.44-2.26,3.4-2.26,5.56s.86,4.12,2.26,5.56c-.7,.28-1.46,.44-2.26,.44-3.31,0-6-2.69-6-6Z"/></svg>
