<?xml version="1.0" encoding="UTF-8"?>
<svg xmlns="http://www.w3.org/2000/svg" id="Layer_1" data-name="Layer 1" viewBox="0 0 24 24" width="512" height="512"><path d="M16,4H8c0-1.105,.895-2,2-2h1V1c0-.553,.447-1,1-1s1,.447,1,1v1h1c1.105,0,2,.895,2,2Zm-8,2v6h8V6H8Zm10,6h5.678l.243-1.216c.236-1.18-.066-2.39-.829-3.32s-1.89-1.464-3.093-1.464h-1.999v6ZM.322,12H6V6h-1.999c-1.203,0-2.33,.533-3.093,1.464S-.157,9.604,.079,10.784l.243,1.216Zm22.955,2l-.077,.383c-.419,2.096-2.274,3.617-4.412,3.617h-2.789v3c0,1.654-1.346,3-3,3h-2c-1.654,0-3-1.346-3-3v-3h-2.789c-2.138,0-3.993-1.521-4.412-3.617l-.077-.383H23.278Z"/></svg>
