<?xml version="1.0" encoding="UTF-8"?>
<svg xmlns="http://www.w3.org/2000/svg" id="Layer_1" data-name="Layer 1" viewBox="0 0 24 24" width="512" height="512"><path d="m23,16c-.553,0-1,.448-1,1v.5c0,.827-.673,1.5-1.5,1.5s-1.5-.673-1.5-1.5v-1.594c.29-.184.565-.369.811-.548.756-.554,1.19-1.409,1.19-2.346,0-.766-.303-1.467-.822-2.004.417-1.192,1.536-2.009,2.821-2.009.553,0,1-.448,1-1s-.447-1-1-1c-1.947,0-3.668,1.124-4.49,2.821-.847-.493-1.847-.96-2.991-1.297l1.019-1.528c1.912-.021,3.462-1.579,3.462-3.496,0-1.93-1.57-3.5-3.5-3.5s-3.5,1.57-3.5,3.5c0,1.202.61,2.263,1.536,2.894l-1.136,1.704c-.452-.052-.917-.085-1.399-.085s-.944.033-1.396.085l-1.124-1.717c.916-.632,1.519-1.686,1.519-2.88,0-1.93-1.57-3.5-3.5-3.5s-3.5,1.57-3.5,3.5,1.568,3.497,3.496,3.5l.996,1.522c-1.148.337-2.151.805-3.001,1.299-.822-1.697-2.544-2.821-4.491-2.821-.553,0-1,.448-1,1s.447,1,1,1c1.285,0,2.405.817,2.822,2.009-.519.537-.821,1.238-.821,2.004,0,.937.434,1.792,1.189,2.345.245.179.52.363.81.548v1.594c0,.827-.673,1.5-1.5,1.5s-1.5-.673-1.5-1.5v-.5c0-.552-.447-1-1-1s-1,.448-1,1v.5c0,1.93,1.57,3.5,3.5,3.5s3.5-1.57,3.5-3.5v-.542c.614.264,1.281.493,2,.673v1.382c0,1.654-1.346,3-3,3-.553,0-1,.448-1,1s.447,1,1,1c2.757,0,5-2.243,5-5v-1.051c.328.027.657.051,1,.051s.672-.024,1-.051v1.051c0,2.757,2.243,5,5,5,.553,0,1-.448,1-1s-.447-1-1-1c-1.654,0-3-1.346-3-3v-1.382c.718-.179,1.386-.408,2-.672v.542c0,1.93,1.57,3.5,3.5,3.5s3.5-1.57,3.5-3.5v-.5c0-.552-.447-1-1-1Zm-6.5-14c.827,0,1.5.673,1.5,1.5s-.673,1.5-1.5,1.5-1.5-.673-1.5-1.5.673-1.5,1.5-1.5Zm-10.5,1.5c0-.827.673-1.5,1.5-1.5s1.5.673,1.5,1.5c0,.689-.469,1.265-1.103,1.44-.065.006-.127.02-.191.039-.068.009-.135.021-.206.021-.827,0-1.5-.673-1.5-1.5Z"/></svg>
