<?xml version="1.0" encoding="UTF-8"?>
<svg xmlns="http://www.w3.org/2000/svg" id="Layer_1" data-name="Layer 1" viewBox="0 0 24 24" width="512" height="512"><path d="m8.43,21.33c2.218-1.512,4.647-3.552,6.996-5.901,4.581-4.581,5.896-7.002,5.893-7.011,2.17-3.167,3.524-6.294,2.033-7.784-1.603-1.605-5.035.13-7.808,2.025-1.106-.422-2.3-.664-3.552-.664C6.478,1.993,1.992,6.479,1.992,11.993c0,1.252.241,2.446.664,3.552-1.893,2.774-3.627,6.206-2.024,7.809.424.425.993.637,1.703.637,1.153,0,2.679-.559,4.562-1.674.261-.155,1.286-.818,1.533-.986ZM21.938,2.046c.318.318-.15,1.92-1.668,4.344-.717-1.055-1.629-1.967-2.685-2.683,3.01-1.894,4.228-1.785,4.353-1.661ZM5.878,20.595c-2.686,1.591-3.735,1.442-3.832,1.345-.124-.124-.232-1.344,1.661-4.353.716,1.057,1.629,1.971,2.686,2.688-.172.108-.347.221-.515.321Zm16.063-9.582c.033.323.052.649.052.981,0,5.514-4.486,10-10,10-.331,0-.657-.019-.979-.052,1.903-1.429,3.896-3.167,5.827-5.099.817-.816,3.053-3.122,5.1-5.83Z"/></svg>
