<?xml version="1.0" encoding="UTF-8"?>
<svg xmlns="http://www.w3.org/2000/svg" id="Layer_1" data-name="Layer 1" viewBox="0 0 24 24" width="512" height="512"><path d="m23,8h-1.075c-.082-.588-.229-1.16-.454-1.701l.91-.543c.474-.283.629-.897.346-1.371-.283-.475-.898-.631-1.371-.346l-.911.544c-.152-.187-.313-.368-.486-.541h0c-.218-.219-.451-.413-.689-.596l.531-.98c.263-.485.083-1.092-.403-1.355-.485-.262-1.092-.082-1.355.403l-.517.954c-.494-.189-1.006-.317-1.524-.389v-1.079c0-.552-.448-1-1-1s-1,.448-1,1v1.088c-.583.086-1.155.243-1.705.477l-.563-.935c-.285-.473-.898-.627-1.373-.341-.473.285-.626.899-.341,1.373l.567.942c-.167.138-.33.283-.486.439l-.779.779-.844-.844c-.391-.391-1.023-.391-1.414,0s-.391,1.023,0,1.414l.844.844-1.672,1.672-.844-.844c-.391-.391-1.023-.391-1.414,0s-.391,1.023,0,1.414l.844.844-.779.779c-.156.156-.301.319-.439.486l-.943-.567c-.474-.286-1.088-.132-1.373.341-.285.473-.132,1.088.341,1.373l.935.562c-.234.549-.39,1.123-.477,1.705h-1.087c-.552,0-1,.448-1,1s.448,1,1,1h1.079c.07.5.192.992.37,1.47l-.935.506c-.486.263-.667.87-.403,1.355.181.334.525.524.88.524.161,0,.324-.039.475-.121l.946-.512c.193.255.398.504.63.736.165.165.337.32.515.465l-.518.866c-.283.474-.128,1.088.346,1.371.161.096.337.142.512.142.34,0,.672-.174.859-.487l.516-.863c.557.233,1.138.387,1.729.469v1.078c0,.552.448,1,1,1s1-.448,1-1v-1.087c.593-.088,1.175-.249,1.734-.49l.567.932c.188.31.518.48.855.48.177,0,.356-.047.519-.146.472-.287.622-.902.335-1.374l-.571-.94c.158-.132.314-.27.463-.418l.779-.779,1.055,1.054c.195.195.451.293.707.293s.512-.098.707-.293c.391-.391.391-1.024,0-1.414l-1.055-1.054,1.672-1.672,1.054,1.055c.195.195.451.293.707.293s.512-.098.707-.293c.391-.39.391-1.023,0-1.414l-1.055-1.055.779-.779c.148-.148.286-.304.419-.462l.939.571c.163.099.342.146.519.146.338,0,.667-.171.855-.48.287-.472.137-1.087-.335-1.374l-.928-.564c.239-.552.4-1.135.489-1.736h1.083c.552,0,1-.448,1-1s-.448-1-1-1Zm-15.5,8c-.828,0-1.5-.672-1.5-1.5s.672-1.5,1.5-1.5,1.5.672,1.5,1.5-.672,1.5-1.5,1.5Zm6-1c-.828,0-1.5-.672-1.5-1.5s.672-1.5,1.5-1.5,1.5.672,1.5,1.5-.672,1.5-1.5,1.5Zm1-6c-.828,0-1.5-.672-1.5-1.5s.672-1.5,1.5-1.5,1.5.672,1.5,1.5-.672,1.5-1.5,1.5Z"/></svg>
