<?xml version="1.0" encoding="UTF-8"?>
<svg xmlns="http://www.w3.org/2000/svg" id="Layer_1" data-name="Layer 1" viewBox="0 0 24 24" width="512" height="512"><path d="m17,0H7C4.243,0,2,2.243,2,5v14c0,2.757,2.243,5,5,5h10c2.757,0,5-2.243,5-5V5c0-2.757-2.243-5-5-5ZM7.5,4.5c.828,0,1.5.672,1.5,1.5s-.672,1.5-1.5,1.5-1.5-.672-1.5-1.5.672-1.5,1.5-1.5Zm0,15c-.828,0-1.5-.672-1.5-1.5s.672-1.5,1.5-1.5,1.5.672,1.5,1.5-.672,1.5-1.5,1.5Zm1.365-5.979c-.319.319-.741.479-1.165.479-.427,0-.855-.162-1.182-.487l-.681-.655c-.398-.382-.411-1.016-.028-1.414.383-.399,1.017-.41,1.414-.028l.472.454,1.866-1.815c.396-.385,1.029-.377,1.414.02.385.396.376,1.029-.02,1.414l-2.091,2.034Zm8.135,5.479h-5c-.552,0-1-.448-1-1s.448-1,1-1h5c.552,0,1,.448,1,1s-.448,1-1,1Zm0-6h-3c-.552,0-1-.448-1-1s.448-1,1-1h3c.552,0,1,.448,1,1s-.448,1-1,1Zm0-6h-5c-.552,0-1-.448-1-1s.448-1,1-1h5c.552,0,1,.448,1,1s-.448,1-1,1Z"/></svg>
