<?xml version="1.0" encoding="UTF-8"?>
<svg xmlns="http://www.w3.org/2000/svg" id="Layer_1" data-name="Layer 1" viewBox="0 0 24 24" width="512" height="512"><path d="M11,4c-.26,0-.51-.1-.71-.29-.39-.39-.39-1.02,0-1.41l1-1c.39-.39,1.02-.39,1.41,0s.39,1.02,0,1.41l-1,1c-.2,.2-.45,.29-.71,.29Zm-5.29-.29c.39-.39,.39-1.02,0-1.41l-1-1c-.39-.39-1.02-.39-1.41,0s-.39,1.02,0,1.41l1,1c.2,.2,.45,.29,.71,.29s.51-.1,.71-.29Zm3.29-1.71V1c0-.55-.45-1-1-1s-1,.45-1,1v1c0,.55,.45,1,1,1s1-.45,1-1Zm15,6c0-1.1-.9-2-2-2s-2,.9-2,2l.03,8.46c0,2.09-.84,4.11-2.38,5.52-.09,.09-.17,.15-.21,.17-.47,.29-.62,.91-.33,1.38,.19,.31,.52,.47,.85,.47,.18,0,.36-.05,.52-.15,.46-.29,.89-.63,1.34-1.08l2.51-2.96c.98-1.15,1.55-2.59,1.65-4.09v.02s.01-7.75,.01-7.75Zm-6,0c0-1.1-.9-2-2-2s-2,.9-2,2v1.85l-4.44-4.44c-.59-.59-1.54-.59-2.12,0-.59,.59-.59,1.54,0,2.12l3.43,3.43c.14,.24,.11,.56-.1,.77-.23,.23-.6,.25-.85,.05L4.56,6.41c-.59-.59-1.54-.59-2.12,0-.59,.59-.59,1.54,0,2.12l5.43,5.43c.14,.24,.11,.56-.1,.77-.23,.23-.6,.25-.85,.05L2.56,10.41c-.59-.59-1.54-.59-2.12,0-.59,.59-.59,1.54,0,2.12l4.36,4.36c.19,.25,.18,.61-.05,.84-.21,.21-.53,.24-.77,.1l-1.42-1.42c-.58-.59-1.54-.59-2.12,0s-.59,1.54,0,2.12l2.93,2.93c1.69,1.69,3.91,2.54,6.13,2.54s4.44-.84,6.13-2.54c1.53-1.53,2.37-3.56,2.37-5.72v-7.75Z"/></svg>
