<?xml version="1.0" encoding="UTF-8"?>
<svg xmlns="http://www.w3.org/2000/svg" id="Layer_1" data-name="Layer 1" viewBox="0 0 24 24" width="512" height="512"><path d="M1,22c.07,0-.07,0,0,0H1ZM21.8,13.27c.12,.44,.53,.73,.96,.73,.09,0,.18-.01,.27-.04,.53-.15,.84-.7,.69-1.23-.47-1.67-1.25-3.15-2.32-4.38-.36-.42-.99-.46-1.41-.1-.42,.36-.46,.99-.1,1.41,.88,1.01,1.52,2.23,1.91,3.62Zm1.91,10.44c-.2,.2-.45,.29-.71,.29s-.51-.1-.71-.29L.29,1.71C-.1,1.32-.1,.68,.29,.29S1.32-.1,1.71,.29L3.72,2.3c.56-.2,1.13-.3,1.71-.3,2.92,0,5.57,2.62,5.57,5.5,0,.56-.09,1.19-.22,1.87l1.48,1.48c.64-.54,1.44-.85,2.24-.85,1.86,0,3.49,1.61,3.49,3.45,0,.75-.2,1.65-.55,2.58l3.08,3.08c.65-.55,1.17-1.36,1.52-2.43,.17-.52,.74-.81,1.27-.63,.52,.17,.81,.74,.63,1.27-.45,1.36-1.13,2.44-2,3.22l1.76,1.76c.39,.39,.39,1.02,0,1.41ZM9,7.5c0-1.8-1.74-3.5-3.57-3.5,0,0,0,0-.01,0l3.58,3.58s0-.06,0-.08Zm7,5.95c0-.73-.74-1.45-1.49-1.45-.27,0-.56,.11-.81,.28l2.16,2.16c.09-.37,.14-.71,.14-.99Zm-2.81,5.34c-.97,.8-2.04,1.21-3.19,1.21-1.07,0-2.21-.75-3.29-1.9,1.12-1.42,1.93-2.89,2.38-3.8,.24-.5,.04-1.1-.46-1.34-.5-.24-1.09-.04-1.34,.46-.57,1.16-1.2,2.18-1.87,3.07-1.94-2.79-3.42-6.59-3.42-8.98,0-.2,.02-.4,.06-.6,.1-.54-.25-1.07-.79-1.17-.54-.1-1.07,.25-1.17,.79-.06,.32-.09,.66-.09,.98,0,2.74,1.64,7.28,4.07,10.55-1.07,1.05-2.19,1.74-3.27,1.97-.54,.11-.89,.64-.78,1.18,.1,.47,.51,.8,.98,.8,1.84-.15,3.2-1.28,4.37-2.41,1.41,1.45,3,2.41,4.64,2.41s3.13-.56,4.47-1.66c.43-.35,.49-.98,.13-1.41-.35-.43-.98-.48-1.41-.13Z"/></svg>
