<?xml version="1.0" encoding="UTF-8"?>
<svg xmlns="http://www.w3.org/2000/svg" id="Layer_1" data-name="Layer 1" viewBox="0 0 24 24" width="512" height="512"><path d="M1,12H23c.281,0,.549-.118,.738-.325,.189-.208,.283-.485,.258-.765C23.444,4.792,18.175,0,12,0S.555,4.792,.004,10.91c-.025,.28,.068,.557,.258,.765,.189,.207,.457,.325,.738,.325ZM14.551,7.347s2.848-2.146,2.848-2.146c.44-.332,1.069-.243,1.4,.197,.332,.441,.244,1.068-.197,1.4l-1.675,1.262c.043,.14,.073,.285,.073,.439,0,.828-.672,1.5-1.5,1.5s-1.5-.672-1.5-1.5c0-.466,.217-.878,.551-1.153Zm-9.35-1.949c.331-.441,.959-.53,1.4-.197,0,0,2.847,2.146,2.848,2.146,.334,.275,.551,.687,.551,1.153,0,.828-.672,1.5-1.5,1.5s-1.5-.672-1.5-1.5c0-.154,.03-.3,.073-.439l-1.675-1.262c-.441-.333-.529-.959-.197-1.4Zm2.799,14.978c0,1.447-1.177,2.624-2.624,2.624h-.376s0,0,0,0c0,.552-.447,1-1,1s-1-.448-1-1h0s-.268,0-.268,0c-1.067,0-2.063-.574-2.598-1.499-.277-.478-.113-1.089,.364-1.366,.479-.277,1.091-.113,1.366,.365,.179,.308,.511,.5,.867,.5h2.644c.344,0,.624-.279,.624-.624,0-.307-.22-.565-.521-.616l-3.285-.548c-1.271-.211-2.193-1.3-2.193-2.588,0-1.447,1.177-2.624,2.624-2.624h.376s0,0,0,0c0-.552,.447-1,1-1s1,.448,1,1h0s.268,0,.268,0c1.067,0,2.063,.574,2.598,1.499,.277,.478,.113,1.089-.364,1.366-.48,.277-1.091,.113-1.366-.365-.179-.308-.511-.5-.867-.5H2.624c-.344,0-.624,.279-.624,.624,0,.307,.22,.565,.521,.616l3.285,.548c1.271,.211,2.193,1.3,2.193,2.588Zm4-5.376v5c0,.552-.447,1-1,1s-1-.448-1-1v-5c0-.552,.447-1,1-1s1,.448,1,1Zm11,5h-1v-2h1c.553,0,1-.448,1-1s-.447-1-1-1h-1v-1c0-.552-.447-1-1-1s-1,.448-1,1v1h-2v-1c0-.552-.447-1-1-1s-1,.448-1,1v1h-1c-.553,0-1,.448-1,1s.447,1,1,1h1v2h-1c-.553,0-1,.448-1,1s.447,1,1,1h1v1c0,.552,.447,1,1,1s1-.448,1-1v-1h2v1c0,.552,.447,1,1,1s1-.448,1-1v-1h1c.553,0,1-.448,1-1s-.447-1-1-1Zm-5,0v-2h2v2h-2Zm-6,3c0,.552-.448,1-1,1s-1-.448-1-1,.448-1,1-1,1,.448,1,1Z"/></svg>
