<?xml version="1.0" encoding="UTF-8"?>
<svg xmlns="http://www.w3.org/2000/svg" id="Layer_1" data-name="Layer 1" viewBox="0 0 24 24" width="512" height="512"><path d="M19,0H5C2.243,0,0,2.243,0,5v14c0,2.757,2.243,5,5,5h14c2.757,0,5-2.243,5-5V5c0-2.757-2.243-5-5-5Zm0,20H9c-.552,0-1-.448-1-1s.448-1,1-1h10c.552,0,1,.448,1,1s-.448,1-1,1Zm1.707-9.105c-.195,.195-.451,.293-.707,.293s-.512-.098-.707-.293l-1.293-1.293v5.398c0,.552-.448,1-1,1s-1-.448-1-1v-5.398l-1.293,1.293c-.195,.195-.451,.293-.707,.293s-.512-.098-.707-.293l-1.293-1.293v5.398c0,.552-.448,1-1,1s-1-.448-1-1v-5.398l-1.293,1.293c-.391,.391-1.023,.391-1.414,0s-.391-1.023,0-1.414l1.614-1.614c1.154-1.154,3.032-1.154,4.187,0l.907,.907,.907-.907c1.154-1.154,3.032-1.154,4.187,0l1.614,1.614c.391,.391,.391,1.023,0,1.414Z"/></svg>
