<?xml version="1.0" encoding="UTF-8"?>
<svg xmlns="http://www.w3.org/2000/svg" id="Layer_1" data-name="Layer 1" viewBox="0 0 24 24">
  <path d="m15,24c0,.009,0,.017,0,.026h-6.001c0-.009,0-.017,0-.026,0-1.654,1.346-3,3-3s3,1.346,3,3Zm-.077-15.974h6.54c-.347-.913-.88-1.753-1.591-2.464l-3.484-3.486c-.712-.711-1.552-1.244-2.465-1.59v6.54c0,.551.448,1,1,1Zm7,2.485v8.515c0,2.731-2.202,4.958-4.924,4.999,0-.008,0-.016,0-.025,0-2.757-2.243-5-5-5s-5,2.243-5,5c0,.009,0,.017,0,.026h-.078c-2.757,0-5-2.243-5-5V5.026C1.923,2.269,4.166.026,6.923.026h4.515c.163,0,.324.013.485.024v6.976c0,1.654,1.346,3,3,3h6.976c.011.161.024.322.024.485Zm-6.423,3.989c0-1.93-1.57-3.5-3.5-3.5s-3.5,1.57-3.5,3.5,1.57,3.5,3.5,3.5,3.5-1.57,3.5-3.5Zm-3.5-1.5c-.827,0-1.5.673-1.5,1.5s.673,1.5,1.5,1.5,1.5-.673,1.5-1.5-.673-1.5-1.5-1.5Z"/>
</svg>
