<?xml version="1.0" encoding="UTF-8"?>
<svg xmlns="http://www.w3.org/2000/svg" id="Layer_1" data-name="Layer 1" viewBox="0 0 24 24" width="512" height="512"><path d="M23,9v11c0,.55-.45,1-1,1s-1-.45-1-1V9c0-2.21-1.79-4-4-4-.62,0-1.2,.15-1.72,.4l-2.28,5.57v9.02c0,.55-.45,1-1,1s-1-.45-1-1v-4.14l-3.07,7.51c-.16,.39-.53,.62-.93,.62-.13,0-.25-.02-.38-.07-.51-.21-.76-.79-.55-1.3l4.93-12.04v-1.58c0-2.21-1.79-4-4-4s-4,1.79-4,4v11c0,.55-.45,1-1,1s-1-.45-1-1V4c0-.55,.45-1,1-1s1,.45,1,1v.54c1.06-.95,2.46-1.54,4-1.54,2.09,0,3.92,1.07,5,2.69,.45-.67,1.02-1.25,1.69-1.69l1.38-3.38c.21-.51,.79-.76,1.3-.55,.51,.21,.76,.79,.55,1.3l-.69,1.67c.25-.03,.5-.05,.76-.05,3.31,0,6,2.69,6,6Z"/></svg>
