<?xml version="1.0" encoding="UTF-8"?>
<svg xmlns="http://www.w3.org/2000/svg" id="Layer_1" data-name="Layer 1" viewBox="0 0 24 24" width="512" height="512"><path d="M22.79,17.89l-2.9,5.57c-.18,.34-.53,.54-.89,.54-.16,0-.31-.04-.46-.11-.49-.26-.68-.86-.42-1.35l2.89-5.54h-7.27c-.94,0-1.81-.47-2.32-1.27s-.57-1.78-.18-2.63l2.83-6.1h-.76c-.76,0-1.46,.44-1.8,1.12l-2.07,4.08c-.49,1.05-.6,2.21-.32,3.25,.58,2.12,2.42,3.55,4.6,3.55h3.68c-1.19,2.93-4.06,5-7.42,5-4.42,0-8-3.58-8-8s3.23-7.64,7.34-7.97l.39-.79c.67-1.36,2.08-2.24,3.59-2.24h3.8c.97,0,1.87,.49,2.39,1.31,.52,.82,.59,1.84,.18,2.72l-2.76,5.97h4.06c.7,0,1.33,.35,1.7,.95s.4,1.32,.09,1.95Zm-2.29-12.89c1.38,0,2.5-1.12,2.5-2.5s-1.12-2.5-2.5-2.5-2.5,1.12-2.5,2.5,1.12,2.5,2.5,2.5Z"/></svg>
