<?xml version="1.0" encoding="UTF-8"?>
<svg xmlns="http://www.w3.org/2000/svg" id="Layer_1" data-name="Layer 1" viewBox="0 0 24 24">
  <path d="m15.039,15.273c0,.428-.293,1.664-2.988,3.88-2.718-2.216-3.012-3.452-3.012-3.88,0-.681.449-1.235,1-1.235s1,.554,1,1.235c0,.552.448,1,1,1s1-.448,1-1c0-.681.449-1.235,1-1.235s1,.554,1,1.235Zm7.962-4.273v8c-.003,2.76-2.24,4.997-5,5H6c-2.76-.003-4.997-2.24-5-5v-8c0-.552.448-1,1-1h20c.552,0,1,.448,1,1Zm-5.962,4.273c0-1.784-1.346-3.235-3-3.235-.768,0-1.469.312-2,.826-.531-.513-1.232-.826-2-.826-1.654,0-3,1.451-3,3.235,0,1.598,1.226,3.374,3.748,5.43.363.296.808.444,1.252.444s.889-.148,1.252-.444c2.522-2.056,3.748-3.832,3.748-5.43ZM19.218.005c-.073-.003-14.218-.005-14.218-.005C2.238,0,0,2.238,0,5c0,1.656,1.343,3,3,3h18.001c1.579.019,2.898-1.201,3-2.777C24.121,2.461,21.98.125,19.218.005Z"/>
</svg>
