<?xml version="1.0" encoding="UTF-8"?>
<svg xmlns="http://www.w3.org/2000/svg" id="Layer_1" data-name="Layer 1" viewBox="0 0 24 24" width="512" height="512"><path d="M14,10c0,1.103-.897,2-2,2s-2-.897-2-2,.897-2,2-2,2,.897,2,2Zm10-5v14c0,2.757-2.243,5-5,5H5c-2.757,0-5-2.243-5-5V5C0,2.243,2.243,0,5,0h14c2.757,0,5,2.243,5,5Zm-8,5c0-2.206-1.794-4-4-4s-4,1.794-4,4,1.794,4,4,4c.639,0,1.235-.164,1.771-.432-.478,1.629-1.721,2.432-3.771,2.432-.553,0-1,.447-1,1s.447,1,1,1c3.813,0,6-2.26,6-6.2v-1.8Z"/></svg>
