<?xml version="1.0" encoding="UTF-8"?>
<svg xmlns="http://www.w3.org/2000/svg" id="Layer_1" data-name="Layer 1" viewBox="0 0 24 24" width="512" height="512"><path d="m9,12h4v3c0,.553.447,1,1,1s1-.447,1-1V2h2v13c0,.553.447,1,1,1s1-.447,1-1V2h1c.553,0,1-.447,1-1s-.447-1-1-1h-11C5.691,0,3,2.691,3,6s2.691,6,6,6Zm14,7c0,.553-.447,1-1,1H3.653l2.165,2.317c.376.404.354,1.037-.049,1.414-.193.18-.438.269-.683.269-.268,0-.534-.106-.731-.317l-2.414-2.586c-1.146-1.146-1.146-3.048.024-4.218l2.39-2.562c.378-.404,1.01-.425,1.414-.049.403.377.425,1.01.049,1.414l-2.163,2.317h18.346c.553,0,1,.447,1,1Z"/></svg>
