<?xml version="1.0" encoding="UTF-8"?>
<svg xmlns="http://www.w3.org/2000/svg" id="Layer_1" data-name="Layer 1" viewBox="0 0 24 24" width="512" height="512"><path d="m15.988,11.054v1.893c0,2.273-1.752,4.054-3.988,4.054-2.212,0-4.012-1.818-4.012-4.054v-1.893c0-2.235,1.8-4.054,4.012-4.054,2.236,0,3.988,1.781,3.988,4.054Zm8.012-6.054v14c0,2.757-2.243,5-5,5H5c-2.757,0-5-2.243-5-5V5C0,2.243,2.243,0,5,0h14c2.757,0,5,2.243,5,5Zm-6.012,6.054c0-3.338-2.687-6.054-5.988-6.054s-6.012,2.716-6.012,6.054v1.893c0,3.338,2.697,6.054,6.012,6.054s5.988-2.716,5.988-6.054v-1.893Z"/></svg>
