<?xml version="1.0" encoding="UTF-8"?>
<svg xmlns="http://www.w3.org/2000/svg" id="Layer_1" data-name="Layer 1" viewBox="0 0 24 24" width="512" height="512"><path d="M12,12h-2v-1.5c0-.28,.22-.5,.5-.5h1.5c.55,0,1,.45,1,1s-.45,1-1,1Zm8.5-4c-1.93,0-3.5,1.57-3.5,3.5v2c0,1.93,1.57,3.5,3.5,3.5s3.5-1.57,3.5-3.5v4.5c0,2.76-2.24,5-5,5H5c-2.76,0-5-2.24-5-5v-2c0,.55,.45,1,1,1s1-.45,1-1v-2h2c1.65,0,3-1.35,3-3s-1.35-3-3-3h-1.5c-1.38,0-2.5,1.12-2.5,2.5v-3.5C0,4.24,2.24,2,5,2h14c2.76,0,5,2.24,5,5v4.5c0-1.93-1.57-3.5-3.5-3.5Zm-6.93,5.55c.86-.53,1.43-1.47,1.43-2.55,0-1.65-1.35-3-3-3h-1.5c-1.38,0-2.5,1.12-2.5,2.5v5.5c0,.55,.45,1,1,1s1-.45,1-1v-2h1.46l1.7,2.55c.19,.29,.51,.45,.83,.45,.19,0,.38-.05,.55-.17,.46-.31,.58-.93,.28-1.39l-1.27-1.9Zm-8.57-2.55c0-.55-.45-1-1-1h-1.5c-.28,0-.5,.22-.5,.5v1.5h2c.55,0,1-.45,1-1Zm14,.5v2c0,.83,.67,1.5,1.5,1.5s1.5-.67,1.5-1.5v-2c0-.83-.67-1.5-1.5-1.5s-1.5,.67-1.5,1.5Z"/></svg>
