<?xml version="1.0" encoding="UTF-8"?>
<svg xmlns="http://www.w3.org/2000/svg" id="Layer_1" data-name="Layer 1" viewBox="0 0 24 24" width="512" height="512"><path d="m11.001,14h-4.001v-4h4v2.276c0,.016,0,.031,0,.046v1.678Zm3.186-2.474l-1.187,1.187v1.287c0,.497-.183.953-.484,1.303l1.671,1.671c.035.034.092.035.127,0l2.66-2.661v-.126l-2.66-2.661c-.034-.032-.091-.035-.127,0Zm9.809-7.228l-1.42,14.199c-.256,2.567-2.396,4.502-4.976,4.502H6.324c-2.598,0-4.737-1.95-4.979-4.536L.021,4.279c-.078-.838.203-1.677.77-2.299.567-.623,1.376-.979,2.218-.979h18.001c.847,0,1.657.36,2.226.987.567.627.844,1.47.76,2.312Zm-4.995,9.951c0-.558-.218-1.083-.612-1.477l-2.66-2.662c-.743-.742-1.912-.807-2.73-.195-.044-1.065-.923-1.917-1.998-1.917h-4c-1.103,0-2,.897-2,2v4c0,1.103.897,2,2,2h3.385l2.388,2.389c.407.407.942.61,1.478.61s1.07-.204,1.478-.611l2.66-2.661c.395-.395.612-.919.612-1.478Z"/></svg>
