<?xml version="1.0" encoding="UTF-8"?>
<svg xmlns="http://www.w3.org/2000/svg" id="Layer_1" data-name="Layer 1" viewBox="0 0 24 24" width="512" height="512"><path d="m12,0C5.383,0,0,5.383,0,12s5.383,12,12,12,12-5.383,12-12S18.617,0,12,0Zm1.812,18h-3.312c-.979,0-2.618,0-3.395-1.553-.247-.494-.047-1.095.447-1.342.495-.245,1.094-.047,1.342.447.189.38.586.447,1.605.447h3.312c.655,0,1.188-.533,1.188-1.188,0-.526-.354-.996-.86-1.142l-4.834-1.424c-1.354-.384-2.306-1.644-2.306-3.062,0-1.756,1.429-3.185,3.185-3.185h3.315c.979,0,2.618,0,3.395,1.553.247.494.047,1.095-.447,1.342-.495.246-1.094.047-1.342-.447-.189-.38-.586-.447-1.605-.447h-3.315c-.653,0-1.185.531-1.185,1.185,0,.527.354.997.861,1.141l4.837,1.425c1.353.388,2.302,1.647,2.302,3.062,0,1.758-1.431,3.188-3.188,3.188Z"/></svg>
