<?xml version="1.0" encoding="UTF-8"?>
<svg xmlns="http://www.w3.org/2000/svg" id="Layer_1" data-name="Layer 1" viewBox="0 0 24 24" width="512" height="512"><path d="M17.425,22.239c-.061,.324-.277,.598-.578,.731-1.543,.683-3.173,1.029-4.847,1.029C5.383,24,0,18.617,0,12c0-1.673,.347-3.303,1.029-4.846,.133-.301,.406-.518,.73-.578,.328-.064,.657,.043,.891,.276l4.35,4.349v6.799c0,.552,.448,1,1,1s1-.448,1-1v-4.799l8.148,8.148c.233,.233,.337,.566,.276,.89Zm6.575-10.239c0,3.205-1.248,6.218-3.515,8.485-.188,.188-.441,.293-.707,.293s-.52-.105-.707-.293L3.515,4.929c-.188-.188-.293-.442-.293-.707s.105-.52,.293-.708C5.782,1.248,8.796,0,12,0c6.617,0,12,5.383,12,12Zm-6-2.5c0-2.481-2.019-4.5-4.5-4.5h-2.5c-.765,0-1.508,.216-2.148,.626-.466,.297-.602,.916-.305,1.381,.298,.466,.915,.601,1.381,.305,.319-.204,.69-.312,1.072-.312h2.5c1.379,0,2.5,1.122,2.5,2.5,0,.886-.476,1.714-1.242,2.161-.477,.278-.638,.891-.36,1.368,.187,.318,.521,.496,.865,.496,.171,0,.345-.044,.503-.136,1.378-.804,2.234-2.293,2.234-3.889Z"/></svg>
