<?xml version="1.0" encoding="UTF-8"?>
<svg xmlns="http://www.w3.org/2000/svg" id="Layer_1" data-name="Layer 1" viewBox="0 0 24 24" width="512" height="512"><path d="m1.283,7.697c-.385-.396-.375-1.029.021-1.414.396-.385,1.03-.376,1.414.021l4.089,4.211c.307.31.727.485,1.173.486.445,0,.867-.173,1.182-.488L18.29,1.296c.388-.394,1.021-.396,1.414-.007.393.389.396,1.022.007,1.414l-9.131,9.219c-.696.696-1.624,1.078-2.604,1.078-.982-.002-1.904-.387-2.596-1.085L1.283,7.697Zm22.423-.405c-.391-.391-1.025-.389-1.414.002l-13.087,13.12c-.378.378-.884.586-1.418.586-.536,0-1.039-.212-1.423-.599L1.699,15.784c-.394-.388-1.026-.386-1.415.008-.388.393-.385,1.025.007,1.414l4.659,4.61c.755.761,1.761,1.181,2.833,1.184,1.068,0,2.081-.416,2.837-1.173l13.088-13.121c.39-.391.389-1.024-.002-1.414Z"/></svg>
