<?xml version="1.0" encoding="UTF-8"?>
<svg xmlns="http://www.w3.org/2000/svg" id="Layer_1" data-name="Layer 1" viewBox="0 0 24 24" width="512" height="512"><path d="M14,11v7c0-1.105-.895-2-2-2s-2,.895-2,2v-7h4ZM10,1v3c0,1.657-1.343,3-3,3H3c-1.657,0-3-1.343-3-3V1C0,.447,.447,0,1,0s1,.447,1,1v1h2V1c0-.553,.447-1,1-1s1,.447,1,1v1h2V1c0-.553,.447-1,1-1s1,.447,1,1Zm14,0v3c0,1.657-1.343,3-3,3h-4c-1.657,0-3-1.343-3-3V1c0-.553,.447-1,1-1s1,.447,1,1v1h2V1c0-.553,.447-1,1-1s1,.447,1,1v1h2V1c0-.553,.447-1,1-1s1,.447,1,1Zm-2,19V10c0-.552-.448-1-1-1h-4c-.552,0-1,.448-1,1v14h2c2.209,0,4-1.791,4-4ZM8,10c0-.552-.448-1-1-1H3c-.552,0-1,.448-1,1v10c0,2.209,1.791,4,4,4h2V10Z"/></svg>
