<?xml version="1.0" encoding="UTF-8"?>
<svg xmlns="http://www.w3.org/2000/svg" id="Layer_1" data-name="Layer 1" viewBox="0 0 24 24">
  <path d="m23.419,21.658c-.816,1.468-2.306,2.344-3.985,2.344H4.566c-1.68,0-3.169-.876-3.985-2.344-.816-1.469-.774-3.196.112-4.623l7.787-12.135c.599-.907,1.5-1.532,2.521-1.781V1c0-.553.448-1,1-1s1,.447,1,1v2.119c1.02.248,1.92.872,2.513,1.771.304.461.177,1.081-.284,1.386-.459.303-1.08.177-1.385-.284-.412-.624-1.074-.984-1.82-.992-.008,0-.016,0-.025,0s-.016,0-.025,0c-.746.008-1.408.368-1.82.992l-7.772,12.111c-.49.789-.514,1.759-.055,2.583.458.824,1.294,1.316,2.237,1.316h14.868c.943,0,1.779-.492,2.237-1.316.458-.824.435-1.794-.063-2.596l-2.92-4.55c-.298-.465-.163-1.083.302-1.382.464-.298,1.083-.163,1.382.302l2.928,4.562c.894,1.439.936,3.167.12,4.636Zm-9.843-8.489l6.571-10.693c.289-.472.906-.618,1.375-.328.471.289.618.904.329,1.375l-6.627,10.783c.484.601.775,1.364.775,2.193,0,1.93-1.57,3.5-3.5,3.5s-3.5-1.57-3.5-3.5,1.57-3.5,3.5-3.5c.375,0,.737.06,1.077.17Z"/>
</svg>
