<?xml version="1.0" encoding="UTF-8"?>
<svg xmlns="http://www.w3.org/2000/svg" id="Layer_1" data-name="Layer 1" viewBox="0 0 24 24" width="512" height="512"><path d="M23,12h-2v-1c0-1.1-.9-2-2-2h-2c-1.1,0-2,.9-2,2v1h-2c-.55,0-1,.45-1,1s.45,1,1,1v7c0,1.65,1.35,3,3,3h4c1.65,0,3-1.35,3-3v-7c.55,0,1-.45,1-1s-.45-1-1-1Zm-6-1h2v1h-2v-1Zm-3.67-6h3.67v2c-1.86,0-3.41,1.28-3.86,3h-.14c-1.65,0-3,1.35-3,3h-1v-3.67c0-.27,.11-.52,.29-.71l3.33-3.33c.19-.19,.44-.29,.71-.29Zm-4.33,10h2v2H5V7.81l2.71-3.1c.29-.29,.37-.72,.22-1.09-.15-.37-.52-.62-.92-.62h-2c-1.1,0-2,.9-2,2v12c0,1.1,.9,2,2,2h6v3H5c-2.76,0-5-2.24-5-5V5C0,2.24,2.24,0,5,0h12c2.76,0,5,2.24,5,5v3.38c-.73-.84-1.8-1.38-3-1.38v-2c0-1.1-.9-2-2-2h-3.67c-.8,0-1.55,.31-2.12,.88l-3.33,3.33c-.57,.57-.88,1.32-.88,2.12v3.67c0,1.1,.9,2,2,2Z"/></svg>
