<?xml version="1.0" encoding="UTF-8"?>
<svg xmlns="http://www.w3.org/2000/svg" id="Layer_1" data-name="Layer 1" viewBox="0 0 24 24" width="512" height="512"><path d="m14.987,22c1.074,0,2.089-.251,3-.685v1.685c0,.553-.447,1-1,1H6.987c-.553,0-1-.447-1-1v-1.685c.911.435,1.926.685,3,.685h6Zm0-20c1.074,0,2.089.251,3,.685v-1.685c0-.553-.447-1-1-1H6.987c-.553,0-1,.447-1,1v1.685c.911-.435,1.926-.685,3-.685h6,0Zm0,2h-6c-2.757,0-5,2.243-5,5v6c0,2.757,2.243,5,5,5h6c2.757,0,5-2.243,5-5v-6c0-2.757-2.243-5-5-5Zm-5.987,13c-.552,0-1-.448-1-1s.448-1,1-1,1,.448,1,1-.448,1-1,1Zm0-4c-.552,0-1-.448-1-1s.448-1,1-1,1,.448,1,1-.448,1-1,1Zm3,4c-.552,0-1-.448-1-1s.448-1,1-1,1,.448,1,1-.448,1-1,1Zm0-4c-.552,0-1-.448-1-1s.448-1,1-1,1,.448,1,1-.448,1-1,1Zm3,4c-.552,0-1-.448-1-1s.448-1,1-1,1,.448,1,1-.448,1-1,1Zm0-4c-.552,0-1-.448-1-1s.448-1,1-1,1,.448,1,1-.448,1-1,1Zm0-4h-6c-.553,0-1-.448-1-1s.447-1,1-1h6c.553,0,1,.448,1,1s-.447,1-1,1Z"/></svg>
