<?xml version="1.0" encoding="UTF-8"?>
<svg xmlns="http://www.w3.org/2000/svg" id="Layer_1" data-name="Layer 1" viewBox="0 0 24 24" width="512" height="512"><path d="M24,23c0,.55-.45,1-1,1-1.54,0-2.29-1.12-2.83-1.95-.5-.75-.75-1.05-1.17-1.05-.51,0-.9,.44-1.51,1.15-.7,.83-1.57,1.85-3.03,1.85s-2.32-1.03-3-1.87c-.58-.7-.96-1.13-1.46-1.13-.39,0-.63,.25-1.16,.91-.72,.88-1.71,2.09-3.84,2.09-2.76,0-5-2.24-5-5s2.24-5,5-5c.55,0,1,.45,1,1s-.45,1-1,1c-1.65,0-3,1.35-3,3s1.35,3,3,3c1.18,0,1.67-.6,2.29-1.36,.6-.73,1.34-1.64,2.71-1.64,1.47,0,2.32,1.03,3,1.87,.58,.7,.96,1.13,1.46,1.13s.9-.44,1.51-1.15c.7-.83,1.57-1.85,3.03-1.85s2.29,1.12,2.83,1.95c.5,.75,.75,1.05,1.17,1.05,.55,0,1,.45,1,1Zm-15.01-7h.94c1.06,0,2.08-.42,2.83-1.17l7.72-7.72-3.59-3.59-7.72,7.72c-.75,.75-1.17,1.77-1.17,2.83v.94c0,.55,.44,.99,.99,.99ZM23.26,4.33c.48-.48,.74-1.12,.74-1.8s-.26-1.32-.74-1.79c-.99-.99-2.6-.99-3.59,0l-1.36,1.36,3.59,3.59,1.36-1.36Z"/></svg>
