<?xml version="1.0" encoding="UTF-8"?>
<svg xmlns="http://www.w3.org/2000/svg" id="Layer_1" data-name="Layer 1" viewBox="0 0 24 24" width="512" height="512"><path d="M9.5,2.5c0-1.381,1.119-2.5,2.5-2.5s2.5,1.119,2.5,2.5-1.119,2.5-2.5,2.5-2.5-1.119-2.5-2.5Zm6.749,16.485c-.34,.385-.775,.658-1.249,.826v3.188c0,.552-.447,1-1,1s-1-.448-1-1v-3h-2v3c0,.552-.447,1-1,1s-1-.448-1-1v-3.188c-.474-.169-.909-.441-1.249-.826-.569-.645-.834-1.504-.728-2.357l.876-7.008c.257-2.063,2.02-3.62,4.101-3.62s3.844,1.557,4.101,3.621l.876,7.007c.106,.854-.158,1.712-.728,2.357Z"/></svg>
