<?xml version="1.0" encoding="UTF-8"?>
<svg xmlns="http://www.w3.org/2000/svg" id="Layer_1" data-name="Layer 1" viewBox="0 0 24 24" width="512" height="512"><path d="M23.16,9.88l-2.16-2.16v-1.72c0-1.65-1.35-3-3-3h-1.72L14.12,.84c-1.17-1.17-3.07-1.17-4.24,0l-2.16,2.16h-1.72c-1.65,0-3,1.35-3,3v1.72L.84,9.88C.28,10.45-.04,11.2-.04,12s.31,1.55,.88,2.12l2.16,2.16v1.72c0,1.65,1.35,3,3,3h1.72l2.16,2.16c.58,.58,1.35,.88,2.12,.88s1.54-.29,2.12-.88l2.16-2.16h1.72c1.65,0,3-1.35,3-3v-1.72l2.16-2.16c.57-.57,.88-1.32,.88-2.12s-.31-1.55-.88-2.12Zm-11.16,8.12c-.55,0-1-.45-1-1s.45-1,1-1,1,.45,1,1-.45,1-1,1Zm1-5c0,.55-.45,1-1,1s-1-.45-1-1V7c0-.55,.45-1,1-1s1,.45,1,1v6Z"/></svg>
