<?xml version="1.0" encoding="UTF-8"?>
<svg xmlns="http://www.w3.org/2000/svg" id="Layer_1" data-name="Layer 1" viewBox="0 0 24 24">
  <path d="m19,2H5C2.243,2,0,4.243,0,7v10c0,2.757,2.243,5,5,5h14c2.757,0,5-2.243,5-5V7c0-2.757-2.243-5-5-5Zm-10,15h-2.268c-1.067,0-2.063-.574-2.598-1.499-.277-.478-.113-1.089.364-1.366.479-.278,1.09-.114,1.366.365.179.308.511.5.867.5h2.268c.552,0,1-.449,1-1,0-.378-.271-.698-.644-.76l-3.041-.507c-1.342-.223-2.315-1.373-2.315-2.733,0-1.654,1.346-3,3-3h2.268c1.067,0,2.063.574,2.598,1.499.277.478.113,1.089-.364,1.366-.48.276-1.091.113-1.366-.365-.179-.308-.511-.5-.867-.5h-2.268c-.552,0-1,.449-1,1,0,.378.271.698.644.76l3.041.507c1.342.223,2.315,1.373,2.315,2.733,0,1.654-1.346,3-3,3Zm11-4c0,2.206-1.794,4-4,4h-1c-1.103,0-2-.897-2-2v-6c0-1.103.897-2,2-2h1c2.206,0,4,1.794,4,4v2Zm-2-2v2c0,1.103-.897,2-2,2h-1s0-6,0-6h1c1.103,0,2,.897,2,2Z"/>
</svg>
