<?xml version="1.0" encoding="UTF-8"?>
<svg xmlns="http://www.w3.org/2000/svg" id="Layer_1" data-name="Layer 1" viewBox="0 0 24 24">
  <path d="m6.029,11.172c1.511-1.513,4.146-1.511,5.657,0l11.81,11.81c.324-.43.505-.959.505-1.527V2.542c0-.926-.479-1.751-1.283-2.208-.81-.461-1.773-.449-2.575.028-1.333.793-4.795,2.638-8.142,2.638S5.191,1.155,3.858.362c-.802-.478-1.765-.488-2.575-.028C.479.791,0,1.616,0,2.542v14.659l6.029-6.029Zm11.971-5.172c1.105,0,2,.895,2,2s-.895,2-2,2-2-.895-2-2,.895-2,2-2Zm3.676,17.991c-.074.007-.148.01-.222.01-.451,0-.903-.122-1.312-.366-1.332-.792-4.79-2.635-8.142-2.635s-6.811,1.843-8.142,2.635c-.803.479-1.766.488-2.575.028-.803-.457-1.283-1.282-1.283-2.208v-1.427l7.443-7.443c.756-.757,2.073-.755,2.829,0l11.405,11.405Z"/>
</svg>
