<?xml version="1.0" encoding="UTF-8"?>
<svg xmlns="http://www.w3.org/2000/svg" id="Layer_1" data-name="Layer 1" viewBox="0 0 24 24" width="512" height="512"><path d="M12,15.038c-.091-.026-.182-.051-.273-.076-1.273-.363-2.574-.731-3.727-.884v-6c1.153,.153,2.454,.521,3.725,.884,.091,.026,.183,.051,.275,.077v5.999Zm0-14.077c-1.346-.384-2.714-.749-4-.89V6.072c1.286,.141,2.653,.506,4,.89V.961Zm2,6.548c1.072,.276,2.112,.491,3,.491,.31,0,.65-.029,1.001-.071V1.844c-.342,.093-.68,.156-1,.156-.888,0-1.928-.216-3.001-.492V7.509Zm-8,.578c-1.678,.254-3.257,1.051-4,1.476v-2.259c1.03-.498,2.469-1.052,4.001-1.236V.068c-1.69,.202-3.278,.857-4.385,1.428-.996,.515-1.615,1.535-1.615,2.663V23c0,.552,.447,1,1,1s1-.448,1-1v-7.437c.744-.425,2.324-1.221,4-1.476v-6Zm12.001,1.853c-.347,.036-.685,.061-1.001,.061-.947,0-1.965-.184-3-.431v5.999c1.035,.247,2.054,.432,3.002,.432,.331,0,.665-.03,.999-.058v-6.002ZM22.828,1.62c-.738-.568-1.675-.758-2.573-.52-.082,.022-.169,.052-.253,.077V7.551c1.593-.388,3.163-.933,4-1.242v-2.305c0-.941-.428-1.811-1.174-2.384Zm-2.827,13.986c.765-.196,1.491-.45,2.108-.773,1.203-.63,1.893-1.643,1.893-2.78v-3.617c-1.029,.36-2.511,.833-4.001,1.165v6.006Z"/></svg>
