<?xml version="1.0" encoding="UTF-8"?>
<svg xmlns="http://www.w3.org/2000/svg" id="Layer_1" data-name="Layer 1" viewBox="0 0 24 24" width="512" height="512"><path d="m14,7V.46c.913.346,1.753.879,2.465,1.59l3.484,3.486c.712.711,1.245,1.551,1.591,2.464h-6.54c-.552,0-1-.449-1-1Zm-4.938,8.024c1.344-1.345,3.532-1.345,4.876,0l.615.615c.522.521,1.371.521,1.894,0l5.535-5.535c-.002-.035-.003-.07-.005-.104h-6.976c-1.654,0-3-1.346-3-3V.024c-.161-.011-.322-.024-.485-.024h-4.515C4.243,0,2,2.243,2,5v14c0,.886.251,1.707.657,2.429l6.405-6.405Zm-1.562-6.024c.828,0,1.5.672,1.5,1.5s-.672,1.5-1.5,1.5-1.5-.672-1.5-1.5.672-1.5,1.5-1.5Zm10.361,8.053c-1.302,1.302-3.42,1.302-4.722,0l-.615-.615c-.564-.564-1.483-.564-2.048,0l-6.509,6.509c.844.65,1.888,1.053,3.033,1.053h10c2.757,0,5-2.243,5-5v-6.086l-4.139,4.139Z"/></svg>
