<?xml version="1.0" encoding="UTF-8"?>
<svg xmlns="http://www.w3.org/2000/svg" id="Layer_1" data-name="Layer 1" viewBox="0 0 24 24" width="512" height="512"><path d="m24,5.947v6.084c0,.857-.919,1.265-1.447.65-.66-.768-1.526-1.629-2.553-2.326v3.645c0,.553-.448,1-1,1s-1-.447-1-1v-4h-2v3.938c0,.913-.395,1.771-1.083,2.356-.54.458-1.214.705-1.905.705-.156,0-.312-.013-.469-.038-4.659-.763-12.544-3.298-12.544-7.962,0-1.635.969-3.008,2.427-4.135C2.096,3.348.717,2.118.148,1.291-.237.73.176-.037.855.001c2.647.15,5.421.718,7.469,2.036,1.496-.465,2.973-.796,4.22-1,.845-.139,1.712.104,2.374.667.688.585,1.083,1.443,1.083,2.356v3.938h2v-4c0-.553.448-1,1-1s1,.447,1,1v3.625c1.025-.701,1.894-1.566,2.557-2.333.529-.611,1.443-.199,1.443.655ZM.119,20.094c-.267.933-.084,1.912.5,2.687.584.774,1.476,1.219,2.446,1.219,1.387,0,2.605-.937,2.945-2.222l1.36-4.017c-1.826-.586-3.837-1.414-5.527-2.559L.119,20.094Z"/></svg>
