<?xml version="1.0" encoding="UTF-8"?>
<svg xmlns="http://www.w3.org/2000/svg" id="Layer_1" data-name="Layer 1" viewBox="0 0 24 24" width="512" height="512"><path d="M3,19.5c0,.828-.672,1.5-1.5,1.5s-1.5-.672-1.5-1.5,.672-1.5,1.5-1.5,1.5,.672,1.5,1.5Zm19.5,1.5c-.828,0-1.5,.672-1.5,1.5s.672,1.5,1.5,1.5,1.5-.672,1.5-1.5-.672-1.5-1.5-1.5Zm-4.5,1h-1c-1.103,0-2-.897-2-2v-4.115c-.818-.443-1.907-.885-3-.885s-2.182,.442-3,.885v4.115c0,1.103-.897,2-2,2h-1c-.552,0-1,.448-1,1s.448,1,1,1h12c.552,0,1-.448,1-1s-.448-1-1-1Zm6-10c0,3.509-1.515,6.656-3.916,8.85-.54-.524-1.274-.85-2.084-.85h-1v-3c.296,0,.589-.131,.787-.383,.341-.435,.265-1.063-.169-1.404-.849-.666-3.094-2.213-5.617-2.213s-4.769,1.548-5.617,2.213c-.435,.341-.511,.969-.169,1.404,.198,.251,.491,.367,.787,.367v3.015h-1c-.379,0-.738,.077-1.071,.206,.047-.228,.071-.464,.071-.706,0-1.933-1.567-3.5-3.5-3.5-.264,0-.519,.035-.766,.09-.467-1.277-.734-2.65-.734-4.09C0,5.373,5.373,0,12,0s12,5.373,12,12Zm-13-3c0-.334-.167-.646-.445-.832l-3-2c-.46-.307-1.081-.182-1.387,.277-.306,.459-.182,1.081,.277,1.387l1.752,1.168-1.752,1.168c-.459,.306-.583,.927-.277,1.387,.193,.289,.51,.445,.833,.445,.19,0,.383-.054,.554-.168l3-2c.278-.186,.445-.498,.445-.832Zm4.803,0l1.752-1.168c.459-.306,.583-.927,.277-1.387-.306-.459-.928-.584-1.387-.277l-3,2c-.278,.186-.445,.498-.445,.832s.167,.646,.445,.832l3,2c.17,.114,.363,.168,.554,.168,.323,0,.64-.156,.833-.445,.306-.459,.182-1.081-.277-1.387l-1.752-1.168Z"/></svg>
