<?xml version="1.0" encoding="UTF-8"?>
<svg xmlns="http://www.w3.org/2000/svg" id="Layer_1" data-name="Layer 1" viewBox="0 0 24 24" width="512" height="512"><path d="m24,4v16c0,2.206-1.794,4-4,4h-3c-.552,0-1-.448-1-1s.448-1,1-1h3c1.103,0,2-.897,2-2V4c0-1.103-.897-2-2-2h-3c-.552,0-1-.448-1-1s.448-1,1-1h3c2.206,0,4,1.794,4,4Zm-7.015,10.45l-5.293,5.272c-.508.509-1.195.778-1.907.778-.369,0-.744-.072-1.104-.221-1.033-.425-1.677-1.352-1.681-2.418v-1.861H3c-1.654,0-3-1.346-3-3v-2c0-1.654,1.346-3,3-3h4v-1.859c.005-1.07.649-1.997,1.682-2.421,1.055-.433,2.238-.215,3.012.559l5.29,5.267c1.352,1.353,1.351,3.551,0,4.903Z"/></svg>
