<?xml version="1.0" encoding="UTF-8"?>
<svg xmlns="http://www.w3.org/2000/svg" id="Layer_1" data-name="Layer 1" viewBox="0 0 24 24" width="512" height="512"><path d="M20,24h-2c-2.21,0-4-1.79-4-4v-7c0-2.21,1.79-4,4-4h2c2.21,0,4,1.79,4,4v7c0,2.21-1.79,4-4,4ZM12,14h-3l-.25-.29c-.38-.45-.94-.71-1.53-.71H2.5c-1.38,0-2.5,1.12-2.5,2.5s1.12,2.5,2.5,2.5H12v-4Zm-4.77-3c.98,0,1.92,.36,2.65,1h2.22c.48-2.83,2.94-5,5.91-5h2c.7,0,1.37,.13,2,.35v-2.35c0-2.76-2.24-5-5-5H7C4.24,0,2,2.24,2,5v6.11c.32-.07,.66-.11,1-.11H7.23Z"/></svg>
