<?xml version="1.0" encoding="UTF-8"?>
<svg xmlns="http://www.w3.org/2000/svg" id="Layer_1" data-name="Layer 1" viewBox="0 0 24 24" width="512" height="512"><path d="M18,18c0,.55-.45,1-1,1s-1-.45-1-1,.45-1,1-1,1,.45,1,1Zm2-3c-.55,0-1,.45-1,1s.45,1,1,1,1-.45,1-1-.45-1-1-1Zm0,4c-.55,0-1,.45-1,1s.45,1,1,1,1-.45,1-1-.45-1-1-1Zm3-2c-.55,0-1,.45-1,1s.45,1,1,1,1-.45,1-1-.45-1-1-1Zm0-4c-.55,0-1,.45-1,1s.45,1,1,1,1-.45,1-1-.45-1-1-1Zm0,8c-.55,0-1,.45-1,1s.45,1,1,1,1-.45,1-1-.45-1-1-1Zm-7-8c0,.97-.7,2-2,2h-.33l-.22,1.66c-.33,2.48-2.46,4.34-4.96,4.34h-.49c0,1.65-1.35,3-3,3H1c-.55,0-1-.45-1-1V1.2C0,.72,.34,.31,.8,.22c.21-.04,.43-.08,.65-.11C5.5-.45,9.36,1.16,11.8,4.42c1.27,1.57,4.2,7.16,4.2,8.58Z"/></svg>
