<?xml version="1.0" encoding="UTF-8"?>
<svg xmlns="http://www.w3.org/2000/svg" id="Layer_1" data-name="Layer 1" viewBox="0 0 24 24" width="512" height="512"><path d="M19,4h-1.1c-.46-2.28-2.48-4-4.9-4h-2c-2.41,0-4.43,1.72-4.9,4h-1.1C2.24,4,0,6.24,0,9v10c0,2.76,2.24,5,5,5h14c2.76,0,5-2.24,5-5V9c0-2.76-2.24-5-5-5ZM11,2h2c1.3,0,2.4,.84,2.82,2h-7.63c.41-1.16,1.51-2,2.82-2Zm6.12,14.12l-2.39,2.56c-.2,.21-.46,.32-.73,.32-.24,0-.49-.09-.68-.27-.4-.38-.43-1.01-.05-1.41l2.16-2.32H7c-.55,0-1-.45-1-1s.45-1,1-1H15.43l-2.16-2.32c-.38-.4-.35-1.04,.05-1.41,.4-.38,1.04-.35,1.41,.05l2.41,2.59c.54,.54,.85,1.3,.85,2.1s-.31,1.55-.88,2.12Z"/></svg>
