<?xml version="1.0" encoding="UTF-8"?>
<svg xmlns="http://www.w3.org/2000/svg" id="Layer_1" data-name="Layer 1" viewBox="0 0 24 24" width="512" height="512"><path d="m14,7.015V.474c.913.346,1.753.879,2.465,1.59l3.484,3.486c.712.711,1.245,1.551,1.591,2.464h-6.54c-.552,0-1-.449-1-1Zm7.976,3h-6.976c-1.654,0-3-1.346-3-3V.038c-.161-.011-.322-.024-.485-.024h-4.515C4.243.015,2,2.258,2,5.015v14c0,2.757,2.243,5,5,5h10c2.757,0,5-2.243,5-5v-8.515c0-.163-.013-.324-.024-.485Zm-6.269,8.506l-1.613,1.614c-.577.577-1.336.866-2.094.866s-1.517-.289-2.094-.866l-1.613-1.614c-.391-.391-.391-1.024,0-1.414.391-.391,1.023-.391,1.414,0l1.293,1.293v-4.398c0-.552.447-1,1-1s1,.448,1,1v4.398l1.293-1.293c.391-.391,1.023-.391,1.414,0,.391.39.391,1.023,0,1.414Z"/></svg>
