<?xml version="1.0" encoding="UTF-8"?>
<svg xmlns="http://www.w3.org/2000/svg" id="Layer_1" data-name="Layer 1" viewBox="0 0 24 24" width="512" height="512"><path d="M7,0h-3C1.794,0,0,1.794,0,4v3c0,2.206,1.794,4,4,4h3c2.206,0,4-1.794,4-4v-3C11,1.794,9.206,0,7,0Zm0,6c0,.552-.448,1-1,1h-1c-.552,0-1-.448-1-1v-1c0-.552,.448-1,1-1h1c.552,0,1,.448,1,1v1ZM20,0h-3c-2.206,0-4,1.794-4,4v3c0,2.206,1.794,4,4,4h3c2.206,0,4-1.794,4-4v-3c0-2.206-1.794-4-4-4Zm0,6c0,.552-.448,1-1,1h-1c-.552,0-1-.448-1-1v-1c0-.552,.448-1,1-1h1c.552,0,1,.448,1,1v1ZM7,13h-3c-2.206,0-4,1.794-4,4v3c0,2.206,1.794,4,4,4h3c2.206,0,4-1.794,4-4v-3c0-2.206-1.794-4-4-4Zm0,6c0,.552-.448,1-1,1h-1c-.552,0-1-.448-1-1v-1c0-.552,.448-1,1-1h1c.552,0,1,.448,1,1v1Zm8.5-2h-1c-.828,0-1.5-.672-1.5-1.5v-1c0-.828,.672-1.5,1.5-1.5h1c.828,0,1.5,.672,1.5,1.5v1c0,.828-.672,1.5-1.5,1.5Zm3,3h0c-.828,0-1.5-.672-1.5-1.5h0c0-.828,.672-1.5,1.5-1.5h0c.828,0,1.5,.672,1.5,1.5h0c0,.828-.672,1.5-1.5,1.5Zm-3,4h-1c-.828,0-1.5-.672-1.5-1.5v-1c0-.828,.672-1.5,1.5-1.5h1c.828,0,1.5,.672,1.5,1.5v1c0,.828-.672,1.5-1.5,1.5Zm7-7h-1c-.828,0-1.5-.672-1.5-1.5v-1c0-.828,.672-1.5,1.5-1.5h1c.828,0,1.5,.672,1.5,1.5v1c0,.828-.672,1.5-1.5,1.5Z"/></svg>
