<?xml version="1.0" encoding="UTF-8"?>
<svg xmlns="http://www.w3.org/2000/svg" id="Layer_1" data-name="Layer 1" viewBox="0 0 24 24">
  <path d="m14.596,18.793c.243.243.344.594.269.929-.572,2.519-2.778,4.278-5.364,4.278-3.032,0-5.5-2.468-5.5-5.5,0-2.586,1.76-4.792,4.278-5.364.336-.077.687.026.929.269l5.389,5.389Zm9.111,4.914c-.195.195-.451.293-.707.293s-.512-.098-.707-.293L.293,1.707C-.098,1.316-.098.684.293.293S1.316-.098,1.707.293l11.293,11.293v-7.086c0-2.481,2.019-4.5,4.5-4.5h2.5c.553,0,1,.447,1,1s-.447,1-1,1h-2.5c-1.379,0-2.5,1.121-2.5,2.5v9.086l8.707,8.707c.391.391.391,1.023,0,1.414Zm-8.711-10.125h0s0-.002,0,0Z"/>
</svg>
