<?xml version="1.0" encoding="UTF-8"?>
<svg xmlns="http://www.w3.org/2000/svg" id="Layer_1" data-name="Layer 1" viewBox="0 0 24 24" width="512" height="512"><path d="M10,13c0,.552-.448,1-1,1s-1-.448-1-1,.448-1,1-1,1,.448,1,1Zm7-1c-.552,0-1,.448-1,1s.448,1,1,1,1-.448,1-1-.448-1-1-1Zm7,0c0,6.617-5.383,12-12,12S0,18.617,0,12,5.383,0,12,0s12,5.383,12,12ZM14.187,6.581c.746,1.045,2.136,1.979,3.539,2.381,.092,.025,.184,.038,.275,.038,.435,0,.835-.286,.961-.726,.151-.531-.156-1.084-.688-1.236-.964-.275-1.977-.941-2.461-1.619-.321-.45-.946-.555-1.395-.232-.449,.32-.554,.945-.232,1.395Zm-9.148,1.693c.126,.439,.526,.726,.961,.726,.092,0,.184-.013,.275-.038,1.403-.401,2.793-1.336,3.539-2.381,.321-.449,.217-1.074-.232-1.395-.448-.321-1.073-.217-1.395,.232-.484,.678-1.497,1.344-2.461,1.619-.531,.152-.839,.705-.688,1.236Zm2.962,6.726c1.654,0,3-1.346,3-3s-1.346-3-3-3c-.304,0-.592,.059-.869,.144,.512,.239,.869,.755,.869,1.356,0,.828-.672,1.5-1.5,1.5-.602,0-1.117-.357-1.356-.869-.085,.277-.144,.565-.144,.869,0,1.654,1.346,3,3,3Zm7.598,3.198c-.066-.049-1.632-1.198-3.598-1.198s-3.531,1.149-3.598,1.198c-.441,.328-.532,.951-.205,1.394,.325,.442,.949,.537,1.396,.213,.011-.008,1.117-.805,2.406-.805s2.396,.797,2.402,.802c.18,.134,.39,.198,.597,.198,.306,0,.606-.139,.803-.402,.33-.443,.238-1.069-.204-1.399Zm3.402-6.198c0-1.654-1.346-3-3-3-.304,0-.592,.059-.869,.144,.512,.239,.869,.755,.869,1.356,0,.828-.672,1.5-1.5,1.5-.602,0-1.117-.357-1.356-.869-.085,.277-.144,.565-.144,.869,0,1.654,1.346,3,3,3s3-1.346,3-3Z"/></svg>
