<?xml version="1.0" encoding="UTF-8"?>
<svg xmlns="http://www.w3.org/2000/svg" id="Layer_1" data-name="Layer 1" viewBox="0 0 24 24">
  <path d="m23.707,23.707c-.195.195-.451.293-.707.293s-.512-.098-.707-.293L.293,1.707C-.098,1.316-.098.684.293.293S1.316-.098,1.707.293l3.899,3.899c1.172-1.251,2.349-2.309,3.18-3.015,1.862-1.578,4.565-1.578,6.426,0,2.908,2.469,7.787,7.286,7.787,11.821,0,2.337-.744,4.607-2.109,6.479l2.816,2.816c.391.391.391,1.023,0,1.414ZM4.083,8.173c-.222-.221-.534-.325-.844-.281s-.582.229-.734.503c-1.013,1.816-1.505,3.323-1.505,4.605,0,2.938,1.144,5.7,3.222,7.778,2.078,2.077,4.84,3.222,7.778,3.222,1.715,0,3.427-.406,4.95-1.175.287-.145.487-.418.538-.735.05-.317-.055-.64-.283-.866L4.083,8.173Z"/>
</svg>
