<?xml version="1.0" encoding="UTF-8"?>
<svg xmlns="http://www.w3.org/2000/svg" id="Layer_1" data-name="Layer 1" viewBox="0 0 24 24">
  <path d="m5.331,20.084l-3.623,3.623c-.195.195-.451.293-.707.293s-.512-.098-.707-.293c-.391-.391-.391-1.023,0-1.414l3.623-3.623,1.414,1.414ZM22.643,7.242c.03-.039.076-.092.142-.158.784-.783,1.216-1.825,1.216-2.934s-.432-2.151-1.216-2.935c-.783-.784-1.825-1.216-2.935-1.216s-2.15.432-2.934,1.215c-.065.066-.118.112-.158.143-.043-.034-.098-.082-.163-.141-.905-.819-1.901-1.217-3.045-1.217-2.288,0-4.149,1.862-4.117,4.204-.204-.019-.901-.004-.901-.004-2.386,0-4.332,1.916-4.382,4.32-.051.017-.316.092-.384.116-1.654.585-2.766,2.158-2.766,3.913,0,1.617,1.922,4.655,2.916,6.12l8.377-8.377c.391-.391,1.023-.391,1.414,0s.391,1.023,0,1.414l-8.377,8.377c1.465.995,4.503,2.916,6.12,2.916,1.755,0,3.328-1.111,3.914-2.767.023-.066.099-.333.116-.384,2.387-.033,4.319-1.985,4.319-4.381,0-.229.05-.868.05-.869,2.288,0,4.15-1.861,4.15-4.149,0-1.144-.397-2.14-1.217-3.045-.06-.065-.106-.12-.141-.163Z"/>
</svg>
