<?xml version="1.0" encoding="UTF-8"?>
<svg xmlns="http://www.w3.org/2000/svg" id="Layer_1" data-name="Layer 1" viewBox="0 0 24 24" width="512" height="512"><path d="M12,0C5.383,0,0,5.383,0,12s5.383,12,12,12,12-5.383,12-12S18.617,0,12,0Zm2.419,5.187c.449-.322,1.073-.218,1.395,.232,.484,.678,1.497,1.344,2.461,1.619,.531,.152,.839,.705,.688,1.236-.126,.439-.526,.726-.961,.726-.092,0-.184-.013-.275-.038-1.403-.401-2.793-1.336-3.539-2.381-.321-.449-.217-1.074,.232-1.395Zm-8.693,1.852c.964-.275,1.977-.941,2.461-1.619,.321-.449,.947-.554,1.395-.232,.449,.32,.554,.945,.232,1.395-.746,1.045-2.136,1.979-3.539,2.381-.092,.025-.184,.038-.275,.038-.435,0-.835-.286-.961-.726-.151-.531,.156-1.084,.688-1.236Zm2.234,7.962c-.711-.004-1.756-.242-2.694-1.35-.356-.422-.304-1.053,.117-1.41,.424-.356,1.053-.303,1.41,.117,.358,.424,.755,.641,1.179,.643h.007c.451,0,.946-.249,1.295-.651,.363-.417,.994-.462,1.411-.101,.417,.362,.462,.994,.101,1.411-.729,.841-1.777,1.341-2.807,1.341h-.019Zm7.04,4h-6c-.553,0-1-.447-1-1s.447-1,1-1h6c.553,0,1,.447,1,1s-.447,1-1,1Zm3.785-5.341c-.729,.841-1.777,1.341-2.807,1.341h-.019c-.711-.004-1.756-.242-2.694-1.35-.356-.422-.304-1.053,.117-1.41,.424-.356,1.054-.303,1.41,.117,.358,.424,.755,.641,1.179,.643,.435,.039,.951-.247,1.302-.651,.363-.417,.994-.462,1.411-.101,.417,.362,.462,.994,.101,1.411Z"/></svg>
