<?xml version="1.0" encoding="UTF-8"?>
<svg xmlns="http://www.w3.org/2000/svg" id="Layer_1" data-name="Layer 1" viewBox="0 0 24 24" width="512" height="512"><path d="m14,5.983c0-1.657,1.343-3,3-3s3,1.343,3,3-1.343,3-3,3-3-1.343-3-3Zm-1.025,3.233C12.743,5.576,10.71.343,1.021,0,.462-.019,0,.442,0,1.002h0c0,.545.439.978.984.998,6.3.224,9.649,2.65,9.982,7.215C8.152,10.093.249,13.161.006,19.674c-.077,2.054,1.337,3.951,3.369,4.261,2.481.378,4.625-1.542,4.625-3.952,0-4.922,2.788-7.752,3.997-8.748,1.192.992,3.981,3.826,4.003,8.688.009,2.012,1.517,3.795,3.516,4.031,2.421.286,4.484-1.606,4.484-3.971,0-6.945-8.437-9.994-11.025-10.767Zm-4.975-2.233c0-1.657-1.343-3-3-3s-3,1.343-3,3,1.343,3,3,3,3-1.343,3-3Z"/></svg>
