<?xml version="1.0" encoding="UTF-8"?>
<svg xmlns="http://www.w3.org/2000/svg" id="Layer_1" data-name="Layer 1" viewBox="0 0 24 24" width="512" height="512"><path d="m24,12c0-.964-.502-3.481-1.502-5.065-.321-.51-.498-1.074-.498-1.588,0-.354.621-.919.992-1.256.242-.221.456-.422.597-.592.536-.646.647-1.519.292-2.276-.354-.753-1.093-1.221-1.927-1.221h-7.954c-1.033,0-1.954.009-2.603.041C5.345.338.356,5.301.042,11.338c-.196,3.764.558,6.877,2.442,10.096.09.153.038.289,0,.355-.04.069-.135.186-.319.186h-1.165c-.553,0-1,.448-1,1s.447,1,1,1h10.763c-.686-.059-1.327-.355-1.819-.875-1.846-1.949-4.944-5.793-4.944-9.643,0-4.112,3.141-7.458,7-7.458s7,3.346,7,7.458c0,3.85-3.099,7.694-4.945,9.644-.491.519-1.132.815-1.818.874h10.763c.553,0,1-.448,1-1s-.447-1-1-1h-1.152c-.166,0-.256-.091-.302-.168-.034-.058-.104-.213-.003-.401,1.837-3.432,2.457-5.805,2.457-9.407Z"/><path d="m12,8c-2.757,0-5,2.448-5,5.458,0,3.157,2.755,6.535,4.396,8.268.336.354.872.354,1.206,0,1.643-1.733,4.397-5.111,4.397-8.268,0-3.01-2.243-5.458-5-5.458Z"/></svg>
