<?xml version="1.0" encoding="UTF-8"?>
<svg xmlns="http://www.w3.org/2000/svg" id="Layer_1" data-name="Layer 1" viewBox="0 0 24 24">
  <path d="m24,11c0,.553-.448,1-1,1h-6c-.552,0-1-.447-1-1s.448-1,1-1h6c.552,0,1,.447,1,1Zm-3,4h-4c-.552,0-1,.447-1,1s.448,1,1,1h4c.552,0,1-.447,1-1s-.448-1-1-1Zm-2,5h-2c-.552,0-1,.447-1,1s.448,1,1,1h2c.552,0,1-.447,1-1s-.448-1-1-1Zm-5,1c0-1.042.534-1.962,1.343-2.5-.809-.538-1.343-1.458-1.343-2.5s.534-1.962,1.343-2.5c-.809-.538-1.343-1.458-1.343-2.5,0-1.654,1.346-3,3-3h1v-2h1c.552,0,1-.447,1-1s-.448-1-1-1h-3.101c-.465-2.279-2.484-4-4.899-4h-2c-2.414,0-4.434,1.721-4.899,4H1c-.552,0-1,.447-1,1s.448,1,1,1h1v13c0,2.761,2.239,5,5,5h6c.819,0,1.58-.215,2.262-.564-.761-.545-1.262-1.431-1.262-2.436ZM6.184,4c.414-1.161,1.514-2,2.816-2h2c1.302,0,2.402.839,2.816,2h-7.631Z"/>
</svg>
