<?xml version="1.0" encoding="UTF-8"?>
<svg xmlns="http://www.w3.org/2000/svg" id="Layer_1" data-name="Layer 1" viewBox="0 0 24 24" width="512" height="512"><path d="M24,16.3c0,2.6-3.38,5.82-5.07,7.17-.54,.44-1.32,.44-1.86,0-1.69-1.35-5.07-4.58-5.07-7.17,0-1.82,1.34-3.3,3-3.3,1.46,0,2.72,1.15,2.99,2.67h0c.27-1.52,1.55-2.67,3.01-2.67,1.66,0,3,1.48,3,3.3ZM19,2h-6.53c-.15,0-.31-.04-.45-.11L8.87,.32c-.41-.21-.88-.32-1.34-.32h-2.53C2.24,0,0,2.24,0,5v1H23.9c-.46-2.28-2.48-4-4.9-4Zm-9,14.3c0-2.92,2.24-5.3,5-5.3,1.11,0,2.15,.38,2.99,1.03,.85-.65,1.89-1.03,3.01-1.03s2.16,.4,3,1.06v-4.06H0v9c0,2.76,2.24,5,5,5h7.67c-1.4-1.63-2.67-3.68-2.67-5.7Z"/></svg>
