<?xml version="1.0" encoding="UTF-8"?>
<svg xmlns="http://www.w3.org/2000/svg" id="Layer_1" data-name="Layer 1" viewBox="0 0 24 24">
  <path d="m22,4h-4.101c-.465-2.279-2.484-4-4.899-4h-2c-2.414,0-4.434,1.721-4.899,4H2c-.552,0-1,.447-1,1s.448,1,1,1h.86l1.296,13.479c.248,2.578,2.388,4.521,4.977,4.521h5.728c2.593,0,4.732-1.947,4.977-4.528l1.277-13.472h.886c.553,0,1-.447,1-1s-.447-1-1-1Zm-11-2h2c1.302,0,2.402.839,2.816,2h-7.631c.414-1.161,1.514-2,2.816-2Zm5.739,10.726l-3.552,3.373c-.571.563-1.329.846-2.088.846s-1.521-.282-2.101-.849l-1.612-1.465c-.409-.372-.438-1.005-.067-1.413s1.004-.438,1.413-.067l1.638,1.489c.414.403,1.042.401,1.427.021l3.565-3.387c.401-.38,1.033-.362,1.414.037.38.4.363,1.033-.037,1.414Z"/>
</svg>
