<?xml version="1.0" encoding="UTF-8"?>
<svg xmlns="http://www.w3.org/2000/svg" id="Layer_1" data-name="Layer 1" viewBox="0 0 24 24" width="512" height="512"><path d="m20,23c0,.552-.447,1-1,1H5c-.553,0-1-.448-1-1s.447-1,1-1,1-.449,1-1c0-.281-.301-.727-.639-1h13.286c-.365.302-.647.73-.647,1,0,.551.448,1,1,1s1,.448,1,1ZM3.038,18h17.934c1.462-1.552,2.504-3.384,2.945-5.282.213-.915.002-1.859-.578-2.589-.569-.717-1.422-1.128-2.339-1.128H3c-.917,0-1.77.411-2.339,1.128-.58.73-.791,1.674-.578,2.59.439,1.891,1.476,3.718,2.955,5.282ZM23.268,4.268l-3.307,2.732h-5.406L19.732.732c.976-.976,2.559-.976,3.536,0s.976,2.559,0,3.536Z"/></svg>
