<?xml version="1.0" encoding="UTF-8"?>
<svg xmlns="http://www.w3.org/2000/svg" id="Layer_1" data-name="Layer 1" viewBox="0 0 24 24" width="512" height="512"><path d="M23.145,9.903l-2.414-2.586c-.376-.403-1.01-.424-1.414-.048-.403,.377-.425,1.01-.048,1.414l2.164,2.317h-4.433v-2c0-.552-.448-1-1-1s-1,.448-1,1v2h-1.08c-.488-3.387-3.401-6-6.92-6C3.14,5,0,8.14,0,12s3.14,7,7,7c3.519,0,6.432-2.613,6.92-6h1.08v2c0,.552,.448,1,1,1s1-.448,1-1v-2h4.432l-2.163,2.317c-.377,.404-.355,1.037,.048,1.414,.193,.18,.438,.269,.683,.269,.267,0,.534-.106,.731-.317l2.39-2.561c.567-.567,.879-1.32,.879-2.122s-.312-1.555-.855-2.097Z"/></svg>
