<?xml version="1.0" encoding="UTF-8"?>
<svg xmlns="http://www.w3.org/2000/svg" id="Layer_1" data-name="Layer 1" viewBox="0 0 24 24" width="512" height="512"><path d="m19,24H5c-.552,0-1-.447-1-1s.448-1,1-1h14c.552,0,1,.447,1,1s-.448,1-1,1Zm-3-6c0-.553-.448-1-1-1h-6c-.552,0-1,.447-1,1s.448,1,1,1h6c.552,0,1-.447,1-1Zm1-5c0-.553-.448-1-1-1h-8c-.552,0-1,.447-1,1s.448,1,1,1h8c.552,0,1-.447,1-1Zm1-5c0-.553-.448-1-1-1H7c-.552,0-1,.447-1,1s.448,1,1,1h10c.552,0,1-.447,1-1Zm-3-5c0-.553-.448-1-1-1h-4c-.552,0-1,.447-1,1s.448,1,1,1h4c.552,0,1-.447,1-1ZM4.47,19.255l.354-1.418,1.418-.354c.445-.111.757-.511.757-.97s-.313-.859-.757-.97l-1.418-.354-.354-1.418c-.111-.445-.511-.757-.97-.757s-.859.312-.97.757l-.351,1.406-1.404.325C.328,15.604.008,15.998,0,16.457c-.008.459.297.865.74.984l1.432.385.357,1.43c.111.445.511.757.97.757s.859-.312.97-.757ZM21.697,5.528l.523-1.308,1.308-.523c.285-.114.472-.39.472-.697s-.187-.583-.472-.697l-1.308-.523-.523-1.308c-.114-.285-.39-.472-.697-.472s-.583.187-.697.472l-.52,1.301-1.299.492c-.287.108-.479.381-.484.687-.005.307.176.586.459.705l1.318.556.526,1.316c.114.285.39.472.697.472s.583-.187.697-.472Z"/></svg>
