<?xml version="1.0" encoding="UTF-8"?>
<svg xmlns="http://www.w3.org/2000/svg" id="Layer_1" data-name="Layer 1" viewBox="0 0 24 24">
  <path d="m14.5,24h-5.039c-5.721,0-8.209-3.255-9.184-5.194-.408-.812-.364-1.762.116-2.54.489-.792,1.335-1.266,2.265-1.266h18.679c.934,0,1.782.477,2.271,1.274.479.783.518,1.734.103,2.546-.989,1.935-3.5,5.18-9.21,5.18Zm-6.833-11H2.333c-.92,0-1.757-.543-2.131-1.385-.375-.838-.22-1.823.396-2.509L5.906,2.798c.666-.739,1.697-.986,2.593-.643.893.341,1.496,1.215,1.497,2.176l.004,6.334c0,.622-.241,1.208-.682,1.65-.442.441-1.028.685-1.652.685Zm14,0h-7.334c-.623,0-1.209-.243-1.649-.684h-.001c-.441-.443-.683-1.03-.682-1.651l.004-8.333c.001-.962.605-1.837,1.501-2.178.889-.343,1.923-.096,2.566.617l7.338,8.344c.607.677.763,1.661.39,2.5-.376.842-1.212,1.385-2.132,1.385Z"/>
</svg>
