<?xml version="1.0" encoding="UTF-8"?>
<svg xmlns="http://www.w3.org/2000/svg" id="Layer_1" data-name="Layer 1" viewBox="0 0 24 24" width="512" height="512"><path d="m22.536,8.46L15.537,1.459C14.592.515,13.337-.006,12.001-.006s-2.592.521-3.536,1.465L1.466,8.46c-1.949,1.949-1.949,5.12,0,7.069l6.999,7.001c.944.944,2.2,1.465,3.536,1.465s2.591-.521,3.536-1.465l6.999-7.001c.944-.944,1.464-2.199,1.464-3.534s-.52-2.591-1.464-3.535Zm-11.536-1.46c0-.553.448-1,1-1s1,.447,1,1v5.5c0,.553-.448,1-1,1s-1-.447-1-1v-5.5Zm1,11c-.828,0-1.5-.672-1.5-1.5s.672-1.5,1.5-1.5,1.5.672,1.5,1.5-.672,1.5-1.5,1.5Z"/></svg>
