<?xml version="1.0" encoding="UTF-8"?>
<svg xmlns="http://www.w3.org/2000/svg" id="Layer_1" data-name="Layer 1" viewBox="0 0 24 24" width="512" height="512"><path d="m18,24H4.872c-1.15,0-2.155-.653-2.622-1.705-.467-1.051-.277-2.234.495-3.087.032-.036.066-.069.104-.099l8.584-7.108L2.849,4.892c-.037-.03-.071-.063-.104-.099-.772-.853-.962-2.036-.495-3.087.467-1.052,1.472-1.705,2.622-1.705h13.128c2.206,0,4,1.794,4,4v1c0,.552-.447,1-1,1s-1-.448-1-1v-1c0-1.103-.897-2-2-2H4.872c-.524,0-.74.395-.794.516-.052.116-.19.514.111.889l9.448,7.825c.229.19.362.472.362.77s-.133.58-.362.77l-9.448,7.825c-.302.375-.163.773-.111.889.054.121.27.516.794.516h13.128c1.103,0,2-.897,2-2v-1c0-.552.447-1,1-1s1,.448,1,1v1c0,2.206-1.794,4-4,4Z"/></svg>
