<?xml version="1.0" encoding="UTF-8"?>
<svg xmlns="http://www.w3.org/2000/svg" id="Layer_1" data-name="Layer 1" viewBox="0 0 24 24">
  <path d="m12,0C5.383,0,0,5.383,0,12s5.383,12,12,12,12-5.383,12-12S18.617,0,12,0Zm-5,15c0,.552-.447,1-1,1s-1-.448-1-1v-6c0-.552.447-1,1-1s1,.448,1,1v6Zm4,3c0,.552-.447,1-1,1s-1-.448-1-1V6c0-.552.447-1,1-1s1,.448,1,1v12Zm4-2c0,.552-.447,1-1,1s-1-.448-1-1v-8c0-.552.447-1,1-1s1,.448,1,1v8Zm4-2c0,.552-.447,1-1,1s-1-.448-1-1v-3c0-.552.447-1,1-1s1,.448,1,1v3Z"/>
</svg>
