<?xml version="1.0" encoding="UTF-8"?>
<svg xmlns="http://www.w3.org/2000/svg" id="Layer_1" data-name="Layer 1" viewBox="0 0 24 24" width="512" height="512"><path d="M11,14H3v-4H11v4Zm2-4v4h8v-4H13Zm-5-5c-2.045,0-3.802,1.237-4.576,3H20.576c-.774-1.763-2.531-3-4.576-3h-3V2.025c3.199,.144,5.668,.918,5.694,.927,.524,.168,1.089-.12,1.258-.647,.168-.525-.121-1.088-.646-1.257-.133-.043-3.307-1.048-7.306-1.048S4.827,1.005,4.694,1.048c-.526,.169-.815,.732-.646,1.258,.137,.425,.529,.694,.952,.694,.102,0,.204-.016,.306-.048,.027-.009,2.483-.784,5.694-.927v2.975h-3Zm9,12c0,.553-.447,1-1,1s-1-.447-1-1v-1h-6v1c0,.553-.447,1-1,1s-1-.447-1-1v-1H3v1c0,2.261,1.518,4.154,3.581,4.77l-.433,.708c-.289,.472-.141,1.087,.33,1.375,.163,.1,.344,.147,.521,.147,.337,0,.665-.17,.854-.478l.932-1.522h6.431l.932,1.522c.188,.308,.517,.478,.854,.478,.178,0,.358-.048,.521-.147,.471-.288,.619-.903,.33-1.375l-.433-.708c2.063-.616,3.581-2.509,3.581-4.77v-1h-4v1Z"/></svg>
