<?xml version="1.0" encoding="UTF-8"?>
<svg xmlns="http://www.w3.org/2000/svg" id="Layer_1" data-name="Layer 1" viewBox="0 0 24 24" width="512" height="512"><path d="m24,20.998c0,1.657-1.343,3-3,3l-17.999.002c-1.657,0-3.001-1.343-3.001-3v-.002c0-1.657,1.343-3,3-3h18c1.657,0,3,1.343,3,3ZM21,1.998c-.18,0-.353.023-.524.053C19.289,1.019,17.525-.002,15.143-.002,11.116-.002,4.323,4.393,2.297,15.998h19.337c-.408-2.334-1.016-4.359-1.747-6.133-2.221-.509-3.887-2.492-3.887-4.865,0-.647.122-1.278.364-1.875.207-.512.79-.758,1.302-.552.512.207.759.79.552,1.302-.145.357-.218.736-.218,1.125,0,1.424.999,2.613,2.331,2.919v-.002c.216.049.438.081.669.081,1.657,0,3-1.343,3-3s-1.343-3-3-3Z"/></svg>
