<?xml version="1.0" encoding="UTF-8"?>
<svg xmlns="http://www.w3.org/2000/svg" id="Layer_1" data-name="Layer 1" viewBox="0 0 24 24" width="512" height="512"><path d="M13,8h5v4h-5v-4ZM4,12v-4H0v4H4Zm0,2H0v4H4v-4Zm9,10h5v-4h-5v4Zm-2-4H6v4h5v-4Zm9-2h4v-4h-4v4ZM6,12h5v-4H6v4Zm-2,8H.1c.4,1.96,1.94,3.5,3.9,3.9v-3.9Zm7-6H6v4h5v-4Zm9,6v3.9c1.96-.4,3.5-1.94,3.9-3.9h-3.9Zm3.9-14c-.46-2.28-2.48-4-4.9-4h-1V1c0-.55-.45-1-1-1s-1,.45-1,1v1H8V1c0-.55-.45-1-1-1s-1,.45-1,1v1h-1C2.59,2,.57,3.72,.1,6H23.9ZM13,14v4h5v-4h-5Zm7-6v4h4v-4h-4Z"/></svg>
