<?xml version="1.0" encoding="UTF-8"?>
<svg xmlns="http://www.w3.org/2000/svg" id="Layer_1" data-name="Layer 1" viewBox="0 0 24 24" width="512" height="512"><path d="M17.13,12.09l-1.61,1.61c-.2,.2-.45,.29-.71,.29s-.51-.1-.71-.29c-.39-.39-.39-1.02,0-1.41l1.29-1.29h-6.8l1.29,1.29c.39,.39,.39,1.02,0,1.41-.2,.2-.45,.29-.71,.29s-.51-.1-.71-.29l-1.61-1.61c-1.15-1.15-1.15-3.03,0-4.19l1.61-1.61c.39-.39,1.02-.39,1.41,0,.39,.39,.39,1.02,0,1.41l-1.29,1.29h6.8l-1.29-1.29c-.39-.39-.39-1.02,0-1.41,.39-.39,1.02-.39,1.41,0l1.61,1.61c1.15,1.15,1.15,3.03,0,4.19ZM5,5c1.38,0,2.5-1.12,2.5-2.5S6.38,0,5,0,2.5,1.12,2.5,2.5s1.12,2.5,2.5,2.5Zm2.32,10.35c-.09-.07-1.87-1.84-1.87-1.84-1.94-1.94-1.94-5.08,0-7.01,.18-.18,.05-.49-.2-.49h-1.25C1.79,6,0,7.79,0,10v3c0,1.48,.81,2.77,2,3.46v6.54c0,.55,.45,1,1,1s1-.45,1-1v-6h2v6c0,.55,.45,1,1,1s1-.45,1-1v-6.15c0-.57-.23-1.14-.68-1.5ZM20,6h-1.25c-.26,0-.39,.31-.2,.49,1.94,1.94,1.94,5.08,0,7.01,0,0-1.78,1.77-1.87,1.84-.45,.36-.68,.92-.68,1.5v6.15c0,.55,.45,1,1,1s1-.45,1-1v-6h2v6c0,.55,.45,1,1,1s1-.45,1-1v-6.54c1.19-.69,2-1.99,2-3.46v-3c0-2.21-1.79-4-4-4Zm-1-1c1.38,0,2.5-1.12,2.5-2.5s-1.12-2.5-2.5-2.5-2.5,1.12-2.5,2.5,1.12,2.5,2.5,2.5Z"/></svg>
