<?xml version="1.0" encoding="UTF-8"?>
<svg xmlns="http://www.w3.org/2000/svg" id="Layer_1" data-name="Layer 1" viewBox="0 0 24 24" width="512" height="512"><path d="M9.5,19c1.381,0,2.5,1.119,2.5,2.5s-1.119,2.5-2.5,2.5-2.5-1.119-2.5-2.5,1.119-2.5,2.5-2.5Zm9.5,2.5c0,1.381,1.119,2.5,2.5,2.5s2.5-1.119,2.5-2.5-1.119-2.5-2.5-2.5-2.5,1.119-2.5,2.5Zm5-3.5c0-.552-.447-1-1-1H9c-1.654,0-3-1.346-3-3V5C6,2.243,3.757,0,1,0,.447,0,0,.448,0,1s.447,1,1,1c1.654,0,3,1.346,3,3V14c0,2.757,2.243,5,5,5h14c.553,0,1-.448,1-1Zm-5-3h-6V2.5c0-1.381,1.119-2.5,2.5-2.5h1c1.381,0,2.5,1.119,2.5,2.5V15Zm-2-12.5c0-.276-.225-.5-.5-.5h-1c-.275,0-.5,.224-.5,.5v1.5h2v-1.5Zm4,1.5V15c1.657,0,3-1.343,3-3V7c0-1.657-1.343-3-3-3ZM11,15V4c-1.657,0-3,1.343-3,3v5c0,1.657,1.343,3,3,3Z"/></svg>
