<?xml version="1.0" encoding="UTF-8"?>
<svg xmlns="http://www.w3.org/2000/svg" id="Layer_1" data-name="Layer 1" viewBox="0 0 24 24" width="512" height="512"><path d="m16.707,8.707l-3.293,3.293,3.293,3.293c.391.391.391,1.023,0,1.414-.195.195-.451.293-.707.293s-.512-.098-.707-.293l-3.293-3.293-3.293,3.293c-.195.195-.451.293-.707.293s-.512-.098-.707-.293c-.391-.391-.391-1.023,0-1.414l3.293-3.293-3.293-3.293c-.391-.391-.391-1.023,0-1.414s1.023-.391,1.414,0l3.293,3.293,3.293-3.293c.391-.391,1.023-.391,1.414,0s.391,1.023,0,1.414ZM1,0C.447,0,0,.448,0,1v22c0,.552.447,1,1,1s1-.448,1-1V1c0-.552-.447-1-1-1Zm22,0c-.553,0-1,.448-1,1v22c0,.552.447,1,1,1s1-.448,1-1V1c0-.552-.447-1-1-1Z"/></svg>
