<?xml version="1.0" encoding="UTF-8"?>
<svg xmlns="http://www.w3.org/2000/svg" id="Layer_1" data-name="Layer 1" viewBox="0 0 24 24">
  <path d="m1,2.5C1,1.119,2.119,0,3.5,0s2.5,1.119,2.5,2.5-1.119,2.5-2.5,2.5S1,3.881,1,2.5Zm22.226,16.744l-7.291,1.687c.043.183.066.373.066.569,0,1.598-1.499,2.845-3.167,2.414-.849-.22-1.541-.919-1.753-1.77-.362-1.452.544-2.768,1.842-3.076l-1.369-6.068h-2.935c-.758,0-1.45-.428-1.789-1.106l-1.369-2.739c-.117-.235-.274-.44-.459-.61v7.687l.546.329c.902.543,1.454,1.518,1.454,2.571v3.868c0,.553-.448,1-1,1s-1-.447-1-1v-3.869c0-.351-.184-.675-.484-.856l-2.764-1.664C.715,15.987.074,14.871.057,13.661l-.057-4.058c0-2.576,2.69-4.512,5.389-3.16.865.433,1.539,1.176,1.972,2.042l1.257,2.515h2.484l-1.078-4.78c-.122-.538.217-1.073.755-1.195.54-.122,1.074.217,1.196.756l3.004,13.318,7.795-1.804c.54-.126,1.075.211,1.2.749.125.538-.21,1.075-.749,1.2Zm-21.226-.244c-.552,0-1,.447-1,1v3c0,.553.448,1,1,1s1-.447,1-1v-3c0-.553-.448-1-1-1Zm13.067-7.251c-.316-1.351.523-2.709,1.872-3.028l2.775-.66c.658-.156,1.335-.047,1.909.309.574.354.975.912,1.129,1.568l.668,2.852c.316,1.351-.523,2.709-1.872,3.028l-2.775.66c-.195.047-.392.069-.587.069-.463,0-.918-.128-1.321-.378-.574-.354-.975-.912-1.129-1.569l-.668-2.851Z"/>
</svg>
