<?xml version="1.0" encoding="UTF-8"?>
<svg xmlns="http://www.w3.org/2000/svg" id="Layer_1" data-name="Layer 1" viewBox="0 0 24 24" width="512" height="512"><path d="m18,12c-3.314,0-6,2.686-6,6s2.686,6,6,6,6-2.686,6-6-2.686-6-6-6Zm3.192,6.202l-2.213,2.124c-.452.446-1.052.671-1.653.671s-1.203-.225-1.663-.674l-1.132-1.109c-.395-.387-.4-1.02-.014-1.414.386-.396,1.019-.401,1.414-.014l1.131,1.108c.144.142.379.139.522-.002l2.223-2.134c.397-.382,1.031-.371,1.414.029.382.398.369,1.031-.029,1.414Zm-11.192-.202c0-2.39,1.048-4.534,2.709-6h-7.709c-.553,0-1-.447-1-1s.447-1,1-1h8c.553,0,1,.447,1,1,0,.024-.001.048-.003.072,1.177-.682,2.544-1.072,4.003-1.072v-5c0-2.757-2.243-5-5-5H5C2.243,0,0,2.243,0,5v14c0,2.757,2.243,5,5,5h7.709c-1.661-1.466-2.709-3.61-2.709-6ZM5,5h8c.553,0,1,.447,1,1s-.447,1-1,1H5c-.553,0-1-.447-1-1s.447-1,1-1Zm2,12h-2c-.553,0-1-.447-1-1s.447-1,1-1h2c.553,0,1,.447,1,1s-.447,1-1,1Z"/></svg>
