<?xml version="1.0" encoding="UTF-8"?>
<svg xmlns="http://www.w3.org/2000/svg" id="Layer_1" data-name="Layer 1" viewBox="0 0 24 24" width="512" height="512"><path d="m5,18h17v1c0,2.761-2.239,5-5,5H5c-1.657,0-3-1.343-3-3s1.343-3,3-3Zm0-2h1V.1C3.672.575,2,2.624,2,5v12.025c.699-.527,1.525-.86,2.395-.964.199-.041.402-.061.605-.061ZM22,5v11h-14V0h9c2.761,0,5,2.239,5,5Zm-9.077.5c0,1.379,1.121,2.5,2.5,2.5s2.5-1.121,2.5-2.5-1.121-2.5-2.5-2.5-2.5,1.121-2.5,2.5Zm6.933,5.982c-.928-1.531-2.626-2.482-4.433-2.482s-3.505.951-4.433,2.482c-.286.472-.135,1.087.337,1.374.472.285,1.087.136,1.374-.337.559-.922,1.627-1.518,2.722-1.518s2.163.596,2.722,1.518c.188.311.519.482.856.482.177,0,.355-.046.518-.145.472-.287.623-.901.337-1.374Z"/></svg>
