<?xml version="1.0" encoding="UTF-8"?>
<svg xmlns="http://www.w3.org/2000/svg" id="Layer_1" data-name="Layer 1" viewBox="0 0 24 24" width="512" height="512"><path d="m7,4c0-.553.447-1,1-1h3.965l1.703-2.555c.204-.308.564-.474.929-.44.367.035.685.271.826.61l1.865,4.477,1.443-1.732c.19-.228.472-.359.769-.359h3.5c.553,0,1,.447,1,1s-.447,1-1,1h-3.031l-2.2,2.641c-.191.229-.475.359-.769.359-.05,0-.1-.004-.149-.011-.346-.053-.639-.282-.773-.604l-1.781-4.275-.964,1.445c-.186.278-.498.445-.832.445h-4.5c-.553,0-1-.447-1-1Zm-.5,10c1.381,0,2.5-1.119,2.5-2.5s-1.119-2.5-2.5-2.5-2.5,1.119-2.5,2.5,1.119,2.5,2.5,2.5Zm13.567-5.993l-.762.914c-.572.687-1.412,1.079-2.305,1.079-.141,0-.281-.01-.421-.029-1.058-.161-1.977-.93-2.378-1.89-1.826.37-3.201,1.984-3.201,3.919v2h13v-2c0-2.186-1.756-3.957-3.933-3.993ZM2,5c0-.552-.448-1-1-1s-1,.448-1,1v18c0,.552.448,1,1,1s1-.448,1-1v-2h20v2c0,.552.448,1,1,1s1-.448,1-1v-7H2V5Z"/></svg>
