<?xml version="1.0" encoding="UTF-8"?>
<svg xmlns="http://www.w3.org/2000/svg" id="Layer_1" data-name="Layer 1" viewBox="0 0 24 24" width="512" height="512"><path d="M2,8.005v-2.785c0-1.866,1.451-3.22,3.45-3.22l1.35,.011c1.309,0,1.918-.431,2.69-.977,.319-.226,.639-.449,.995-.646,.941-.517,2.06-.516,2.997,0,.351,.193,.667,.412,.983,.633,.79,.553,1.415,.989,2.734,.989l1.35-.011c1.999,0,3.45,1.354,3.45,3.22v2.785H2Zm0,2v2.393c0,5.5,4.887,9.198,7.801,10.913l.146,.088c.491,.295,1,.602,2.055,.602,1.104,0,1.753-.292,2.429-.645,2.827-1.479,7.569-4.87,7.569-10.958v-2.393H2Z"/></svg>
