<?xml version="1.0" encoding="UTF-8"?>
<svg xmlns="http://www.w3.org/2000/svg" id="Layer_1" data-name="Layer 1" viewBox="0 0 24 24" width="512" height="512"><path d="m17,21c.2,0,.392-.013.592-.03-.789,1.836-2.594,3.027-4.592,3.03h-6c-2.76-.003-4.997-2.24-5-5v-10c.003-1.998,1.194-3.803,3.03-4.592-.017.192-.03.392-.03.592v9c.004,3.864,3.136,6.996,7,7h5Zm0-17c0,.552.448,1,1,1h3.966c-.074-.649-.359-1.256-.811-1.728l-2.284-2.359c-.5-.506-1.162-.82-1.871-.884v3.971Zm5,3v7c-.003,2.76-2.24,4.997-5,5h-5c-2.76-.003-4.997-2.24-5-5V5c.003-2.76,2.24-4.997,5-5h3v4c0,1.657,1.343,3,3,3h4Zm-4,5.5c0-.552-.448-1-1-1h-1.5v-1.5c0-.552-.448-1-1-1s-1,.448-1,1v1.5h-1.5c-.552,0-1,.448-1,1s.448,1,1,1h1.5v1.5c0,.552.448,1,1,1s1-.448,1-1v-1.5h1.5c.552,0,1-.448,1-1Z"/></svg>
