<?xml version="1.0" encoding="UTF-8"?>
<svg xmlns="http://www.w3.org/2000/svg" id="Layer_1" data-name="Layer 1" viewBox="0 0 24 24" width="512" height="512"><path d="M20.19,16.12c-.49-.25-1.09-.06-1.35,.43-1.1,2.13-3.27,3.45-5.66,3.45h-.18l4.54-14.26c.54,.51,1,1.1,1.34,1.8,.25,.49,.85,.7,1.34,.45,.49-.25,.7-.85,.45-1.34-.6-1.2-1.46-2.2-2.48-2.96l.76-2.38c.17-.53-.12-1.09-.65-1.26-.53-.17-1.09,.12-1.26,.65l-.62,1.96c-.55-.23-1.14-.4-1.74-.51l.27-.85c.17-.53-.12-1.09-.65-1.26-.53-.17-1.09,.12-1.26,.65l-.41,1.3h-1.27C6.75,2,3,5.75,3,10.36v3.27c0,2.89,1.48,5.45,3.72,6.95l-.67,2.11c-.17,.53,.12,1.09,.65,1.26,.1,.03,.2,.05,.3,.05,.42,0,.82-.27,.95-.7l.58-1.81c.56,.2,1.15,.35,1.76,.43l-.25,.77c-.17,.53,.12,1.09,.65,1.26,.1,.03,.2,.05,.3,.05,.42,0,.82-.27,.95-.7l.41-1.3h.81c3.14,0,5.99-1.74,7.43-4.53,.25-.49,.06-1.09-.43-1.35Zm-15.19-2.49v-3.27c0-3.51,2.85-6.36,6.36-6.36h.63l-4.64,14.58c-1.44-1.17-2.36-2.95-2.36-4.94Zm4.13,5.95L14.08,4.06c.61,.08,1.19,.26,1.74,.51l-4.9,15.41c-.62-.04-1.22-.18-1.78-.39Z"/></svg>
