<?xml version="1.0" encoding="UTF-8"?>
<svg xmlns="http://www.w3.org/2000/svg" id="Layer_1" data-name="Layer 1" viewBox="0 0 24 24" width="512" height="512"><path d="M19,0H5C2.24,0,0,2.24,0,5v14c0,2.76,2.24,5,5,5h14c2.76,0,5-2.24,5-5V5c0-2.76-2.24-5-5-5ZM7,14c0,.55-.45,1-1,1s-1-.45-1-1V6c0-.55,.45-1,1-1s1,.45,1,1V14Zm4-3c0,.55-.45,1-1,1s-1-.45-1-1V6c0-.55,.45-1,1-1s1,.45,1,1v5Zm4,7c0,.55-.45,1-1,1s-1-.45-1-1V6c0-.55,.45-1,1-1s1,.45,1,1v12Zm4-9c0,.55-.45,1-1,1s-1-.45-1-1v-3c0-.55,.45-1,1-1s1,.45,1,1v3Z"/></svg>
