<?xml version="1.0" encoding="UTF-8"?>
<svg xmlns="http://www.w3.org/2000/svg" id="Layer_1" data-name="Layer 1" viewBox="0 0 24 24" width="512" height="512"><path d="m14,7.015V.474c.913.346,1.753.879,2.465,1.59l3.484,3.486c.712.711,1.245,1.551,1.591,2.464h-6.54c-.552,0-1-.449-1-1Zm7.976,3h-6.976c-1.654,0-3-1.346-3-3V.038c-.161-.011-.322-.024-.485-.024h-4.515C4.243.015,2,2.258,2,5.015v8.985h8.398l-1.293-1.293c-.391-.391-.391-1.024,0-1.414.391-.391,1.023-.391,1.414,0l1.613,1.614c1.154,1.154,1.154,3.032,0,4.187l-1.613,1.614c-.195.195-.451.293-.707.293s-.512-.098-.707-.293c-.391-.39-.391-1.023,0-1.414l1.293-1.293H2v3.015c0,2.757,2.243,5,5,5h10c2.757,0,5-2.243,5-5v-8.515c0-.163-.013-.324-.024-.485Z"/></svg>
