<?xml version="1.0" encoding="UTF-8"?>
<svg xmlns="http://www.w3.org/2000/svg" id="Layer_1" data-name="Layer 1" viewBox="0 0 24 24">
  <path d="m24,16.353c0-.74-.339-1.392-.857-1.823.177-.334.286-.711.286-1.118,0-1.3-1.023-2.353-2.286-2.353-.023,0-.044.006-.067.007-.147-.671-.54-1.246-1.076-1.618v-1.474C20,3.563,16.411-.026,12-.026S4,3.563,4,7.974v1.474c-.537.372-.93.947-1.076,1.618-.023,0-.044-.007-.067-.007-1.262,0-2.286,1.053-2.286,2.353,0,.407.109.784.286,1.118-.519.431-.857,1.083-.857,1.823,0,.792.383,1.489.965,1.915-.248.376-.394.831-.394,1.32,0,1.299,1.023,2.353,2.286,2.353.023,0,.044-.006.067-.007.258,1.181,1.279,2.066,2.505,2.066,1.42,0,2.571-1.185,2.571-2.647v-9.706c0-1.26-.855-2.313-2-2.581v-1.092c0-3.309,2.691-6,6-6s6,2.691,6,6v1.092c-1.145.268-2,1.321-2,2.581v9.706c0,1.462,1.151,2.647,2.571,2.647,1.226,0,2.247-.884,2.505-2.066.023,0,.044.007.067.007,1.262,0,2.286-1.053,2.286-2.353,0-.489-.146-.944-.394-1.32.583-.426.965-1.123.965-1.915Z"/>
</svg>
