<?xml version="1.0" encoding="UTF-8"?>
<svg xmlns="http://www.w3.org/2000/svg" id="Layer_1" data-name="Layer 1" viewBox="0 0 24 24" width="512" height="512"><path d="M24,20c0,.55-.45,1-1,1h-2v2c0,.55-.45,1-1,1s-1-.45-1-1v-2h-2c-.55,0-1-.45-1-1s.45-1,1-1h2v-2c0-.55,.45-1,1-1s1,.45,1,1v2h2c.55,0,1,.45,1,1Zm-9.91-1H5c-1.19,0-2.31-.52-3.07-1.43-.76-.91-1.08-2.1-.87-3.27l1.28-6.18c.42-2.36,2.45-4.08,4.84-4.11-.11-.32-.19-.65-.19-1.01,0-1.65,1.35-3,3-3h4c1.65,0,3,1.35,3,3,0,.35-.07,.69-.19,1.01,2.39,.04,4.42,1.75,4.84,4.11l1.28,6.18c.03,.16,.02,.33,.03,.49-.88-.5-1.89-.79-2.97-.79-2.97,0-5.43,2.16-5.91,5Zm-.09-15c.55,0,1-.45,1-1s-.45-1-1-1h-4c-.55,0-1,.45-1,1s.45,1,1,1h4Zm-5.86,17c.45,1.72,2,3,3.86,3,1.07,0,2.02-.43,2.74-1.12-.32-.58-.54-1.21-.65-1.88h-5.95Z"/></svg>
