<?xml version="1.0" encoding="UTF-8"?>
<svg xmlns="http://www.w3.org/2000/svg" id="Layer_1" data-name="Layer 1" viewBox="0 0 24 24" width="512" height="512"><path d="m8,19.998h8v.31c0,2.035-1.655,3.69-3.69,3.69h-.619c-2.035,0-3.69-1.655-3.69-3.69v-.31Zm13-11c0,2.59-1.118,5.055-3.068,6.763-.739.648-1.275,1.413-1.594,2.237h-.838v.002h-7v-.002h-.937c-.358-.877-.926-1.702-1.695-2.417-2.149-2.001-3.167-4.83-2.793-7.761C3.59,3.78,6.904.515,10.956.057c2.567-.289,5.13.522,7.038,2.227,1.91,1.707,3.006,4.154,3.006,6.714Zm-7.5,4.502c0-.828-.672-1.5-1.5-1.5s-1.5.672-1.5,1.5.672,1.5,1.5,1.5,1.5-.672,1.5-1.5Zm1.453-7.034c-.212-1.212-1.207-2.207-2.417-2.418-.886-.162-1.783.081-2.464.653-.682.572-1.072,1.41-1.072,2.299,0,.553.447,1,1,1s1-.447,1-1c0-.297.131-.576.358-.767.229-.194.522-.273.832-.216.391.068.724.401.793.794.093.53-.213.905-.502,1.065-.443.244-1.481.815-1.481,2.123,0,.553.447,1,1,1s1-.447,1-1c0-.053,0-.125.447-.371,1.125-.621,1.729-1.893,1.506-3.163Z"/></svg>
