<?xml version="1.0" encoding="UTF-8"?>
<svg xmlns="http://www.w3.org/2000/svg" id="Layer_1" data-name="Layer 1" viewBox="0 0 24 24" width="512" height="512"><path d="M22,21.999c-.512,0-1.024-.195-1.414-.585-.126-.125-.359-.359-1.505-3.019-.163-.379-.076-.82,.219-1.109,.295-.289,.738-.365,1.112-.197l.565,.251c1.729,.761,2.186,.995,2.437,1.246h0c.78,.78,.78,2.048,0,2.828-.39,.39-.902,.585-1.414,.585Zm-3.419,.029c-1.89,1.243-4.15,1.972-6.581,1.972C5.373,24,0,18.627,0,12S5.373,0,12,0s12,5.373,12,12c0,1.468-.277,2.868-.759,4.169-.385-.183-2.009-.904-2.009-.904-1.116-.501-2.455-.263-3.333,.595-.891,.875-1.147,2.18-.654,3.328,.657,1.526,1.05,2.342,1.337,2.842Zm-10.581-7.028c0-.552-.447-1-1-1s-1,.448-1,1v2c0,.552,.447,1,1,1s1-.448,1-1v-2Zm.5-4c.828,0,1.5-.672,1.5-1.5s-.672-1.5-1.5-1.5-1.5,.672-1.5,1.5,.672,1.5,1.5,1.5Zm2.5,4c0-.552-.447-1-1-1s-1,.448-1,1v2c0,.552,.447,1,1,1s1-.448,1-1v-2Zm3,0c0-.552-.447-1-1-1s-1,.448-1,1v2c0,.552,.447,1,1,1s1-.448,1-1v-2Zm1.5-4c.828,0,1.5-.672,1.5-1.5s-.672-1.5-1.5-1.5-1.5,.672-1.5,1.5,.672,1.5,1.5,1.5Zm1.5,6v-1.885c0-.552-.447-1.115-1-1.115s-1,.448-1,1v2c0,.552,.447,1,1,1s1-.448,1-1Z"/></svg>
