<?xml version="1.0" encoding="UTF-8"?>
<svg xmlns="http://www.w3.org/2000/svg" id="Layer_1" data-name="Layer 1" viewBox="0 0 24 24" width="512" height="512"><path d="M2,9.67C.6,9.01-.22,7.49,.05,5.89c.29-1.67,1.78-2.89,3.55-2.89H13.4c1.77,0,3.26,1.21,3.55,2.89,.25,1.44-.4,2.81-1.54,3.55-.27,.17-.41,.49-.41,.8v6.76c0,2.21-1.79,4-4,4H6c-2.21,0-4-1.79-4-4v-7.33Zm21.95-3.78c-.29-1.67-1.78-2.89-3.55-2.89h-2.67c.6,.71,1.02,1.58,1.19,2.55,.34,1.98-.43,3.96-1.92,5.2v6.25c0,1.54-.58,2.94-1.54,4h2.54c2.21,0,4-1.79,4-4v-7.33c1.4-.66,2.22-2.18,1.95-3.78Z"/></svg>
