<?xml version="1.0" encoding="UTF-8"?>
<svg xmlns="http://www.w3.org/2000/svg" id="Layer_1" data-name="Layer 1" viewBox="0 0 24 24" width="512" height="512"><path d="m12.258,21.328c-.787-1.075-1.258-2.396-1.258-3.828,0-3.584,2.916-6.5,6.5-6.5,1.432,0,2.752.471,3.828,1.258l-9.069,9.069Zm1.414,1.414c1.075.787,2.396,1.258,3.828,1.258,3.584,0,6.5-2.916,6.5-6.5,0-1.432-.471-2.752-1.258-3.828l-9.069,9.069Zm5.828-17.742c1.378,0,2.5-1.121,2.5-2.5s-1.122-2.5-2.5-2.5H2.5C1.122,0,0,1.121,0,2.5s1.122,2.5,2.5,2.5h17Zm-10.5,12.5c0-4.687,3.813-8.5,8.5-8.5.87,0,1.709.133,2.5.376v-2.376H2v3h4c.552,0,1,.447,1,1s-.448,1-1,1H2v2h4c.552,0,1,.447,1,1s-.448,1-1,1H2v2h4c.552,0,1,.447,1,1s-.448,1-1,1h-3.899c.463,2.282,2.48,4,4.899,4h5.034c-1.853-1.561-3.034-3.894-3.034-6.5Z"/></svg>
