<?xml version="1.0" encoding="UTF-8"?>
<svg xmlns="http://www.w3.org/2000/svg" id="Layer_1" data-name="Layer 1" viewBox="0 0 24 24">
  <path d="m17,22.5c0,.828-.672,1.5-1.5,1.5s-1.5-.672-1.5-1.5.672-1.5,1.5-1.5,1.5.672,1.5,1.5Zm5.5-12.5c.828,0,1.5-.672,1.5-1.5s-.672-1.5-1.5-1.5-1.5.672-1.5,1.5.672,1.5,1.5,1.5Zm-14,11c-.828,0-1.5.672-1.5,1.5s.672,1.5,1.5,1.5,1.5-.672,1.5-1.5-.672-1.5-1.5-1.5Zm14,0c-.828,0-1.5.672-1.5,1.5s.672,1.5,1.5,1.5,1.5-.672,1.5-1.5-.672-1.5-1.5-1.5Zm0-6.97c-.828,0-1.5.672-1.5,1.5s.672,1.5,1.5,1.5,1.5-.672,1.5-1.5-.672-1.5-1.5-1.5Zm-3.5,3.47c-.828,0-1.5.672-1.5,1.5s.672,1.5,1.5,1.5,1.5-.672,1.5-1.5-.672-1.5-1.5-1.5Zm-7,0c-.828,0-1.5.672-1.5,1.5s.672,1.5,1.5,1.5,1.5-.672,1.5-1.5-.672-1.5-1.5-1.5Zm3.5-3.5c-.828,0-1.5.672-1.5,1.5s.672,1.5,1.5,1.5,1.5-.672,1.5-1.5-.672-1.5-1.5-1.5Zm3.5-3.5c-.828,0-1.5.672-1.5,1.5s.672,1.5,1.5,1.5,1.5-.672,1.5-1.5-.672-1.5-1.5-1.5Zm-11.95,7.45c-.256,0-.512-.098-.707-.293-.254-.254-.48-.525-.693-.803l-2.641,1.537c-.158.092-.331.136-.502.136-.345,0-.68-.178-.865-.497-.277-.477-.116-1.089.361-1.367l2.638-1.535c-.29-.684-.477-1.4-.568-2.127H1c-.553,0-1-.448-1-1s.447-1,1-1h3.073c.091-.729.28-1.447.571-2.133l-2.647-1.541c-.478-.278-.639-.89-.361-1.368.277-.477.89-.64,1.367-.361l2.651,1.543c.212-.276.436-.545.688-.797.26-.26.537-.49.822-.706l-1.538-2.645c-.278-.478-.116-1.09.361-1.367.477-.279,1.09-.116,1.367.361l1.539,2.646c.678-.285,1.387-.468,2.106-.558V1c0-.552.447-1,1-1s1,.448,1,1v3.074c.723.09,1.436.276,2.117.564l1.542-2.651c.277-.477.89-.64,1.367-.361.478.277.64.89.361,1.367l-1.542,2.652c.281.214.555.442.812.699.188.188.293.442.293.707s-.105.52-.293.707l-9.9,9.899c-.195.195-.451.293-.707.293Z"/>
</svg>
