<?xml version="1.0" encoding="UTF-8"?>
<svg xmlns="http://www.w3.org/2000/svg" id="Layer_1" data-name="Layer 1" viewBox="0 0 24 24">
  <path d="m22.345,15.159c-4.787-.902-7.818,2.231-9.345,5.136v-5.539c.197-.109.382-.242.536-.412.637-.706,1.074-1.454,1.296-2.207.82.138,1.633.054,2.259-.071.571-.114,1.069-.468,1.367-.972.302-.511.372-1.127.192-1.692-.173-.549-.462-1.248-.929-1.876.467-.628.756-1.327.929-1.876.18-.565.109-1.182-.192-1.693-.298-.503-.796-.858-1.366-.971-.625-.125-1.434-.208-2.246-.074-.215-.755-.652-1.501-1.31-2.23-.781-.867-2.291-.868-3.073,0-.657.729-1.094,1.475-1.309,2.229-.814-.133-1.622-.05-2.245.074-.571.114-1.07.468-1.367.972-.301.51-.372,1.127-.193,1.691.173.546.46,1.241.922,1.867-.462.625-.749,1.32-.921,1.866-.179.565-.109,1.182.192,1.692.298.504.796.858,1.368.972.625.125,1.436.208,2.253.072.22.759.659,1.514,1.301,2.226.154.171.339.303.536.413v5.538c-1.526-2.905-4.554-6.038-9.345-5.134-.999.188-1.702,1.127-1.602,2.138.2,2.003,1.039,3.603,2.495,4.755,2.116,1.675,5.045,1.976,6.878,1.976h5.146c1.833,0,4.763-.301,6.878-1.976,1.456-1.152,2.296-2.753,2.495-4.755.102-1.011-.602-1.95-1.602-2.138Zm-11.845-7.646c0-.828.672-1.5,1.5-1.5s1.5.672,1.5,1.5-.672,1.5-1.5,1.5-1.5-.672-1.5-1.5Z"/>
</svg>
