<?xml version="1.0" encoding="UTF-8"?>
<svg xmlns="http://www.w3.org/2000/svg" id="Layer_1" data-name="Layer 1" viewBox="0 0 24 24" width="512" height="512"><path d="m10,11c0-1.105.895-2,2-2s2,.895,2,2-.895,2-2,2-2-.895-2-2Zm13.416.151c.455-.525.658-1.217.559-1.896-.438-2.998-2.145-5.834-4.684-7.778-.524-.401-1.202-.565-1.86-.447-.677.12-1.275.522-1.644,1.104l-2.438,3.859c-.151.24-.193.533-.117.806.077.273.267.501.521.626,1.386.682,2.246,2.051,2.247,3.573,0,.552.448.999,1,.999h4.563s.002,0,.003,0c.71,0,1.384-.309,1.85-.847Zm-20.98.847h4.564c.552,0,1-.448,1-1,0-1.522.861-2.892,2.247-3.573.255-.125.444-.353.521-.626.076-.272.034-.565-.117-.806l-2.439-3.86c-.367-.58-.966-.982-1.643-1.103-.657-.119-1.336.046-1.86.447C2.17,3.422.463,6.258.025,9.256c-.1.679.104,1.37.559,1.896.466.538,1.14.847,1.849.847h.003Zm14.129,10.043c.623-.273,1.102-.797,1.315-1.436.209-.626.143-1.315-.165-1.861l-2.118-4.077c-.133-.256-.37-.442-.65-.511-.279-.066-.577-.013-.812.153-1.289.907-2.996.9-4.271.004-.23-.163-.522-.22-.796-.157-.275.062-.512.239-.65.485-.521.929-.872,1.639-1.21,2.325-.285.578-.554,1.124-.904,1.746-.323.576-.389,1.267-.179,1.895.213.638.692,1.16,1.312,1.433,1.447.637,2.983.96,4.564.96s3.12-.322,4.564-.959Z"/></svg>
