<?xml version="1.0" encoding="UTF-8"?>
<svg xmlns="http://www.w3.org/2000/svg" id="Layer_1" data-name="Layer 1" viewBox="0 0 24 24" width="512" height="512"><path d="M7,22v-3h2v3h-2Zm6-3h-2v3h2v-3Zm6,3h2c1.65,0,3-1.35,3-3h-5v3Zm-2-3h-2v3h2v-3Zm-12,0H0c0,1.65,1.35,3,3,3h2v-3Zm19-2H0v-3.85c0-.37,.21-.71,.54-.89,.59-.32,1.46-1,1.46-2.27s-.87-1.95-1.46-2.27c-.33-.18-.54-.51-.54-.89v-.85C0,3.79,1.79,2,4,2H20c2.21,0,4,1.79,4,4v.85c0,.37-.21,.71-.54,.89-.59,.32-1.46,1-1.46,2.27s.87,1.95,1.46,2.27c.33,.18,.54,.51,.54,.89v3.85ZM8,7c0-.55-.45-1-1-1s-1,.45-1,1v6c0,.55,.45,1,1,1s1-.45,1-1V7Zm5,0c0-.55-.45-1-1-1s-1,.45-1,1v6c0,.55,.45,1,1,1s1-.45,1-1V7Zm5,0c0-.55-.45-1-1-1s-1,.45-1,1v6c0,.55,.45,1,1,1s1-.45,1-1V7Z"/></svg>
