<?xml version="1.0" encoding="UTF-8"?>
<svg xmlns="http://www.w3.org/2000/svg" id="Layer_1" data-name="Layer 1" viewBox="0 0 24 24" width="512" height="512"><path d="m16.569,13.572c-.455-.316-1.078-.202-1.392.252-.314.454-.201,1.077.253,1.391.374.259.723.52,1.048.784H7.523c1.437-1.168,3.179-2.136,4.962-3.126,4.46-2.478,9.515-5.286,9.515-11.874,0-.552-.447-1-1-1s-1,.448-1,1c0,.346-.017.679-.05,1H4.047c-.031-.324-.047-.657-.047-1,0-.552-.447-1-1-1s-1,.448-1,1c0,5.021,2.902,7.676,5.431,9.428.174.121.372.178.568.178.317,0,.629-.15.823-.431.314-.454.201-1.077-.253-1.391-.374-.259-.723-.52-1.048-.784h8.956c-1.437,1.168-3.179,2.136-4.962,3.126-4.46,2.478-9.515,5.286-9.515,11.874,0,.552.447,1,1,1s1-.448,1-1c0-.346.017-.679.05-1h15.903c.031.324.047.657.047,1,0,.552.447,1,1,1s1-.448,1-1c0-5.021-2.902-7.676-5.431-9.428ZM5.565,6c-.468-.633-.825-1.295-1.079-2h15.013c-.267.734-.632,1.395-1.076,2H5.565Zm-1.064,14c.267-.734.632-1.395,1.076-2h12.858c.468.633.825,1.295,1.079,2H4.5Z"/></svg>
