<?xml version="1.0" encoding="UTF-8"?>
<svg xmlns="http://www.w3.org/2000/svg" id="Layer_1" data-name="Layer 1" viewBox="0 0 24 24" width="512" height="512"><path d="m0,19c0,2.757,2.243,5,5,5h14c2.757,0,5-2.243,5-5v-9H0v9Zm8.293-1.895c.391-.391,1.023-.391,1.414,0l1.293,1.293v-4.398c0-.553.447-1,1-1s1,.447,1,1v4.398l1.293-1.293c.391-.391,1.023-.391,1.414,0s.391,1.023,0,1.414l-1.613,1.613c-.577.577-1.336.866-2.094.866s-1.517-.289-2.094-.866l-1.613-1.613c-.391-.391-.391-1.023,0-1.414Zm15.707-10.105v1H0v-1C0,4.243,2.243,2,5,2h1v-1c0-.552.448-1,1-1s1,.448,1,1v1h8v-1c0-.552.448-1,1-1s1,.448,1,1v1h1c2.757,0,5,2.243,5,5Z"/></svg>
