<?xml version="1.0" encoding="UTF-8"?>
<svg xmlns="http://www.w3.org/2000/svg" id="Layer_1" data-name="Layer 1" viewBox="0 0 24 24" width="512" height="512"><path d="m8.151,14c.983,0,1.92.359,2.646,1h2.404c.726-.641,1.664-1,2.646-1h5.151c.344,0,.677.043,1,.11v-6.11c0-2.757-2.243-5-5-5H7c-2.757,0-5,2.243-5,5v6.11c.323-.067.656-.11,1-.11h5.151Zm.849-6h2v-2c0-.552.448-1,1-1s1,.448,1,1v2h2c.552,0,1,.448,1,1s-.448,1-1,1h-2v2c0,.552-.448,1-1,1s-1-.448-1-1v-2h-2c-.552,0-1-.448-1-1s.448-1,1-1Zm15,10.5c0,1.381-1.119,2.5-2.5,2.5H2.5c-1.381,0-2.5-1.119-2.5-2.5s1.119-2.5,2.5-2.5h5.651c.589,0,1.147.259,1.527.708l.247.292h4.149l.247-.292c.38-.449.938-.708,1.527-.708h5.652c1.381,0,2.5,1.119,2.5,2.5Z"/></svg>
