<?xml version="1.0" encoding="UTF-8"?>
<svg xmlns="http://www.w3.org/2000/svg" id="Layer_1" data-name="Layer 1" viewBox="0 0 24 24" width="512" height="512"><path d="M1.084,20.735l.525-1.688-1.41-1.753c-.428-.532-.13-1.326,.544-1.449l9.066-1.655-1.665,9.07c-.123,.671-.922,.968-1.457,.542l-1.768-1.407-1.682,.501c-1.329,.396-2.564-.843-2.154-2.161ZM23.991,11.532c.26,6.841-5.208,12.468-11.991,12.468-.667,0-1.317-.068-1.954-.173,.018-.07,1.144-6.076,1.144-6.076,.242,.161,.524,.246,.832,.244,.402-.003,.779-.163,1.051-.44l1.36-1.35,1.371,1.356c.283,.281,.657,.435,1.055,.435h.014c.402-.004,.778-.164,1.062-.455l1.786-1.844c.384-.397,.374-1.03-.023-1.414-.395-.383-1.028-.375-1.414,.022l-1.432,1.479-1.364-1.349c-.581-.577-1.53-.577-2.111,0l-1.366,1.356-.39-.386,.358-1.952c.155-.846-.583-1.585-1.429-1.431,0,0-10.305,1.904-10.378,1.923-.104-.635-.172-1.281-.172-1.945C0,5.217,5.627-.251,12.467,.009c6.177,.234,11.289,5.346,11.524,11.523Zm-12.991-2.532c0-.334-.167-.646-.445-.832l-3-2c-.461-.307-1.081-.182-1.387,.277-.307,.459-.183,1.081,.277,1.387l1.752,1.168-1.752,1.168c-.46,.306-.584,.927-.277,1.387,.192,.289,.51,.445,.833,.445,.19,0,.383-.054,.554-.168l3-2c.278-.186,.445-.498,.445-.832Zm4.803,0l1.752-1.168c.46-.306,.584-.927,.277-1.387-.306-.459-.926-.584-1.387-.277l-3,2c-.278,.186-.445,.498-.445,.832s.167,.646,.445,.832l3,2c.171,.114,.363,.168,.554,.168,.323,0,.641-.156,.833-.445,.307-.459,.183-1.081-.277-1.387l-1.752-1.168Z"/></svg>
