<?xml version="1.0" encoding="UTF-8"?>
<svg xmlns="http://www.w3.org/2000/svg" id="Layer_1" data-name="Layer 1" viewBox="0 0 24 24" width="512" height="512"><path d="M12,0C5.383,0,0,5.383,0,12s5.383,12,12,12,12-5.383,12-12S18.617,0,12,0ZM5,11c0-1.892,1.232-4,3-4s3,2.108,3,4c0,.552-.448,1-1,1s-1-.448-1-1c0-1.054-.679-2-1-2s-1,.946-1,2c0,.552-.448,1-1,1s-1-.448-1-1Zm12.648,9.606c-.454,.274-.932,.395-1.404,.395-1.18,0-2.318-.753-2.922-1.753l-.767-1.27c-.182,.014-.367,.021-.555,.021-3.107,0-5.563-2.162-5.666-2.254-.412-.368-.448-1-.08-1.412,.367-.411,.999-.448,1.41-.082,.022,.02,2.006,1.748,4.336,1.748,2.35,0,4.068-1.527,4.085-1.542,.224-.202,.528-.294,.825-.246,.298,.047,.559,.226,.71,.487l.846,1.462c.836,1.383,.768,3.486-.818,4.445Zm.352-8.606c-.552,0-1-.448-1-1,0-1.054-.679-2-1-2s-1,.946-1,2c0,.552-.448,1-1,1s-1-.448-1-1c0-1.892,1.232-4,3-4s3,2.108,3,4c0,.552-.448,1-1,1Zm-1.255,5.18c.343,.566,.373,1.411-.131,1.715-.505,.307-1.238-.114-1.58-.681l-.409-.677c.734-.259,1.352-.587,1.819-.879l.301,.521Z"/></svg>
