<?xml version="1.0" encoding="UTF-8"?>
<svg xmlns="http://www.w3.org/2000/svg" id="Layer_1" data-name="Layer 1" viewBox="0 0 24 24" width="512" height="512"><path d="m12,0C5.383,0,0,5.383,0,12s5.383,12,12,12,12-5.383,12-12S18.617,0,12,0Zm-4.312,7.827l-.529,1.27c-.173.414-.648.61-1.062.437l-.212-.088c-.463-.193-.642-.756-.376-1.181l.741-1.182c.211-.336.634-.471,1-.318.414.172.61.648.437,1.062Zm4.312,14.173v-1.804c0-.409-.278-.765-.675-.865l-.812-.203c-.336-.084-.642-.258-.887-.502l-1.067-1.067c-.358-.358-.559-.844-.559-1.35v-.291c0-.58.264-1.129.717-1.491l1.26-1.008c.339-.271.759-.418,1.193-.418h1.252c.377,0,.746.112,1.059.321l2.243,1.495c.18.12.392.184.608.184h.714c.291,0,.569.115.775.321l.909.909c.175.175.404.285.649.314l1.438.166c-1.687,3.145-5.005,5.29-8.817,5.29Zm6.431-7.934v-.011c-.268-.071-.469-.304-.469-.593,0-.234.134-.43.324-.537v-.009s.782-.377.782-.377c0,0,.433-.183.433-.538,0-.413-.5-.5-.5-.5l-2.423-.808c-.345-.115-.577-.438-.577-.801,0-.492.399-.891.891-.891h1.263c.467,0,.846-.379.846-.846v-.308c0-.467-.379-.846-.846-.846h-.631c-.32,0-.613.181-.757.468l-.583,1.166c-.117.234-.323.413-.571.495l-.517.172s-.392.093-.479.295c-.086.202.082.495.082.495l.119.358-.004.002c.018.062.038.122.038.19,0,.386-.313.698-.698.698-.233,0-.526-.164-.653-.339l-.558-.558s-.135-.211-.404-.211-.428.289-.428.289l-.824,1.099s-.171.382-.773.382c-.487,0-1.268-.813-1.268-.813-.286-.428-.336-.972-.133-1.445l.935-2.181c.154-.36.441-.646.8-.8l2.701-1.106s.471-.135.471-.606-.548-.442-.548-.442l-2.471.394s-.433.115-.596-.24c-.164-.356.096-.76.096-.76l.987-1.974c.171-.009.34-.026.513-.026,5.514,0,10,4.486,10,10,0,1.186-.218,2.32-.599,3.376l-2.97-1.31Z"/></svg>
