<?xml version="1.0" encoding="UTF-8"?>
<svg xmlns="http://www.w3.org/2000/svg" id="Layer_1" data-name="Layer 1" viewBox="0 0 24 24">
  <path d="m9.373,9.917l4.083,4.083H5.289l4.084-4.083Zm-6.084,6.083l-1.32,1.32c-1.042,1.043-1.227,2.609-.586,3.855l-1.091,1.091c-.39.39-.39,1.024,0,1.414H.292c.391.391,1.024.391,1.414,0l1.091-1.091c.475.245.991.382,1.513.382.848,0,1.696-.323,2.342-.968l6.003-6.003H3.289ZM23.154,4.891c.545-.543.846-1.267.846-2.037,0-.77-.299-1.494-.843-2.038-1.088-1.088-2.983-1.088-4.071,0l-2.479,2.479c-.917.917-2.838.707-4.167-.024-.945-.521-2.148-.34-2.924.437-.972.972-.972,2.552,0,3.524l6.83,6.83c.265.097.476.303.582.564.457.374,1.017.561,1.576.561.638,0,1.276-.243,1.762-.729.777-.777.957-1.98.437-2.925-.731-1.329-.941-3.25-.024-4.167l2.476-2.475Z"/>
</svg>
