<?xml version="1.0" encoding="UTF-8"?>
<svg xmlns="http://www.w3.org/2000/svg" id="Layer_1" data-name="Layer 1" viewBox="0 0 24 24" width="512" height="512"><path d="m22,23c0,.553-.447,1-1,1H3c-.553,0-1-.447-1-1,0-3.525,2.042-6.574,5-8.05v3.328c-.595.346-1,.984-1,1.723,0,1.105.895,2,2,2s2-.895,2-2c0-.738-.405-1.376-1-1.723v-4.046c.644-.147,1.312-.232,2-.232h2c.338,0,.671.022,1,.059v4.125c-1.161.414-2,1.514-2,2.816v1c0,.553.447,1,1,1s1-.447,1-1v-1c0-.552.448-1,1-1s1,.448,1,1v1c0,.553.447,1,1,1s1-.447,1-1v-1c0-1.302-.839-2.402-2-2.816v-3.659c3.49,1.239,6,4.565,6,8.475Zm-4-17c0-3.309-2.691-6-6-6s-6,2.691-6,6,2.691,6,6,6,6-2.691,6-6Z"/></svg>
