<?xml version="1.0" encoding="UTF-8"?>
<svg xmlns="http://www.w3.org/2000/svg" id="Layer_1" data-name="Layer 1" viewBox="0 0 24 24" width="512" height="512"><path d="m23,22h-.15l-5.726-14.228c-.104-.259-.1-.549.011-.804l2.547-3.731c.025-.038.048-.076.068-.117.366-.732.29-1.595-.2-2.252-.49-.657-1.295-.976-2.168-.82l-3.096.768c-3.082.544-5.619,2.602-6.786,5.504L1.15,22h-.15c-.552,0-1,.448-1,1s.448,1,1,1h22c.552,0,1-.448,1-1s-.448-1-1-1Zm-13.22-9.78l-1.308-.523c-.285-.114-.472-.39-.472-.697s.187-.583.472-.697l1.308-.523.523-1.308c.114-.285.39-.472.697-.472s.583.187.697.472l.52,1.301,1.299.492c.287.108.479.381.484.687.005.307-.176.586-.459.705l-1.318.556-.526,1.316c-.114.285-.39.472-.697.472s-.583-.187-.697-.472l-.523-1.308Zm7.617,6.979l-1.538.648-.614,1.536c-.133.332-.455.55-.813.55s-.68-.218-.813-.55l-.611-1.527-1.527-.611c-.332-.133-.55-.455-.55-.813s.218-.68.55-.813l1.527-.611.611-1.527c.133-.332.455-.55.813-.55s.68.218.813.55l.607,1.518,1.515.574c.335.126.558.444.565.802.006.358-.206.684-.535.822Z"/></svg>
