<?xml version="1.0" encoding="UTF-8"?>
<svg xmlns="http://www.w3.org/2000/svg" id="Layer_1" data-name="Layer 1" viewBox="0 0 24 24">
  <path d="m22.614,3.072c-.805-.179-1.585.194-1.937.936-1.827,3.858-4.574,5.588-6.678,6.363v-.371c0-.553-.448-1-1-1s-1,.447-1,1v.9c-.571.092-.941.1-1.003.1h0s-.005,0-.007,0h-.989v-1c0-.553-.448-1-1-1s-1,.447-1,1v1h-2v-1c0-.553-.448-1-1-1s-1,.447-1,1v1H1c-.552,0-1,.447-1,1s.448,1,1,1h2.003c-.629.836-1.003,1.875-1.003,3,0,2.757,2.243,5,5,5h4c2.757,0,5-2.243,5-5,0-.532-.084-1.044-.238-1.526,1.736,1.016,3.608,2.733,4.987,5.634.287.604.863.96,1.504.96.13,0,.262-.015.395-.045.796-.18,1.352-.871,1.352-1.681V4.791c0-.828-.57-1.535-1.386-1.719Zm-8.614,12.928c0,1.654-1.346,3-3,3h-4c-1.654,0-3-1.346-3-3s1.346-3,3-3c0,0,4.209-.008,4.311,0,1.509.156,2.689,1.451,2.689,3Z"/>
</svg>
