<?xml version="1.0" encoding="UTF-8"?>
<svg xmlns="http://www.w3.org/2000/svg" id="Layer_1" data-name="Layer 1" viewBox="0 0 24 24" width="512" height="512"><path d="m8,0h-4C1.791,0,0,1.791,0,4v16c0,2.209,1.791,4,4,4h8V4c0-2.209-1.791-4-4-4Zm-4,19h-1c-.553,0-1-.448-1-1s.447-1,1-1h1c.553,0,1,.448,1,1s-.447,1-1,1Zm0-4h-1c-.553,0-1-.448-1-1s.447-1,1-1h1c.553,0,1,.448,1,1s-.447,1-1,1Zm2-5c-.553,0-1-.448-1-1v-1h-1c-.553,0-1-.448-1-1s.447-1,1-1h1v-1c0-.552.447-1,1-1s1,.448,1,1v1h1c.553,0,1,.448,1,1s-.447,1-1,1h-1v1c0,.552-.447,1-1,1Zm3,9h-1c-.553,0-1-.448-1-1s.447-1,1-1h1c.553,0,1,.448,1,1s-.447,1-1,1Zm0-4h-1c-.553,0-1-.448-1-1s.447-1,1-1h1c.553,0,1,.448,1,1s-.447,1-1,1Zm11-10h-6v12h2c.553,0,1,.448,1,1s-.447,1-1,1h-2v5h6c2.206,0,4-1.794,4-4v-11c0-2.206-1.794-4-4-4Zm-2,10c-.553,0-1-.448-1-1v-1h-1c-.553,0-1-.448-1-1s.447-1,1-1h1v-1c0-.552.447-1,1-1s1,.448,1,1v1h1c.553,0,1,.448,1,1s-.447,1-1,1h-1v1c0,.552-.447,1-1,1Zm3,4h-1c-.553,0-1-.448-1-1s.447-1,1-1h1c.553,0,1,.448,1,1s-.447,1-1,1Z"/></svg>
