<?xml version="1.0" encoding="UTF-8"?>
<svg xmlns="http://www.w3.org/2000/svg" id="Layer_1" data-name="Layer 1" viewBox="0 0 24 24" width="512" height="512"><path d="m0,1C0,.447.448,0,1,0h8c.552,0,1,.447,1,1s-.448,1-1,1H1c-.552,0-1-.447-1-1Zm4,9c0,.553.448,1,1,1s1-.447,1-1v-4h3c.552,0,1-.447,1-1s-.448-1-1-1H1c-.552,0-1,.447-1,1s.448,1,1,1h3v4ZM23.033.686c-.615-.532-1.43-.771-2.233-.657l-3.224.461c-1.469.21-2.576,1.486-2.576,2.97v3.541c-1.105,0-2,.895-2,2s.895,2,2,2c1.087,0,1.971-.868,1.999-1.948,0-.017.001-.035.001-.052V3.459c0-.494.369-.92.859-.989l3.224-.461c.316-.045.537.099.64.188.104.089.277.287.277.606v3.196c-1.105,0-2,.895-2,2s.895,2,2,2c1.087,0,1.971-.868,1.999-1.948,0-.017.001-.035.001-.052V2.804c0-.813-.353-1.585-.967-2.118Zm-1.033,19.314c-1.105,0-2,.895-2,2s.895,2,2,2,2-.895,2-2-.895-2-2-2Zm-6-3c1.105,0,2-.895,2-2s-.895-2-2-2-2,.895-2,2,.895,2,2,2Zm7.665-3.747c-.414-.368-1.045-.33-1.412.083l-8,9c-.367.412-.33,1.045.083,1.411.191.17.428.253.664.253.276,0,.55-.113.748-.336l8-9c.367-.412.33-1.045-.083-1.411Zm-11.807,5.262c-.136.227-.714,1.163-1.584,2.2l1.466,1.612c.372.408.342,1.041-.067,1.412-.191.175-.433.261-.672.261-.272,0-.543-.11-.74-.327l-1.372-1.508c-1.122,1.012-2.471,1.835-3.888,1.835-2.375,0-3.971-1.418-3.971-3.529,0-1.372,1.497-3.08,2.543-4.105-.315-.402-.572-.879-.572-1.365,0-1.103.897-2,2-2s2,.897,2,2c0,.513-.286,1.015-.624,1.431l2.53,2.782c.556-.683.998-1.33,1.237-1.728.284-.474.898-.629,1.372-.342.473.284.626.897.342,1.371Zm-4.32,2.165l-2.595-2.853c-1.066,1.062-1.914,2.208-1.914,2.644,0,1.38,1.378,1.529,1.971,1.529.816,0,1.715-.569,2.538-1.32Z"/></svg>
