<?xml version="1.0" encoding="UTF-8"?>
<svg xmlns="http://www.w3.org/2000/svg" id="Layer_1" data-name="Layer 1" viewBox="0 0 24 24" width="512" height="512"><path d="m12.038,0C7.627,0,4.038,3.526,4.038,7.861c0,4.093,3.606,8.17,5.756,10.236.63.605,1.437.907,2.244.907s1.615-.302,2.244-.907c2.149-2.066,5.756-6.144,5.756-10.236,0-4.335-3.589-7.861-8-7.861Zm-1.758,9.999c-.637-.032-1.548-.176-2.076-.704-.528-.528-.672-1.44-.704-2.076-.02-.406.313-.739.718-.718.637.032,1.548.176,2.076.704.528.528.672,1.44.704,2.076.02.406-.313.739-.718.718Zm5.515-.704c-.528.528-1.44.672-2.076.704-.406.02-.739-.313-.718-.718.032-.637.176-1.548.704-2.076.528-.528,1.44-.672,2.076-.704.406-.02.739.313.718.718-.032.637-.176,1.548-.704,2.076Zm5.204,12.704v1c0,.553-.447,1-1,1H4c-.553,0-1-.447-1-1v-1c0-2.185.909-4.241,2.418-5.722.946,1.225,1.98,2.327,2.952,3.261.982.945,2.272,1.466,3.63,1.466s2.649-.521,3.63-1.466c.972-.934,2.006-2.036,2.952-3.261,1.509,1.481,2.418,3.537,2.418,5.722Z"/></svg>
