<?xml version="1.0" encoding="UTF-8"?>
<svg xmlns="http://www.w3.org/2000/svg" id="Layer_1" data-name="Layer 1" viewBox="0 0 24 24" width="512" height="512"><path d="M22.993,6.166c-.05,.587-.353,1.119-.815,1.45l-5.178,3.412v4.247l2.414,2.329c.54,.54,.725,1.324,.483,2.047l-1,3c-.273,.818-1.035,1.368-1.897,1.368-.334,0-.656-.082-.956-.243-.84-.455-1.227-1.537-.901-2.516l.57-1.709-3.714-3.085,3-1.206v-2.26h-6v2.231l3,1.236-3.714,3.085,.569,1.709c.327,.979-.06,2.06-.898,2.514-.297,.16-.628,.245-.958,.245-.862,0-1.624-.55-1.897-1.368l-1-3c-.241-.723-.056-1.507,.483-2.047l2.414-2.378v-4.198L1.854,7.637c-.488-.349-.797-.885-.847-1.472-.049-.586,.164-1.164,.584-1.587,.677-.683,1.821-.743,2.678-.133l4.573,2.982c.524,.373,1.133,.57,1.761,.57h2.793c.628,0,1.231-.193,1.726-.547l4.643-3.029c.831-.593,1.967-.524,2.644,.156,.42,.423,.633,1.001,.584,1.587Zm-6.993-2.146C16,1.813,14.206,.019,12,.019s-4,1.794-4,4c0,2.136,1.687,3.87,3.795,3.979h.409c2.109-.109,3.795-1.843,3.795-3.979Z"/></svg>
