<?xml version="1.0" encoding="UTF-8"?>
<svg xmlns="http://www.w3.org/2000/svg" id="Layer_1" data-name="Layer 1" viewBox="0 0 24 24" width="512" height="512"><path d="m17,4.5c0-1.381,1.119-2.5,2.5-2.5s2.5,1.119,2.5,2.5-1.119,2.5-2.5,2.5-2.5-1.119-2.5-2.5Zm-7,3.5c0-1.105-.895-2-2-2s-2,.895-2,2,.895,2,2,2,2-.895,2-2Zm3.5,4c0-.828-.672-1.5-1.5-1.5s-1.5.672-1.5,1.5.672,1.5,1.5,1.5,1.5-.672,1.5-1.5Zm10.048-3.272c-.15-.532-.707-.842-1.234-.689-.531.15-.84.702-.689,1.234.249.883.376,1.801.376,2.728,0,5.514-4.486,10-10,10S2,17.514,2,12,6.486,2,12,2c.927,0,1.845.127,2.728.376.53.151,1.084-.157,1.234-.689s-.158-1.084-.689-1.234c-1.061-.3-2.161-.452-3.272-.452C5.383,0,0,5.383,0,12s5.383,12,12,12,12-5.383,12-12c0-1.111-.152-2.212-.452-3.272Zm-12.548-2.728c0,.553.447,1,1,1,2.757,0,5,2.243,5,5s-2.243,5-5,5-5-2.243-5-5c0-.553-.447-1-1-1s-1,.447-1,1c0,3.859,3.141,7,7,7s7-3.141,7-7-3.141-7-7-7c-.553,0-1,.447-1,1Z"/></svg>
