<?xml version="1.0" encoding="UTF-8"?>
<svg xmlns="http://www.w3.org/2000/svg" id="Layer_1" data-name="Layer 1" viewBox="0 0 24 24" width="512" height="512"><path d="m1.293,7.707c-.391-.391-.391-1.023,0-1.414l2-2c.286-.287.716-.371,1.09-.217.374.155.617.52.617.924v9c0,.552-.447,1-1,1s-1-.448-1-1v-6.586l-.293.293c-.391.391-1.023.391-1.414,0Zm22.683,6.071c-.123-.539-.662-.88-1.197-.753L.778,18.025c-.538.123-.876.658-.754,1.197.105.464.519.778.975.778.073,0,.148-.008.223-.025l22-5c.538-.123.876-.658.754-1.197Zm-1.186,5.244l-14,3c-.54.116-.884.647-.768,1.188.101.469.515.791.977.791.069,0,.14-.007.211-.022l14-3c.54-.116.884-.647.768-1.188-.116-.54-.643-.885-1.188-.769Zm-6.79-11.522V3.5c0-1.93,1.57-3.5,3.5-3.5s3.5,1.57,3.5,3.5v4c0,1.93-1.57,3.5-3.5,3.5s-3.5-1.57-3.5-3.5Zm2,0c0,.827.673,1.5,1.5,1.5s1.5-.673,1.5-1.5V3.5c0-.827-.673-1.5-1.5-1.5s-1.5.673-1.5,1.5v4Zm-11,2v-4c0-1.93,1.57-3.5,3.5-3.5s3.5,1.57,3.5,3.5v4c0,1.93-1.57,3.5-3.5,3.5s-3.5-1.57-3.5-3.5Zm2,0c0,.827.673,1.5,1.5,1.5s1.5-.673,1.5-1.5v-4c0-.827-.673-1.5-1.5-1.5s-1.5.673-1.5,1.5v4Z"/></svg>
