<?xml version="1.0" encoding="UTF-8"?>
<svg xmlns="http://www.w3.org/2000/svg" id="Layer_1" data-name="Layer 1" viewBox="0 0 24 24" width="512" height="512"><path d="M17.5,15h0c-.828,0-1.5-.672-1.5-1.5v-4c0-.828,.672-1.5,1.5-1.5h0c.828,0,1.5,.672,1.5,1.5v4c0,.828-.672,1.5-1.5,1.5Zm-2.5-1.5v-4c0-.828-.672-1.5-1.5-1.5h0c-.828,0-1.5,.672-1.5,1.5v4c0,.828,.672,1.5,1.5,1.5h0c.828,0,1.5-.672,1.5-1.5ZM22.248,1.02c-.738,.12-1.248,.813-1.248,1.56V13.308c0,1.914-1.453,3.616-3.366,3.689-.796,.03-1.532-.211-2.134-.633-.602,.422-1.338,.663-2.134,.633-1.912-.073-3.366-1.775-3.366-3.689V1.58c0-.747-.511-1.44-1.248-1.56-.94-.153-1.752,.568-1.752,1.479v15.52l-3.637-3.482c-.806-.753-2.07-.711-2.823,.095-.755,.807-.713,2.073,.093,2.829l5.488,5.295c1.491,1.439,3.483,2.243,5.555,2.243h7.324c2.761,0,5-2.239,5-5V2.5c0-.911-.812-1.632-1.752-1.48Z"/></svg>
