<?xml version="1.0" encoding="UTF-8"?>
<svg xmlns="http://www.w3.org/2000/svg" id="Layer_1" data-name="Layer 1" viewBox="0 0 24 24" width="512" height="512"><path d="m12,0C5.383,0,0,5.383,0,12s5.383,12,12,12,12-5.383,12-12S18.617,0,12,0Zm3.534,13.511l-2.241,4.856c-.178.386-.564.633-.989.633h-.213c-.602,0-1.09-.488-1.09-1.09v-2.365c0-.349-.139-.684-.386-.931l-1.19-1.19c-.272-.272-.425-.641-.425-1.025v-.963c0-.279-.111-.547-.309-.745l-.373-.373c-.204-.204-.48-.318-.768-.318h-1.949c-.384,0-.751-.157-1.016-.436l-1.658-1.743c1.587-3.43,5.052-5.821,9.073-5.821.206,0,.407.019.609.031-.533.808-1.016,1.551-1.309,2.005-.185.285-.189.648-.014.94l.837,1.396c.222.369.163.842-.141,1.147l-.003.003c-.286.286-.722.357-1.084.176l-.88-.44c-.307-.154-.678-.093-.921.149l-.529.529c-.312.312-.312.817,0,1.128l.592.592c.22.22.519.344.83.344h1.431c.381,0,.754.107,1.077.309l2.562,1.601c.539.337.744,1.023.477,1.601Zm3.99-1.251c-.332-.165-.575-.467-.665-.827l-.627-2.507c-.137-.548.106-1.121.595-1.403l1.583-.913c1.002,1.557,1.59,3.405,1.59,5.39,0,.488-.047.963-.115,1.432l-2.362-1.172Z"/></svg>
