<?xml version="1.0" encoding="UTF-8"?>
<svg xmlns="http://www.w3.org/2000/svg" id="Layer_1" data-name="Layer 1" viewBox="0 0 24 24">
  <path d="m1.5,19c.828,0,1.5.672,1.5,1.5s-.672,1.5-1.5,1.5S0,21.328,0,20.5s.672-1.5,1.5-1.5Zm6.5,2c0-3.86-3.14-7-7-7-.552,0-1,.448-1,1s.448,1,1,1c2.757,0,5,2.243,5,5,0,.552.448,1,1,1s1-.448,1-1Zm5,0c0-6.617-5.362-12-11.953-12-.552,0-1,.448-1,1s.448,1,1,1c5.488,0,9.953,4.486,9.953,10,0,.552.448,1,1,1s1-.448,1-1Zm11-4V7c0-2.757-2.243-5-5.001-5l-14.129.018C2.598,2.018.609,3.551.033,5.746c-.079.3.01.619.199.865.189.246.505.389.815.389,7.685,0,13.936,6.28,13.936,14,0,.552.465,1,1.017,1h3c2.757,0,5-2.243,5-5Z"/>
</svg>
