<?xml version="1.0" encoding="UTF-8"?>
<svg xmlns="http://www.w3.org/2000/svg" id="Layer_1" data-name="Layer 1" viewBox="0 0 24 24" width="512" height="512"><path d="m5,4c0-.552.448-1,1-1h2V1c0-.552.448-1,1-1s1,.448,1,1v2h2c.552,0,1,.448,1,1s-.448,1-1,1h-2v2c0,.552-.448,1-1,1s-1-.448-1-1v-2h-2c-.552,0-1-.448-1-1Zm18.152,4.681c-.515-.469-1.186-.712-1.878-.678-.697.032-1.339.334-1.794.835l-3.541,3.737c.032.21.065.42.065.638,0,2.083-1.555,3.876-3.617,4.17l-4.252.596c-.547.078-1.053-.302-1.131-.848-.078-.547.302-1.053.848-1.131l4.162-.583c.936-.134,1.748-.806,1.94-1.732.296-1.425-.79-2.685-2.164-2.685h-7.787C1.794,11,.003,12.791.003,15v5C.003,22.209,1.794,24,4.003,24h4.262c2.805,0,5.48-1.178,7.374-3.246l7.702-8.409c.948-1.062.862-2.707-.189-3.665Z"/></svg>
