<?xml version="1.0" encoding="UTF-8"?>
<svg xmlns="http://www.w3.org/2000/svg" id="Layer_1" data-name="Layer 1" viewBox="0 0 24 24" width="512" height="512"><path d="m15,3h-5c-1.398,0-2.701-.967-3.031-2.249-.138-.535-.687-.854-1.218-.72-.535.138-.857.684-.72,1.218.478,1.855,2.07,3.276,3.969,3.652v9.099c0,2.176-3.612,3.186-3.743,3.331-1.897.711-3.257,2.527-3.257,4.669v1c0,.553.447,1,1,1s1-.447,1-1v-1c0-1.305.842-2.406,2.008-2.818.167.104.342.21.504.312,2.012,1.275,3.911,2.479,8.487,2.505h.04c1.835,0,3.568-.72,4.886-2.029,1.338-1.331,2.075-3.096,2.075-4.97v-5c0-3.859-3.141-7-7-7Zm4.915,9.702c-.222.506-.811.733-1.319.511-.319-.142-.672-.213-1.05-.213-.596,0-.979.179-1.464.406-.566.265-1.271.594-2.311.594-.74,0-1.474-.161-2.181-.479-.504-.226-.729-.817-.503-1.321.227-.503.819-.729,1.321-.503.448.201.906.303,1.362.303.596,0,.979-.179,1.463-.405.566-.266,1.271-.595,2.312-.595.657,0,1.283.129,1.858.383.505.224.733.814.511,1.319Z"/></svg>
