<?xml version="1.0" encoding="UTF-8"?>
<svg xmlns="http://www.w3.org/2000/svg" id="Layer_1" data-name="Layer 1" viewBox="0 0 24 24" width="512" height="512"><path d="m12.426,10.981h-3.426v-2.231c0-.551.449-1,1-1h2.269c.457,0,.884.179,1.205.504.321.325.494.756.488,1.213-.012.835-.701,1.514-1.536,1.514Zm2.037,2h-5.463v2.269c0,.551.449,1,1,1h4.23c.467,0,.904-.183,1.232-.515.328-.333.506-.773.499-1.24,0-.841-.673-1.514-1.499-1.514Zm9.499-1c0,6.617-5.384,12-12,12S-.039,18.598-.039,11.981,5.345-.019,11.961-.019s12,5.383,12,12Zm-6,2.5c0-1.561-1.026-2.886-2.439-3.336.272-.492.431-1.054.439-1.65.014-.997-.364-1.936-1.064-2.645-.699-.709-1.633-1.1-2.628-1.1h-2.269c-1.654,0-3,1.346-3,3v6.5c0,1.654,1.346,3,3,3h4.23c1.006,0,1.949-.395,2.656-1.111s1.089-1.665,1.075-2.658Z"/></svg>
