<?xml version="1.0" encoding="UTF-8"?>
<svg xmlns="http://www.w3.org/2000/svg" id="Layer_1" data-name="Layer 1" viewBox="0 0 24 24" width="512" height="512"><path d="M18.386,23.383c-.154,.374-.52,.617-.924,.617H5c-2.757,0-5-2.243-5-5V6.539c0-.404,.243-.769,.617-.924,.374-.153,.804-.07,1.09,.217l5.293,5.37v6.799c0,.552,.448,1,1,1s1-.448,1-1v-4.799l9.169,9.092c.286,.286,.372,.716,.217,1.09ZM24,5v14c0,1.336-.521,2.592-1.465,3.536-.195,.195-.451,.292-.707,.292s-.512-.098-.707-.293L11.293,12.707,3.515,4.929h0L1.465,2.878c-.391-.391-.391-1.023,0-1.414,.944-.944,2.199-1.464,3.535-1.464h14c2.757,0,5,2.243,5,5Zm-6,4.5c0-2.481-2.019-4.5-4.5-4.5h-2.5c-.765,0-1.508,.216-2.148,.626-.466,.297-.602,.916-.305,1.381,.298,.466,.915,.601,1.381,.305,.319-.204,.69-.312,1.072-.312h2.5c1.379,0,2.5,1.122,2.5,2.5,0,.886-.476,1.714-1.242,2.161-.477,.278-.638,.891-.36,1.368,.187,.318,.521,.496,.865,.496,.171,0,.345-.044,.503-.136,1.378-.804,2.234-2.293,2.234-3.889Z"/></svg>
