<?xml version="1.0" encoding="UTF-8"?>
<svg xmlns="http://www.w3.org/2000/svg" id="Layer_1" data-name="Layer 1" viewBox="0 0 24 24" width="512" height="512"><path d="M1,15c.07,0-.07,.01,0,0H1Zm8,2H1c-.55,0-1,.45-1,1s.45,1,1,1H9c.55,0,1-.45,1-1s-.45-1-1-1ZM15.33,6.5c.19,.32,.52,.5,.87,.5,.17,0,.34-.04,.5-.13,.48-.28,.64-.89,.36-1.37-.37-.64-.84-1.22-1.4-1.72-.41-.37-1.04-.33-1.41,.08-.37,.41-.33,1.04,.08,1.41,.4,.35,.73,.77,1,1.23Zm8.67,11.5v2c0,2.21-1.79,4-4,4h-4c-2.21,0-4-1.79-4-4v-2c0-1.47,.81-2.75,2-3.44v-1.56c0-2.21,1.79-4,4-4s4,1.79,4,4v1.56c1.19,.69,2,1.97,2,3.44Zm-4.5,1c0-.83-.67-1.5-1.5-1.5s-1.5,.67-1.5,1.5,.67,1.5,1.5,1.5,1.5-.67,1.5-1.5Zm.5-6c0-1.1-.9-2-2-2s-2,.9-2,2v1h4v-1ZM2.93,11.8C1.16,9.46,0,6.31,0,4S1.79,0,4,0s4,1.79,4,4-.85,5.41-2.46,7.74c.8,.77,1.65,1.26,2.46,1.26,.6,0,1.13-.11,1.58-.29-.97-1.15-1.58-2.55-1.58-3.71,0-1.65,1.35-3,3-3s3,1.35,3,3c0,2.49-1.86,6-6,6-1.33,0-2.61-.67-3.75-1.72-.88,.84-1.72,1.45-3.26,1.72-.46,0-.88-.32-.98-.79-.11-.54,.23-1.07,.77-1.18,.79-.17,1.5-.61,2.14-1.22Zm7.07-2.8c0,.61,.4,1.6,1.15,2.47,.61-.83,.85-1.82,.85-2.47,0-.55-.45-1-1-1s-1,.45-1,1Zm-5.79,1.15c1.14-1.89,1.79-4.32,1.79-6.15,0-1.1-.9-2-2-2s-2,.9-2,2c0,1.85,.93,4.28,2.21,6.15Z"/></svg>
