<?xml version="1.0" encoding="UTF-8"?>
<svg xmlns="http://www.w3.org/2000/svg" id="Layer_1" data-name="Layer 1" viewBox="0 0 24 24" width="512" height="512"><path d="m17.5,22h-3c-1.93,0-3.5-1.57-3.5-3.5V5.5c0-.827-.673-1.5-1.5-1.5h-3c-.827,0-1.5.673-1.5,1.5v6.5c0,.552-.448,1-1,1H1c-.552,0-1-.448-1-1s.448-1,1-1h2v-5.5c0-1.93,1.57-3.5,3.5-3.5h3c1.93,0,3.5,1.57,3.5,3.5v13c0,.827.673,1.5,1.5,1.5h3c.827,0,1.5-.673,1.5-1.5v-6.5c0-.552.448-1,1-1h3c.552,0,1,.448,1,1s-.448,1-1,1h-2v5.5c0,1.93-1.57,3.5-3.5,3.5Z"/></svg>
