<?xml version="1.0" encoding="UTF-8"?>
<svg xmlns="http://www.w3.org/2000/svg" id="Layer_1" data-name="Layer 1" viewBox="0 0 24 24">
  <path d="m18,22c0,.553-.448,1-1,1H5c-2.761,0-5-2.239-5-5v-7.764c0-1.136.486-2.223,1.333-2.981.293-.263.715-.329,1.075-.168.36.161.592.519.592.913v6.5c0,3.59,2.91,6.5,6.5,6.5h7.5c.552,0,1,.447,1,1Zm6-16.5v9c0,2.481-2.019,4.5-4.5,4.5h-10c-2.481,0-4.5-2.019-4.5-4.5V5.5c0-2.481,2.019-4.5,4.5-4.5h10c2.481,0,4.5,2.019,4.5,4.5Zm-2,7.5v-2h-2v2h2Zm-2-4h2v-2h-2v2Zm0-5.95v1.95h1.95c-.199-.978-.972-1.75-1.95-1.95Zm-13,3.95v2h2v-2h-2Zm0,6h2v-2h-2v2Zm.05-8h1.95v-1.95c-.978.199-1.75.971-1.95,1.95Zm1.95,11.95v-1.95h-1.95c.199.978.972,1.75,1.95,1.95Zm12.95-1.95h-1.95v1.95c.978-.199,1.75-.971,1.95-1.95Z"/>
</svg>
