<?xml version="1.0" encoding="UTF-8"?>
<svg xmlns="http://www.w3.org/2000/svg" id="Layer_1" data-name="Layer 1" viewBox="0 0 24 24" width="512" height="512"><path d="m23.227,11.026c-.536-.131-1.075.209-1.2.747l-.848,3.638-1.469-11.178c-.089-.715-.684-1.233-1.414-1.233h-.004c-.732.003-1.326.524-1.41,1.235l-1.682,13.51L13.416,1.286c-.079-.728-.675-1.255-1.416-1.255s-1.337.527-1.416,1.256l-1.784,16.458-1.681-13.504c-.085-.717-.683-1.238-1.415-1.241-.73,0-1.325.519-1.413,1.228l-1.47,11.184-.848-3.638c-.125-.538-.663-.87-1.2-.747-.538.125-.873.662-.747,1.2l1.559,6.693c.157.678.764,1.126,1.464,1.093.703-.035,1.256-.54,1.346-1.228l1.294-9.845,1.72,13.812c.086.729.687,1.257,1.43,1.257h.008c.747-.004,1.347-.538,1.425-1.27l1.729-15.957,1.729,15.956c.078.732.678,1.267,1.425,1.271h.008c.743,0,1.344-.527,1.429-1.249l1.721-13.819,1.294,9.845c.09.688.643,1.192,1.346,1.228.695.035,1.308-.415,1.464-1.093l1.559-6.693c.126-.538-.209-1.075-.747-1.2Z"/></svg>
