<?xml version="1.0" encoding="UTF-8"?>
<svg xmlns="http://www.w3.org/2000/svg" id="Layer_1" data-name="Layer 1" viewBox="0 0 24 24" width="512" height="512"><path d="M23,17v3c0,1.65-1.35,3-3,3h-3c-1.65,0-3-1.35-3-3v-3c0-1.65,1.35-3,3-3h3c1.65,0,3,1.35,3,3ZM8.12,.88c-1.13-1.13-3.13-1.12-4.23-.02L.31,4.28c-.4,.38-.42,1.01-.03,1.41,.38,.4,1.01,.42,1.41,.03l3.31-3.15V23c0,.55,.45,1,1,1s1-.45,1-1V2.57l3.31,3.15c.19,.18,.44,.28,.69,.28,.26,0,.53-.1,.72-.31,.38-.4,.37-1.03-.03-1.41L8.12,.88Zm15.07,5.7l-2.69-4.39c-.4-.74-1.17-1.2-2.01-1.2s-1.61,.46-1.98,1.15l-2.74,4.48c-.39,.71-.37,1.56,.05,2.26s1.15,1.12,1.96,1.12h5.43c.81,0,1.55-.42,1.96-1.12s.43-1.54,.02-2.3Z"/></svg>
