<?xml version="1.0" encoding="UTF-8"?>
<svg xmlns="http://www.w3.org/2000/svg" id="Layer_1" data-name="Layer 1" viewBox="0 0 24 24">
  <path d="m7,8c-.354,0-.686.012-1,.034v-3.105l-.441-.618c-.363-.509-.559-1.118-.559-1.744v-1.067c0-.828.672-1.5,1.5-1.5h1c.828,0,1.5.672,1.5,1.5v1.046c0,.62-.192,1.226-.551,1.732l-.449.636v3.12c-.314-.022-.646-.034-1-.034Zm3.182,6.818c0-.453-.1-.786-.327-1.496-.313-.984-.83-2.276-.83-4.323,0-1-.667-.941-1.025-.966v5.966c0,.552-.448,1-1,1s-1-.448-1-1v-5.966c-4.322.301-5,2.574-5,3.966,0,.793.362,1.492.653,2.053.146.282.347.669.347.822-.002.142-.344.582-.549.845-.612.786-1.451,1.862-1.451,3.488,0,2.731,3.009,4.792,7,4.792.285,0,.566-.011.841-.031.514-.039.849-.595.624-1.058-.297-.61-.465-1.308-.465-2.092,0-2.293.981-3.88,1.63-4.93.271-.438.551-.892.551-1.07Zm13.818,6c0,2.517-2.795,3.182-4.273,3.182h-5.454c-1.478,0-4.273-.665-4.273-3.182,0-1.724.738-2.918,1.332-3.878.475-.769.85-1.376.85-2.122,0-.784-.186-1.367-.421-2.104-.338-1.062-.76-2.384-.76-4.714,0-.551.445-.998.996-1h.004c.546,0,.992.439,1,.985.008.287.163,2.518,3,2.945v-4.929c-.92-.064-2-1-2-1.5,0-1.542,2.169-4.056,2.169-4.056.18-.267.485-.444.831-.444.552,0,1,.448,1,1v9.935c2.212-.305,2.837-1.608,3.009-2.209.14-.49.631-.797,1.13-.711.503.086.861.537.83,1.047-.103,1.69-.45,2.779-.729,3.653-.235.738-.421,1.32-.421,2.104,0,.746.375,1.353.85,2.122.593.959,1.332,2.154,1.332,3.878Zm-5-1.818c0-.552-.448-1-1-1h-2c-.552,0-1,.448-1,1s.448,1,1,1h2c.552,0,1-.448,1-1Z"/>
</svg>
