<?xml version="1.0" encoding="UTF-8"?>
<svg xmlns="http://www.w3.org/2000/svg" id="Layer_1" data-name="Layer 1" viewBox="0 0 24 24">
  <path d="m23.152,20.396c-.52.99-1.537,1.604-2.655,1.604h-4.997v1c0,.552-.447,1-1,1s-1-.448-1-1v-1h-3v1c0,.552-.448,1-1,1s-1-.448-1-1v-1c-1.117-.001-2.133-.616-2.652-1.604-.52-.99-.449-2.177.186-3.098.02-.03,1.557-1.814,1.557-1.814-.32-.236-.589-.544-.781-.91-.462-.88-.399-1.935.166-2.753.025-.036,1.885-2.091,1.885-2.091-.458-.231-.839-.601-1.083-1.073-.42-.811-.353-1.778.176-2.526.021-.03,4.664-5.285,4.664-5.285.947-1.074,2.821-1.075,3.771,0,0,0,4.643,5.254,4.663,5.284.528.747.596,1.715.176,2.526-.244.472-.626.842-1.084,1.073,0,0,1.86,2.055,1.886,2.091.564.818.627,1.873.165,2.753-.192.366-.462.674-.781.91,0,0,1.536,1.785,1.557,1.815.635.921.706,2.108.186,3.098ZM6.112,9.78c-.04-.067-.077-.136-.113-.206-.765-1.476-.643-3.238.319-4.599.054-.079,4.172-4.746,4.172-4.746-.965-.383-2.173-.18-2.875.617,0,0-4.643,5.254-4.664,5.284-.528.748-.596,1.715-.176,2.526.244.472.626.842,1.083,1.073,0,0-1.859,2.055-1.885,2.091-.564.818-.627,1.874-.166,2.753.192.366.461.675.781.91,0,0-1.537,1.785-1.557,1.814-.635.921-.706,2.107-.186,3.098.52.99,1.538,1.604,2.656,1.604h1.007c-.159-.212-.307-.434-.433-.674-.867-1.65-.748-3.629.31-5.163.05-.075.612-.736.612-.736-.766-1.525-.642-3.334.329-4.742.083-.119.785-.904.785-.904Z"/>
</svg>
