<?xml version="1.0" encoding="UTF-8"?>
<svg xmlns="http://www.w3.org/2000/svg" id="Layer_1" data-name="Layer 1" viewBox="0 0 24 24" width="512" height="512"><path d="m3,2.5c0-1.379,1.121-2.5,2.5-2.5s2.5,1.121,2.5,2.5-1.121,2.5-2.5,2.5-2.5-1.121-2.5-2.5Zm19,19.5h-1.382l-2.671-5.342c-.512-1.022-1.54-1.658-2.683-1.658h-5.703c-.459,0-.859-.312-.97-.757l-.561-2.243h5.969c.552,0,1-.447,1-1s-.448-1-1-1h-6.469l-.56-2.242c-.134-.537-.677-.86-1.213-.728-.536.134-.861.677-.728,1.212l1.621,6.486c.335,1.337,1.532,2.271,2.911,2.271h5.703c.381,0,.724.212.894.553l2.671,5.342c.341.682,1.026,1.105,1.789,1.105h1.382c.552,0,1-.447,1-1s-.448-1-1-1Zm-8-3h-4.354c-2.31,0-4.307-1.567-4.856-3.812l-1.819-7.427c-.132-.536-.679-.863-1.209-.733-.537.132-.865.673-.733,1.21l1.819,7.426c.769,3.142,3.565,5.336,6.799,5.336h4.354c.552,0,1-.447,1-1s-.448-1-1-1Z"/></svg>
