<?xml version="1.0" encoding="UTF-8"?>
<svg xmlns="http://www.w3.org/2000/svg" id="Layer_1" data-name="Layer 1" viewBox="0 0 24 24" width="512" height="512"><path d="m21.976,10h-6.976c-1.654,0-3-1.346-3-3V.024c-.161-.011-.322-.024-.485-.024h-4.515C4.243,0,2,2.243,2,5v14c0,2.757,2.243,5,5,5h10c2.757,0,5-2.243,5-5v-8.515c0-.163-.013-.324-.024-.485Zm-8.976,9.936c0,.5-.071,1.231-1,1s-2.886-2-2.886-2h-.614c-.828,0-1.5-.672-1.5-1.5v-.936c0-.828.672-1.5,1.5-1.5h.614s1.956-1.769,2.886-2,1,.5,1,1v5.936Zm2-.936v-4c1.105,0,2,.895,2,2s-.895,2-2,2Zm-1-12V.46c.913.346,1.753.879,2.465,1.59l3.484,3.486c.712.711,1.245,1.551,1.591,2.464h-6.54c-.552,0-1-.449-1-1Z"/></svg>
