<?xml version="1.0" encoding="UTF-8"?>
<svg xmlns="http://www.w3.org/2000/svg" id="Layer_1" data-name="Layer 1" viewBox="0 0 24 24" width="512" height="512"><polygon points="15.416 0 8.58 0 12.025 6.028 15.416 0"/><path d="M6.366,.156h0s0,0,0,0Zm0,0c-.624,.115-1.318,.296-1.943,.536C1.777,1.709,0,4.326,0,7.204v11.796c0,1.105,.895,2,2,2h1V8c0-.552,.448-1,1-1s1,.448,1,1v7h1.978l3.904-6.941L6.366,.156Z"/><path d="M15,20c0,.552-.448,1-1,1s-1-.448-1-1c0-.83-.51-1.753-1-2.436-.49,.683-1,1.607-1,2.436,0,.552-.448,1-1,1s-1-.448-1-1c0-1.111,.464-2.165,.975-3H5v4c0,1.657,1.343,3,3,3h8c1.657,0,3-1.343,3-3v-4h-4.975c.511,.835,.975,1.889,.975,3Z"/><path d="M19.577,.691c-.65-.249-1.302-.426-1.951-.54-.001,0-.002,.002-.003,.003L9.272,15h9.728v-7c0-.552,.448-1,1-1s1,.448,1,1v13h1c1.105,0,2-.895,2-2V7.204c0-2.878-1.777-5.495-4.423-6.513Z"/></svg>
