<?xml version="1.0" encoding="UTF-8"?>
<svg xmlns="http://www.w3.org/2000/svg" id="Layer_1" data-name="Layer 1" viewBox="0 0 24 24">
  <path d="m9.549,21.457c-1.331,1.331-5.575,2.236-7.92,2.512-.939.11-1.729-.68-1.619-1.619.276-2.345,1.201-6.568,2.532-7.899,1.935-1.935,5.072-1.935,7.006,0,1.935,1.935,1.935,5.072,0,7.006Zm9.57,1.371c.75.75,1.768,1.172,2.828,1.172h2.053s0-2.053,0-2.053c0-1.061-.421-2.078-1.172-2.828l-5.031-5.031-3.71,3.71,5.031,5.031ZM.855.855c-1.024,1.024-1.024,2.685,0,3.71l5.255,5.255,3.71-3.71L4.565.855c-1.024-1.024-2.685-1.024-3.71,0Zm22.377-.087c-1.024-1.024-2.685-1.024-3.71,0l-10.777,10.777c.807.339,1.562.835,2.218,1.492.656.656,1.153,1.411,1.492,2.218l10.777-10.777c1.024-1.024,1.024-2.685,0-3.71Z"/>
</svg>
