<?xml version="1.0" encoding="UTF-8"?>
<svg xmlns="http://www.w3.org/2000/svg" id="Layer_1" data-name="Layer 1" viewBox="0 0 24 24" width="512" height="512"><path d="M14,23h0c0,.55-.45,1-1,1H1c-.55,0-1-.45-1-1H0c0-3.87,3.13-7,7-7h0c3.87,0,7,3.13,7,7Zm-3-13c0-2.21-1.79-4-4-4s-4,1.79-4,4,1.79,4,4,4,4-1.79,4-4ZM19,0H9c-2.69,0-4.87,2.14-4.98,4.8,.88-.51,1.89-.8,2.98-.8,2.74,0,5.04,1.84,5.76,4.35l2.24,2.24,3.59-3.59h-1.59c-.55,0-1-.45-1-1s.45-1,1-1h3c1.1,0,2,.9,2,2v3c0,.55-.45,1-1,1s-1-.45-1-1v-1.59l-3.59,3.59c-.78,.78-2.05,.78-2.83,0l-.72-.72s0,.01,0,.02c-.31,1.41-1.12,2.63-2.23,3.47,1.57,.69,2.9,1.82,3.85,3.23h4.53c2.76,0,5-2.24,5-5V5c0-2.76-2.24-5-5-5Z"/></svg>
