<?xml version="1.0" encoding="UTF-8"?>
<svg xmlns="http://www.w3.org/2000/svg" id="Layer_1" data-name="Layer 1" viewBox="0 0 24 24" width="512" height="512"><path d="M12,0C5.383,0,0,5.383,0,12s5.383,12,12,12,12-5.383,12-12S18.617,0,12,0ZM6,9c-.219,0-.438-.071-.623-.218-.432-.345-.503-.974-.159-1.405,.91-1.143,2.307-2.065,3.559-2.352,.541-.124,1.075,.213,1.198,.752,.124,.538-.213,1.074-.751,1.197-.812,.186-1.816,.864-2.441,1.648-.198,.248-.489,.377-.783,.377Zm1,2.5c0-.828,.672-1.5,1.5-1.5s1.5,.672,1.5,1.5-.672,1.5-1.5,1.5-1.5-.672-1.5-1.5Zm8.185,7.5h-6.384c-.54,0-.943-.53-.765-1.04,.5-1.429,2.043-2.96,3.963-2.96s3.467,1.534,3.954,2.966c.173,.509-.23,1.034-.768,1.034Zm.315-6c-.828,0-1.5-.672-1.5-1.5s.672-1.5,1.5-1.5,1.5,.672,1.5,1.5-.672,1.5-1.5,1.5Zm3.123-4.218c-.184,.146-.404,.218-.623,.218-.294,0-.585-.129-.783-.377-.625-.784-1.629-1.463-2.441-1.648-.539-.123-.875-.659-.751-1.197,.123-.539,.66-.877,1.198-.752,1.252,.286,2.649,1.209,3.559,2.352,.344,.432,.273,1.061-.159,1.405Z"/></svg>
