<?xml version="1.0" encoding="UTF-8"?>
<svg xmlns="http://www.w3.org/2000/svg" id="Layer_1" data-name="Layer 1" viewBox="0 0 24 24" width="512" height="512"><path d="M12,0C5.383,0,0,5.383,0,12s5.383,12,12,12,12-5.383,12-12S18.617,0,12,0ZM6,7c0-.553,.448-1,1-1h2c.552,0,1,.447,1,1s-.448,1-1,1h-2c-.552,0-1-.447-1-1Zm4,3.5c0,.828-.672,1.5-1.5,1.5s-1.5-.672-1.5-1.5,.672-1.5,1.5-1.5,1.5,.672,1.5,1.5Zm6,6.5H8c-.552,0-1-.447-1-1s.448-1,1-1h8c.552,0,1,.447,1,1s-.448,1-1,1Zm-.5-5c-.828,0-1.5-.672-1.5-1.5s.672-1.5,1.5-1.5,1.5,.672,1.5,1.5-.672,1.5-1.5,1.5Zm2.449-4.288c-.456,.312-1.078,.197-1.391-.256-.025-.031-.367-.456-1.058-.456-.972,0-1.569,1.365-1.575,1.38-.161,.384-.534,.617-.926,.617-.126,0-.254-.024-.377-.074-.509-.209-.755-.787-.549-1.297,.394-.976,1.559-2.626,3.427-2.626,1.744,0,2.612,1.187,2.705,1.321,.313,.455,.199,1.077-.256,1.391Z"/></svg>
