<?xml version="1.0" encoding="UTF-8"?>
<svg xmlns="http://www.w3.org/2000/svg" id="Layer_1" data-name="Layer 1" viewBox="0 0 24 24" width="512" height="512"><path d="M1.875,9c-.504,0-.93-.376-.992-.876L.008,1.124C-.03,.817,.074,.511,.293,.293,.511,.075,.82-.026,1.124,.008l7,.875c.5,.062,.876,.488,.876,.992,0,3.196-3.929,7.125-7.125,7.125Zm19.125,9h-6.091c.056,.157,.091,.324,.091,.5,0,.827-.673,1.5-1.5,1.5h-3.5c-.553,0-1-.447-1-1s.447-1,1-1h2.222c-.135-.28-.222-.614-.222-1s.087-.72,.222-1h-2.222c-.553,0-1-.447-1-1s.447-1,1-1h3.5c.827,0,1.5,.673,1.5,1.5,0,.176-.035,.343-.091,.5h6.091c.552,0,1-.448,1-1s-.448-1-1-1c-.274,0-.53,.108-.721,.307-.383,.397-1.016,.409-1.414,.025-.397-.383-.409-1.016-.025-1.414,.562-.583,1.35-.918,2.16-.918,1.305,0,2.407,.843,2.819,2.009,.111-.655,.181-1.323,.181-2.009C24,5.373,18.627,0,12,0c-.539,0-1.066,.048-1.586,.117,.364,.498,.586,1.103,.586,1.758,0,2.67-1.906,5.573-4.378,7.371,.047,.038,.101,.064,.141,.111,.358,.424,.755,.641,1.179,.643h.007c.451,0,.946-.249,1.295-.651,.363-.417,.993-.462,1.411-.101,.417,.362,.462,.994,.101,1.411-.729,.841-1.777,1.341-2.807,1.341h-.019c-.711-.004-1.756-.242-2.694-1.35-.112-.133-.17-.288-.202-.448-1.036,.503-2.115,.798-3.159,.798-.655,0-1.26-.222-1.758-.586-.069,.52-.117,1.047-.117,1.586,0,6.627,5.373,12,12,12,4.645,0,8.665-2.644,10.66-6.504-.476,.317-1.046,.504-1.66,.504Zm-7.617-8.76c.424-.356,1.053-.303,1.41,.117,.358,.424,.755,.641,1.179,.643h.007c.451,0,.946-.249,1.295-.651,.363-.417,.993-.462,1.411-.101,.417,.362,.462,.994,.101,1.411-.729,.841-1.777,1.341-2.807,1.341h-.019c-.711-.004-1.756-.242-2.694-1.35-.356-.422-.304-1.053,.117-1.41Z"/></svg>
