<?xml version="1.0" encoding="UTF-8"?>
<svg xmlns="http://www.w3.org/2000/svg" id="Layer_1" data-name="Layer 1" viewBox="0 0 24 24" width="512" height="512"><path d="m16,11.455v1.091c0,2.456-1.998,4.455-4.454,4.455h-2.046c-.827,0-1.5-.673-1.5-1.5v-7c0-.827.673-1.5,1.5-1.5h2.046c2.456,0,4.454,1.999,4.454,4.455Zm8-6.455v14c0,2.757-2.243,5-5,5H5c-2.757,0-5-2.243-5-5V5C0,2.243,2.243,0,5,0h14c2.757,0,5,2.243,5,5Zm-6,6.455c0-3.559-2.896-6.455-6.454-6.455h-2.046c-1.93,0-3.5,1.57-3.5,3.5v7c0,1.93,1.57,3.5,3.5,3.5h2.046c3.559,0,6.454-2.896,6.454-6.455v-1.091Z"/></svg>
