<?xml version="1.0" encoding="UTF-8"?>
<svg xmlns="http://www.w3.org/2000/svg" id="Layer_1" data-name="Layer 1" viewBox="0 0 24 24" width="512" height="512"><path d="M.1,6C.57,3.72,2.59,2,5,2h14c2.41,0,4.43,1.72,4.9,4H.1Zm23.9,2v9c0,2.76-2.24,5-5,5H5c-2.76,0-5-2.24-5-5V8H24Zm-14,4c0-.55-.45-1-1-1H5c-.55,0-1,.45-1,1s.45,1,1,1h1v4c0,.55,.45,1,1,1s1-.45,1-1v-4h1c.55,0,1-.45,1-1Zm10,4c0-.55-.45-1-1-1h-6c-.55,0-1,.45-1,1s.45,1,1,1h6c.55,0,1-.45,1-1Zm0-4c0-.55-.45-1-1-1h-6c-.55,0-1,.45-1,1s.45,1,1,1h6c.55,0,1-.45,1-1Z"/></svg>
