<?xml version="1.0" encoding="UTF-8"?>
<svg xmlns="http://www.w3.org/2000/svg" id="Layer_1" data-name="Layer 1" viewBox="0 0 24 24" width="512" height="512"><path d="m23.707,23.707c-.195.195-.451.293-.707.293s-.512-.098-.707-.293l-5-5c-.391-.391-.391-1.023,0-1.414s1.023-.391,1.414,0l5,5c.391.391.391,1.023,0,1.414Zm-2.014-14.329l-5.608,5.608c-1.943,1.943-4.527,3.014-7.275,3.014h-1.396l-5.707,5.707c-.195.195-.451.293-.707.293s-.512-.098-.707-.293c-.391-.391-.391-1.023,0-1.414l5.707-5.707v-1.395c0-.658.062-1.306.182-1.938l-3.875-3.875c-.491.316-.8.484-.834.502-.15.081-.312.12-.473.12-.355,0-.699-.19-.881-.525-.262-.485-.08-1.092.405-1.354.021-.011,2.076-1.136,4.19-3.25C6.842,2.744,8.118.527,8.131.505c.273-.48.883-.648,1.364-.373.479.273.647.883.374,1.363-.019.034-.191.333-.5.803l2.631,2.631,2.631-2.631c-.31-.471-.481-.769-.5-.803-.273-.48-.105-1.09.374-1.363.479-.275,1.091-.107,1.364.373.013.022,1.289,2.239,3.415,4.365,2.114,2.115,4.17,3.239,4.19,3.25.485.263.667.869.405,1.354-.182.335-.525.525-.881.525-.16,0-.322-.039-.473-.12-.034-.018-.343-.186-.834-.502Zm-14.846,1.712c.508-1.17,1.237-2.245,2.167-3.174l1.572-1.572-2.398-2.398c-.56.72-1.25,1.532-2.058,2.339-.758.758-1.505,1.398-2.171,1.918l2.888,2.888Zm1.962,4.91c1.877,0,3.659-.62,5.112-1.763l-4.159-4.158c-1.143,1.453-1.763,3.235-1.763,5.112v.809h.81Zm11.232-7.798c-.666-.52-1.413-1.16-2.171-1.918-.807-.807-1.498-1.619-2.058-2.339l-4.678,4.678,4.243,4.243,4.663-4.664Z"/></svg>
