<?xml version="1.0" encoding="UTF-8"?>
<svg xmlns="http://www.w3.org/2000/svg" id="Layer_1" data-name="Layer 1" viewBox="0 0 24 24" width="512" height="512"><path d="M19,2H5C2.243,2,0,4.243,0,7v10c0,2.757,2.243,5,5,5h14c2.757,0,5-2.243,5-5V7c0-2.757-2.243-5-5-5ZM7.293,12.707l2.583,2.584c.391,.391,.391,1.023,0,1.414-.195,.195-.451,.293-.707,.293s-.512-.098-.707-.293l-2.583-2.584c-.567-.566-.879-1.32-.879-2.121s.312-1.555,.879-2.122l2.583-2.583c.391-.391,1.023-.391,1.414,0s.391,1.023,0,1.414l-2.583,2.583c-.189,.189-.293,.44-.293,.707s.104,.518,.293,.707Zm10.828,1.415l-2.583,2.584c-.195,.195-.451,.293-.707,.293s-.512-.098-.707-.293c-.391-.391-.391-1.023,0-1.414l2.583-2.584c.189-.189,.293-.44,.293-.707s-.104-.518-.293-.707l-2.583-2.584c-.391-.391-.391-1.023,0-1.414s1.023-.391,1.414,0l2.583,2.583c.567,.566,.879,1.32,.879,2.121s-.312,1.555-.879,2.121Z"/></svg>
