<?xml version="1.0" encoding="UTF-8"?>
<svg xmlns="http://www.w3.org/2000/svg" id="Layer_1" data-name="Layer 1" viewBox="0 0 24 24">
  <path d="m3.064,15.35l-1.15,1.15c-1.172,1.172-1.172,3.071,0,4.243l1.414,1.414c1.172,1.172,3.071,1.172,4.243,0l1.189-1.189c-2.76-.719-4.941-2.872-5.696-5.618Z"/>
  <path d="m22.45,2.248l-.698-.698c-.674-.674-1.73-.779-2.524-.25l-6.009,4.32c2.473.797,4.425,2.765,5.195,5.25l4.286-6.098c.529-.793.424-1.849-.25-2.524Z"/>
  <path d="m10.771,7.234c-3.309,0-6,2.691-6,6s2.691,6,6,6,6-2.691,6-6-2.691-6-6-6Zm2,7h-1v1c0,.552-.448,1-1,1s-1-.448-1-1v-1h-1c-.552,0-1-.448-1-1s.448-1,1-1h1v-1c0-.552.448-1,1-1s1,.448,1,1v1h1c.552,0,1,.448,1,1s-.448,1-1,1Z"/>
</svg>
