<?xml version="1.0" encoding="UTF-8"?>
<svg xmlns="http://www.w3.org/2000/svg" id="Layer_1" data-name="Layer 1" viewBox="0 0 24 24" width="512" height="512"><path d="M8.679,5.265l-2.333-2.333c-.431-.431-.337-1.159,.191-1.464,1.023-.59,2.148-1.021,3.343-1.256,.577-.114,1.12,.323,1.12,.912v3.203c0,.411-.255,.798-.65,.909-.212,.06-.42,.13-.622,.212-.362,.146-.773,.093-1.049-.183Zm-3.679,5.735H2c-.552,0-1,.448-1,1v1c0,.552,.448,1,1,1h3c.552,0,1-.448,1-1v-1c0-.552-.448-1-1-1Zm13.25-2h3.375c.62,0,1.073-.602,.892-1.196-.399-1.309-1.035-2.514-1.86-3.567-.345-.44-.998-.483-1.394-.088l-2.245,2.245c-.312,.312-.364,.804-.11,1.165,.196,.279,.368,.575,.515,.886,.155,.328,.465,.554,.827,.554Zm-2.929-3.735l2.333-2.333c.431-.431,.337-1.159-.191-1.464-1.023-.59-2.148-1.021-3.343-1.256-.577-.114-1.12,.323-1.12,.912v3.203c0,.411,.255,.798,.65,.909,.212,.06,.42,.13,.622,.212,.362,.146,.773,.093,1.049-.183Zm-8.34,1.131l-2.245-2.245c-.395-.395-1.049-.352-1.394,.088-.824,1.053-1.461,2.258-1.86,3.567-.181,.594,.272,1.196,.892,1.196h3.375c.362,0,.672-.226,.827-.554,.147-.311,.319-.607,.515-.886,.254-.361,.202-.853-.11-1.165Zm11.019,5.605v1c0,.552,.448,1,1,1h3c.552,0,1-.448,1-1v-1c0-.552-.448-1-1-1h-3c-.552,0-1,.448-1,1Zm-13,4H2c-.552,0-1,.448-1,1v1c0,.552,.448,1,1,1h3c.552,0,1-.448,1-1v-1c0-.552-.448-1-1-1Zm14,3h3c.552,0,1-.448,1-1v-1c0-.552-.448-1-1-1h-3c-.552,0-1,.448-1,1v1c0,.552,.448,1,1,1Zm-14,2H2c-.552,0-1,.448-1,1v1c0,.552,.448,1,1,1h3c.552,0,1-.448,1-1v-1c0-.552-.448-1-1-1Zm14,3h3c.552,0,1-.448,1-1v-1c0-.552-.448-1-1-1h-3c-.552,0-1,.448-1,1v1c0,.552,.448,1,1,1Zm-6-15.38v14.38c0,.552,.448,1,1,1h1c.552,0,1-.448,1-1V11c0-1.273-.597-2.4-1.525-3.128-.596-.468-1.475-.01-1.475,.748Zm-2,0c0-.758-.879-1.217-1.475-.748-.928,.728-1.525,1.856-1.525,3.128v12c0,.552,.448,1,1,1h1c.552,0,1-.448,1-1V8.62Z"/></svg>
