<?xml version="1.0" encoding="UTF-8"?>
<svg xmlns="http://www.w3.org/2000/svg" id="Layer_1" data-name="Layer 1" viewBox="0 0 24 24">
  <path d="m23.707,22.293l-1.536-1.536c.538-.813.829-1.771.829-2.757v-8c0-2.757-2.243-5-5-5H6.414L1.707.293C1.316-.098.684-.098.293.293S-.098,1.316.293,1.707l22,22c.195.195.451.293.707.293s.512-.098.707-.293c.391-.391.391-1.023,0-1.414Zm-6.903-6.903l-6.194-6.194c.45-.13.915-.196,1.39-.196,2.757,0,5,2.243,5,5,0,.474-.066.94-.196,1.39Zm-.185-12.39H7.381l.471-.69c.559-.82,1.485-1.31,2.479-1.31h3.34c.993,0,1.92.489,2.479,1.31l.471.69Zm-4.619,14c-1.654,0-3-1.346-3-3,0-.284.041-.559.115-.82l3.698,3.707c-.259.073-.531.113-.812.113Zm5.208,4.294c.285.286.37.716.216,1.089-.155.374-.52.617-.924.617H6c-2.757,0-5-2.243-5-5v-8c0-.881.231-1.745.67-2.502.156-.269.428-.449.736-.489.304-.042.617.064.837.285l4.345,4.356c-.375.701-.588,1.501-.588,2.35,0,2.757,2.243,5,5,5,.845,0,1.641-.211,2.339-.582l2.869,2.876Z"/>
</svg>
