<?xml version="1.0" encoding="UTF-8"?>
<svg xmlns="http://www.w3.org/2000/svg" id="Layer_1" data-name="Layer 1" viewBox="0 0 24 24" width="512" height="512"><path d="m.931.116c6.569,4.384,16.069,12.384,22.956,22.945.387.593-.366,1.258-.881.772C14.995,16.284,7.391,8.658.166.998-.319.483.342-.277.931.116Zm10.239.946c3.83,4.438,7.33,7.938,11.767,11.77.555.479,1.355-.192.957-.808C19.841,5.753,15.033,2.029,11.959.102c-.618-.387-1.266.408-.789.96ZM.156,9.931c4.434,4.793,9.078,9.426,13.911,13.913.488.453,1.225-.164.878-.732C10.341,15.576,5,11.5.872,9.046c-.566-.336-1.163.402-.715.885Z"/></svg>
