<?xml version="1.0" encoding="UTF-8"?>
<svg xmlns="http://www.w3.org/2000/svg" id="Layer_1" data-name="Layer 1" viewBox="0 0 24 24" width="512" height="512"><path d="M8.4,15.995c-.509,.646-1.125,1.422-1.71,2.144,.762,.282,1.31,1.002,1.31,1.861,0,.748-.416,1.392-1.024,1.735-.12,1.268-1.176,2.265-2.476,2.265-1.211,0-2.22-.862-2.45-2.005-.017,0-.033,.005-.05,.005-1.105,0-2-.895-2-2,0-.749,.417-1.394,1.027-1.737-.012-.087-.027-.173-.027-.263,0-1.105,.895-2,2-2,.657,0,1.22,.331,1.583,.82,1.043-.522,2.284-1.086,3.265-1.517,.438-.193,.846,.318,.552,.692Zm7.199,0c.509,.646,1.125,1.422,1.71,2.144-.762,.282-1.31,1.002-1.31,1.861,0,.748,.416,1.392,1.024,1.735,.12,1.268,1.176,2.265,2.476,2.265,1.211,0,2.22-.862,2.45-2.005,.017,0,.033,.005,.05,.005,1.105,0,2-.895,2-2,0-.749-.417-1.394-1.027-1.737,.012-.087,.027-.173,.027-.263,0-1.105-.895-2-2-2-.657,0-1.22,.331-1.583,.82-1.043-.522-2.284-1.086-3.265-1.517-.438-.193-.846,.318-.552,.692Zm-.127,7.49c-1.1,.332-2.265,.515-3.473,.515s-2.373-.183-3.473-.515c.097-.198,.183-.404,.25-.618,.771-.744,1.223-1.776,1.223-2.867,0-.742-.211-1.453-.585-2.064,.194-.245,.382-.482,.558-.705,.696-.885,.7-2.125,.011-3.014-.693-.895-1.903-1.2-2.939-.745h0c-.602,.265-1.389,.618-2.188,.994-.563-.303-1.196-.466-1.855-.466-.999,0-1.911,.37-2.612,.978-.244-.954-.388-1.948-.388-2.978C0,5.373,5.373,0,12,0s12,5.373,12,12c0,1.03-.144,2.023-.387,2.977-.702-.607-1.614-.978-2.613-.978-.659,0-1.292,.163-1.855,.466-.799-.376-1.586-.729-2.188-.994h0c-1.035-.455-2.246-.149-2.939,.745-.689,.889-.686,2.129,.012,3.016,.175,.222,.362,.459,.557,.704-.374,.61-.585,1.321-.585,2.063,0,1.092,.452,2.124,1.223,2.868,.068,.214,.153,.419,.25,.618ZM6.799,6.979c.769,.157,1.785,.849,2.419,1.644,.197,.248,.489,.377,.783,.377,.218,0,.438-.071,.622-.218,.432-.345,.503-.974,.159-1.405-.925-1.16-2.363-2.106-3.581-2.356-.545-.11-1.07,.238-1.181,.778-.111,.541,.237,1.07,.778,1.181Zm4.201,4.021c0-.553-.447-1-1-1h-3c-.553,0-1,.447-1,1s.447,1,1,1h3c.553,0,1-.447,1-1Zm2.377-2.218c.184,.146,.404,.218,.622,.218,.294,0,.586-.129,.783-.377,.634-.795,1.65-1.486,2.419-1.644,.541-.11,.89-.64,.778-1.181-.11-.54-.636-.889-1.181-.778-1.218,.25-2.656,1.196-3.581,2.356-.344,.432-.272,1.061,.159,1.405Zm.623,3.218h3c.553,0,1-.447,1-1s-.447-1-1-1h-3c-.553,0-1,.447-1,1s.447,1,1,1Z"/></svg>
