<?xml version="1.0" encoding="UTF-8"?>
<svg xmlns="http://www.w3.org/2000/svg" id="Layer_1" data-name="Layer 1" viewBox="0 0 24 24" width="512" height="512"><path d="M4,11c-2.21,0-4,1.79-4,4v5c0,2.21,1.79,4,4,4h4.26c2.8,0,5.48-1.18,7.37-3.25l7.7-8.41c.95-1.06,.86-2.71-.19-3.66-.51-.47-1.19-.71-1.88-.68-.7,.03-1.34,.33-1.79,.83l-3.54,3.74c.03,.21,.06,.42,.06,.64,0,2.08-1.55,3.88-3.62,4.17l-4.25,.6c-.55,.08-1.05-.3-1.13-.85-.08-.55,.3-1.05,.85-1.13l4.16-.58c.94-.13,1.75-.81,1.94-1.73,.3-1.43-.79-2.69-2.16-2.69H4Z"/><path d="M9.81,4.79l-3.29-.55c-.3-.05-.52-.31-.52-.62,0-.34,.28-.62,.62-.62h2.64c.36,0,.69,.19,.87,.5,.28,.48,.89,.64,1.37,.36,.48-.28,.64-.89,.37-1.37-.54-.92-1.53-1.5-2.6-1.5h-.27c0-.55-.45-1-1-1s-1,.45-1,1h-.38c-1.45,0-2.62,1.18-2.62,2.62,0,1.29,.92,2.38,2.19,2.59l3.29,.55c.3,.05,.52,.31,.52,.62,0,.34-.28,.62-.62,.62h-2.64c-.36,0-.69-.19-.87-.5-.28-.48-.89-.64-1.37-.36-.48,.28-.64,.89-.37,1.37,.54,.92,1.53,1.5,2.6,1.5h.27c0,.55,.45,1,1,1s1-.45,1-1h.38c1.45,0,2.62-1.18,2.62-2.62,0-1.29-.92-2.38-2.19-2.59Z"/></svg>
