<?xml version="1.0" encoding="UTF-8"?>
<svg xmlns="http://www.w3.org/2000/svg" id="Layer_1" data-name="Layer 1" viewBox="0 0 24 24">
  <path d="m23.707,22.293l-6.317-6.317,2.105-3.43c.606-.894.668-2.041.163-2.995-.506-.954-1.491-1.547-2.569-1.547l-3.833-.003,1.205-5.227c.309-1.078-.139-2.172-1.064-2.6-.88-.407-1.865-.086-2.473.826l-3.236,5.273L1.707.293C1.316-.098.684-.098.293.293S-.098,1.316.293,1.707l22,22c.195.195.451.293.707.293s.512-.098.707-.293c.391-.391.391-1.023,0-1.414Zm-8.471-2.815l-2.164,3.524c-.432.65-1.057,1-1.699,1-.259,0-.521-.057-.773-.174-.925-.428-1.373-1.521-1.064-2.6l1.204-5.226h-3.83c-1.08,0-2.064-.593-2.57-1.547-.506-.954-.443-2.103.163-2.996l1.033-1.683,9.701,9.701Z"/>
</svg>
