<?xml version="1.0" encoding="UTF-8"?>
<svg xmlns="http://www.w3.org/2000/svg" id="Layer_1" data-name="Layer 1" viewBox="0 0 24 24" width="512" height="512"><path d="m23,22h-.681l-5.245-14.19c-.141-.41-.077-.868.17-1.224.255-.367.674-.586,1.121-.586h3.977c.693,0,1.301-.418,1.547-1.067.247-.648.072-1.365-.446-1.826-.028-.024-.057-.048-.087-.069l-2.112-1.495c-.028-.02-.057-.038-.086-.055-1.849-1.043-3.44-1.488-5.319-1.488h-.927c-3.422,0-6.465,2.176-7.57,5.415L1.677,22h-.677c-.552,0-1,.448-1,1s.448,1,1,1h22c.552,0,1-.448,1-1s-.448-1-1-1Zm-7-2.5c0,1.378-1.122,2.5-2.5,2.5h-3c-1.378,0-2.5-1.122-2.5-2.5v-1c0-1.378,1.122-2.5,2.5-2.5h3c1.378,0,2.5,1.122,2.5,2.5v1Zm-2-1v1c0,.276-.224.5-.5.5h-3c-.276,0-.5-.224-.5-.5v-1c0-.276.224-.5.5-.5h3c.276,0,.5.224.5.5Z"/></svg>
