<?xml version="1.0" encoding="UTF-8"?>
<svg xmlns="http://www.w3.org/2000/svg" id="Layer_1" data-name="Layer 1" viewBox="0 0 24 24" width="512" height="512"><path d="m24,7v1H0v-1C0,4.243,2.243,2,5,2h1v-1c0-.552.448-1,1-1s1,.448,1,1v1h8v-1c0-.552.448-1,1-1s1,.448,1,1v1h1c2.757,0,5,2.243,5,5ZM0,19v-9h23.586l-7.611,7.61c-.521.521-1.429.521-1.951,0l-.634-.635c-1.277-1.277-3.503-1.277-4.78,0l-6.262,6.262c-1.41-.885-2.349-2.454-2.349-4.237Zm3-5.5c0,.828.672,1.5,1.5,1.5s1.5-.672,1.5-1.5-.672-1.5-1.5-1.5-1.5.672-1.5,1.5Zm14.39,5.524c-1.276,1.277-3.502,1.277-4.78,0l-.634-.635c-.521-.521-1.43-.521-1.951,0l-5.58,5.579c.182.02.367.031.555.031h14c2.757,0,5-2.243,5-5v-6.586l-6.61,6.61Z"/></svg>
