<?xml version="1.0" encoding="UTF-8"?>
<svg xmlns="http://www.w3.org/2000/svg" id="Layer_1" data-name="Layer 1" viewBox="0 0 24 24" width="512" height="512"><path d="m23.836,8.603c-.441-1.352-1.646-2.226-3.068-2.226h-4.369l-1.327-4.137c-.437-1.361-1.643-2.24-3.073-2.24s-2.636.879-3.073,2.24l-1.327,4.137H3.231c-1.422,0-2.626.874-3.068,2.226s.016,2.768,1.163,3.606l3.561,2.603-1.352,4.184c-.439,1.358.026,2.775,1.184,3.61.575.414,1.231.621,1.888.621.666,0,1.332-.214,1.911-.64l3.482-2.56,3.482,2.56c1.15.846,2.641.853,3.799.019,1.158-.835,1.623-2.252,1.184-3.61l-1.352-4.184,3.56-2.603c1.148-.839,1.605-2.255,1.164-3.606Zm-12.836-2.603c0-.552.448-1,1-1s1,.448,1,1v7c0,.552-.448,1-1,1s-1-.448-1-1v-7Zm1,12c-.828,0-1.5-.672-1.5-1.5s.672-1.5,1.5-1.5,1.5.672,1.5,1.5-.672,1.5-1.5,1.5Z"/></svg>
