<?xml version="1.0" encoding="UTF-8"?>
<svg xmlns="http://www.w3.org/2000/svg" id="Layer_1" data-name="Layer 1" viewBox="0 0 24 24">
  <path d="m23.939,23.342c-.147.406-.531.659-.939.659-.113,0-.229-.02-.342-.061l-10.658-3.876-10.658,3.876c-.113.041-.229.061-.342.061-.408,0-.792-.252-.939-.659-.189-.519.079-1.093.598-1.282l8.415-3.06L.658,15.94c-.519-.189-.787-.763-.598-1.282.188-.519.762-.788,1.281-.598l10.658,3.876,10.658-3.876c.521-.19,1.093.08,1.281.598.189.519-.079,1.093-.598,1.282l-8.415,3.06,8.415,3.06c.519.189.787.763.598,1.282ZM12.51.211c2.391,2.133,6.49,5.074,6.49,8.77,0,3.743-2.926,6.803-6.614,7.018-3.083.181-5.763-1.832-6.949-4.683-1.109-2.664.096-5.391,1.348-6.939.327-.405.965-.331,1.175.144.296.671.198,1.756.826,1.756,1.327,0,.987-3.374,2.468-5.879.263-.445.873-.532,1.258-.188h-.001Zm1.386,12.749c.878-1.025.708-2.591-.246-3.545l-1.117-1.117c-.311-.311-.816-.311-1.127,0l-1.117,1.117c-.954.954-1.125,2.521-.246,3.545,1.016,1.185,2.839,1.185,3.855,0h-.001Z"/>
</svg>
