<?xml version="1.0" encoding="UTF-8"?>
<svg xmlns="http://www.w3.org/2000/svg" id="Layer_1" data-name="Layer 1" viewBox="0 0 24 24" width="512" height="512"><path d="m1.996,11.09c-.047.52-.483.91-.995.91-.03,0-.06,0-.091-.004-.55-.05-.956-.536-.906-1.086C.556,4.792,5.825,0,12,0c2.966,0,5.818,1.114,8,3.06V1c0-.553.448-1,1-1s1,.447,1,1v4c0,1.105-.895,2-2,2h-4c-.552,0-1-.447-1-1s.448-1,1-1h3.139c-1.868-1.899-4.447-3-7.139-3C6.85,2,2.456,5.993,1.996,11.09Zm11.004,2.41v-7.5c0-.553-.448-1-1-1s-1,.447-1,1v7.5c0,.553.448,1,1,1s1-.447,1-1Zm-2.5,4c0,.828.672,1.5,1.5,1.5s1.5-.672,1.5-1.5-.672-1.5-1.5-1.5-1.5.672-1.5,1.5Zm12.59-5.496c-.561-.051-1.036.356-1.086.906-.46,5.097-4.854,9.09-10.004,9.09-2.692,0-5.271-1.101-7.139-3h3.139c.552,0,1-.447,1-1s-.448-1-1-1H4c-1.105,0-2,.895-2,2v4c0,.553.448,1,1,1s1-.447,1-1v-2.06c2.182,1.946,5.034,3.06,8,3.06,6.175,0,11.444-4.792,11.996-10.91.049-.55-.356-1.036-.906-1.086Z"/></svg>
