<?xml version="1.0" encoding="UTF-8"?>
<svg xmlns="http://www.w3.org/2000/svg" id="Layer_1" data-name="Layer 1" viewBox="0 0 24 24" width="512" height="512"><path d="M24,18v2c0,2.21-1.79,4-4,4H4c-2.21,0-4-1.79-4-4v-2c0-2.21,1.79-4,4-4H20c2.21,0,4,1.79,4,4ZM0,6v-2C0,1.79,1.79,0,4,0h6c1.86,0,3.43,1.28,3.87,3h3.13c2.21,0,4,1.79,4,4v1h1.45c.69,0,1.04,.83,.55,1.32l-2.45,2.45c-.3,.3-.79,.3-1.1,0l-2.45-2.45c-.49-.49-.14-1.32,.55-1.32h1.45v-1c0-1.1-.9-2-2-2h-3v1c0,2.21-1.79,4-4,4H4C1.79,10,0,8.21,0,6Zm12,0v-1.59l-3.59,3.59h1.59c1.1,0,2-.9,2-2Zm-2-4h-1.59L2.81,7.61c.33,.25,.75,.39,1.19,.39h1.59L11.19,2.39c-.33-.25-.75-.39-1.19-.39ZM2,4v1.59l3.59-3.59h-1.59c-1.1,0-2,.9-2,2Z"/></svg>
