<?xml version="1.0" encoding="UTF-8"?>
<svg xmlns="http://www.w3.org/2000/svg" id="Layer_1" data-name="Layer 1" viewBox="0 0 24 24" width="512" height="512"><path d="M15.5,15h0c-.83,0-1.5-.67-1.5-1.5v-4c0-.83,.67-1.5,1.5-1.5h0c.83,0,1.5,.67,1.5,1.5v4c0,.83-.67,1.5-1.5,1.5Zm-2.5-1.5v-4c0-.83-.67-1.5-1.5-1.5h0c-.83,0-1.5,.67-1.5,1.5v4c0,.83,.67,1.5,1.5,1.5h0c.83,0,1.5-.67,1.5-1.5ZM20.25,1.02c-.74,.12-1.25,.81-1.25,1.56V13.32c0,1.9-1.44,3.59-3.34,3.67-.8,.04-1.55-.2-2.16-.63-.57,.4-1.26,.63-2,.63-.83,0-1.58-.29-2.18-.77-.02,.02-1.82,1.83-2.44,2.44-.39,.39-1.02,.39-1.41,0h0c-.39-.39-.39-1.02,0-1.41l2.33-2.33h0s0,0,0,0c.86-.86,.77-2.3-.26-3.05-.81-.58-1.94-.41-2.65,.29l-2.69,2.69c-1.6,1.6-1.6,4.19,0,5.79l1.59,1.59c1.13,1.13,2.65,1.76,4.24,1.76h8.97c2.76,0,5-2.24,5-5V2.5c0-.91-.81-1.63-1.75-1.48ZM8,9.86V1.58C8,.83,7.49,.14,6.75,.02c-.94-.15-1.75,.57-1.75,1.48V9.76c.97-.36,2.05-.32,3,.09Z"/></svg>
