<?xml version="1.0" encoding="UTF-8"?>
<svg xmlns="http://www.w3.org/2000/svg" id="Layer_1" data-name="Layer 1" viewBox="0 0 24 24" width="512" height="512"><path d="m19,13.293c0-.455,1.027-1.62,1.777-2.471,1.511-1.714,3.223-3.656,3.223-5.823,0-2.003-1.01-3.019-3-3.019-1.255,0-2.355.532-3.421,1.046-1.034.5-2.012.972-3.097.972-.906,0-1.919-.959-2.898-1.886-1.098-1.039-2.233-2.114-3.605-2.114-.323-.002-.717,0-1.144.156-1.25.46-1.546,1.771-1.688,2.4-.152.675-.157,1.836-.149,3.067l.002.376c0,.668-1.031,1.282-2.028,1.876C1.58,8.705.003,9.645.003,11.415.003,13.004,1.332,13.767,2.399,14.38c1.095.629,1.61.993,1.603,1.573-.048.311-.641,1.279-.863,1.643-.13.211-.242.396-.317.533-.374.676-.612,1.266-.751,1.858-.248,1.056.065,2.084.799,2.619.856.625,1.89.351,2.386.219.804-.212,1.655-.762,2.558-1.343,1.076-.695,2.297-1.482,3.188-1.482.632,0,2.866,1.35,4.185,2.414.734.592,2.206,1.586,3.815,1.586,1.879,0,3-1.122,3-3,0-1.823-.907-3.289-1.707-4.583-.665-1.075-1.293-2.089-1.293-3.124Zm-9.5,3.707c-.828,0-1.5-.672-1.5-1.5s.672-1.5,1.5-1.5,1.5.672,1.5,1.5-.672,1.5-1.5,1.5Zm0-7c-.828,0-1.5-.672-1.5-1.5s.672-1.5,1.5-1.5,1.5.672,1.5,1.5-.672,1.5-1.5,1.5Zm6,2c-.828,0-1.5-.672-1.5-1.5s.672-1.5,1.5-1.5,1.5.672,1.5,1.5-.672,1.5-1.5,1.5Z"/></svg>
