<?xml version="1.0" encoding="UTF-8"?>
<svg xmlns="http://www.w3.org/2000/svg" id="Layer_1" data-name="Layer 1" viewBox="0 0 24 24" width="512" height="512"><circle cx="12" cy="2.5" r="2.5"/><path d="M19.728,12.314s-4.731-5.003-4.749-5.02c-.757-.794-1.812-1.294-2.979-1.294-1.311,0-2.493,.619-3.255,1.593l-4.471,4.719c-.38,.401-.363,1.034,.038,1.414,.193,.183,.441,.274,.688,.274,.265,0,.529-.104,.726-.312l1.918-2.024-.621,4.964c-.107,.854,.158,1.712,.728,2.357,.34,.385,.775,.658,1.249,.826v3.188c0,.552,.448,1,1,1s1-.448,1-1v-3h2v3c0,.552,.448,1,1,1s1-.448,1-1v-3.188c.474-.169,.909-.441,1.249-.826,.569-.645,.834-1.504,.728-2.357l-.622-4.978,1.918,2.036c.197,.209,.462,.314,.728,.314,.246,0,.493-.09,.686-.272,.402-.379,.421-1.012,.042-1.414Z"/></svg>
