<?xml version="1.0" encoding="UTF-8"?>
<svg xmlns="http://www.w3.org/2000/svg" id="Layer_1" data-name="Layer 1" viewBox="0 0 24 24" width="512" height="512"><path d="M12,0c-1.784,0-3.471,.4-4.993,1.098,.543,1.037,.993,2.253,.993,3.402,0,2.481-2.019,4.5-4.5,4.5-1.064,0-2.029-.386-2.8-1.006-.445,1.254-.7,2.599-.7,4.006,0,6.627,5.373,12,12,12s12-5.373,12-12S18.627,0,12,0ZM5,12c0-.553,.448-1,1-1h4c.552,0,1,.447,1,1s-.448,1-1,1H6c-.552,0-1-.447-1-1Zm10.802,6.597c-.196,.264-.498,.403-.803,.403-.208,0-.417-.064-.596-.198-.007-.005-1.114-.802-2.403-.802s-2.396,.797-2.407,.805c-.445,.322-1.069,.23-1.396-.213-.326-.443-.235-1.065,.206-1.394,.066-.049,1.632-1.198,3.597-1.198s3.531,1.149,3.597,1.198c.443,.329,.535,.956,.205,1.398Zm2.198-5.597h-4c-.552,0-1-.447-1-1s.448-1,1-1h4c.552,0,1,.447,1,1s-.448,1-1,1ZM2.927,.269c.301-.357,.847-.359,1.151-.004,.738,.864,1.922,2.832,1.922,4.235,0,1.381-1.119,2.5-2.5,2.5s-2.5-1.119-2.5-2.5C1,3.129,2.189,1.142,2.927,.269Z"/></svg>
