<?xml version="1.0" encoding="UTF-8"?>
<svg xmlns="http://www.w3.org/2000/svg" id="Layer_1" data-name="Layer 1" viewBox="0 0 24 24" width="512" height="512"><path d="m20,6h-4c-2.209,0-4,1.791-4,4v10c0,2.209,1.791,4,4,4h4c2.209,0,4-1.791,4-4v-10c0-2.209-1.791-4-4-4Zm-2,3c.828,0,1.5.672,1.5,1.5s-.672,1.5-1.5,1.5-1.5-.672-1.5-1.5.672-1.5,1.5-1.5Zm0,13c-1.933,0-3.5-1.567-3.5-3.5s1.567-3.5,3.5-3.5,3.5,1.567,3.5,3.5-1.567,3.5-3.5,3.5Zm-8-2c0,.552-.448,1-1,1h-3c-.553,0-1-.448-1-1s.447-1,1-1h2v-2h-3c-2.761,0-5-2.239-5-5v-7C0,2.239,2.239,0,5,0h11c2.474,0,4.514,1.801,4.915,4.16-.456-.102-.929-.16-1.415-.16h-3.5c-3.314,0-6,2.686-6,6v10Zm6.5-1.5c0-.828.672-1.5,1.5-1.5s1.5.672,1.5,1.5-.672,1.5-1.5,1.5-1.5-.672-1.5-1.5Z"/></svg>
