<?xml version="1.0" encoding="UTF-8"?>
<svg xmlns="http://www.w3.org/2000/svg" id="Layer_1" data-name="Layer 1" viewBox="0 0 24 24" width="512" height="512"><path d="m23.744,7.815c-.357-.578-1.006-.881-1.675-.802-1.454.178-4.017.601-6.319,1.54-.567-2.745-1.572-5.899-2.201-7.499-.251-.64-.858-1.054-1.546-1.054h-.002c-.69,0-1.299.417-1.55,1.059-.616,1.571-1.624,4.8-2.197,7.51-2.211-.892-4.716-1.393-6.369-1.56-.668-.069-1.289.245-1.635.814-.346.57-.334,1.27.032,1.828.734,1.12,2.172,2.747,3.703,4.22-.685.214-1.966.673-1.966.673-.628.225-1.04.801-1.05,1.468-.01.665.383,1.251,1.003,1.495,1.643.643,3.135,1.077,4.522,1.313-.18.406-.344.819-.437,1.154-.157.57.01,1.177.435,1.584.421.404,1.026.543,1.585.364.665-.215,1.922-.906,2.922-1.922v-5c0-.552.447-1,1-1s1,.448,1,1v5c1,1,2.258,1.711,2.926,1.924.159.051.322.076.484.076.403,0,.799-.155,1.1-.444.423-.407.589-1.012.432-1.579-.077-.277-.226-.664-.443-1.154,2.19-.359,3.97-1.047,4.536-1.283.618-.256,1-.854.974-1.522-.027-.67-.456-1.237-1.095-1.443,0,0-1.42-.469-1.901-.615,1.6-1.569,2.997-3.24,3.702-4.302.373-.563.384-1.269.03-1.842Zm-10.744,12.185v3c0,.552-.447,1-1,1s-1-.448-1-1v-3h2Z"/></svg>
