<?xml version="1.0" encoding="UTF-8"?>
<svg xmlns="http://www.w3.org/2000/svg" id="Layer_1" data-name="Layer 1" viewBox="0 0 24 24" width="512" height="512"><path d="M12,10.5c-.827,0-1.5-.673-1.5-1.5s.673-1.5,1.5-1.5,1.5,.673,1.5,1.5-.673,1.5-1.5,1.5Zm0,2c-1.103,0-2,.897-2,2s.897,2,2,2,2-.897,2-2-.897-2-2-2Zm12-.5c0,6.617-5.383,12-12,12S0,18.617,0,12,5.383,0,12,0s12,5.383,12,12Zm-8,2.5c0-1.247-.585-2.347-1.481-3.082,.604-.629,.981-1.479,.981-2.418,0-1.93-1.57-3.5-3.5-3.5s-3.5,1.57-3.5,3.5c0,.939,.377,1.789,.981,2.419-.896,.734-1.481,1.835-1.481,3.081,0,2.206,1.794,4,4,4s4-1.794,4-4Z"/></svg>
