<?xml version="1.0" encoding="UTF-8"?>
<svg xmlns="http://www.w3.org/2000/svg" id="Layer_1" data-name="Layer 1" viewBox="0 0 24 24" width="512" height="512"><path d="M20.62,17.47c-1.44,2.79-4.29,4.53-7.43,4.53h-.18v1c0,.55-.45,1-1,1s-1-.45-1-1v-1.02c-4.44-.19-8-3.86-8-8.34v-3.27C3,5.87,6.56,2.21,11,2.02V1c0-.55,.45-1,1-1s1,.45,1,1v1h.18c3.2,0,6.07,1.78,7.49,4.65,.25,.5,.04,1.09-.45,1.34s-1.1,.04-1.34-.45c-1.08-2.18-3.27-3.54-5.7-3.54h-1.82c-3.51,0-6.36,2.85-6.36,6.36v3.27c0,3.51,2.85,6.36,6.36,6.36h1.82c2.39,0,4.56-1.32,5.66-3.45,.25-.49,.86-.68,1.35-.43,.49,.25,.68,.86,.43,1.35Z"/></svg>
