<?xml version="1.0" encoding="UTF-8"?>
<svg xmlns="http://www.w3.org/2000/svg" id="Layer_1" data-name="Layer 1" viewBox="0 0 24 24" width="512" height="512"><path d="M3,5.065v2.935c0,.561-.408,1.473-1.12,2.504-.576,.833-.88,1.811-.88,2.83v5.666c0,2.757,2.243,5,5,5h5V12.179L6.611,.265c-2.106,.598-3.611,2.528-3.611,4.801Zm3.5,14.935c-.828,0-1.5-.672-1.5-1.5s.672-1.5,1.5-1.5,1.5,.672,1.5,1.5-.672,1.5-1.5,1.5Zm1.5-7v1c0,.552-.448,1-1,1h-1c-.552,0-1-.448-1-1v-1c0-.552,.448-1,1-1h1c.552,0,1,.448,1,1ZM15.352,.008l-3.352,9.099L8.648,.008c.21-.008,.341-.008,.352-.008h6c.011,0,.142,0,.352,.008Zm6.768,10.495c-.712-1.031-1.12-1.943-1.12-2.504v-2.935c0-2.272-1.505-4.203-3.611-4.801l-4.389,11.914v11.821h5c2.757,0,5-2.243,5-5v-5.666c0-1.019-.304-1.998-.88-2.83Zm-2.683,4.496h-2.795c-.449,0-.716-.5-.467-.873l1.17-1.755c.331-.496,1.059-.496,1.39,0l1.17,1.755c.249,.373-.019,.873-.467,.873Z"/></svg>
