<?xml version="1.0" encoding="UTF-8"?>
<svg xmlns="http://www.w3.org/2000/svg" id="Layer_1" data-name="Layer 1" viewBox="0 0 24 24" width="512" height="512"><path d="M12,.15c.46,.15,.88,.39,1.23,.73l3.9,3.94c.33,.33,.56,.73,.7,1.17h-4.83c-.55,0-1-.45-1-1V.15Zm8.08,12.52c.9-.9,2.35-.9,3.25,0,.9,.9,.9,2.35,0,3.25l-6.81,6.81c-.81,.81-1.92,1.27-3.06,1.27h-1.45v-1.45c0-1.15,.46-2.25,1.27-3.06l6.81-6.81Zm-14.08-2.67c-.55,0-1,.45-1,1,0,.68,.45,1.61,1.13,2.4,.51-.77,.87-1.68,.87-2.4,0-.55-.45-1-1-1Zm12-2v3.92l-6.14,6.14c-1.07,1.07-1.7,2.45-1.83,3.93H5c-2.76,0-5-2.24-5-5V5C0,2.24,2.24,0,5,0h5V5c0,1.65,1.35,3,3,3h5Zm-5,5.5c0-.83-.67-1.5-1.5-1.5s-1.5,.67-1.5,1.5c0,.32,.1,.67,.29,.99-.32,.28-.74,.51-1.29,.51-.44,0-.88-.13-1.3-.34,.81-1.16,1.3-2.55,1.3-3.66,0-1.65-1.35-3-3-3s-3,1.35-3,3c0,1.22,.68,2.65,1.71,3.8-.24,.13-.48,.2-.71,.2-.55,0-1,.45-1,1s.45,1,1,1c.83,0,1.61-.33,2.3-.85,.84,.53,1.76,.85,2.7,.85,2.6,0,4-2.48,4-3.5Z"/></svg>
