<?xml version="1.0" encoding="UTF-8"?>
<svg xmlns="http://www.w3.org/2000/svg" id="Layer_1" data-name="Layer 1" viewBox="0 0 24 24" width="512" height="512"><path d="m21.154,19.74c1.833-2.165,2.846-4.883,2.846-7.74,0-.552-.448-1-1-1s-1,.448-1,1c0,2.324-.804,4.54-2.263,6.323l-1.421-1.421c.883-1.134,1.422-2.477,1.601-3.902h-3.917c-.552,0-1-.448-1-1s.448-1,1-1h4v-2h-4c-.552,0-1-.448-1-1s.448-1,1-1h3.931c-.495-3.94-3.859-7-7.931-7-2.819,0-5.355,1.456-6.795,3.791L1.707.293C1.316-.098.684-.098.293.293S-.098,1.316.293,1.707l22,22c.195.195.451.293.707.293s.512-.098.707-.293c.391-.391.391-1.023,0-1.414l-2.553-2.553Zm-4.982,1.352c-1.312.603-2.715.909-4.171.909-5.514,0-10-4.486-10-10,0-.552-.448-1-1-1s-1,.448-1,1c0,6.617,5.383,12,12,12,1.747,0,3.431-.367,5.006-1.091.502-.231.722-.825.491-1.326-.23-.502-.825-.723-1.326-.491Zm-1.047-1.725c-.96.408-2.016.634-3.124.634-4.418,0-8-3.582-8-8v-3.758l11.124,11.124Z"/></svg>
