<?xml version="1.0" encoding="UTF-8"?>
<svg xmlns="http://www.w3.org/2000/svg" id="Layer_1" data-name="Layer 1" viewBox="0 0 24 24" width="512" height="512"><path d="M13.142,.053C6.015-.609,.018,5.008,.015,12H0v8C0,20.552,.448,21,1,21h0c.552,0,1-.448,1-1v-7c0-.552,.448-1,1-1s1,.448,1,1v7.95c1.586,1.422,3.55,2.431,5.712,2.836,2.232,.418,4.368,.19,6.288-.497v-2.288c0-.552,.448-1,1-1h0c.552,0,1,.448,1,1v2c0,.552,.448,1,1,1h0c.552,0,1-.448,1-1V13c0-.552,.448-1,1-1s1,.448,1,1v8c0,.552,.448,1,1,1h0c.552,0,1-.448,1-1V12.355c0-6.251-4.633-11.723-10.858-12.302Zm-4.142,17.947h-1c-1.105,0-2-.895-2-2s.895-2,2-2h1v4Zm-.5-7c-.828,0-1.5-.672-1.5-1.5s.672-1.5,1.5-1.5,1.5,.672,1.5,1.5-.672,1.5-1.5,1.5Zm4.5,7h-2v-4h2v4Zm2.5-10c.828,0,1.5,.672,1.5,1.5s-.672,1.5-1.5,1.5-1.5-.672-1.5-1.5,.672-1.5,1.5-1.5Zm.5,10h-1v-4h1c1.105,0,2,.895,2,2s-.897,2-2,2Z"/></svg>
