<?xml version="1.0" encoding="UTF-8"?>
<svg xmlns="http://www.w3.org/2000/svg" id="Layer_1" data-name="Layer 1" viewBox="0 0 24 24" width="512" height="512"><path d="M12,0C5.383,0,0,5.383,0,12s5.383,12,12,12,12-5.383,12-12S18.617,0,12,0ZM6,14.5c-.409,0-.794-.253-.94-.661-.188-.52,.082-1.092,.602-1.279l4-1.442c.518-.189,1.093,.081,1.279,.602,.188,.52-.082,1.092-.602,1.279l-4,1.442c-.111,.041-.227,.06-.339,.06Zm9.802,4.098c-.196,.264-.497,.402-.803,.402-.207,0-.417-.064-.597-.198-.007-.005-1.113-.802-2.402-.802s-2.396,.797-2.406,.805c-.447,.324-1.072,.229-1.396-.213-.327-.442-.236-1.065,.205-1.394,.066-.049,1.632-1.198,3.598-1.198s3.531,1.149,3.598,1.198c.442,.33,.534,.956,.204,1.399Zm3.139-4.759c-.146,.408-.531,.661-.94,.661-.112,0-.228-.019-.339-.06l-4-1.442c-.52-.188-.789-.76-.602-1.279,.187-.521,.763-.791,1.279-.602l4,1.442c.52,.188,.789,.76,.602,1.279Z"/></svg>
