<?xml version="1.0" encoding="UTF-8"?>
<svg xmlns="http://www.w3.org/2000/svg" id="Layer_1" data-name="Layer 1" viewBox="0 0 24 24" width="512" height="512"><path d="m18.586,23h-4.172l-6-6h4.172l6,6Zm2.914-6h-6.086l6,6h.086c1.378,0,2.5-1.122,2.5-2.5v-1c0-1.378-1.122-2.5-2.5-2.5Zm-15.81.104c-2.735.418-5.128,1.987-5.243,2.063-.28.186-.447.499-.447.834s.169.648.449.833c.134.088,3.316,2.166,6.522,2.166h4.615l-5.896-5.896Zm14.31-3.104v-2.18c0-1.397-.744-2.711-1.942-3.43l-1.602-.961c-.898-.54-1.457-1.525-1.457-2.573v-1.856c0-.552-.448-1-1-1s-1,.448-1,1v1.856c0,1.746.93,3.389,2.427,4.288l1.602.961c.599.359.971,1.016.971,1.715v2.18c0,.552.448,1,1,1s1-.448,1-1Zm4-2v-1.735c0-1.746-.93-3.389-2.427-4.287l-2.087-1.252c-.299-.18-.485-.508-.485-.857V1c0-.552-.448-1-1-1s-1,.448-1,1v2.868c0,1.048.558,2.034,1.457,2.572l2.087,1.252c.898.539,1.457,1.524,1.457,2.572v1.735c0,.552.448,1,1,1s1-.448,1-1Z"/></svg>
