<?xml version="1.0" encoding="UTF-8"?>
<svg xmlns="http://www.w3.org/2000/svg" id="Layer_1" data-name="Layer 1" viewBox="0 0 24 24" width="512" height="512"><path d="M24,22c0,.552-.447,1-1,1h-5c-1.105,0-2-.895-2-2v-6c0-2.337-2.014-4.212-4.399-3.981-2.078,.202-3.601,2.07-3.601,4.158v5.822c0,1.105-.895,2-2,2H1c-.553,0-1-.448-1-1s.447-1,1-1h1V8H22v13h1c.553,0,1,.448,1,1ZM1.586,6H22.414l.885-.884c.692-.692,.896-1.724,.522-2.627-.375-.904-1.249-1.488-2.228-1.488H2.406C1.428,1,.554,1.584,.179,2.488-.195,3.392,.009,4.423,.701,5.116l.885,.884Z"/></svg>
