<?xml version="1.0" encoding="UTF-8"?>
<svg xmlns="http://www.w3.org/2000/svg" id="Layer_1" data-name="Layer 1" viewBox="0 0 24 24" width="512" height="512"><path d="M12,16h-3c-.55,0-1-.45-1-1v-3c0-2.21,1.79-4,4-4h3c.55,0,1,.45,1,1v3c0,2.21-1.79,4-4,4ZM10,1c0-.55-.45-1-1-1h-2c-.55,0-1,.45-1,1s.45,1,1,1h2c.55,0,1-.45,1-1ZM1,10c.55,0,1-.45,1-1v-2c0-.55-.45-1-1-1s-1,.45-1,1v2c0,.55,.45,1,1,1Zm-.16-6.06c.11,.04,.22,.06,.33,.06,.41,0,.8-.26,.94-.67,.2-.56,.66-1.02,1.22-1.22,.52-.18,.79-.75,.61-1.28C3.76,.32,3.19,.05,2.67,.23,1.52,.63,.63,1.52,.23,2.67c-.18,.52,.09,1.09,.61,1.28ZM17,22h-2c-.55,0-1,.45-1,1s.45,1,1,1h2c.55,0,1-.45,1-1s-.45-1-1-1Zm6-8c-.55,0-1,.45-1,1v2c0,.55,.45,1,1,1s1-.45,1-1v-2c0-.55-.45-1-1-1Zm.16,6.06c-.52-.18-1.09,.09-1.28,.61-.2,.56-.65,1.02-1.22,1.22-.52,.18-.79,.75-.61,1.28,.15,.41,.53,.67,.94,.67,.11,0,.22-.02,.33-.06,1.15-.4,2.04-1.29,2.44-2.44,.18-.52-.09-1.09-.61-1.28Zm-1.28-8.72c.14,.41,.53,.67,.94,.67,.11,0,.22-.02,.33-.06,.52-.18,.79-.75,.61-1.28-.56-1.6-2.08-2.67-3.77-2.67h-1c-.55,0-1,.45-1,1s.45,1,1,1h1c.85,0,1.6,.54,1.89,1.33ZM5,14h-1c-.85,0-1.6-.54-1.89-1.33-.18-.52-.76-.79-1.28-.61-.52,.18-.79,.76-.61,1.28,.56,1.6,2.08,2.67,3.77,2.67h1c.55,0,1-.45,1-1s-.45-1-1-1Zm6.33,7.89c-.8-.28-1.33-1.04-1.33-1.89v-1c0-.55-.45-1-1-1s-1,.45-1,1v1c0,1.69,1.07,3.21,2.67,3.77,.11,.04,.22,.06,.33,.06,.41,0,.8-.26,.94-.67,.18-.52-.09-1.09-.61-1.28ZM12.67,2.11c.8,.28,1.33,1.04,1.33,1.89v1c0,.55,.45,1,1,1s1-.45,1-1v-1c0-1.69-1.07-3.21-2.67-3.77-.52-.18-1.09,.09-1.28,.61-.18,.52,.09,1.09,.61,1.28Z"/></svg>
