<?xml version="1.0" encoding="UTF-8"?>
<svg xmlns="http://www.w3.org/2000/svg" id="Layer_1" data-name="Layer 1" viewBox="0 0 24 24" width="512" height="512"><path d="m19,0H5C2.243,0,0,2.243,0,5v14c0,2.757,2.243,5,5,5h14c2.757,0,5-2.243,5-5V5c0-2.757-2.243-5-5-5Zm-1.257,6.669l-3.989,4.433,4.087,6.358c.299.464.164,1.083-.3,1.382-.168.107-.354.159-.54.159-.329,0-.651-.162-.842-.459l-4.205-6.541h-3.955v6c0,.552-.447,1-1,1s-1-.448-1-1V6c0-.552.447-1,1-1s1,.448,1,1v4h4.055l4.202-4.669c.369-.41,1.002-.443,1.412-.074s.443,1.001.074,1.412Z"/></svg>
