<?xml version="1.0" encoding="UTF-8"?>
<svg xmlns="http://www.w3.org/2000/svg" id="Layer_1" data-name="Layer 1" viewBox="0 0 24 24" width="512" height="512"><path d="M19.308,23.981H4.692C2.206,23.981,.148,22.124,.008,19.752c-.139-2.339,1.502-4.365,3.817-4.714,1.045-1.904,3.038-3.058,5.175-3.058,.966,0,1.893,.231,2.756,.687,.155,.081,.333,.082,.488,0,.863-.455,1.79-.686,2.756-.686,2.137,0,4.129,1.154,5.198,3.011l-.008,.049c2.307,.355,3.94,2.378,3.802,4.711-.14,2.371-2.198,4.229-4.684,4.229ZM9,9.981c1.04,0,2.046,.199,3,.594,.954-.395,1.96-.594,3-.594,1.32,0,2.595,.334,3.728,.933,.173-.609,.272-1.25,.272-1.914-.009-4.167-3.895-6.945-4.675-7.458L12.868,.169c-.503-.331-1.187-.161-1.464,.374-.214,.414-.404,1.317-.404,1.753,0,1.5,1,1.954,1,2.954,0,.828-.462,1.75-1.741,1.75s-1.759-.922-1.759-1.75c0-.454,.194-.727,.194-.973,0-.438-.355-.792-.793-.792-.156,0-.294,.057-.417,.135,0,0-2.485,1.5-2.485,5.38,0,.667,.099,1.309,.273,1.92,1.127-.603,2.401-.939,3.727-.939Z"/></svg>
