<?xml version="1.0" encoding="UTF-8"?>
<svg xmlns="http://www.w3.org/2000/svg" id="Layer_1" data-name="Layer 1" viewBox="0 0 24 24" width="512" height="512"><path d="M21.71,17.71l-1.29,1.3,1.29,1.28c.39,.39,.39,1.02,0,1.41-.2,.2-.45,.29-.71,.29s-.51-.1-.71-.29l-1.29-1.28-1.27,1.28c-.2,.2-.45,.29-.71,.29s-.51-.1-.71-.29c-.39-.39-.39-1.02,0-1.41l1.27-1.28-1.29-1.28c-.39-.39-.39-1.02,0-1.41,.39-.39,1.02-.39,1.41,0l1.29,1.28,1.29-1.3c.39-.39,1.02-.39,1.41,0s.39,1.02,0,1.41Zm-2.71-14.71h-6.53c-.15,0-.31-.04-.45-.11l-3.16-1.58c-.41-.21-.88-.32-1.34-.32h-2.53C2.24,1,0,3.24,0,6v1H23.9c-.46-2.28-2.48-4-4.9-4Zm-6,16c0-3.31,2.69-6,6-6,2.09,0,3.93,1.07,5,2.68v-6.68H0v9c0,2.76,2.24,5,5,5H14.53c-.95-1.06-1.53-2.46-1.53-4Z"/></svg>
