<?xml version="1.0" encoding="UTF-8"?>
<svg xmlns="http://www.w3.org/2000/svg" id="Layer_1" data-name="Layer 1" viewBox="0 0 24 24">
  <path d="m13.571,23.999c-1.94,0-2.843-1.174-3.64-2.21-.58-.754-1.18-1.534-2.257-2.092-.983-.509-2.23-.603-3.437-.694-1.788-.135-4.238-.319-4.238-2.813,0-1.4.836-2.387,1.574-3.257.664-.784,1.292-1.523,1.435-2.569.116-.85-.446-2.042-.989-3.194-.844-1.788-1.894-4.013-.048-5.397,1.474-1.107,3.309-.359,5.082.364,1.175.478,2.397.976,3.337.869,1.066-.117,2.246-.895,3.286-1.581,1.356-.895,2.64-1.735,3.897-1.319,1.443.481,1.512,2.462,1.585,4.559.035.995.094,2.66.398,3.005.3.337.811.72,1.352,1.125,1.377,1.032,3.091,2.316,3.091,4.251,0,1.899-2.245,2.655-4.226,3.321-.855.288-2.027.682-2.308,1.003-.304.349-.626,1.474-.885,2.378-.599,2.089-1.217,4.25-3.011,4.25Z"/>
</svg>
