<?xml version="1.0" encoding="UTF-8"?>
<svg xmlns="http://www.w3.org/2000/svg" id="Layer_1" data-name="Layer 1" viewBox="0 0 24 24" width="512" height="512"><path d="M12,0C5.383,0,0,5.383,0,12s5.383,12,12,12,12-5.383,12-12S18.617,0,12,0ZM5.999,9c-.218,0-.438-.071-.622-.218-.432-.345-.503-.974-.159-1.405,.91-1.143,2.308-2.065,3.56-2.352,.531-.126,1.074,.212,1.197,.752,.123,.538-.213,1.074-.752,1.197-.812,.186-1.815,.864-2.44,1.648-.197,.248-.489,.377-.783,.377Zm2.501,4c-.828,0-1.5-.672-1.5-1.5s.672-1.5,1.5-1.5,1.5,.672,1.5,1.5-.672,1.5-1.5,1.5Zm3.5,7c-1.105,0-2-.895-2-2s.895-2,2-2,2,.895,2,2-.895,2-2,2Zm3.5-7c-.828,0-1.5-.672-1.5-1.5s.672-1.5,1.5-1.5,1.5,.672,1.5,1.5-.672,1.5-1.5,1.5Zm3.123-4.218c-.184,.146-.404,.218-.622,.218-.294,0-.586-.129-.783-.377-.625-.784-1.629-1.463-2.44-1.648-.539-.123-.875-.659-.752-1.197,.123-.54,.666-.878,1.197-.752,1.252,.286,2.649,1.209,3.56,2.352,.344,.432,.272,1.061-.159,1.405Z"/></svg>
