<?xml version="1.0" encoding="UTF-8"?>
<svg xmlns="http://www.w3.org/2000/svg" id="Layer_1" data-name="Layer 1" viewBox="0 0 24 24">
  <path d="m13.27,7.48L20.077.673c.897-.897,2.353-.897,3.25,0s.897,2.353,0,3.25l-6.807,6.807c-.813.813-1.915,1.27-3.065,1.27h-1.455v-1.455c0-1.15.457-2.252,1.27-3.065Zm7.477,1.852l-2.813,2.813c-1.188,1.188-2.798,1.855-4.478,1.855h-2.455c-.552,0-1-.448-1-1v-2.455c0-.529.072-1.045.197-1.545h-5.197c-2.761,0-5,2.239-5,5v4c0,2.761,2.239,5,5,5h14c2.761,0,5-2.239,5-5v-4c0-2.14-1.359-3.956-3.254-4.668Zm-15.246,8.625c-.828,0-1.5-.672-1.5-1.5s.672-1.5,1.5-1.5,1.5.672,1.5,1.5-.672,1.5-1.5,1.5Zm5,0c-.828,0-1.5-.672-1.5-1.5s.672-1.5,1.5-1.5,1.5.672,1.5,1.5-.672,1.5-1.5,1.5Z"/>
</svg>
