<?xml version="1.0" encoding="UTF-8"?>
<svg xmlns="http://www.w3.org/2000/svg" id="Layer_1" data-name="Layer 1" viewBox="0 0 24 24" width="512" height="512"><path d="m13.698.225C12.583-.054,11.417-.054,10.302.225l-4.715,1.34c-.939.267-1.587,1.125-1.587,2.101h0c0,.827.467,1.584,1.207,1.954l.793.396h0s2,1,6,1,6-1,6-1h0l.793-.396c.74-.37,1.207-1.126,1.207-1.954h0c0-.976-.648-1.834-1.587-2.101L13.698.225Zm-2.212,5.145l-1.643-.985c-.474-.284-.627-.899-.343-1.372h0c.284-.473.898-.627,1.372-.343l1.128.677,1.128-.677c.474-.284,1.088-.131,1.372.343h0c.284.474.131,1.088-.343,1.372l-1.643.985c-.317.19-.712.19-1.029,0Zm6.506,2.79c-.086,3.234-2.737,5.84-5.992,5.84s-5.906-2.606-5.992-5.84c1.064.36,3.046.856,5.992.856s4.928-.496,5.992-.856Zm3,14.716c.036.284-.053.57-.243.786-.189.215-.463.338-.75.338h-5.615c-.333,0-.405-.382-.405-.382l-1.48-5.618,1.72-2.736c3.617.845,6.287,3.734,6.772,7.612Zm-11.454,1.124h-5.538c-.287,0-.56-.123-.75-.338-.19-.216-.278-.502-.243-.786.485-3.878,3.155-6.767,6.772-7.612l1.72,2.736-1.557,5.618s-.072.382-.405.382Z"/></svg>
