<?xml version="1.0" encoding="UTF-8"?>
<svg xmlns="http://www.w3.org/2000/svg" id="Layer_1" data-name="Layer 1" viewBox="0 0 24 24" width="512" height="512"><path d="M11.971,0C5.354,0-.029,5.383-.029,12s5.383,12,12,12,12-5.383,12-12S18.588,0,11.971,0Zm2.025,5.777c.124-.539,.661-.878,1.198-.752,1.252,.286,2.649,1.209,3.559,2.352,.344,.432,.273,1.061-.159,1.405-.184,.146-.404,.218-.623,.218-.294,0-.585-.129-.783-.377-.625-.784-1.629-1.463-2.441-1.648-.539-.123-.875-.659-.751-1.197Zm-8.808,1.6c.91-1.143,2.307-2.065,3.559-2.352,.541-.127,1.075,.214,1.198,.752,.124,.538-.213,1.074-.751,1.197-.812,.186-1.816,.864-2.441,1.648-.198,.248-.489,.377-.783,.377-.219,0-.438-.071-.623-.218-.432-.345-.503-.974-.159-1.405Zm.047,4.269c-.356-.421-.304-1.052,.118-1.409,.422-.355,1.052-.305,1.41,.118,.358,.424,.755,.64,1.179,.643h.007c.451,0,.946-.25,1.294-.652,.362-.415,.994-.463,1.411-.101,.417,.361,.462,.993,.101,1.411-.729,.841-1.777,1.342-2.807,1.342h-.019c-.711-.005-1.756-.242-2.694-1.352Zm12.43,5.101c-.103,.092-2.559,2.254-5.666,2.254s-5.563-2.162-5.666-2.254c-.412-.368-.448-1-.08-1.412,.367-.411,1-.448,1.411-.081,.048,.042,2.021,1.747,4.335,1.747,2.331,0,4.316-1.73,4.336-1.747,.414-.366,1.045-.328,1.411,.084,.366,.412,.331,1.042-.081,1.409Zm1.09-5.091c-.729,.841-1.777,1.342-2.807,1.342h-.019c-.711-.005-1.756-.242-2.694-1.352-.356-.421-.304-1.052,.118-1.409,.422-.355,1.053-.305,1.41,.118,.358,.424,.755,.64,1.179,.643h.007c.451,0,.946-.25,1.294-.652,.361-.415,.994-.463,1.411-.101,.417,.361,.462,.993,.101,1.411Z"/></svg>
