<?xml version="1.0" encoding="UTF-8"?>
<svg xmlns="http://www.w3.org/2000/svg" id="Layer_1" data-name="Layer 1" viewBox="0 0 24 24">
  <path d="m20,22.5c0,.828-.672,1.5-1.5,1.5s-1.5-.672-1.5-1.5.672-1.5,1.5-1.5,1.5.672,1.5,1.5Zm-15.5-1.5c-.828,0-1.5.672-1.5,1.5s.672,1.5,1.5,1.5,1.5-.672,1.5-1.5-.672-1.5-1.5-1.5Zm11.5-1.5c0-.679-.454-1.246-1.072-1.431.299-.566.231-1.275-.246-1.751-.477-.477-1.185-.545-1.751-.246-.185-.619-.752-1.073-1.431-1.073s-1.246.454-1.431,1.073c-.566-.299-1.274-.231-1.751.246-.477.476-.545,1.185-.246,1.751-.619.185-1.072.752-1.072,1.431s.454,1.246,1.072,1.431c-.299.566-.231,1.275.246,1.751.293.293.677.439,1.061.439.241,0,.472-.078.69-.194.185.619.752,1.073,1.431,1.073s1.246-.454,1.431-1.073c.218.115.45.194.69.194.384,0,.768-.146,1.061-.439.477-.476.545-1.185.246-1.751.619-.185,1.072-.752,1.072-1.431Zm1.974-14.354c-.332-.066-.603-.274-.742-.569C15.681,1.306,12.089-.519,8.497.137,5.226.736,2.66,3.349,2.113,6.639c-.162.97-.15,1.942.033,2.89.06.308-.072.653-.345.901-1.145,1.041-1.801,2.524-1.801,4.07,0,2.879,2.224,5.244,5.044,5.477-.021-.157-.044-.314-.044-.477,0-.893.331-1.715.896-2.339.045-.833.389-1.638,1.009-2.257.619-.619,1.423-.962,2.255-1.008.624-.564,1.447-.896,2.34-.896s1.716.331,2.34.896c.832.045,1.636.389,2.255,1.009.62.619.964,1.424,1.009,2.256.564.624.896,1.447.896,2.339,0,.121-.021.236-.033.354,3.435-.684,6.033-3.72,6.033-7.354,0-3.565-2.534-6.658-6.026-7.354Z"/>
</svg>
