<?xml version="1.0" encoding="UTF-8"?>
<svg xmlns="http://www.w3.org/2000/svg" id="Layer_1" data-name="Layer 1" viewBox="0 0 24 24" width="512" height="512"><path d="m19,0H5C2.243,0,0,2.243,0,5v14c0,2.757,2.243,5,5,5h14c2.757,0,5-2.243,5-5V5c0-2.757-2.243-5-5-5ZM7.443,11.162c-.146.411-.531.667-.943.667-.11,0-.223-.019-.333-.058-1.596-.563-2.667-2.08-2.667-3.772,0-2.206,1.794-4,4-4,1.424,0,2.751.766,3.465,2,.276.478.112,1.09-.365,1.366-.481.276-1.091.112-1.367-.365-.356-.617-1.021-1-1.732-1-1.103,0-2,.897-2,2,0,.847.536,1.604,1.333,1.886.521.184.794.755.61,1.276Zm-.247-2.064c-.438-.334-.523-.962-.189-1.401.336-.439.961-.525,1.402-.189l3.591,2.735,3.591-2.735c.441-.335,1.067-.25,1.402.189.334.439.249,1.067-.189,1.401l-3.804,2.897v4.004c0,.552-.447,1-1,1s-1-.448-1-1v-4.005l-3.804-2.897Zm7.632,9.73c-.755.755-1.76,1.171-2.828,1.171s-2.073-.416-2.828-1.172c-.913-.912-1.33-2.218-1.116-3.494.038-.226.096-.45.172-.667.185-.521.753-.794,1.276-.61.521.184.794.755.61,1.276-.039.108-.067.219-.086.332-.107.639.101,1.292.558,1.749.756.757,2.072.756,2.828,0,.542-.542.727-1.358.472-2.082-.184-.521.09-1.092.61-1.275.523-.184,1.092.089,1.276.61.51,1.446.139,3.079-.944,4.161Zm3.005-7.057c-.11.039-.223.058-.333.058-.412,0-.798-.257-.943-.667-.184-.521.09-1.092.61-1.276.797-.282,1.333-1.04,1.333-1.886,0-1.103-.897-2-2-2-.712,0-1.376.383-1.732,1-.277.478-.888.641-1.367.365-.478-.276-.642-.888-.365-1.366.714-1.233,2.041-2,3.465-2,2.206,0,4,1.794,4,4,0,1.692-1.071,3.208-2.667,3.772Z"/></svg>
