<?xml version="1.0" encoding="UTF-8"?>
<svg xmlns="http://www.w3.org/2000/svg" id="Layer_1" data-name="Layer 1" viewBox="0 0 24 24">
  <path d="m18,11v2c0,1.103-.897,2-2,2h-1s0-6,0-6h1c1.103,0,2,.897,2,2Zm6-4v10c0,2.757-2.243,5-5,5H5c-2.757,0-5-2.243-5-5V7C0,4.243,2.243,2,5,2h14c2.757,0,5,2.243,5,5Zm-13,1c0-.552-.448-1-1-1s-1,.448-1,1v3h-3v-3c0-.552-.448-1-1-1s-1,.448-1,1v8c0,.552.448,1,1,1s1-.448,1-1v-3h3v3c0,.552.448,1,1,1s1-.448,1-1v-8Zm9,3c0-2.206-1.794-4-4-4h-1c-1.103,0-2,.897-2,2v6c0,1.103.897,2,2,2h1c2.206,0,4-1.794,4-4v-2Z"/>
</svg>
