<?xml version="1.0" encoding="UTF-8"?>
<svg xmlns="http://www.w3.org/2000/svg" id="Layer_1" data-name="Layer 1" viewBox="0 0 24 24" width="512" height="512"><path d="m21,18c-.556,0-1.071.162-1.518.427l-3.017-2.82,4.93-4.607h1.606c.553,0,1-.447,1-1s-.447-1-1-1h-13.324c-1.34,0-2.584-.666-3.328-1.781L1.832.445C1.526-.015.906-.138.445.168-.015.475-.139,1.095.168,1.555l4.516,6.773c.887,1.329,2.25,2.223,3.779,2.538l5.073,4.741-3.017,2.82c-.447-.265-.962-.427-1.518-.427-1.654,0-3,1.346-3,3s1.346,3,3,3,3-1.346,3-3c0-.366-.075-.713-.196-1.037l3.196-2.987,3.196,2.987c-.121.325-.196.672-.196,1.038,0,1.654,1.346,3,3,3s3-1.346,3-3-1.346-3-3-3Zm-9.466-7h6.931l-3.466,3.239-3.466-3.239Z"/></svg>
