<?xml version="1.0" encoding="UTF-8"?>
<svg xmlns="http://www.w3.org/2000/svg" id="Layer_1" data-name="Layer 1" viewBox="0 0 24 24" width="512" height="512"><path d="m0,12v-4C0,5.243,2.243,3,5,3v-1c0-.553.448-1,1-1s1,.447,1,1v1h2.171c.267,0,.519-.104.708-.293l1.828-1.828c.566-.566,1.32-.879,2.122-.879h5.171c2.757,0,5,2.243,5,5v7h-6.09c-.478-2.833-2.942-5-5.91-5s-5.431,2.167-5.91,5H0Zm8,1c0,2.206,1.794,4,4,4s4-1.794,4-4-1.794-4-4-4-4,1.794-4,4Zm9.91,1c-.478,2.833-2.942,5-5.91,5s-5.431-2.167-5.91-5H0v5c0,2.757,2.243,5,5,5h14c2.757,0,5-2.243,5-5v-5h-6.09Z"/></svg>
