<?xml version="1.0" encoding="UTF-8"?>
<svg xmlns="http://www.w3.org/2000/svg" id="Layer_1" data-name="Layer 1" viewBox="0 0 24 24">
  <path d="m4,8.255l14.212,14.283s-.365.481-.975.885c-.673.447-1.521.576-2.333.576h-5.904c-2.757,0-5-2.243-5-5v-10.745Zm19.707,15.452c-.195.195-.451.293-.707.293s-.512-.098-.707-.293L.293,1.707C-.098,1.316-.098.684.293.293S1.316-.098,1.707.293l3.707,3.707h.591c.465-2.279,2.484-4,4.899-4h2c2.414,0,4.434,1.721,4.899,4h3.101c.552,0,1,.447,1,1s-.448,1-1,1h-1v12.49l3.803,3.803c.391.391.391,1.023,0,1.414ZM15.72,4c-.414-1.161-1.514-2-2.816-2h-2c-1.302,0-2.402.839-2.816,2h7.631Z"/>
</svg>
