<?xml version="1.0" encoding="UTF-8"?>
<svg xmlns="http://www.w3.org/2000/svg" id="Layer_1" data-name="Layer 1" viewBox="0 0 24 24" width="512" height="512"><path d="M23.71,22.29l-1.54-1.54c.52-.79,.84-1.73,.84-2.75V6c0-2.76-2.24-5-5-5H6c-1.02,0-1.96,.31-2.75,.84L1.71,.29C1.32-.1,.68-.1,.29,.29S-.1,1.32,.29,1.71L22.29,23.71c.2,.2,.45,.29,.71,.29s.51-.1,.71-.29c.39-.39,.39-1.02,0-1.41ZM14.33,4h3.67c1.1,0,2,.9,2,2v12c0,.18-.03,.35-.07,.51l-1.93-1.93V6h-3.67c-.26,0-.52,.11-.71,.29l-2.96,2.96-1.41-1.41,2.96-2.96c.57-.57,1.32-.88,2.12-.88Zm-.33,8.59v-1.59c0-.55,.45-1,1-1s1,.45,1,1v3c0,.18-.03,.35-.07,.51l-1.93-1.93ZM6,4h2c.4,0,.77,.24,.92,.62,.16,.37,.07,.8-.22,1.09l-.74,.85-2.48-2.48c.16-.04,.33-.07,.51-.07ZM15.82,20l2.92,2.92c-.24,.04-.49,.08-.74,.08H6c-2.76,0-5-2.24-5-5V6c0-.25,.04-.5,.08-.74l2.92,2.92v9.82c0,1.1,.9,2,2,2H15.82Zm-7.82-7.82v1.82c0,1.1,.9,2,2,2h1.82l2,2H6v-7.82l2,2Z"/></svg>
