<?xml version="1.0" encoding="UTF-8"?>
<svg xmlns="http://www.w3.org/2000/svg" id="Layer_1" data-name="Layer 1" viewBox="0 0 24 24" width="512" height="512"><path d="M24.002,22c0,1.183-1.027,2.126-2.238,1.986-1.024-.118-1.751-1.062-1.763-2.093-.018-1.512-.487-3.149-.919-3.94-.285-.521,.241-1.118,.797-.911,1.751,.652,4.123,2.484,4.123,4.958Zm-5.957,.353c-1.777,1.04-3.838,1.646-6.046,1.646C5.373,24,0,18.627,0,12S5.373,0,12,0s12,5.373,12,12c0,1.628-.327,3.178-.915,4.594-.789-.622-1.658-1.109-2.508-1.425-1.048-.391-2.196-.095-2.928,.751-.729,.843-.855,2.018-.323,2.991,.274,.503,.661,1.827,.675,3.007,.002,.149,.028,.291,.044,.436Zm-4.78-10.708c.938,1.108,1.982,1.346,2.693,1.351h.02c1.029,0,2.077-.5,2.807-1.341,.361-.417,.316-1.049-.101-1.411-.418-.361-1.048-.318-1.411,.1-.349,.402-.845,.652-1.295,.652h-.007c-.424-.002-.82-.219-1.179-.643-.357-.421-.986-.475-1.41-.117-.421,.356-.474,.988-.117,1.409Zm-5.287,1.351c1.029,0,2.077-.5,2.807-1.341,.361-.417,.316-1.049-.101-1.411-.417-.361-1.048-.318-1.411,.1-.351,.404-.854,.69-1.302,.652-.424-.002-.82-.219-1.179-.643-.357-.421-.986-.475-1.41-.117-.421,.356-.474,.988-.117,1.409,.938,1.108,1.982,1.346,2.693,1.351h.02Zm7.619,4.201c-.066-.049-1.632-1.198-3.598-1.198s-3.531,1.149-3.598,1.198c-.441,.329-.532,.951-.205,1.395,.325,.441,.948,.538,1.396,.212,.011-.008,1.117-.805,2.406-.805s2.396,.797,2.402,.802c.18,.133,.39,.198,.597,.198,.306,0,.606-.139,.803-.403,.33-.443,.238-1.069-.204-1.399Z"/></svg>
