<?xml version="1.0" encoding="UTF-8"?>
<svg xmlns="http://www.w3.org/2000/svg" id="Layer_1" data-name="Layer 1" viewBox="0 0 24 24" width="512" height="512"><path d="M19.778,3.222C17.7,1.145,14.938,0,12,0S6.299,1.145,4.222,3.222c-2.078,2.077-3.222,4.839-3.222,7.778s1.144,5.7,3.25,7.805l3.943,3.643c1.023,1.001,2.375,1.552,3.807,1.552s2.784-.551,3.787-1.533l3.992-3.689c2.078-2.078,3.222-4.84,3.222-7.778s-1.145-5.701-3.222-7.778Zm-5.278,3.778c.828,0,1.5,.672,1.5,1.5s-.672,1.5-1.5,1.5-1.5-.672-1.5-1.5,.672-1.5,1.5-1.5Zm-5,0c.828,0,1.5,.672,1.5,1.5s-.672,1.5-1.5,1.5-1.5-.672-1.5-1.5,.672-1.5,1.5-1.5Zm7.207,6.05c-1.257,1.257-2.929,1.95-4.707,1.95s-3.45-.692-4.707-1.95c-.391-.391-.391-1.023,0-1.414s1.023-.391,1.414,0c.879,.879,2.049,1.364,3.293,1.364s2.414-.484,3.293-1.364c.391-.391,1.023-.391,1.414,0s.391,1.023,0,1.414Z"/></svg>
