<?xml version="1.0" encoding="UTF-8"?>
<svg xmlns="http://www.w3.org/2000/svg" id="Layer_1" data-name="Layer 1" viewBox="0 0 24 24">
  <path d="m1,7c-.552,0-1-.447-1-1v-1C0,2.243,2.243,0,5,0h1c.552,0,1,.447,1,1s-.448,1-1,1h-1c-1.654,0-3,1.346-3,3v1c0,.553-.448,1-1,1Zm1,7v-4c0-.553-.448-1-1-1s-1,.447-1,1v4c0,.553.448,1,1,1s1-.447,1-1Zm5,9c0-.553-.448-1-1-1h-1c-1.654,0-3-1.346-3-3v-1c0-.553-.448-1-1-1s-1,.447-1,1v1c0,2.757,2.243,5,5,5h1c.552,0,1-.447,1-1Zm17-4v-1c0-.553-.448-1-1-1s-1,.447-1,1v1c0,1.654-1.346,3-3,3h-1c-.552,0-1,.447-1,1s.448,1,1,1h1c2.757,0,5-2.243,5-5Zm0-5v-4c0-.553-.448-1-1-1s-1,.447-1,1v4c0,.553.448,1,1,1s1-.447,1-1Zm0-8v-1c0-2.757-2.243-5-5-5h-1c-.552,0-1,.447-1,1s.448,1,1,1h1c1.654,0,3,1.346,3,3v1c0,.553.448,1,1,1s1-.447,1-1ZM15,1c0-.553-.448-1-1-1h-4c-.552,0-1,.447-1,1s.448,1,1,1h4c.552,0,1-.447,1-1Zm0,22c0-.553-.448-1-1-1h-4c-.552,0-1,.447-1,1s.448,1,1,1h4c.552,0,1-.447,1-1Z"/>
</svg>
