<?xml version="1.0" encoding="UTF-8"?>
<svg xmlns="http://www.w3.org/2000/svg" id="Layer_1" data-name="Layer 1" viewBox="0 0 24 24" width="512" height="512"><path d="m18,24h-9c-2.404,0-4.664-.937-6.364-2.636C.936,19.664,0,17.403,0,15v-6c0-.553.448-1,1-1s1,.447,1,1v6c0,1.87.728,3.628,2.05,4.949,1.322,1.322,3.081,2.051,4.95,2.051h9c.552,0,1,.447,1,1s-.448,1-1,1Zm3-13c0,1.103.897,2,2,2,.552,0,1,.447,1,1v1c0,2.757-2.243,5-5,5h-10c-2.757,0-5-2.243-5-5V7c0-2.757,2.243-5,5-5h10c2.757,0,5,2.243,5,5v1c0,.553-.448,1-1,1-1.103,0-2,.897-2,2Zm-4,0c0-.552-.448-1-1-1h-1.5l-1.929-2.421c-.195-.357-.569-.579-.975-.579h-.117c-.383,0-.646.386-.505.742l.891,2.258h-1.423l-1.11-.772c-.146-.146-.345-.228-.551-.228-.599,0-.974.647-.677,1.167l1.096,1.3c.285.338.705.533,1.147.533h1.501l-.879,2.26c-.138.356.124.74.506.74h.138c.407,0,.781-.222.975-.579l1.911-2.421h1.5c.552,0,1-.448,1-1Z"/></svg>
