<?xml version="1.0" encoding="UTF-8"?>
<svg xmlns="http://www.w3.org/2000/svg" id="Layer_1" data-name="Layer 1" viewBox="0 0 24 24" width="512" height="512"><path d="M7.491,9.099L12.034,.914c.348-.688,1.141-1.087,1.876-.853,.936,.298,1.347,1.34,.922,2.184l-4.254,7.755c-.085-.073-.158-.158-.25-.225-.831-.599-1.851-.809-2.837-.676Zm8.009-1.105c-.828,0-1.5,.672-1.5,1.5v4c0,.828,.672,1.5,1.5,1.5s1.5-.672,1.5-1.5v-4c0-.828-.672-1.5-1.5-1.5Zm4,0c-.828,0-1.5,.672-1.5,1.5v4c0,.828,.672,1.5,1.5,1.5s1.5-.672,1.5-1.5v-4c0-.828-.672-1.5-1.5-1.5ZM7.077,5.727l1.775-3.201-.891-1.612C7.613,.226,6.82-.173,6.086,.061c-.936,.298-1.347,1.34-.922,2.179l1.914,3.488Zm12.423,11.278c-.743,0-1.433-.233-2-.63-.01,.007-.021,.002-.031,.008-.562,.384-1.239,.61-1.969,.61-1.93,0-3.5-1.57-3.5-3.5v-.477c-.008,1.045-.425,2.048-1.172,2.795l-2.94,2.854s-.009,.014-.012,.017c-.005,.005-.011,.006-.015,.01l-.006,.005s-.002,0-.004,0c-.392,.369-1.005,.367-1.389-.017-.39-.39-.39-1.023,0-1.414l2.952-2.866h0s0,0,0,0c.859-.859,.773-2.304-.256-3.046-.808-.582-1.941-.412-2.646,.291l-3.309,3.218c-1.602,1.598-1.604,4.192-.004,5.792l1.589,1.589c1.125,1.125,2.651,1.757,4.243,1.757h6.969c2.761,0,5-2.239,5-5v-2.338c-.455,.217-.964,.338-1.5,.338Z"/></svg>
