<?xml version="1.0" encoding="UTF-8"?>
<svg xmlns="http://www.w3.org/2000/svg" id="Layer_1" data-name="Layer 1" viewBox="0 0 24 24" width="512" height="512"><path d="M18.88,10.06c.69-.65,1.12-1.56,1.12-2.56,0-1.93-1.57-3.5-3.5-3.5-.53,0-1.04,.13-1.5,.35V2c.55,0,1-.45,1-1s-.45-1-1-1h-6c-.55,0-1,.45-1,1s.45,1,1,1V6.93c0,.33-.17,.65-.45,.83l-3.33,2.22c-1.07,.71-1.8,1.8-2.09,3.02h12.86c.55,0,1,.45,1,1s-.45,1-1,1H3v4c0,2.76,2.24,5,5,5h8c2.76,0,5-2.24,5-5v-4.86c0-1.63-.79-3.15-2.12-4.08Zm-1.79-1.2l-1.64-1.1c-.21-.14-.35-.34-.41-.58,.15-.69,.76-1.19,1.47-1.19,.83,0,1.5,.67,1.5,1.5,0,.6-.38,1.12-.91,1.36Z"/></svg>
