<?xml version="1.0" encoding="UTF-8"?>
<svg xmlns="http://www.w3.org/2000/svg" id="Layer_1" data-name="Layer 1" viewBox="0 0 24 24" width="512" height="512"><path d="m20,0H4C1.794,0,0,1.794,0,4v12c0,2.206,1.794,4,4,4h2.923l3.749,3.156c.382.34.861.509,1.337.508.468,0,.931-.162,1.292-.484l3.847-3.18h2.853c2.206,0,4-1.794,4-4V4c0-2.206-1.794-4-4-4Zm-9,11c0,2.206-1.794,4-4,4-.553,0-1-.447-1-1s.447-1,1-1c1.103,0,2-.897,2-2h-1.5c-.828,0-1.5-.672-1.5-1.5v-1.5c0-1.105.895-2,2-2h1.5c.828,0,1.5.672,1.5,1.5v3.5Zm7,0c0,2.206-1.794,4-4,4-.553,0-1-.447-1-1s.447-1,1-1c1.103,0,2-.897,2-2h-1.5c-.828,0-1.5-.672-1.5-1.5v-1.5c0-1.105.895-2,2-2h1.5c.828,0,1.5.672,1.5,1.5v3.5Z"/></svg>
