<?xml version="1.0" encoding="UTF-8"?>
<svg xmlns="http://www.w3.org/2000/svg" id="Layer_1" data-name="Layer 1" viewBox="0 0 24 24" width="512" height="512"><path d="M19.8,4.42C17.36,1.16,13.49-.45,9.45,.11,4.46,.79,.5,4.95,.05,9.98c-.25,2.77,.54,5.5,2.21,7.69,.48,.62,.74,1.46,.74,2.36v.97c0,1.65,1.35,3,3,3h7c1.65,0,3-1.35,3-3h.49c2.5,0,4.63-1.87,4.96-4.34l.22-1.66h.33c1.3,0,2-1.03,2-2,0-1.42-2.93-7.01-4.2-8.58Zm-4.94,5.58h1.14c.55,0,1,.45,1,1h0c0,.55-.45,1-1,1h-1.14c-.09,.36-.24,.7-.42,1.02l.99,.99s.05,0,.08,0c.83,0,1.5,.67,1.5,1.5s-.67,1.5-1.5,1.5-1.5-.67-1.5-1.5c0-.03,0-.05,0-.08l-.99-.99c-.32,.19-.66,.33-1.02,.42v1.14c0,.55-.45,1-1,1h0c-.55,0-1-.45-1-1v-1.14c-.36-.09-.7-.24-1.02-.42l-.99,.99s0,.05,0,.08c0,.83-.67,1.5-1.5,1.5s-1.5-.67-1.5-1.5,.67-1.5,1.5-1.5c.03,0,.05,0,.08,0l.99-.99c-.19-.32-.33-.66-.42-1.02h-1.14c-.55,0-1-.45-1-1h0c0-.55,.45-1,1-1h1.14c.09-.36,.24-.7,.42-1.02l-.99-.99s-.05,0-.08,0c-.83,0-1.5-.67-1.5-1.5s.67-1.5,1.5-1.5,1.5,.67,1.5,1.5c0,.03,0,.05,0,.08l.99,.99c.32-.19,.66-.33,1.02-.42v-1.14c0-.55,.45-1,1-1h0c.55,0,1,.45,1,1v1.14c.36,.09,.7,.24,1.02,.42l.99-.99s0-.05,0-.08c0-.83,.67-1.5,1.5-1.5s1.5,.67,1.5,1.5-.67,1.5-1.5,1.5c-.03,0-.05,0-.08,0l-.99,.99c.19,.32,.33,.66,.42,1.02Zm-5.86,1c0-1.1,.9-2,2-2s2,.9,2,2-.9,2-2,2-2-.9-2-2Z"/></svg>
