<?xml version="1.0" encoding="UTF-8"?>
<svg xmlns="http://www.w3.org/2000/svg" id="Layer_1" data-name="Layer 1" viewBox="0 0 24 24" width="512" height="512"><path d="M20,5.101v-.101c0-2.757-2.243-5-5-5h-6c-2.757,0-5,2.243-5,5v4.101c-2.279,.465-4,2.484-4,4.899v5c0,2.757,2.243,5,5,5h14c2.757,0,5-2.243,5-5V10c0-2.415-1.721-4.435-4-4.899ZM5,19h-1c-.552,0-1-.447-1-1s.448-1,1-1h1c.552,0,1,.447,1,1s-.448,1-1,1Zm0-4h-1c-.552,0-1-.447-1-1s.448-1,1-1h1c.552,0,1,.447,1,1s-.448,1-1,1Zm5,4h-1c-.552,0-1-.447-1-1s.448-1,1-1h1c.552,0,1,.447,1,1s-.448,1-1,1Zm0-4h-1c-.552,0-1-.447-1-1s.448-1,1-1h1c.552,0,1,.447,1,1s-.448,1-1,1Zm0-4h-1c-.552,0-1-.447-1-1s.448-1,1-1h1c.552,0,1,.447,1,1s-.448,1-1,1Zm0-4h-1c-.552,0-1-.447-1-1s.448-1,1-1h1c.552,0,1,.447,1,1s-.448,1-1,1Zm5,12h-1c-.552,0-1-.447-1-1s.448-1,1-1h1c.552,0,1,.447,1,1s-.448,1-1,1Zm0-4h-1c-.552,0-1-.447-1-1s.448-1,1-1h1c.552,0,1,.447,1,1s-.448,1-1,1Zm0-4h-1c-.552,0-1-.447-1-1s.448-1,1-1h1c.552,0,1,.447,1,1s-.448,1-1,1Zm0-4h-1c-.552,0-1-.447-1-1s.448-1,1-1h1c.552,0,1,.447,1,1s-.448,1-1,1Zm5,12h-1c-.552,0-1-.447-1-1s.448-1,1-1h1c.552,0,1,.447,1,1s-.448,1-1,1Zm0-4h-1c-.552,0-1-.447-1-1s.448-1,1-1h1c.552,0,1,.447,1,1s-.448,1-1,1Zm0-4h-1c-.552,0-1-.447-1-1s.448-1,1-1h1c.552,0,1,.447,1,1s-.448,1-1,1Z"/></svg>
