<?xml version="1.0" encoding="UTF-8"?>
<svg xmlns="http://www.w3.org/2000/svg" id="Layer_1" data-name="Layer 1" viewBox="0 0 24 24" width="512" height="512"><path d="m12,13h-4c-1.103,0-2-.897-2-2v-2c0-1.103.897-2,2-2h4c1.103,0,2,.897,2,2v2c0,1.103-.897,2-2,2Zm12,8c0,1.657-1.343,3-3,3-1.306,0-2.416-.835-2.828-2H5.828c-.412,1.165-1.522,2-2.828,2-1.657,0-3-1.343-3-3,0-1.306.835-2.416,2-2.828V5.828c-1.165-.412-2-1.522-2-2.828C0,1.343,1.343,0,3,0c1.306,0,2.416.835,2.828,2h12.344c.412-1.165,1.522-2,2.828-2,1.657,0,3,1.343,3,3,0,1.306-.835,2.416-2,2.828v12.344c1.165.412,2,1.522,2,2.828Zm-20.013-2.833s0-.004-.002,0c0,0,.001,0,.002,0ZM20,5.828c-.852-.301-1.527-.976-1.828-1.828H5.828c-.301.852-.976,1.527-1.828,1.828v12.344c.852.301,1.527.976,1.828,1.828h12.344c.301-.852.976-1.527,1.828-1.828V5.828Zm-3,5.172c-.552,0-1,.447-1,1,0,1.657-1.343,3-3,3h-2c-.552,0-1,.447-1,1s.448,1,1,1h5c1.105,0,2-.895,2-2v-3c0-.553-.448-1-1-1Z"/></svg>
