<?xml version="1.0" encoding="UTF-8"?>
<svg xmlns="http://www.w3.org/2000/svg" id="Layer_1" data-name="Layer 1" viewBox="0 0 24 24" width="512" height="512"><path d="M14,7V.46c.91,.35,1.75,.88,2.46,1.59l3.48,3.49c.71,.71,1.24,1.55,1.59,2.46h-6.54c-.55,0-1-.45-1-1Zm1.5,7h-7c-.28,0-.5,.22-.5,.5v3c0,.28,.22,.5,.5,.5h7c.28,0,.5-.22,.5-.5v-3c0-.28-.22-.5-.5-.5Zm6.5-3.51v8.51c0,2.76-2.24,5-5,5H7c-2.76,0-5-2.24-5-5V5C2,2.24,4.24,0,7,0h4.51c.16,0,.32,.01,.49,.02V7c0,1.65,1.35,3,3,3h6.98c.01,.16,.02,.32,.02,.49Zm-16-1.49c0,.55,.45,1,1,1h2c.55,0,1-.45,1-1s-.45-1-1-1h-2c-.55,0-1,.45-1,1Zm12,5.5c0-1.38-1.12-2.5-2.5-2.5h-7c-1.38,0-2.5,1.12-2.5,2.5v3c0,1.38,1.12,2.5,2.5,2.5h7c1.38,0,2.5-1.12,2.5-2.5v-3Z"/></svg>
