<?xml version="1.0" encoding="UTF-8"?>
<svg xmlns="http://www.w3.org/2000/svg" id="Layer_1" data-name="Layer 1" viewBox="0 0 24 24" width="512" height="512"><path d="m17.501,12c-.425-1.189-1.086-2.261-1.931-3.156l1.532-1.532c1.267.986,2.835,1.597,4.543,1.673.105.036.212.066.329.066.566,0,1.026-.459,1.026-1.026,0-.557-.446-1.006-1-1.02v-.005c-3.252,0-5.893-2.589-5.991-5.817.015-.069.042-.134.042-.208,0-.566-.459-1.026-1.026-1.026s-1.026.459-1.026,1.026c0,.009.005.017.005.026h-.005c0,1.846.634,3.542,1.688,4.898l-1.652,1.652c-1.184-.798-2.559-1.324-4.036-1.489v-1.061c0-.552-.448-1-1-1s-1,.448-1,1v1.059C3.507,6.56,0,10.39,0,15.029v3.471c0,2.485,2.015,4.5,4.5,4.5h5.5v-5c0-3.314,2.686-6,6-6h1.501Zm-12.501,7h-1c-.552,0-1-.448-1-1v-1c0-.552.448-1,1-1h1c.552,0,1,.448,1,1v1c0,.552-.448,1-1,1Zm19-1v1c0,2.209-1.791,4-4,4h-8v-5c0-2.209,1.791-4,4-4h4c2.209,0,4,1.791,4,4Z"/></svg>
