<?xml version="1.0" encoding="UTF-8"?>
<svg xmlns="http://www.w3.org/2000/svg" id="Layer_1" data-name="Layer 1" viewBox="0 0 24 24" width="512" height="512"><path d="m12,2.897C7.038,2.897,3,6.935,3,11.897s4.038,9,9,9,9-4.037,9-9S16.962,2.897,12,2.897Zm2.707,11.81c-.195.195-.451.293-.707.293s-.512-.098-.707-.293l-2-2c-.188-.188-.293-.442-.293-.707v-4c0-.552.448-1,1-1s1,.448,1,1v3.586l1.707,1.707c.391.391.391,1.023,0,1.414ZM6,2.785v-1.785c0-.552.448-1,1-1h10c.552,0,1,.448,1,1v1.785c-1.727-1.128-3.788-1.785-6-1.785s-4.273.657-6,1.785Zm12,18.43v1.785c0,.553-.448,1-1,1H7c-.552,0-1-.447-1-1v-1.785c1.727,1.128,3.788,1.785,6,1.785s4.273-.657,6-1.785Z"/></svg>
