<?xml version="1.0" encoding="UTF-8"?>
<svg xmlns="http://www.w3.org/2000/svg" id="Layer_1" data-name="Layer 1" viewBox="0 0 24 24" width="512" height="512"><path d="M22.5,3c-.828,0-1.5,.672-1.5,1.5v6.5c0,.552-.448,1-1,1s-1-.448-1-1V2.5c0-.828-.672-1.5-1.5-1.5s-1.5,.672-1.5,1.5V11c0,.552-.448,1-1,1s-1-.448-1-1V1.5c0-.828-.672-1.5-1.5-1.5s-1.5,.672-1.5,1.5V11c0,.552-.448,1-1,1s-1-.448-1-1V3.58c0-.747-.511-1.44-1.248-1.56-.94-.153-1.752,.568-1.752,1.479v12.654l-2.605-2.65c-.088-.088-.24-.201-.441-.333-.843-.47-1.954-.284-2.584,.561-.604,.81-.437,1.965,.276,2.68l4.997,5.156c1.507,1.555,3.58,2.433,5.745,2.433h7.613c2.761,0,5-2.239,5-5V4.5c0-.828-.672-1.5-1.5-1.5Zm-6.88,17.782c-.362,.29-.879,.29-1.24,0-1.123-.902-3.38-2.852-3.38-4.582,0-1.215,.895-2.2,2-2.2s2,.985,2,2.2c0-1.215,.895-2.2,2-2.2s2,.985,2,2.2c0,1.73-2.256,3.68-3.38,4.582Z"/></svg>
