<?xml version="1.0" encoding="UTF-8"?>
<svg xmlns="http://www.w3.org/2000/svg" id="Layer_1" data-name="Layer 1" viewBox="0 0 24 24" width="512" height="512"><path d="m23.707,23.707c-.195.195-.451.293-.707.293s-.512-.098-.707-.293L.293,1.707C-.098,1.316-.098.684.293.293S1.316-.098,1.707.293l2.93,2.93c1.716-1.99,4.234-3.223,7.038-3.223,4.171,0,7.865,2.807,8.981,6.826l1.736,5.723c.464,1.531.184,3.146-.77,4.43-.472.637-1.07,1.138-1.748,1.482l3.832,3.832c.391.391.391,1.023,0,1.414Zm-11.707.293c2.045,0,3.802-1.237,4.576-3H7.424c.774,1.763,2.531,3,4.576,3ZM2.689,6.872c-.037.136-.078.269-.109.408l-1.348,5.537c-.365,1.5-.028,3.058.927,4.271.954,1.215,2.387,1.911,3.931,1.911h8.726L2.689,6.872Z"/></svg>
