<?xml version="1.0" encoding="UTF-8"?>
<svg xmlns="http://www.w3.org/2000/svg" id="Layer_1" data-name="Layer 1" viewBox="0 0 24 24" width="512" height="512"><path d="M21.431,2.439L10.582,.043c-.886-.174-1.791,.054-2.486,.625-.696,.572-1.096,1.417-1.096,2.318v7.014c0,.552-.447,1-1,1s-1-.448-1-1V5.252l-2.815,2.791c-1.543,1.529-1.574,4.047-.067,5.615l4.883,5.065v2.277c0,1.657,1.343,3,3,3h8c1.657,0,3-1.343,3-3v-3.808l1.428-3.569c.378-.945,.572-1.954,.572-2.972V4.392c0-.938-.652-1.751-1.569-1.953Z"/></svg>
