<?xml version="1.0" encoding="UTF-8"?>
<svg xmlns="http://www.w3.org/2000/svg" id="Layer_1" data-name="Layer 1" viewBox="0 0 24 24" width="512" height="512"><path d="M12,0C5.373,0,0,5.373,0,12s5.373,12,12,12,12-5.373,12-12S18.627,0,12,0Zm2.5,5c1.93,0,3.5,1.57,3.5,3.5s-1.57,3.5-3.5,3.5-3.5-1.57-3.5-3.5,1.57-3.5,3.5-3.5ZM5,12c0-1.103,.897-2,2-2s2,.897,2,2-.897,2-2,2-2-.897-2-2Zm9.956,7.489c.015-.163,.044-.322,.044-.489v-1.659c-.688,.334-1.361,.595-2,.809v.85c0,1.5-1,3-2.5,3s-2.5-1.5-2.5-3v-1l.012-.002c.003-.519,.394-.959,.92-.995,.051-.004,5.168-.394,8.347-3.696,.294-.303,.745-.389,1.128-.22,.384,.171,.62,.565,.59,.985-.106,1.488-1.119,4.212-4.042,5.418Zm-1.956-10.989c0-.827,.673-1.5,1.5-1.5s1.5,.673,1.5,1.5-.673,1.5-1.5,1.5-1.5-.673-1.5-1.5Z"/></svg>
