<?xml version="1.0" encoding="UTF-8"?>
<svg xmlns="http://www.w3.org/2000/svg" id="Layer_1" data-name="Layer 1" viewBox="0 0 24 24" width="512" height="512"><path d="m11.735,19.057c-2.182,2.191-5.677,3.795-9.178,3.934-.097.004-.686.007-1.29.008-.818.002-1.429-.769-1.229-1.562.28-1.108.854-2.131,1.674-2.954l7.297-7.196,5.233,5.247-2.507,2.523M22.941,2.065c-.688-.69-1.532-1.056-2.443-1.056h0c-.742,0-1.881.256-3.089,1.468l-6.61,6.528c-.393.388-.397,1.021-.009,1.414.041.042,6.108,5.928,6.108,5.928.278.279.646.423,1.02.423.258,0,.519-.069.753-.21.573-.346.826-1.004.628-1.638-.655-2.114-.746-3.265.889-4.9l2.754-2.827c1.409-1.415,1.409-3.716,0-5.13Zm-2.939,4.4c-.828,0-1.5-.672-1.5-1.5s.672-1.5,1.5-1.5,1.5.672,1.5,1.5-.672,1.5-1.5,1.5Z"/></svg>
