<?xml version="1.0" encoding="UTF-8"?>
<svg xmlns="http://www.w3.org/2000/svg" id="Layer_1" data-name="Layer 1" viewBox="0 0 24 24" width="512" height="512"><path d="M11.981,24.002c-2.381,0-4.628-.92-6.347-2.639-2.132-2.133-3.034-5.08-2.474-8.085,.636-3.413,3.334-6.237,6.712-7.028,2.003-.471,4.03-.272,5.863,.569,.077,.036,.181,.014,.252-.057l.106-.106c.877-.877,2.304-.876,3.181,0l1.062,1.062c.425,.425,.659,.99,.659,1.591s-.234,1.166-.66,1.591l-.101,.102c-.072,.072-.096,.175-.059,.254,.845,1.833,1.044,3.862,.575,5.868-.79,3.382-3.616,6.083-7.032,6.718-.583,.109-1.166,.162-1.739,.162ZM22.034,6.38c.636-.636,.986-1.481,.986-2.38s-.35-1.744-.986-2.38C20.976,.562,19.527-.013,18.037,.034c-5.128,.175-9.068,.953-9.233,.986-.542,.108-.893,.635-.784,1.176,.107,.542,.638,.894,1.176,.785,.039-.008,3.954-.779,8.909-.948,.937-.033,1.847,.334,2.515,1.001,.532,.533,.532,1.399,0,1.932-.391,.391-.391,1.023,0,1.414,.195,.195,.451,.293,.707,.293s.512-.098,.707-.293Zm-17.583-.122l.354-1.418,1.418-.354c.445-.111,.757-.511,.757-.97s-.312-.859-.757-.97l-1.418-.354-.354-1.418C4.34,.328,3.94,.016,3.481,.016h0c-.459,0-.859,.312-.97,.757l-.352,1.406-1.403,.324C.309,2.606-.011,3-.019,3.459s.297,.864,.74,.984l1.433,.386,.357,1.43c.111,.445,.511,.757,.97,.757s.859-.312,.97-.757Z"/></svg>
