<?xml version="1.0" encoding="UTF-8"?>
<svg xmlns="http://www.w3.org/2000/svg" id="Layer_1" data-name="Layer 1" viewBox="0 0 24 24" width="512" height="512"><path d="m11.05,13c.232,1.141,1.24,2,2.45,2,1.381,0,2.5-1.119,2.5-2.5,0-1.209-.859-2.218-2-2.45v-5.1c1.141-.232,2-1.24,2-2.45,0-1.381-1.119-2.5-2.5-2.5-1.209,0-2.218.859-2.45,2h-6.1c-.232-1.141-1.24-2-2.45-2C1.119,0,0,1.119,0,2.5c0,1.209.859,2.218,2,2.45v5.1c-1.141.232-2,1.24-2,2.45,0,1.381,1.119,2.5,2.5,2.5,1.209,0,2.218-.859,2.45-2h6.1Zm-7.05-2.5v-6c.189-.142.358-.311.5-.5h7c.142.189.311.358.5.5v6c-.189.142-.358.311-.5.5h-7c-.142-.189-.311-.358-.5-.5Zm20,11c0,1.381-1.119,2.5-2.5,2.5-1.209,0-2.218-.859-2.45-2h-6.1c-.232,1.141-1.24,2-2.45,2-1.381,0-2.5-1.119-2.5-2.5,0-1.209.859-2.218,2-2.45v-2.05c0-.553.448-1,1-1s1,.447,1,1v2.5c.189.142.358.311.5.5h7c.142-.189.311-.358.5-.5v-6c-.607-.456-1-1.182-1-2,0-1.381,1.119-2.5,2.5-2.5s2.5,1.119,2.5,2.5c0,1.209-.859,2.218-2,2.45v5.1c1.141.232,2,1.24,2,2.45Z"/></svg>
