<?xml version="1.0" encoding="UTF-8"?>
<svg xmlns="http://www.w3.org/2000/svg" id="Layer_1" data-name="Layer 1" viewBox="0 0 24 24" width="512" height="512"><path d="m23,22c-.552,0-1-.447-1-1v-4c0-.553.448-1,1-1s1,.447,1,1v4c0,.553-.448,1-1,1Zm-16-6H2.5c-1.378,0-2.5,1.121-2.5,2.5v1c0,1.379,1.122,2.5,2.5,2.5h4.5v-6Zm12,0h-10v6h10c.552,0,1-.447,1-1v-4c0-.553-.448-1-1-1Zm1-3v-1.18c0-1.396-.744-2.711-1.942-3.431l-1.602-.961c-.898-.539-1.457-1.524-1.457-2.572v-1.856c0-.553-.448-1-1-1s-1,.447-1,1v1.856c0,1.746.93,3.389,2.427,4.287l1.601.961c.6.359.972,1.018.972,1.716v1.18c0,.553.448,1,1,1s1-.447,1-1Zm4-2v-.735c0-1.746-.93-3.389-2.427-4.287l-2.086-1.252c-.3-.18-.486-.509-.486-.858V1c0-.553-.448-1-1-1s-1,.447-1,1v2.867c0,1.047.558,2.033,1.457,2.573l2.087,1.252c.898.539,1.457,1.524,1.457,2.572v.735c0,.553.448,1,1,1s1-.447,1-1Z"/></svg>
