<?xml version="1.0" encoding="UTF-8"?>
<svg xmlns="http://www.w3.org/2000/svg" id="Layer_1" data-name="Layer 1" viewBox="0 0 24 24">
  <path d="m21.113,14.484c.547-.684.887-1.54.887-2.484,0-1.617-.964-3.002-2.344-3.632.305-.591.443-1.281.266-2.032-.332-1.405-1.68-2.336-3.124-2.336h-.942c-.37-1.418-1.428-3.219-2.654-3.893-.532-.293-1.183.043-1.266.645-.198,1.44-.816,2.629-1.435,3.248h-3.297c-1.444,0-2.792.931-3.124,2.336-.177.751-.039,1.441.266,2.032-1.38.631-2.344,2.015-2.344,3.632,0,.944.34,1.799.887,2.484C1.044,15.348-.194,17.289.025,19.506c.256,2.593,2.58,4.494,5.186,4.494h12.405c3.779,0,6.103-1.901,6.359-4.494.219-2.217-1.019-4.158-2.862-5.023Zm-4.766.91l-4.254,6.225c-.56.813-1.827.215-1.556-.734l.963-2.897h-3.077c-.619,0-1.062-.597-.883-1.19l2.12-6.137c.139-.403.519-.674.945-.674h1.894c.702,0,1.185.704.933,1.359l-.933,2.641h3.093c.722,0,1.153.804.754,1.406Z"/>
</svg>
