<?xml version="1.0" encoding="UTF-8"?>
<svg xmlns="http://www.w3.org/2000/svg" id="Layer_1" data-name="Layer 1" viewBox="0 0 24 24" width="512" height="512"><path d="m15,8c0,.552-.448,1-1,1s-1-.448-1-1,.448-1,1-1,1,.448,1,1ZM1.979,21c0,1.657,1.343,3,3,3h12c2.761,0,5-2.239,5-5v-1H4.979c-1.657,0-3,1.343-3,3ZM10,7c-.552,0-1,.448-1,1s.448,1,1,1,1-.448,1-1-.448-1-1-1Zm11.979-2v11H4.979c-.203,0-.406.02-.605.061-.87.104-1.696.437-2.395.964V4.973c0-2.744,2.224-4.973,4.967-4.973h10.033c2.761,0,5,2.239,5,5Zm-5.519,4.486c-.008-.77-.015-1.628-.015-2.041,0-2.607-2.256-4.698-4.92-4.42-2.329.243-4.024,2.345-4.024,4.686v1.789c0,.828.672,1.5,1.5,1.5h1v1c0,.552.448,1,1,1h2c.552,0,1-.448,1-1v-1h.96c.834,0,1.508-.68,1.5-1.514Z"/></svg>
