<?xml version="1.0" encoding="UTF-8"?>
<svg xmlns="http://www.w3.org/2000/svg" id="Layer_1" data-name="Layer 1" viewBox="0 0 24 24" width="512" height="512"><path d="M16,12.5v1c0,.275-.225,.5-.5,.5h-1.5c-.553,0-1,.447-1,1v1.5c0,.275-.225,.5-.5,.5h-1c-.275,0-.5-.225-.5-.5v-1.5c0-.553-.447-1-1-1h-1.5c-.275,0-.5-.225-.5-.5v-1c0-.275,.225-.5,.5-.5h1.5c.553,0,1-.447,1-1v-1.5c0-.275,.225-.5,.5-.5h1c.275,0,.5,.225,.5,.5v1.5c0,.553,.447,1,1,1h1.5c.275,0,.5,.225,.5,.5Zm8-2.776v9.276c0,2.757-2.243,5-5,5H5c-2.757,0-5-2.243-5-5V9.724c0-1.665,.824-3.215,2.204-4.145L9.203,.855c1.699-1.146,3.895-1.146,5.594,0l5.203,3.511V2c0-.553,.447-1,1-1s1,.447,1,1v3.724c1.256,.941,2,2.418,2,3.999Zm-6,2.776c0-1.379-1.121-2.5-2.5-2.5h-.5v-.5c0-1.379-1.121-2.5-2.5-2.5h-1c-1.379,0-2.5,1.121-2.5,2.5v.5h-.5c-1.379,0-2.5,1.121-2.5,2.5v1c0,1.379,1.121,2.5,2.5,2.5h.5v.5c0,1.379,1.121,2.5,2.5,2.5h1c1.379,0,2.5-1.121,2.5-2.5v-.5h.5c1.379,0,2.5-1.121,2.5-2.5v-1Z"/></svg>
