<?xml version="1.0" encoding="UTF-8"?>
<svg xmlns="http://www.w3.org/2000/svg" id="Layer_1" data-name="Layer 1" viewBox="0 0 24 24" width="512" height="512"><path d="m24,23h0c0,.552-.448,1-1,1H1c-.552,0-1-.448-1-1h0c0-1.657,1.343-3,3-3h18c1.657,0,3,1.343,3,3Zm-1.789-16.797l1.5-1.517c.389-.393.385-1.025-.008-1.414-.394-.389-1.026-.385-1.414.008l-1.5,1.517c-.389.393-.385,1.025.008,1.414.195.192.449.289.703.289.258,0,.516-.099.711-.297Zm-3.823-3.243l.777-1.5c.254-.49.062-1.094-.428-1.348-.488-.254-1.094-.064-1.348.428l-.777,1.5c-.254.49-.062,1.094.428,1.348.146.076.304.112.459.112.361,0,.711-.196.889-.54ZM3.203,6.211c.393-.389.396-1.021.008-1.414l-1.5-1.517c-.387-.393-1.022-.396-1.414-.008-.393.389-.396,1.021-.008,1.414l1.5,1.517c.195.198.453.297.711.297.254,0,.509-.097.703-.289Zm3.757-2.823c.49-.254.682-.857.428-1.348l-.777-1.5c-.255-.492-.86-.682-1.348-.428-.49.254-.682.857-.428,1.348l.777,1.5c.178.344.527.54.889.54.155,0,.312-.036.459-.112Zm14.04,9.612v4c0,.553-.447,1-1,1H4c-.553,0-1-.447-1-1v-4c0-4.963,4.037-9,9-9s9,4.037,9,9Zm-8-3c0-.553-.447-1-1-1-2.206,0-4,1.794-4,4,0,.553.447,1,1,1s1-.447,1-1c0-1.103.897-2,2-2,.553,0,1-.447,1-1Z"/></svg>
