<?xml version="1.0" encoding="UTF-8"?>
<svg xmlns="http://www.w3.org/2000/svg" id="Layer_1" data-name="Layer 1" viewBox="0 0 24 24" width="512" height="512"><path d="M12,0C5.383,0,0,5.383,0,12s5.383,12,12,12,12-5.383,12-12S18.617,0,12,0ZM5.999,9c-.218,0-.438-.071-.622-.218-.433-.344-.503-.973-.159-1.405,.91-1.141,2.307-2.064,3.559-2.351,.536-.124,1.074,.212,1.198,.751s-.213,1.075-.751,1.198c-.812,.187-1.816,.864-2.441,1.649-.198,.248-.489,.376-.783,.376Zm2.501,1c.828,0,1.5,.672,1.5,1.5s-.672,1.5-1.5,1.5-1.5-.672-1.5-1.5,.672-1.5,1.5-1.5Zm7.53,8.981c-.93-.195-1.998-.98-4.03-.981-2.032,0-3.023,.785-3.953,.981-.72,.151-1.272-.617-.876-1.214,.849-1.282,2.372-2.767,4.871-2.767s4.016,1.484,4.865,2.767c.395,.597-.157,1.365-.877,1.214Zm-2.03-7.481c0-.828,.672-1.5,1.5-1.5s1.5,.672,1.5,1.5-.672,1.5-1.5,1.5-1.5-.672-1.5-1.5Zm4.623-2.718c-.184,.147-.404,.218-.622,.218-.294,0-.585-.129-.783-.376-.625-.785-1.629-1.462-2.441-1.649-.538-.124-.875-.66-.751-1.198s.66-.878,1.198-.751c1.252,.287,2.648,1.21,3.559,2.351,.344,.432,.273,1.061-.159,1.405Z"/></svg>
