<?xml version="1.0" encoding="UTF-8"?>
<svg xmlns="http://www.w3.org/2000/svg" id="Layer_1" data-name="Layer 1" viewBox="0 0 24 24" width="512" height="512"><path d="M15,7.5C15,3.36,11.64,0,7.5,0h-2.5C2.24,0,0,2.24,0,5V23c0,.55,.45,1,1,1s1-.45,1-1V15H7.41l4.71,8.49c.18,.33,.52,.51,.88,.51,.16,0,.33-.04,.48-.13,.48-.27,.66-.88,.39-1.36l-4.34-7.8c3.15-.89,5.46-3.78,5.46-7.21Zm-7.5,5.5H2V5c0-1.65,1.35-3,3-3h2.5c3.03,0,5.5,2.47,5.5,5.5s-2.47,5.5-5.5,5.5Zm13,0h-1.5c-1.65,0-3,1.35-3,3v7c0,.55,.45,1,1,1s1-.45,1-1v-3h2.5c1.93,0,3.5-1.57,3.5-3.5s-1.57-3.5-3.5-3.5Zm0,5h-2.5v-2c0-.55,.45-1,1-1h1.5c.83,0,1.5,.67,1.5,1.5s-.67,1.5-1.5,1.5Z"/></svg>
