<?xml version="1.0" encoding="UTF-8"?>
<svg xmlns="http://www.w3.org/2000/svg" id="Layer_1" data-name="Layer 1" viewBox="0 0 24 24" width="512" height="512"><path d="m23.475,8.12c-.021-.011-2.076-1.136-4.19-3.25-2.126-2.125-3.402-4.343-3.415-4.365-.274-.48-.885-.648-1.364-.373-.479.273-.647.883-.374,1.363.019.034.191.333.5.803l-5.617,5.617c-1.943,1.943-3.014,4.526-3.014,7.275v1.395L.293,22.293c-.391.391-.391,1.023,0,1.414.195.195.451.293.707.293s.512-.098.707-.293l5.707-5.707h1.396c2.748,0,5.332-1.07,7.275-3.014l5.608-5.608c.491.316.8.484.834.502.15.081.312.12.473.12.355,0,.699-.19.881-.525.262-.485.08-1.092-.405-1.354Zm-15.475,7.88v-.809c0-1.877.62-3.659,1.763-5.112l4.159,4.158c-1.453,1.143-3.235,1.763-5.112,1.763h-.81Zm7.378-3.135l-4.243-4.243,4.678-4.678c.56.72,1.25,1.532,2.058,2.339.758.758,1.505,1.398,2.171,1.918l-4.663,4.664Z"/></svg>
