<?xml version="1.0" encoding="UTF-8"?>
<svg xmlns="http://www.w3.org/2000/svg" id="Layer_1" data-name="Layer 1" viewBox="0 0 24 24" width="512" height="512"><path d="m14,7V.46c.913.346,1.753.879,2.465,1.59l3.484,3.486c.712.711,1.245,1.551,1.591,2.464h-6.54c-.552,0-1-.449-1-1Zm8,3.485v8.515c0,2.757-2.243,5-5,5H7c-2.757,0-5-2.243-5-5V5C2,2.243,4.243,0,7,0v2c0,.552.447,1,1,1s1-.448,1-1V0h2.515c.163,0,.324.013.485.024v6.976c0,1.654,1.346,3,3,3h6.976c.011.161.024.322.024.485ZM7,6c0,.552.447,1,1,1s1-.448,1-1v-1c0-.552-.447-1-1-1s-1,.448-1,1v1Zm0,4c0,.552.447,1,1,1s1-.448,1-1v-1c0-.552-.447-1-1-1s-1,.448-1,1v1Zm3.044,5.481l-.757-2.524c-.171-.568-.694-.958-1.287-.958s-1.117.389-1.287.958l-.757,2.524c-.227.757.34,1.519,1.13,1.519h1.829c.79,0,1.357-.762,1.13-1.519Z"/></svg>
