<?xml version="1.0" encoding="UTF-8"?>
<svg xmlns="http://www.w3.org/2000/svg" id="Layer_1" data-name="Layer 1" viewBox="0 0 24 24" width="512" height="512"><path d="m20,0H4C1.794,0,0,1.794,0,4v12c0,2.206,1.794,4,4,4h2.923l3.749,3.156c.382.34.861.509,1.337.508.468,0,.931-.162,1.292-.484l3.847-3.18h2.853c2.206,0,4-1.794,4-4V4c0-2.206-1.794-4-4-4Zm-8,18c-.828,0-1.5-.672-1.5-1.5s.672-1.5,1.5-1.5,1.5.672,1.5,1.5-.672,1.5-1.5,1.5Zm1.679-6.369c-.239.111-.679.64-.679,1.169v.2c0,.553-.447,1-1,1s-1-.447-1-1v-.2c0-1.384.947-2.57,1.838-2.983.732-.339,1.385-1.224,1.091-2.365-.17-.656-.724-1.21-1.379-1.379-.643-.169-1.271-.043-1.772.345-.494.383-.777.96-.777,1.583,0,.553-.447,1-1,1s-1-.447-1-1c0-1.247.565-2.4,1.553-3.164.986-.766,2.262-1.022,3.497-.7,1.358.35,2.464,1.455,2.814,2.815.49,1.898-.429,3.867-2.186,4.68Z"/></svg>
