<?xml version="1.0" encoding="UTF-8"?>
<svg xmlns="http://www.w3.org/2000/svg" id="Layer_1" data-name="Layer 1" viewBox="0 0 24 24" width="512" height="512"><path d="m20.957,4.577c.169-1.132-.166-2.282-.918-3.155-.765-.888-1.874-1.396-3.044-1.396H7.005c-1.17,0-2.279.51-3.043,1.398-.753.874-1.087,2.024-.917,3.157.406,2.699,1.885,5.198,4.401,7.444-2.517,2.246-3.996,4.745-4.401,7.444-.17,1.133.165,2.283.917,3.157.764.889,1.874,1.397,3.043,1.397h9.99c1.17,0,2.279-.508,3.044-1.396.752-.873,1.087-2.023.918-3.154-.403-2.69-1.884-5.191-4.406-7.449,2.522-2.258,4.003-4.759,4.406-7.448Zm-3.031-.177c-.984,2.432-3.051,4.422-4.609,5.662l-.69.551c-.365.29-.88.29-1.245.002l-.704-.559c-1.557-1.231-3.619-3.212-4.605-5.656-.125-.309-.087-.658.098-.934.186-.275.497-.44.829-.44h10c.333,0,.644.164.829.44.186.275.223.626.098.934Zm-5.855,4.098l-.07.056-.082-.065c-1.047-.828-2.35-2.029-3.271-3.462h6.702c-.924,1.429-2.229,2.636-3.278,3.472Z"/></svg>
