<?xml version="1.0" encoding="UTF-8"?>
<svg xmlns="http://www.w3.org/2000/svg" id="Layer_1" data-name="Layer 1" viewBox="0 0 24 24" width="512" height="512"><path d="m15,14c0,.552-.448,1-1,1s-1-.448-1-1,.448-1,1-1,1,.448,1,1Zm-5-1c-.552,0-1,.448-1,1s.448,1,1,1,1-.448,1-1-.448-1-1-1Zm14,3.714c0,.979-.13,1.95-.387,2.888-.709,2.589-3.089,4.398-5.79,4.398H6.177c-2.701,0-5.081-1.809-5.79-4.398-.257-.938-.387-1.909-.387-2.887,0-4.28,2.47-8.174,6.445-10.162.342-.171.555-.511.555-.887v-3.665h-1c-.553,0-1-.448-1-1s.447-1,1-1h12c.553,0,1,.448,1,1s-.447,1-1,1h-1v3.71c0,.374.21.713.549.885,3.979,2.021,6.451,5.898,6.451,10.119Zm-8-2.714c0-2.337-2.014-4.212-4.399-3.981-2.078.202-3.601,2.07-3.601,4.158v1.822c0,.552.448,1,1,1h1v1c0,.552.448,1,1,1h2c.552,0,1-.448,1-1v-1h1c.552,0,1-.448,1-1v-2Z"/></svg>
