<?xml version="1.0" encoding="UTF-8"?>
<svg xmlns="http://www.w3.org/2000/svg" id="Layer_1" data-name="Layer 1" viewBox="0 0 24 24" width="512" height="512"><path d="M1,7h7.34c1.34,0,2.59-.52,3.54-1.46l2.66-2.66c.57-.57,1.32-.88,2.12-.88h6.34c.55,0,1-.45,1-1s-.45-1-1-1h-6.34c-1.34,0-2.59,.52-3.54,1.46l-2.66,2.66c-.57,.57-1.32,.88-2.12,.88H1c-.55,0-1,.45-1,1s.45,1,1,1Z"/><path d="M23,22H13.66c-.8,0-1.56-.31-2.12-.88l-4.66-4.66c-.94-.94-2.2-1.46-3.54-1.46H1c-.55,0-1,.45-1,1s.45,1,1,1H3.34c.8,0,1.56,.31,2.12,.88l4.66,4.66c.94,.94,2.2,1.46,3.54,1.46h9.34c.55,0,1-.45,1-1s-.45-1-1-1Z"/><path d="M24,11c0-.55-.45-1-1-1H1c-.55,0-1,.45-1,1s.45,1,1,1H9.59l4.54,4.54c.94,.94,2.2,1.46,3.54,1.46h5.34c.55,0,1-.45,1-1s-.45-1-1-1h-5.34c-.8,0-1.56-.31-2.12-.88l-3.12-3.12h10.59c.55,0,1-.45,1-1Z"/></svg>
