<?xml version="1.0" encoding="UTF-8"?>
<svg xmlns="http://www.w3.org/2000/svg" id="Layer_1" data-name="Layer 1" viewBox="0 0 24 24" width="512" height="512"><path d="M11,24H6c-2.757,0-5-2.243-5-5v-2H7c.553,0,1-.448,1-1s-.447-1-1-1H1v-1.666c0-1.019,.304-1.998,.88-2.83,.712-1.031,1.12-1.943,1.12-2.504v-2.935C3,2.793,4.505,.863,6.611,.265l4.389,11.914v11.821Zm1-14.893L15.352,.008c-.21-.008-.341-.008-.352-.008h-6c-.011,0-.142,0-.352,.008l3.352,9.099Zm5,7.893c-.553,0-1-.448-1-1s.447-1,1-1h6v-1.666c0-1.019-.304-1.998-.88-2.83-.712-1.031-1.12-1.943-1.12-2.504v-2.935c0-2.272-1.505-4.203-3.611-4.801l-4.389,11.914v11.821h5c2.757,0,5-2.243,5-5v-2h-6Z"/></svg>
