<?xml version="1.0" encoding="UTF-8"?>
<svg xmlns="http://www.w3.org/2000/svg" id="Layer_1" data-name="Layer 1" viewBox="0 0 24 24" width="512" height="512"><path d="M6.01,2.5c0-1.38,1.12-2.5,2.5-2.5s2.5,1.12,2.5,2.5-1.12,2.5-2.5,2.5-2.5-1.12-2.5-2.5ZM23.49,23.87c-.15,.09-.32,.13-.48,.13-.35,0-.69-.19-.88-.51l-4.9-8.81-3.83-2.87c-.09-.07-.17-.16-.24-.25l-1.43-2.19c-.2-.3-.45-.57-.73-.77,0,0,0,7.52-.01,7.57l1.56,1.01c.14,.09,.26,.22,.34,.36l2.69,5c.26,.49,.08,1.09-.41,1.35-.15,.08-.31,.12-.47,.12-.36,0-.7-.19-.88-.53l-2.57-4.77-3.41-2.21c-1.14-.74-1.82-2-1.82-3.36v-4.11c-.1,.12-.2,.24-.28,.38l-3.24,5.13c-.29,.47-.91,.61-1.38,.31-.47-.29-.61-.91-.31-1.38l3.24-5.13c.92-1.46,2.5-2.33,4.23-2.33h.96c1.69,0,3.26,.85,4.18,2.26l1.33,2.04,3.86,2.89c.11,.08,.21,.19,.27,.31l5,9c.27,.48,.09,1.09-.39,1.36ZM6.82,18.01c-.55-.09-1.06,.28-1.15,.83l-.65,4c-.09,.55,.28,1.06,.83,1.15,.05,0,.11,.01,.16,.01,.48,0,.91-.35,.99-.84l.65-4c.09-.55-.28-1.06-.83-1.15Z"/></svg>
