<?xml version="1.0" encoding="UTF-8"?>
<svg xmlns="http://www.w3.org/2000/svg" id="Layer_1" data-name="Layer 1" viewBox="0 0 24 24" width="512" height="512"><path d="m20.32,17.034h-2.32c-.552,0-1-.448-1-1v-.034c0-.552.448-1,1-1h1.357c1.308,0,2.499-.941,2.63-2.242.15-1.497-1.021-2.758-2.487-2.758h-1.5c-.552,0-1-.448-1-1v-.107c0-.493.4-.893.893-.893.996,0,1.92-.681,2.08-1.664.204-1.253-.758-2.336-1.973-2.336h-2.131c-.317-1.43-1.219-3.121-2.372-3.854-.596-.379-1.373-.022-1.486.675-.242,1.492-.89,2.515-1.492,3.179h-4.412c-.996,0-1.92.681-2.08,1.664-.204,1.253.758,2.336,1.973,2.336h6c.552,0,1,.448,1,1s-.448,1-1,1h-7.357c-1.308,0-2.499.941-2.63,2.242-.15,1.496,1.021,2.758,2.487,2.758h7.5c.552,0,1,.448,1,1v.004c0,.551-.446.998-.996,1l-8.52.03C1.497,17.034-.1,18.695.005,20.704c.099,1.884,1.789,3.296,3.675,3.296h16.837c1.986,0,3.583-1.662,3.478-3.671-.099-1.883-1.789-3.296-3.675-3.296Z"/></svg>
