<?xml version="1.0" encoding="UTF-8"?>
<svg xmlns="http://www.w3.org/2000/svg" id="Layer_1" data-name="Layer 1" viewBox="0 0 24 24" width="512" height="512"><path d="M23.71,22.29l-6.91-6.91s.02-.05,.03-.08l.22-1.24h.15c1.18,0,1.82-.94,1.82-1.82,0-1.29-2.93-6.01-4.18-7.41-1.61-1.8-3.92-2.83-6.33-2.83-1.42,0-2.8,.37-4.04,1.05L1.71,.29C1.32-.1,.68-.1,.29,.29S-.1,1.32,.29,1.71L22.29,23.71c.2,.2,.45,.29,.71,.29s.51-.1,.71-.29c.39-.39,.39-1.02,0-1.41Zm-2.71-5.29c0,.55-.45,1-1,1s-1-.45-1-1,.45-1,1-1,1,.45,1,1Zm3,2c0,.55-.45,1-1,1s-1-.45-1-1,.45-1,1-1,1,.45,1,1Zm0-4c0,.55-.45,1-1,1s-1-.45-1-1,.45-1,1-1,1,.45,1,1Zm-13.5,7H5.5c-1.4,0-2.5-1.15-2.5-2.62v-.73c0-.75-.23-1.44-.65-1.96C.85,14.86-.02,12.54,0,10.49c0-1.38,.33-2.72,1-3.96,.15-.28,.42-.47,.74-.52,.32-.05,.63,.06,.86,.28l11,11c.29,.29,.37,.72,.22,1.09-.14,.34-.45,.57-.81,.61v.51c0,1.38-1.12,2.5-2.5,2.5Z"/></svg>
