<?xml version="1.0" encoding="UTF-8"?>
<svg xmlns="http://www.w3.org/2000/svg" id="Layer_1" data-name="Layer 1" viewBox="0 0 24 24" width="512" height="512"><path d="M3,2.5C3,1.12,4.12,0,5.5,0s2.5,1.119,2.5,2.5-1.119,2.5-2.5,2.5-2.5-1.119-2.5-2.5Zm15.5,2.5c1.381,0,2.5-1.119,2.5-2.5S19.881,0,18.5,0s-2.5,1.119-2.5,2.5,1.119,2.5,2.5,2.5ZM2.418,18.038c-.53-.146-1.084,.156-1.236,.688L.039,22.726c-.152,.53,.156,1.084,.687,1.236,.092,.025,.185,.038,.275,.038,.435,0,.835-.286,.961-.726l1.143-4c.152-.53-.156-1.084-.687-1.236Zm21.543,4.688l-1.143-4c-.152-.531-.705-.834-1.236-.688-.531,.152-.838,.705-.687,1.236l1.143,4c.125,.439,.526,.726,.961,.726,.091,0,.184-.013,.275-.038,.531-.152,.838-.705,.687-1.236Zm-1.823-6.712l-3.138,2.046v4.94c0,.553-.448,1-1,1s-1-.447-1-1v-5.482c0-.338,.171-.653,.454-.838l1.497-.976-1.634-6.116-1.317,2.222v2.691c0,1.379-1.122,2.5-2.5,2.5h-3c-1.378,0-2.5-1.121-2.5-2.5v-2.691l-1.311-2.211-1.589,6.138,1.446,.943c.283,.185,.454,.5,.454,.838v5.482c0,.553-.448,1-1,1s-1-.447-1-1v-4.94l-3.149-2.053C.463,15.129-.252,13.444,.083,11.824l.748-2.76c.359-1.751,1.972-3.064,3.82-3.064,1.376,0,2.666,.735,3.368,1.919l.957,1.614c.423-.329,.948-.533,1.525-.533h3c.576,0,1.101,.204,1.525,.533l.957-1.614c.702-1.184,1.993-1.919,3.368-1.919,1.848,0,3.46,1.313,3.834,3.124l.718,2.641c.349,1.681-.366,3.364-1.765,4.249Z"/></svg>
