<?xml version="1.0" encoding="UTF-8"?>
<svg xmlns="http://www.w3.org/2000/svg" id="Layer_1" data-name="Layer 1" viewBox="0 0 24 24">
  <path d="m23.707,22.293l-4.939-4.939c1.986-1.829,3.232-4.448,3.232-7.354C22,4.486,17.514,0,12,0c-2.906,0-5.526,1.246-7.354,3.232L1.707.293C1.316-.098.684-.098.293.293S-.098,1.316.293,1.707l6.899,6.917s.003-.009.004-.014l15.096,15.096c.195.195.451.293.707.293s.512-.098.707-.293c.391-.391.391-1.023,0-1.414Zm-8.478-8.478l-1.422-1.422c.724-.548,1.193-1.417,1.193-2.393,0-1.654-1.346-3-3-3-.976,0-1.845.469-2.393,1.193l-1.422-1.422c.918-1.083,2.287-1.771,3.815-1.771,2.757,0,5,2.243,5,5,0,1.527-.688,2.897-1.771,3.815Zm1.528,7.202l1.895,1.895c-.424.682-1.15,1.089-1.955,1.089H7.302c-.827,0-1.569-.427-1.986-1.142-.417-.716-.424-1.573-.017-2.293.084-.149.175-.295.27-.438,1.86,1.185,4.067,1.873,6.431,1.873,1.689,0,3.297-.351,4.756-.984Zm-6.614-1.185c-4.015-.728-7.245-3.958-7.973-7.973-.208-1.149-.218-2.272-.059-3.341.115-.772,1.066-1.081,1.618-.529l3.497,3.497c.488,1.564,1.725,2.802,3.289,3.289l3.497,3.497c.552.552.242,1.503-.529,1.618-1.068.16-2.191.149-3.341-.059Z"/>
</svg>
