<?xml version="1.0" encoding="UTF-8"?>
<svg xmlns="http://www.w3.org/2000/svg" id="Layer_1" data-name="Layer 1" viewBox="0 0 24 24" width="512" height="512"><path d="M5,18H22v1c0,2.761-2.239,5-5,5H5c-1.657,0-3-1.343-3-3s1.343-3,3-3ZM22,5v11H5c-.203,0-.406,.02-.605,.061-.87,.104-1.696,.437-2.395,.964V4.973c0-2.744,2.224-4.973,4.967-4.973h10.033c2.761,0,5,2.239,5,5Zm-12.608,7.334c-.251-1.215-.351-2.473-.39-3.334h-2.935c.27,1.6,1.177,2.98,2.448,3.882,.41,.291,.978-.055,.877-.548Zm-.877-9.215c-1.271,.901-2.178,2.282-2.448,3.882h2.935c.039-.861,.14-2.119,.39-3.334,.102-.493-.466-.839-.877-.548Zm4.438,5.882h-1.954c.107,2.564,.435,4.829,.977,4.829s.87-2.265,.977-4.829Zm0-2c-.107-2.564-.416-4.829-.977-4.829s-.87,2.265-.977,4.829h1.954Zm4.933,2h-2.935c-.039,.861-.14,2.119-.39,3.334-.102,.493,.466,.839,.877,.548,1.271-.902,2.178-2.282,2.448-3.882Zm0-2c-.27-1.6-1.177-2.98-2.448-3.882-.41-.291-.978,.055-.877,.548,.251,1.215,.351,2.473,.39,3.334h2.935Z"/></svg>
