<?xml version="1.0" encoding="UTF-8"?>
<svg xmlns="http://www.w3.org/2000/svg" id="Layer_1" data-name="Layer 1" viewBox="0 0 24 24">
  <path d="m10,15.5c0,.827-.673,1.5-1.5,1.5s-1.5-.673-1.5-1.5.673-1.5,1.5-1.5c1.5,0,1.5,1.5,1.5,1.5Zm2,0c0,1.93-1.57,3.5-3.5,3.5s-3.5-1.57-3.5-3.5,1.57-3.5,3.5-3.5c.602,0,1.169.153,1.664.422l5.422-5.422h-7.086C3.813,7,0,10.813,0,15.5c0,2.271.884,4.405,2.49,6.011,1.606,1.605,3.741,2.489,6.01,2.489,4.687,0,8.5-3.813,8.5-8.5v-7.086l-5.422,5.422c.269.495.422,1.062.422,1.664ZM23.542,1.772l-1.315-1.314c-.539-.539-1.388-.611-2.01-.169l-1.209.934c-.644.497-1.059,1.235-1.149,2.044l-.183,1.644-2.091,2.091,1.414,1.414,2.091-2.091,1.644-.183c.809-.09,1.546-.504,2.044-1.149l.934-1.209c.441-.622.37-1.471-.169-2.01Z"/>
</svg>
