<?xml version="1.0" encoding="UTF-8"?>
<svg xmlns="http://www.w3.org/2000/svg" id="Layer_1" data-name="Layer 1" viewBox="0 0 24 24" width="512" height="512"><path d="M7,7c.33-2.38,2.12-4.32,4.5-4.94l3.47-.9c.17-.04,.33-.14,.46-.26l.61-.61c.19-.19,.44-.29,.71-.29h6.26c.55,0,1,.45,1,1V9.1c0,.27-.11,.54-.31,.73l-1.24,1.17H13v-3c0-.55-.45-1-1-1s-1,.45-1,1v5c0,1.1-.9,2-2,2s-2-.9-2-2c0,0-.02-6,0-6Zm6,6c0,2.21-1.79,4-4,4s-4-1.79-4-4V7.73c-1.42,.78-2.51,2.12-2.94,3.77l-.9,3.47c-.04,.17-.14,.33-.26,.46l-.61,.61c-.19,.19-.29,.44-.29,.71v6.26c0,.55,.45,1,1,1h7.07c.27,0,.52-.11,.71-.3l1.34-1.37c.19-.19,.44-.3,.71-.3l3.33-.02c2.66-.01,5.02-1.81,5.75-4.37l1.31-4.64H13Z"/></svg>
