<?xml version="1.0" encoding="UTF-8"?>
<svg xmlns="http://www.w3.org/2000/svg" id="Layer_1" data-name="Layer 1" viewBox="0 0 24 24" width="512" height="512"><path d="m23.707,1.694l-10,10c-.195.195-.451.293-.707.293s-.512-.098-.707-.293c-.391-.391-.391-1.023,0-1.414L22.293.28c.391-.391,1.023-.391,1.414,0s.391,1.023,0,1.414Zm-15.707,7.293c.256,0,.512-.098.707-.293l5-5c.391-.391.391-1.023,0-1.414s-1.023-.391-1.414,0l-5,5c-.391.391-.391,1.023,0,1.414.195.195.451.293.707.293Zm12.293,1.293l-5,5c-.391.391-.391,1.023,0,1.414.195.195.451.293.707.293s.512-.098.707-.293l5-5c.391-.391.391-1.023,0-1.414s-1.023-.391-1.414,0Zm-9.293,5.707h-3.001l-1.062-2.852c-.146-.391-.52-.651-.937-.651s-.792.26-.937.651l-1.062,2.852H1c-.419,0-.794.262-.938.655-.145.394-.028.835.292,1.107l2.377,1.934-.941,3.016c-.127.405.015.846.354,1.101.177.133.388.2.6.2.194,0,.388-.056.556-.169l2.708-1.812,2.754,1.793c.355.231.819.213,1.156-.046.337-.259.473-.703.339-1.106l-.979-2.98,2.366-1.927c.321-.271.439-.713.295-1.108s-.52-.657-.939-.657Z"/></svg>
