<?xml version="1.0" encoding="UTF-8"?>
<svg xmlns="http://www.w3.org/2000/svg" id="Layer_1" data-name="Layer 1" viewBox="0 0 24 24" width="512" height="512"><path d="M21.797,5.579L14.797,.855c-1.699-1.146-3.895-1.146-5.594,0L2.204,5.579c-1.38,.931-2.204,2.479-2.204,4.145v9.276c0,2.757,2.243,5,5,5h14c2.757,0,5-2.243,5-5V9.724c0-1.665-.824-3.214-2.203-4.145Zm-3.797,7.921c0,1.379-1.122,2.5-2.5,2.5h-.5v.5c0,1.379-1.122,2.5-2.5,2.5h-1c-1.378,0-2.5-1.121-2.5-2.5v-.5h-.5c-1.378,0-2.5-1.121-2.5-2.5v-1c0-1.379,1.122-2.5,2.5-2.5h.5v-.5c0-1.379,1.122-2.5,2.5-2.5h1c1.378,0,2.5,1.121,2.5,2.5v.5h.5c1.378,0,2.5,1.121,2.5,2.5v1Zm-2-1v1c0,.275-.224,.5-.5,.5h-1.5c-.552,0-1,.447-1,1v1.5c0,.275-.224,.5-.5,.5h-1c-.276,0-.5-.225-.5-.5v-1.5c0-.553-.448-1-1-1h-1.5c-.276,0-.5-.225-.5-.5v-1c0-.275,.224-.5,.5-.5h1.5c.552,0,1-.447,1-1v-1.5c0-.275,.224-.5,.5-.5h1c.276,0,.5,.225,.5,.5v1.5c0,.553,.448,1,1,1h1.5c.276,0,.5,.225,.5,.5Z"/></svg>
