<?xml version="1.0" encoding="UTF-8"?>
<svg xmlns="http://www.w3.org/2000/svg" id="Layer_1" data-name="Layer 1" viewBox="0 0 24 24" width="512" height="512"><path d="M2,3.414v6.586c0,.552-.448,1-1,1s-1-.448-1-1V3C0,1.346,1.346,0,3,0h7c.552,0,1,.448,1,1s-.448,1-1,1H3.414L15.707,14.293c.391,.391,.391,1.023,0,1.414-.195,.195-.451,.293-.707,.293s-.512-.098-.707-.293L2,3.414ZM23.951,12.997c-.453-4.628-4.186-8.423-8.808-8.933-1.537-.17-3.053,.003-4.477,.506-.324,.114-.566,.387-.642,.722-.076,.335,.025,.686,.268,.928l6.87,6.87c1.125,1.125,1.125,2.949,0,4.073-1.125,1.125-2.949,1.125-4.074,0l-6.87-6.87c-.243-.243-.591-.343-.928-.268-.334,.076-.607,.318-.722,.642-.503,1.424-.676,2.939-.506,4.476,.51,4.622,4.304,8.354,8.931,8.808,6.301,.619,11.574-4.653,10.956-10.954Z"/></svg>
