<?xml version="1.0" encoding="UTF-8"?>
<svg xmlns="http://www.w3.org/2000/svg" id="Layer_1" data-name="Layer 1" viewBox="0 0 24 24" width="512" height="512"><path d="m9.038,3c0-1.657,1.343-3,3-3s3,1.343,3,3-1.343,3-3,3-3-1.343-3-3Zm-.972,9c1.657,0,3-1.343,3-3s-1.343-3-3-3-3,1.343-3,3,1.343,3,3,3Zm8,0c1.657,0,3-1.343,3-3s-1.343-3-3-3-3,1.343-3,3,1.343,3,3,3Zm7.056,4.981c-.945-.117-1.916-.424-2.544-.974-.727-.636-1.569-1.784-1.916-2.735-.757.462-1.646.728-2.596.728h-3.065v4.884c1.399.37,2.34,1.073,2.992,1.729.599.601.927,1.697,1.107,2.641.128.674.908.972,1.454.555.568-.434,1.26-.821,1.92-.821.587,0,1.341.26,2.028.523.635.243,1.252-.396.988-1.023-.278-.66-.516-1.42-.516-2,0-.471.378-1.257.854-1.958.419-.617.034-1.457-.706-1.549ZM.173,18.53c.476.7.854,1.487.854,1.958,0,.58-.238,1.34-.516,2-.264.627.354,1.266.988,1.023.686-.263,1.44-.523,2.028-.523.66,0,1.352.387,1.92.821.546.417,1.326.12,1.454-.555.179-.944.508-2.04,1.107-2.641.652-.655,1.593-1.358,2.992-1.729v-4.884h-3.065c-.95,0-1.839-.266-2.596-.728-.346.951-1.188,2.099-1.916,2.735-.628.549-1.599.857-2.544.974-.74.092-1.124.932-.706,1.549Z"/></svg>
