<?xml version="1.0" encoding="UTF-8"?>
<svg xmlns="http://www.w3.org/2000/svg" id="Layer_1" data-name="Layer 1" viewBox="0 0 24 24" width="512" height="512"><path d="m15,5h-1.227c-.104-.325-.239-.64-.422-.938l.891-.891c.391-.391.391-1.023,0-1.414s-1.023-.391-1.414,0l-.891.891c-.297-.183-.613-.318-.937-.422v-1.226c0-.552-.448-1-1-1s-1,.448-1,1v1.067c-.542.086-1.066.277-1.549.569l-.899-.898c-.391-.391-1.024-.391-1.414,0-.391.391-.391,1.024,0,1.414l.802.802-1.987,1.987-.802-.802c-.391-.391-1.023-.391-1.414,0s-.391,1.023,0,1.414l.899.899c-.289.475-.482.997-.569,1.549h-1.067c-.552,0-1,.448-1,1s.448,1,1,1h1.225c.103.321.237.63.414.919l-.902.854c-.401.38-.418,1.013-.039,1.414.197.208.461.312.726.312.247,0,.494-.091.688-.274l.933-.883c.303.188.624.325.956.431v1.227c0,.552.448,1,1,1s1-.448,1-1v-1.068c.868-.138,1.703-.53,2.37-1.197l2.677-2.677.649.649c.195.195.451.293.707.293s.512-.098.707-.293c.391-.391.391-1.023,0-1.414l-.746-.746c.292-.483.482-1.007.568-1.548h1.067c.552,0,1-.448,1-1s-.448-1-1-1Zm-5.5,3c-.828,0-1.5-.672-1.5-1.5s.672-1.5,1.5-1.5,1.5.672,1.5,1.5-.672,1.5-1.5,1.5Zm13.5,5h-1.226c-.102-.318-.235-.627-.412-.919l.902-.854c.401-.38.418-1.013.039-1.414-.38-.401-1.013-.417-1.414-.039l-.933.883c-.299-.187-.621-.326-.955-.433v-1.225c0-.552-.448-1-1-1s-1,.448-1,1v1.067c-.893.142-1.719.547-2.37,1.198l-2.677,2.677-.649-.649c-.391-.391-1.023-.391-1.414,0s-.391,1.023,0,1.414l.745.745c-.289.475-.482.996-.569,1.548h-1.066c-.552,0-1,.448-1,1s.448,1,1,1h1.225c.105.328.242.643.424.937l-.891.891c-.391.391-.391,1.023,0,1.414.195.195.451.293.707.293s.512-.098.707-.293l.891-.891c.298.183.613.318.938.422v1.226c0,.552.448,1,1,1s1-.448,1-1v-1.067c.541-.086,1.066-.276,1.548-.569l.899.899c.195.195.451.293.707.293s.512-.098.707-.293c.391-.391.391-1.024,0-1.414l-.802-.802,1.987-1.987.802.802c.195.195.451.293.707.293s.512-.098.707-.293c.391-.391.391-1.023,0-1.414l-.898-.898c.292-.483.482-1.007.569-1.549h1.067c.552,0,1-.448,1-1s-.448-1-1-1Zm-8.5,6c-.828,0-1.5-.672-1.5-1.5s.672-1.5,1.5-1.5,1.5.672,1.5,1.5-.672,1.5-1.5,1.5Z"/></svg>
