<?xml version="1.0" encoding="UTF-8"?>
<svg xmlns="http://www.w3.org/2000/svg" id="Layer_1" data-name="Layer 1" viewBox="0 0 24 24" width="512" height="512"><path d="m7,9h10c.683,1.3,1.069,3.264,1.069,5.5v7.5h-4.069v-5c0-1.105-.895-2-2-2s-2,.895-2,2v5h-4.069v-7.5c0-2.236.386-4.2,1.069-5.5Zm14.615-2c-2.152-2.969-5.56-4.928-9.39-4.998-3.276-.042-6.315,1.16-8.631,3.435-.497.488-.945,1.011-1.344,1.563h19.365Zm-2.426,2c.574,1.495.881,3.386.881,5.5v7.5h-.069c2.209,0,4-1.791,4-4v-3.635c0-1.916-.433-3.738-1.202-5.365h-3.609ZM3.931,14.5c0-2.114.307-4.005.881-5.5H1.084c-.71,1.547-1.084,3.243-1.084,5v4c0,2.209,1.791,4,4,4h-.069v-7.5Z"/></svg>
