<?xml version="1.0" encoding="UTF-8"?>
<svg xmlns="http://www.w3.org/2000/svg" id="Layer_1" data-name="Layer 1" viewBox="0 0 24 24" width="512" height="512"><path d="M8.535,14.464c-.944-.944-2.2-1.464-3.535-1.464s-2.591,.52-3.536,1.464c-1.95,1.949-1.95,5.122,.026,7.096l1.99,1.849c.428,.398,.976,.596,1.524,.596s1.1-.2,1.528-.6l2.001-1.871c.945-.944,1.465-2.2,1.465-3.535s-.52-2.591-1.465-3.536Zm8.945-4.055c.428,.397,.976,.596,1.524,.596s1.101-.2,1.529-.6l2.001-1.871c1.95-1.949,1.95-5.122,0-7.071h0c-.945-.944-2.2-1.464-3.535-1.464s-2.591,.52-3.536,1.464c-1.95,1.949-1.95,5.122,.026,7.096l1.99,1.849Zm6.52,9.59c0,2.206-1.794,4-4,4H11c-.552,0-1-.448-1-1s.448-1,1-1h9c1.103,0,2-.897,2-2s-.897-2-2-2h-5c-2.206,0-4-1.794-4-4,0-1.692,1.072-3.208,2.667-3.772,.522-.185,1.092,.089,1.276,.61,.184,.521-.089,1.092-.61,1.276-.797,.282-1.333,1.04-1.333,1.886,0,1.103,.897,2,2,2h5c2.206,0,4,1.794,4,4Z"/></svg>
