<?xml version="1.0" encoding="UTF-8"?>
<svg xmlns="http://www.w3.org/2000/svg" id="Layer_1" data-name="Layer 1" viewBox="0 0 24 24" width="512" height="512"><path d="M13.39,9.98l.63,.64c.54,.54,1.41,.54,1.95,0l7.26-7.26c-.89-1.41-2.45-2.35-4.24-2.35H5C2.24,1,0,3.24,0,6V14c0,1.27,.48,2.44,1.27,3.32l7.34-7.34c1.32-1.32,3.46-1.32,4.78,0Zm-7.89-1.98c-.83,0-1.5-.67-1.5-1.5s.67-1.5,1.5-1.5,1.5,.67,1.5,1.5-.67,1.5-1.5,1.5Zm18.5-2V14c0,2.76-2.24,5-5,5h-6v2h4c.55,0,1,.45,1,1s-.45,1-1,1H7c-.55,0-1-.45-1-1s.45-1,1-1h4v-2H5c-.76,0-1.47-.17-2.12-.47l7.14-7.14c.54-.54,1.41-.54,1.95,0l.63,.64c1.32,1.32,3.46,1.32,4.78,0l6.58-6.58c.02,.18,.03,.37,.03,.55Z"/></svg>
