<?xml version="1.0" encoding="UTF-8"?>
<svg xmlns="http://www.w3.org/2000/svg" id="Layer_1" data-name="Layer 1" viewBox="0 0 24 24" width="512" height="512"><path d="M12,0C5.373,0,0,5.373,0,12c0,.565,.053,1.116,.128,1.66,.318-1.249,1.202-2.683,1.799-3.391,.301-.357,.847-.359,1.151-.004,.738,.863,1.922,2.832,1.922,4.235,0,1.381-1.119,2.5-2.5,2.5-.648,0-1.233-.253-1.677-.658,1.742,4.478,6.083,7.658,11.177,7.658,6.627,0,12-5.373,12-12S18.627,0,12,0ZM6,9c-.435,0-.835-.286-.961-.726-.152-.531,.156-1.084,.687-1.236,.965-.275,1.977-.941,2.46-1.619,.321-.449,.945-.554,1.395-.232,.449,.32,.554,.945,.233,1.395-.746,1.045-2.135,1.979-3.54,2.381-.092,.025-.184,.038-.275,.038Zm1,3.5c0-.828,.672-1.5,1.5-1.5s1.5,.672,1.5,1.5-.672,1.5-1.5,1.5-1.5-.672-1.5-1.5Zm8.802,6.097c-.196,.264-.498,.403-.803,.403-.208,0-.417-.064-.596-.198-.007-.005-1.114-.802-2.403-.802s-2.396,.797-2.407,.805c-.444,.323-1.07,.23-1.396-.213-.326-.443-.235-1.065,.206-1.394,.066-.049,1.632-1.198,3.597-1.198s3.531,1.149,3.597,1.198c.443,.329,.535,.956,.205,1.398Zm-.302-4.597c-.828,0-1.5-.672-1.5-1.5s.672-1.5,1.5-1.5,1.5,.672,1.5,1.5-.672,1.5-1.5,1.5Zm3.461-5.726c-.125,.439-.526,.726-.961,.726-.091,0-.183-.013-.275-.038-1.404-.401-2.793-1.336-3.54-2.381-.321-.449-.216-1.074,.233-1.395,.45-.322,1.075-.216,1.395,.232,.484,.678,1.496,1.344,2.46,1.619,.531,.152,.839,.705,.687,1.236Z"/></svg>
