<?xml version="1.0" encoding="UTF-8"?>
<svg xmlns="http://www.w3.org/2000/svg" id="Layer_1" data-name="Layer 1" viewBox="0 0 24 24" width="512" height="512"><path d="M12,0C5.383,0,0,5.383,0,12s5.383,12,12,12,12-5.383,12-12S18.617,0,12,0Zm1.445,8.168l3-2c.46-.307,1.08-.183,1.387,.277s.183,1.08-.277,1.387l-1.752,1.168,1.752,1.168c.46,.307,.584,.927,.277,1.387-.192,.289-.51,.445-.833,.445-.19,0-.383-.055-.554-.168l-3-2c-.278-.186-.445-.498-.445-.832s.167-.646,.445-.832Zm-7-.336c-.46-.307-.584-.927-.277-1.387,.306-.46,.925-.584,1.387-.277l3,2c.278,.186,.445,.498,.445,.832s-.167,.646-.445,.832l-3,2c-.171,.113-.363,.168-.554,.168-.323,0-.641-.156-.833-.445-.307-.46-.183-1.08,.277-1.387l1.752-1.168-1.752-1.168Zm13.275,7.863l-1.786,1.845c-.283,.291-.66,.451-1.062,.455h-.013c-.398,0-.772-.154-1.056-.435l-1.371-1.357-1.376,1.363c-.283,.279-.658,.434-1.057,.434s-.771-.154-1.054-.434l-1.377-1.363-1.371,1.357c-.283,.28-.657,.435-1.056,.435h-.013c-.402-.004-.779-.164-1.06-.452l-1.789-1.848c-.384-.396-.374-1.029,.023-1.414,.397-.383,1.03-.374,1.414,.023l1.432,1.479,1.364-1.35c.582-.574,1.527-.572,2.109-.002l1.377,1.364,1.375-1.362c.584-.574,1.528-.572,2.11-.002l1.365,1.352,1.432-1.479c.385-.398,1.018-.406,1.414-.023,.397,.385,.407,1.018,.023,1.414Z"/></svg>
