<?xml version="1.0" encoding="UTF-8"?>
<svg xmlns="http://www.w3.org/2000/svg" id="Layer_1" data-name="Layer 1" viewBox="0 0 24 24" width="512" height="512"><path d="M20.19,16.12c-.49-.25-1.09-.06-1.35,.43-1.1,2.13-3.27,3.45-5.66,3.45h-.18V4h.18c2.43,0,4.62,1.35,5.7,3.54,.25,.49,.85,.7,1.34,.45,.49-.25,.7-.85,.45-1.34-1.42-2.87-4.3-4.65-7.49-4.65h-.18V1c0-.55-.45-1-1-1s-1,.45-1,1v1.02c-4.44,.19-8,3.86-8,8.34v3.27c0,4.49,3.56,8.15,8,8.34v1.02c0,.55,.45,1,1,1s1-.45,1-1v-1h.18c3.14,0,5.99-1.74,7.43-4.53,.25-.49,.06-1.09-.43-1.35Zm-15.19-2.49v-3.27c0-3.39,2.66-6.15,6-6.34v15.96c-3.34-.19-6-2.96-6-6.34Z"/></svg>
