<?xml version="1.0" encoding="UTF-8"?>
<svg xmlns="http://www.w3.org/2000/svg" id="Layer_1" data-name="Layer 1" viewBox="0 0 24 24" width="512" height="512"><path d="M11,16h2v.6c0,.662-.411,1.4-1,1.4s-1-.738-1-1.4v-.6Zm13-4c0,6.627-5.373,12-12,12S0,18.627,0,12C0,8.914,1.175,6.11,3.088,3.984c-.052,.206-.088,.418-.088,.64,0,1.288,.922,2.377,2.192,2.588l3.287,.548c.302,.05,.521,.309,.521,.616,0,.344-.28,.624-.624,.624h-2.644c-.356,0-.688-.192-.867-.5-.277-.479-.889-.643-1.366-.365-.479,.277-.642,.888-.365,1.366,.535,.925,1.53,1.499,2.598,1.499h.268c0,.552,.448,1,1,1s1-.448,1-1h.376c1.447,0,2.624-1.177,2.624-2.624,0-1.288-.922-2.377-2.192-2.588l-3.287-.548c-.302-.05-.521-.309-.521-.616,0-.344,.28-.624,.624-.624h2.644c.356,0,.688,.192,.867,.5,.277,.479,.889,.642,1.366,.365,.479-.277,.642-.888,.365-1.366-.535-.925-1.531-1.5-2.598-1.5h-.268c0-.5-.373-.896-.852-.97,1.484-.658,3.123-1.03,4.852-1.03s3.367,.372,4.852,1.03c-.479,.074-.852,.47-.852,.97h-.376c-1.447,0-2.624,1.177-2.624,2.624,0,1.288,.922,2.377,2.192,2.588l3.287,.548c.302,.05,.521,.309,.521,.616,0,.344-.28,.624-.624,.624h-2.644c-.356,0-.688-.192-.867-.5-.277-.479-.89-.643-1.366-.365-.479,.277-.642,.888-.365,1.366,.535,.925,1.53,1.499,2.598,1.499h.268c0,.552,.448,1,1,1s1-.448,1-1h.376c1.447,0,2.624-1.177,2.624-2.624,0-1.288-.922-2.377-2.192-2.588l-3.287-.548c-.302-.05-.521-.309-.521-.616,0-.344,.28-.624,.624-.624h2.644c.356,0,.688,.192,.867,.5,.277,.479,.89,.642,1.366,.365,.302-.174,.459-.484,.479-.807,1.873,2.117,3.02,4.892,3.02,7.941Zm-6,3c0-.552-.448-1-1-1H7c-.552,0-1,.448-1,1s.448,1,1,1h2v.6c0,1.635,1.147,3.4,3,3.4s3-1.765,3-3.4v-.6h2c.552,0,1-.448,1-1Z"/></svg>
