<?xml version="1.0" encoding="UTF-8"?>
<svg xmlns="http://www.w3.org/2000/svg" id="Layer_1" data-name="Layer 1" viewBox="0 0 24 24" width="512" height="512"><path d="m20,0H4C1.794,0,0,1.794,0,4v12c0,2.206,1.794,4,4,4h2.923l3.748,3.156c.382.34.862.509,1.338.509.467,0,.931-.163,1.292-.485l3.847-3.18h2.852c2.206,0,4-1.794,4-4V4c0-2.206-1.794-4-4-4ZM7.845,11.465c-.158.889-1.007,1.535-2.017,1.535-.817,0-1.585-.329-2.106-.904l-.002-.002c-.228-.251-.21-.64.042-.868l.005-.005c.251-.228.64-.209.868.042l.002.002c.283.312.728.498,1.191.498.443,0,.755-.262.801-.516.061-.341-.446-.556-.604-.614-.744-.274-1.414-.574-1.414-.574-.593-.378-.855-.958-.769-1.562.093-.642.562-1.165,1.226-1.365,1.303-.393,2.381.493,2.425.531l.003.002c.26.219.293.606.075.866l-.005.005c-.218.26-.606.293-.866.075-.025-.02-.626-.49-1.276-.296-.29.087-.347.279-.358.357-.008.058-.013.203.128.299.016,0,.607.26,1.258.501,1.209.446,1.512,1.321,1.393,1.991Zm7.043.883c0,.341-.277.618-.618.618h-.003c-.341,0-.618-.277-.618-.618v-3.231l-1.273,1.379c-.245.265-.664.265-.909,0l-1.274-1.38-.002,3.233c0,.341-.277.618-.618.618s-.618-.277-.618-.618v-4.463c0-.471.382-.852.852-.852.246,0,.48.106.642.292l1.473,1.686,1.473-1.686c.162-.185.396-.292.642-.292.471,0,.852.382.852.852v4.463Zm5.528-.916c-.158.889-1.007,1.535-2.017,1.535-.817,0-1.585-.329-2.106-.904l-.002-.002c-.228-.251-.21-.64.042-.868l.005-.005c.251-.228.64-.209.868.042l.002.002c.283.312.728.498,1.191.498.443,0,.755-.262.801-.516.061-.341-.446-.556-.604-.614-.744-.274-1.414-.574-1.414-.574-.593-.378-.855-.958-.769-1.562.093-.642.562-1.165,1.226-1.365,1.303-.393,2.381.493,2.425.531l.003.002c.26.219.293.606.075.866l-.005.005c-.218.26-.606.293-.866.075-.025-.02-.626-.49-1.276-.296-.29.087-.347.279-.358.357-.008.058-.013.203.128.299.015,0,.607.26,1.258.501,1.209.446,1.512,1.321,1.393,1.991Z"/></svg>
