<?xml version="1.0" encoding="UTF-8"?>
<svg xmlns="http://www.w3.org/2000/svg" id="Layer_1" data-name="Layer 1" viewBox="0 0 24 24" width="512" height="512"><path d="m5,18c.553,0,1-.447,1-1v-3h12v3c0,.553.447,1,1,1s1-.447,1-1V5c0-1.654,1.346-3,3-3,.553,0,1-.447,1-1s-.447-1-1-1c-2.757,0-5,2.243-5,5v1H6v-1c0-1.654,1.346-3,3-3,.553,0,1-.447,1-1s-.447-1-1-1c-2.757,0-5,2.243-5,5v12c0,.553.447,1,1,1Zm13-10v4H6v-4h12Zm5.744,13.565c.369.41.335,1.043-.076,1.412-.733.659-1.681,1.022-2.668,1.022-1.128,0-2.222-.472-3-1.226-.778.754-1.872,1.226-3,1.226s-2.222-.472-3-1.226c-.778.754-1.872,1.226-3,1.226s-2.222-.472-3-1.226c-.778.754-1.872,1.226-3,1.226-.987,0-1.935-.363-2.668-1.022-.411-.369-.445-1.002-.076-1.412.372-.411,1.003-.442,1.412-.076.366.329.84.511,1.332.511.889,0,1.793-.586,2.058-1.333.141-.4.519-.667.942-.667s.802.267.942.667c.265.747,1.169,1.333,2.058,1.333s1.793-.586,2.058-1.333c.141-.4.519-.667.942-.667s.802.267.942.667c.265.747,1.169,1.333,2.058,1.333s1.793-.586,2.058-1.333c.141-.4.519-.667.942-.667s.802.267.942.667c.265.747,1.169,1.333,2.058,1.333.492,0,.966-.182,1.332-.511.409-.367,1.04-.337,1.412.076Z"/></svg>
