<?xml version="1.0" encoding="UTF-8"?>
<svg xmlns="http://www.w3.org/2000/svg" id="Layer_1" data-name="Layer 1" viewBox="0 0 24 24" width="512" height="512"><path d="M19.557,19c-.357,0-.714-.08-1.048-.239L5.664,12.442c-1.874-.894-3.167-2.72-3.386-4.772l-.267-2.495c-.059-.546,.111-1.099,.465-1.517,.331-.392,.788-.625,1.285-.655,.827-.047,1.606,.435,1.909,1.208l1.26,3.223,13.577,6.815c1.259,.554,1.835,2.03,1.283,3.291-.268,.611-.759,1.074-1.383,1.307-.277,.103-.564,.154-.851,.154Zm4.443,4c0-.552-.447-1-1-1H1c-.553,0-1,.448-1,1s.447,1,1,1H23c.553,0,1-.448,1-1Zm-7.386-12.943l-1.201-6.529c-.082-.912-.655-1.704-1.498-2.069l-.793-.338c-.466-.198-.995-.149-1.419,.13-.421,.28-.672,.75-.67,1.253V7.255l5.581,2.801Z"/></svg>
