<?xml version="1.0" encoding="UTF-8"?>
<svg xmlns="http://www.w3.org/2000/svg" id="Layer_1" data-name="Layer 1" viewBox="0 0 24 24" width="512" height="512"><path d="m19,0H5C2.243,0,0,2.243,0,5v14c0,2.757,2.243,5,5,5h14c2.757,0,5-2.243,5-5V5c0-2.757-2.243-5-5-5Zm-9,10h-1v8c0,.553-.447,1-1,1s-1-.447-1-1v-8h-1c-.553,0-1-.447-1-1s.447-1,1-1h1v-2c0-.553.447-1,1-1s1,.447,1,1v2h1c.553,0,1,.447,1,1s-.447,1-1,1Zm8,6h-1v2c0,.553-.447,1-1,1s-1-.447-1-1v-2h-1c-.553,0-1-.447-1-1s.447-1,1-1h1V6c0-.553.447-1,1-1s1,.447,1,1v8h1c.553,0,1,.447,1,1s-.447,1-1,1Z"/></svg>
