<?xml version="1.0" encoding="UTF-8"?>
<svg xmlns="http://www.w3.org/2000/svg" id="Layer_1" data-name="Layer 1" viewBox="0 0 24 24">
  <path d="m18.607,23H5.393c-.729,0-1.375-.409-1.687-1.067s-.219-1.418.243-1.981l5.55-6.775c.625-.749,1.535-1.176,2.502-1.176s1.877.427,2.497,1.169l5.555,6.781c.462.565.555,1.325.242,1.983-.312.657-.958,1.066-1.687,1.066Zm.393-22H5C2.239,1,0,3.239,0,6v8c0,1.901,1.079,3.539,2.646,4.384l5.304-6.476c1.015-1.218,2.487-1.908,4.049-1.908s3.03.688,4.032,1.887l5.322,6.497c1.567-.845,2.646-2.482,2.646-4.384V6c0-2.761-2.239-5-5-5Z"/>
</svg>
