<?xml version="1.0" encoding="UTF-8"?>
<svg xmlns="http://www.w3.org/2000/svg" id="Layer_1" data-name="Layer 1" viewBox="0 0 24 24" width="512" height="512"><path d="M20,0H4C1.794,0,0,1.794,0,4v12c0,2.206,1.794,4,4,4h2.923l3.748,3.156c.382,.34,.862,.509,1.338,.509,.467,0,.931-.163,1.292-.485l3.847-3.18h2.852c2.206,0,4-1.794,4-4V4c0-2.206-1.794-4-4-4ZM7.293,10.71l2.583,2.583c.391,.391,.391,1.023,0,1.414-.195,.195-.451,.293-.707,.293s-.512-.098-.707-.293l-2.583-2.583c-1.17-1.17-1.17-3.073,0-4.243l2.583-2.583c.391-.391,1.023-.391,1.414,0s.391,1.023,0,1.414l-2.583,2.583c-.39,.391-.39,1.024,0,1.415Zm10.828,1.414l-2.583,2.583c-.195,.195-.451,.293-.707,.293s-.512-.098-.707-.293c-.391-.391-.391-1.023,0-1.414l2.583-2.583c.39-.391,.39-1.024,0-1.415l-2.583-2.583c-.391-.391-.391-1.023,0-1.414s1.023-.391,1.414,0l2.583,2.583c1.17,1.17,1.17,3.073,0,4.243Z"/></svg>
