<?xml version="1.0" encoding="UTF-8"?>
<svg xmlns="http://www.w3.org/2000/svg" id="Layer_1" data-name="Layer 1" viewBox="0 0 24 24">
  <path d="m14.5,5.5c0,1.381-1.119,2.5-2.5,2.5s-2.5-1.119-2.5-2.5,1.119-2.5,2.5-2.5,2.5,1.119,2.5,2.5Zm2.5-2.25c0-1.853-2.149-3.25-5-3.25s-5,1.397-5,3.25c0,.553.448,1,1,1s1-.447,1-1c0-.44,1.139-1.25,3-1.25s3,.81,3,1.25c0,.553.448,1,1,1s1-.447,1-1ZM5.261,20.757l5.117-11.03c1.055.362,2.203.361,3.257-.005.007-.008.014-.016.021-.024l5.138,11.064c.673,1.525-.444,3.237-2.11,3.237H7.369c-1.669,0-2.785-1.718-2.108-3.243Zm3.592-12.524l-5.001,10.767h-.353c-.828,0-1.5-.672-1.5-1.5v-.5h-.5c-1.5,0-1.5-1.513-1.5-1.513,0-3.007.341-9.487,3.5-9.487,2.188,0,4.081,1.167,5.353,2.233Zm11.647-2.233c3.159,0,3.5,6.48,3.5,9.487,0,0,0,1.513-1.5,1.513h-.5v.5c0,.828-.672,1.5-1.5,1.5h-.353s-5.001-10.767-5.001-10.767c1.273-1.066,3.165-2.233,5.353-2.233Z"/>
</svg>
