<?xml version="1.0" encoding="UTF-8"?>
<svg xmlns="http://www.w3.org/2000/svg" id="Layer_1" data-name="Layer 1" viewBox="0 0 24 24" width="512" height="512"><path d="M23,7h-1c-.553,0-1-.447-1-1s.447-1,1-1h1c.553,0,1,.447,1,1s-.447,1-1,1Zm-3.118,7.787c.436-.341,.512-.969,.171-1.403l-.783-1c-.341-.436-.97-.513-1.403-.171-.436,.341-.512,.969-.171,1.403l.783,1c.197,.252,.491,.384,.788,.384,.216,0,.433-.069,.615-.213Zm3.108-3.796c.271-.481,.101-1.092-.38-1.362l-.888-.5c-.482-.273-1.092-.1-1.362,.38-.271,.481-.101,1.092,.38,1.362l.888,.5c.155,.088,.324,.129,.49,.129,.35,0,.688-.184,.872-.509Zm-4.789-1.562l.454-.874c.373-.72,.441-1.539,.191-2.31s-.787-1.394-1.474-1.736L11.213,1.092C7.267-.959,4.302,.343,2.887,1.301c-.597,.403-.927,1.072-.883,1.789,.043,.708,.446,1.324,1.076,1.65l11.097,5.978c.433,.221,.896,.326,1.354,.326,1.086,0,2.138-.591,2.671-1.615Zm-12.036-.755L.314,19.665c-.723,1.455-.139,3.247,1.303,3.997,.434,.226,.905,.339,1.379,.339,.313,0,.628-.049,.935-.149,.771-.252,1.395-.791,1.742-1.492l5.768-10.844-5.276-2.842Z"/></svg>
