<?xml version="1.0" encoding="UTF-8"?>
<svg xmlns="http://www.w3.org/2000/svg" id="Layer_1" data-name="Layer 1" viewBox="0 0 24 24" width="512" height="512"><path d="M22,14.556v-1.556c0-2.206-1.794-4-4-4s-4,1.794-4,4v1.556c-1.19,.694-2,1.97-2,3.444v2c0,2.206,1.794,4,4,4h4c2.206,0,4-1.794,4-4v-2c0-1.474-.81-2.75-2-3.444Zm-4,5.944c-.828,0-1.5-.672-1.5-1.5s.672-1.5,1.5-1.5,1.5,.672,1.5,1.5-.672,1.5-1.5,1.5Zm2-6.5h-4v-1c0-1.103,.897-2,2-2s2,.897,2,2v1Zm4-5.359v.359c0,.602-.182,1.161-.489,1.632-.92-2.134-3.043-3.632-5.511-3.632-2.964,0-5.426,2.162-5.908,4.991-.031,0-.06,.009-.092,.009-1.654,0-3-1.346-3-3,0-.553-.447-1-1-1s-1,.447-1,1c0,1.654-1.346,3-3,3h-1c-1.654,0-3-1.346-3-3v-.359L1.209,3.626C1.82,1.491,3.797,0,6.017,0h.983V4c0,.552,.448,1,1,1s1-.448,1-1V0h6V4c0,.552,.448,1,1,1s1-.448,1-1V0h.983c2.22,0,4.197,1.491,4.808,3.626l1.209,5.015Zm-14,9.359v2c0,1.538,.586,2.937,1.54,4H5c-2.209,0-4-1.791-4-4v-6.424h0c.614,.269,1.288,.424,2,.424h1c1.634,0,3.087-.788,4-2.003,.833,1.108,2.117,1.854,3.576,1.977-.996,1.091-1.576,2.525-1.576,4.025Z"/></svg>
