<?xml version="1.0" encoding="UTF-8"?>
<svg xmlns="http://www.w3.org/2000/svg" id="Layer_1" data-name="Layer 1" viewBox="0 0 24 24" width="512" height="512"><path d="M21,8h-2v-3c0-2.757-2.243-5-5-5h-4c-2.757,0-5,2.243-5,5v3H3c-.552,0-1,.447-1,1s.448,1,1,1H21c.552,0,1-.447,1-1s-.448-1-1-1Zm-.299,4.706c-.112-.425-.518-.706-.957-.706H4.256c-.439,0-.845,.282-.957,.706-.197,.745-.299,1.516-.299,2.294,0,4.963,4.038,9,9,9s9-4.037,9-9c0-.778-.102-1.549-.299-2.294Zm-12.201,4.294c-.828,0-1.5-.672-1.5-1.5s.672-1.5,1.5-1.5,1.5,.672,1.5,1.5-.672,1.5-1.5,1.5Zm4.29,4.41c-.232,.787-1.349,.787-1.581,0-.361-1.228-.71-2.516-.71-2.914,0-.826,.672-1.495,1.5-1.495s1.5,.669,1.5,1.495c0,.398-.349,1.687-.71,2.914Zm2.71-4.41c-.828,0-1.5-.672-1.5-1.5s.672-1.5,1.5-1.5,1.5,.672,1.5,1.5-.672,1.5-1.5,1.5Z"/></svg>
