<?xml version="1.0" encoding="UTF-8"?>
<svg xmlns="http://www.w3.org/2000/svg" id="Layer_1" data-name="Layer 1" viewBox="0 0 24 24" width="512" height="512"><path d="m20,0H4C1.794,0,0,1.794,0,4v12c0,2.206,1.794,4,4,4h2.923l3.748,3.157c.382.339.862.507,1.337.507.468,0,.931-.162,1.293-.484l3.847-3.18h2.852c2.206,0,4-1.794,4-4V4c0-2.206-1.794-4-4-4Zm-2.298,7.712l-5.793,5.707c-.386.387-.896.58-1.407.58s-1.025-.195-1.416-.585l-2.782-2.696c-.397-.385-.407-1.018-.022-1.414.385-.397,1.018-.406,1.414-.022l2.793,2.707,5.809-5.701c.396-.387,1.027-.383,1.414.011.388.393.384,1.026-.01,1.414Z"/></svg>
