<?xml version="1.0" encoding="UTF-8"?>
<svg xmlns="http://www.w3.org/2000/svg" id="Layer_1" data-name="Layer 1" viewBox="0 0 24 24" width="512" height="512"><path d="M12,24c-.55,0-1-.45-1-1V1c0-.55,.45-1,1-1s1,.45,1,1V23c0,.55-.45,1-1,1ZM3.15,18.5l5.08-4.79c.49-.43,.76-1.06,.76-1.71s-.28-1.28-.75-1.69L3.14,5.49c-.56-.51-1.33-.63-2.02-.33-.69,.3-1.12,.96-1.12,1.72v10.25c0,.75,.43,1.41,1.12,1.72,.25,.11,.51,.16,.76,.16,.46,0,.91-.17,1.27-.5Zm19.73,.34c.69-.3,1.12-.96,1.12-1.72V6.88c0-.75-.43-1.41-1.12-1.72-.69-.3-1.46-.18-2.03,.34l-5.08,4.79c-.49,.44-.76,1.06-.76,1.71s.28,1.27,.75,1.69l5.11,4.81c.36,.33,.8,.5,1.26,.5,.26,0,.52-.05,.76-.16Z"/></svg>
