<?xml version="1.0" encoding="UTF-8"?>
<svg xmlns="http://www.w3.org/2000/svg" id="Layer_1" data-name="Layer 1" viewBox="0 0 24 24" width="512" height="512"><path d="m12,14c-4.963,0-9,4.037-9,9,0,.553.447,1,1,1h16c.553,0,1-.447,1-1,0-4.963-4.037-9-9-9Zm4.59,7.914c-.365-.257-.789-.462-1.15-.462-.474,0-1.194.524-1.726.97-.257.216-.643,0-.595-.332.099-.685.245-1.288.414-1.818.273-.807.667-1.497,1.146-2.075.216-.261.609-.262.825-.002.471.566.859,1.221,1.132,1.887.219.521.367.987.472,1.49.062.297-.269.518-.518.343Zm.41-13.914H7c-1.105,0-2-.895-2-2h0c0-1.105.895-2,2-2h10c1.105,0,2,.895,2,2h0c0,1.105-.895,2-2,2ZM7.54,2c1.099-1.224,2.688-2,4.46-2s3.36.776,4.46,2H7.54Zm8.919,8c-1.099,1.224-2.688,2-4.46,2s-3.36-.776-4.46-2h8.919Z"/></svg>
