<?xml version="1.0" encoding="UTF-8"?>
<svg xmlns="http://www.w3.org/2000/svg" id="Layer_1" data-name="Layer 1" viewBox="0 0 24 24" width="512" height="512"><path d="M15.04,19.3c.63,.63,.18,1.7-.7,1.7H5c-2.76,0-5-2.24-5-5V8c0-.49,.07-.96,.2-1.41,.22-.74,1.13-1,1.68-.45l3.11,3.11-2.18,7.46c-.16,.53,.15,1.09,.68,1.24,.53,.15,1.09-.15,1.24-.68l.37-1.28h3.77l.37,1.28c.13,.44,.53,.72,.96,.72,.09,0,.19-.01,.28-.04,.53-.16,.83-.71,.68-1.24l-.54-1.83,4.41,4.41Zm8.96-3.3V8c0-2.76-2.24-5-5-5H5c-.19,0-.37,.01-.56,.03L1.71,.29C1.32-.1,.68-.1,.29,.29S-.1,1.32,.29,1.71L5.64,7.05v-.05c.21-.61,.74-1,1.35-1h0c.6,0,1.14,.39,1.33,.98l1.14,3.89,3.55,3.55v-6.41c0-1.1,.9-2,2-2h1.5c2.48,0,4.5,2.02,4.5,4.5v3c0,2.45-1.97,4.45-4.42,4.5l5.71,5.71c.2,.2,.45,.29,.71,.29s.51-.1,.71-.29c.39-.39,.39-1.02,0-1.41l-2.06-2.06c1.41-.89,2.35-2.45,2.35-4.24Zm-15.71-2l-.6-2.06-1.08-1.08-.92,3.13h2.6Zm10.71-.5v-3c0-1.38-1.12-2.5-2.5-2.5h-1.5v8h1.5c1.38,0,2.5-1.12,2.5-2.5Z"/></svg>
