<?xml version="1.0" encoding="UTF-8"?>
<svg xmlns="http://www.w3.org/2000/svg" id="Layer_1" data-name="Layer 1" viewBox="0 0 24 24" width="512" height="512"><path d="M21,22H9c-.503,0-.762-.332-.851-.474-.088-.144-.269-.523-.044-.974l.99-1.979c.715,.269,1.48,.426,2.276,.426h8.129c.734,0,1.429-.321,1.905-.881s.681-1.302,.562-2.035c-.194-1.188-1.3-2.084-2.573-2.084H11.385c-.674,0-1.27-.454-1.447-1.104l-.788-2.896h9.85c.552,0,1-.447,1-1s-.448-1-1-1H8.606L6.967,1.98C6.631,.701,5.401-.153,4.162,.023c-.704,.104-1.332,.503-1.723,1.095-.391,.592-.512,1.325-.331,2.015l2.99,11.068c.374,1.379,1.184,2.55,2.252,3.393l-1.033,2.065c-.468,.938-.419,2.028,.132,2.919s1.504,1.423,2.552,1.423h12c.552,0,1-.447,1-1s-.448-1-1-1Z"/></svg>
