<?xml version="1.0" encoding="UTF-8"?>
<svg xmlns="http://www.w3.org/2000/svg" id="Layer_1" data-name="Layer 1" viewBox="0 0 24 24" width="512" height="512"><path d="M21,16h-6c-.552,0-1-.447-1-1s.448-1,1-1h6c.551,0,1-.448,1-1s-.449-1-1-1h-6c-.552,0-1-.447-1-1s.448-1,1-1h6c1.54,0,2.798,1.171,2.966,2.667,.012-.222,.034-.442,.034-.667C24,5.373,18.627,0,12,0S0,5.373,0,12s5.373,12,12,12c5.954,0,10.881-4.341,11.824-10.027-.406,1.175-1.512,2.027-2.824,2.027ZM15.5,6c.828,0,1.5,.672,1.5,1.5s-.672,1.5-1.5,1.5-1.5-.672-1.5-1.5,.672-1.5,1.5-1.5Zm-7,0c.828,0,1.5,.672,1.5,1.5s-.672,1.5-1.5,1.5-1.5-.672-1.5-1.5,.672-1.5,1.5-1.5Zm2.677,9.984c-1.918,.344-3.49,1.743-3.506,1.757-.191,.173-.431,.258-.67,.258-.273,0-.544-.111-.742-.329-.37-.409-.34-1.039,.068-1.41,.08-.073,1.999-1.796,4.496-2.244,.544-.098,1.063,.265,1.161,.808,.098,.544-.264,1.063-.808,1.161Z"/></svg>
