<?xml version="1.0" encoding="UTF-8"?>
<svg xmlns="http://www.w3.org/2000/svg" id="Layer_1" data-name="Layer 1" viewBox="0 0 24 24">
  <path d="m6.735,6.918l2.784-5.415c.493-.932,1.442-1.503,2.481-1.503s1.988.572,2.476,1.493l2.978,5.793-2.652,4.605-.946-1.562c-.18-.297-.501-.479-.849-.482h-.007c-.345,0-.665.177-.848.47l-1.621,2.707-3.796-6.105Zm16.89,12.372l-5.082-9.887-2.101,3.649c-.344.587-.949.938-1.623.943-.686-.043-1.284-.336-1.633-.913l-.198-.328-.827,1.323c-.36.576-.981.921-1.66.922h-.004c-.678,0-1.298-.342-1.66-.915l-3.167-5.094L.377,19.285c-.535,1.016-.501,2.208.091,3.192.591.981,1.626,1.567,2.769,1.567h17.524c1.143,0,2.178-.586,2.769-1.567.594-.986.626-2.182.093-3.188Z"/>
</svg>
