<?xml version="1.0" encoding="UTF-8"?>
<svg xmlns="http://www.w3.org/2000/svg" id="Layer_1" data-name="Layer 1" viewBox="0 0 24 24" width="512" height="512"><path d="M8.654,11.155l-2.665-1.785c-1.037-.573-1.773-1.646-1.948-2.9-.175-1.254,.238-2.486,1.133-3.382l1.903-1.903C7.973,.289,9.206-.124,10.461,.052c1.254,.176,2.327,.911,2.941,2.019l1.73,2.607-6.478,6.478Zm4.208,4.208l1.785,2.665c.573,1.037,1.646,1.773,2.9,1.948,1.254,.175,2.486-.238,3.382-1.133l1.903-1.903c.896-.896,1.309-2.128,1.133-3.383-.176-1.254-.911-2.327-2.019-2.941l-2.607-1.73-6.478,6.478Zm-2.858,.046c-.494-.495-.973-.975-1.413-1.415l-5.178,5.178c-.283-.111-.591-.173-.913-.173-1.381,0-2.5,1.119-2.5,2.5s1.119,2.5,2.5,2.5,2.5-1.119,2.5-2.5c0-.322-.062-.63-.173-.913l5.177-5.177Zm7.703-9.117c-.391-.391-1.023-.391-1.414,0l-6.287,6.287c.399,.399,.866,.867,1.413,1.415l6.288-6.288c.391-.391,.391-1.023,0-1.414Z"/></svg>
