<?xml version="1.0" encoding="UTF-8"?>
<svg xmlns="http://www.w3.org/2000/svg" id="Layer_1" data-name="Layer 1" viewBox="0 0 24 24">
  <path d="m17,10c-3.86,0-7,3.141-7,7s3.14,7,7,7,7-3.141,7-7-3.14-7-7-7Zm3,8h-2v2c0,.553-.448,1-1,1s-1-.447-1-1v-2h-2c-.552,0-1-.447-1-1s.448-1,1-1h2v-2c0-.553.448-1,1-1s1,.447,1,1v2h2c.552,0,1,.447,1,1s-.448,1-1,1Zm-12-1c0-4.963,4.038-9,9-9,1.339,0,2.611.295,3.755.822-.082-.529-.156-.95-.18-1.045-.562-2.181-2.51-3.712-4.755-3.75.117-.32.181-.666.181-1.026,0-1.654-1.346-3-3-3h-4c-1.654,0-3,1.346-3,3,0,.36.064.706.181,1.027-2.389.04-4.416,1.76-4.837,4.12L.063,15.323c-.208,1.169.109,2.361.871,3.271.762.91,1.88,1.432,3.067,1.432h2.999c0,2.209,1.791,4,4,4,.122,0,.243-.006.362-.016-2.048-1.651-3.361-4.179-3.361-7.009Zm1-15h4c.551,0,1,.448,1,1s-.449,1-1,1h-4c-.551,0-1-.448-1-1s.449-1,1-1Z"/>
</svg>
