<?xml version="1.0" encoding="UTF-8"?>
<svg xmlns="http://www.w3.org/2000/svg" id="Layer_1" data-name="Layer 1" viewBox="0 0 24 24" width="512" height="512"><path d="M23,14h-1.16L23.99,1.15c.09-.54-.28-1.06-.82-1.15-.55-.1-1.06,.28-1.15,.82l-2.2,13.18h-5.81l-1.04-4.24c-.11-.45-.51-.76-.97-.76s-.86,.31-.97,.76l-1.04,4.24H4.18L1.99,.82C1.9,.28,1.38-.09,.84,0,.29,.09-.08,.61,.01,1.15L2.16,14H1c-.55,0-1,.45-1,1s.45,1,1,1h1.49l.84,5.04c.27,1.64,1.57,2.82,3.22,2.95,1.66,.13,3.12-.84,3.67-2.49l1.35-5.5h.88l1.37,5.57c.49,1.48,1.82,2.43,3.35,2.43,.1,0,.2,0,.29-.01,1.65-.13,2.95-1.32,3.22-2.95l.84-5.04h1.49c.55,0,1-.45,1-1s-.45-1-1-1Zm-14.71,6.94c-.28,.85-1,1.09-1.59,1.05-.58-.05-1.26-.41-1.41-1.29l-.78-4.71h4.99l-1.21,4.94Zm10.4-.23c-.15,.88-.82,1.24-1.41,1.29-.58,.04-1.31-.21-1.57-.98l-1.23-5.02h4.98l-.78,4.71Z"/></svg>
