<?xml version="1.0" encoding="UTF-8"?>
<svg xmlns="http://www.w3.org/2000/svg" id="Layer_1" data-name="Layer 1" viewBox="0 0 24 24">
  <path d="m23.836,8.599c-.338-1.025-1.344-2.222-3.067-2.222h-4.368l-1.327-4.138c-.531-1.653-1.987-2.239-3.073-2.239s-2.542.587-3.072,2.24l-1.327,4.137H3.231c-1.733,0-2.735,1.199-3.064,2.219-.34,1.028-.24,2.591,1.16,3.612l3.561,2.603-1.352,4.184c-.535,1.652.302,2.978,1.18,3.608.487.352,1.17.625,1.919.625.607,0,1.258-.179,1.882-.641l3.483-2.56,3.481,2.559c1.14.837,2.714.81,3.792.024.885-.632,1.727-1.958,1.19-3.615l-1.352-4.184,3.56-2.602c1.395-1.017,1.499-2.578,1.164-3.61Zm-2.343,1.995l-4.145,3.029c-.349.254-.494.704-.361,1.115l1.574,4.873c.263.812-.329,1.285-.458,1.377-.406.296-.98.322-1.438-.013l-4.074-2.995c-.176-.129-.384-.194-.592-.194V2c.27,0,.922.083,1.169.851l1.55,4.832c.133.414.518.694.952.694h5.098c.802,0,1.083.593,1.166.844.083.255.206.9-.441,1.373Z"/>
</svg>
