<?xml version="1.0" encoding="UTF-8"?>
<svg xmlns="http://www.w3.org/2000/svg" id="Layer_1" data-name="Layer 1" viewBox="0 0 24 24" width="512" height="512"><path d="M17,0H7C4.243,0,2,2.243,2,5v14c0,2.757,2.243,5,5,5h10c2.757,0,5-2.243,5-5V5c0-2.757-2.243-5-5-5Zm-4.977,4.171c.561,0,.87,2.265,.977,4.829h-1.954c.107-2.564,.416-4.829,.977-4.829Zm.977,6.829c-.107,2.564-.435,4.829-.977,4.829s-.87-2.265-.977-4.829h1.954Zm-4.438-5.882c.41-.291,.978,.055,.877,.548-.251,1.215-.351,2.473-.39,3.334h-2.935c.27-1.6,1.177-2.98,2.448-3.882Zm-2.448,5.882h2.935c.039,.861,.14,2.119,.39,3.334,.102,.493-.466,.839-.877,.548-1.271-.902-2.178-2.282-2.448-3.882Zm9.887,9H8c-.553,0-1-.448-1-1s.447-1,1-1h8c.553,0,1,.448,1,1s-.447,1-1,1Zm-.516-5.118c-.41,.291-.978-.055-.877-.548,.251-1.215,.351-2.473,.39-3.334h2.935c-.27,1.6-1.177,2.98-2.448,3.882Zm-.487-5.882c-.039-.861-.14-2.119-.39-3.334-.102-.493,.466-.839,.877-.548,1.271,.901,2.178,2.282,2.448,3.882h-2.935Z"/></svg>
