<?xml version="1.0" encoding="UTF-8"?>
<svg xmlns="http://www.w3.org/2000/svg" id="Layer_1" data-name="Layer 1" viewBox="0 0 24 24" width="512" height="512"><path d="M16.5,7.988c-.828,0-1.5,.672-1.5,1.5v4c0,.828,.672,1.5,1.5,1.5s1.5-.672,1.5-1.5v-4c0-.828-.672-1.5-1.5-1.5Zm-4,0c-.828,0-1.5,.672-1.5,1.5v4c0,.828,.672,1.5,1.5,1.5s1.5-.672,1.5-1.5v-4c0-.828-.672-1.5-1.5-1.5Zm8,0c-.828,0-1.5,.672-1.5,1.5v4c0,.828,.672,1.5,1.5,1.5s1.5-.672,1.5-1.5v-4c0-.828-.672-1.5-1.5-1.5Zm1.5,8.674v2.338c0,2.761-2.239,5-5,5h-7.284c-1.591,0-3.117-.632-4.243-1.757l-2.191-2.191c-1.72-1.72-1.712-4.512,.018-6.222l2.211-2.186c.705-.703,1.839-.874,2.646-.291,1.029,.742,1.115,2.187,.256,3.046h0s0,0,0,0l-1.839,1.602c-.39,.39-.39,1.023,0,1.414,.383,.383,.997,.386,1.389,.017,.002-.002,1.865-1.624,1.865-1.624,.013-.013,.022-.029,.035-.043,.642,.743,1.58,1.224,2.637,1.224,.744,0,1.432-.238,2-.635,.568,.398,1.256,.635,2,.635,.735,0,1.417-.229,1.981-.618h.019c.567,.397,1.257,.63,2,.63,.536,0,1.045-.122,1.5-.338ZM10,2h-3v-.5c0-.828,.672-1.5,1.5-1.5s1.5,.672,1.5,1.5v.5Zm0,2v6.39c-.188-.218-.393-.423-.631-.601-.697-.52-1.533-.758-2.369-.753v-2.037H2.431c-.411,0-.565-.371-.274-.662l1.312-.838-1.321-.815c-.291-.291-.128-.685,.284-.685h7.569Z"/></svg>
