<?xml version="1.0" encoding="UTF-8"?>
<svg xmlns="http://www.w3.org/2000/svg" id="Layer_1" data-name="Layer 1" viewBox="0 0 24 24" width="512" height="512"><path d="M23.71,22.29l-2.03-2.03c.26-.56,.4-1.19,.4-1.85v-4.61c-1.99,1.53-4.84,1.16-6.37-.83-.02-.02-.03-.04-.05-.06-.19,.26-.42,.48-.65,.68l-1.3-1.3c.63-.5,1.04-1.27,1.04-2.13,0-.51,.41-.92,.92-.92s.92,.41,.92,.92c0,1.52,1.23,2.75,2.75,2.75s2.75-1.23,2.75-2.75v-.82l-1.19-5.48c-.37-1.68-1.86-2.88-3.58-2.87h-.73V3.75c0,.51-.41,.92-.92,.92s-.92-.41-.92-.92V1h-5.5V3.75c0,.51-.41,.92-.92,.92s-.92-.41-.92-.92V1h-.73c-1.16,0-2.2,.54-2.88,1.4L1.71,.29C1.32-.1,.68-.1,.29,.29S-.1,1.32,.29,1.71l2.7,2.7h0s4.95,4.95,4.95,4.95h0s1.37,1.37,1.37,1.37c0,0,0,0,0,0l2.14,2.14s0,0,0,0l1.72,1.72h0s7.3,7.3,7.3,7.3h0s1.83,1.83,1.83,1.83c.2,.2,.45,.29,.71,.29s.51-.1,.71-.29c.39-.39,.39-1.02,0-1.41Z"/><path d="M4.68,12.93c1.08,0,2.01-.64,2.46-1.55L2.48,6.72l-.54,2.44-.02,1.03c0,1.52,1.24,2.75,2.76,2.74Z"/><path d="M9.25,13.83c-.35-.26-.66-.57-.92-.92-1.49,2.02-4.34,2.44-6.36,.94-.02-.02-.04-.03-.06-.05v4.6c0,2.53,2.05,4.58,4.58,4.58h11c.38,0,.75-.06,1.11-.15L10.08,14.33c-.29-.13-.57-.3-.83-.49Z"/></svg>
