<?xml version="1.0" encoding="UTF-8"?>
<svg xmlns="http://www.w3.org/2000/svg" id="Layer_1" data-name="Layer 1" viewBox="0 0 24 24" width="512" height="512"><path d="m12,0C5.383,0,0,5.383,0,12s5.383,12,12,12,12-5.383,12-12S18.617,0,12,0Zm4.781,16.375c.345.432.274,1.061-.156,1.406-.185.147-.405.219-.624.219-.294,0-.584-.128-.782-.375l-3.7-4.625h-2.519v4c0,.553-.447,1-1,1s-1-.447-1-1V7c0-.552.447-1,1-1s1,.448,1,1v4h2.519l3.7-4.625c.347-.431.975-.501,1.406-.156.431.345.501.974.156,1.405l-3.501,4.375,3.501,4.375Z"/></svg>
