<?xml version="1.0" encoding="UTF-8"?>
<svg xmlns="http://www.w3.org/2000/svg" id="Layer_1" data-name="Layer 1" viewBox="0 0 24 24" width="512" height="512"><path d="m23.035,6.274c-.322-.203-1.004-.482-1.939-.037-.179.085-.395.201-.644.336-.854.461-2.061,1.113-3.452,1.343v-.916c0-.553-.447-1-1-1s-1,.447-1,1v1h-3v-1c0-.553-.447-1-1-1s-1,.447-1,1v1h-3v-1c0-.553-.447-1-1-1s-1,.447-1,1v1.281c-1.17.295-2.331.776-3.236,1.204-1.071.508-1.764,1.604-1.764,2.795v.504c0,1.169.641,2.222,1.671,2.749,1.31.669,3.297,1.467,5.329,1.467h9c1.519,0,3.624,1.046,4.636,1.549l.434.213c.367.176.696.238.979.238.436,0,.765-.15.961-.274.629-.396.989-1.176.99-2.138l.025-8.173c0-.964-.361-1.744-.99-2.141ZM6.5,14c-.828,0-1.5-.672-1.5-1.5s.672-1.5,1.5-1.5,1.5.672,1.5,1.5-.672,1.5-1.5,1.5Zm5,0c-.828,0-1.5-.672-1.5-1.5s.672-1.5,1.5-1.5,1.5.672,1.5,1.5-.672,1.5-1.5,1.5Zm5,0c-.828,0-1.5-.672-1.5-1.5s.672-1.5,1.5-1.5,1.5.672,1.5,1.5-.672,1.5-1.5,1.5Z"/></svg>
