<?xml version="1.0" encoding="UTF-8"?>
<svg xmlns="http://www.w3.org/2000/svg" id="Layer_1" data-name="Layer 1" viewBox="0 0 24 24">
  <path d="m23.961,17.336h0c-.332-2.997-2.878-5.336-5.961-5.336-3.308,0-6,2.692-6,6,0,3.071,2.32,5.606,5.298,5.955.231.027.464.045.702.045,3.308,0,6-2.692,6-6,0-.225-.015-.446-.039-.664Zm-3.961,2.664c-.195.195-.451.293-.707.293s-.512-.098-.707-.293l-1.293-1.293c-.188-.188-.293-.442-.293-.707v-2c0-.552.447-1,1-1s1,.448,1,1v1.586l1,1c.391.391.391,1.023,0,1.414Zm-10-2c0-4.418,3.582-8,8-8v-4h1c.553,0,1-.447,1-1s-.447-1-1-1h-3.101c-.465-2.279-2.484-4-4.899-4h-2c-2.414,0-4.434,1.721-4.899,4H1c-.553,0-1,.447-1,1s.447,1,1,1h1v13c0,2.757,2.243,5,5,5h5.721c-1.665-1.466-2.721-3.607-2.721-6Zm-3.816-14c.414-1.161,1.514-2,2.816-2h2c1.302,0,2.402.839,2.816,2h-7.631Z"/>
</svg>
