<?xml version="1.0" encoding="UTF-8"?>
<svg xmlns="http://www.w3.org/2000/svg" id="Layer_1" data-name="Layer 1" viewBox="0 0 24 24">
  <path d="m8.985,16.084c0-.662.435-1.2.969-1.2s.969.538.969,1.2c0,.552.448,1,1,1s1-.448,1-1c0-.662.435-1.2.969-1.2s.969.538.969,1.2c0,.419-.288,1.63-2.916,3.808-2.67-2.178-2.959-3.388-2.959-3.808ZM0,10h24v9c0,2.757-2.243,5-5,5H5c-2.757,0-5-2.243-5-5v-9Zm6.985,6.084c0,1.578,1.208,3.33,3.695,5.358.36.293.801.44,1.242.44.441,0,.883-.147,1.243-.44,2.486-2.027,3.695-3.78,3.695-5.357,0-1.764-1.332-3.2-2.969-3.2-.755,0-1.444.305-1.969.807-.524-.501-1.214-.807-1.969-.807-1.637,0-2.969,1.436-2.969,3.2ZM19,2h-1v-1c0-.552-.448-1-1-1s-1,.448-1,1v1h-8v-1c0-.552-.448-1-1-1s-1,.448-1,1v1h-1C2.243,2,0,4.243,0,7v1h24v-1c0-2.757-2.243-5-5-5Z"/>
</svg>
