<?xml version="1.0" encoding="UTF-8"?>
<svg xmlns="http://www.w3.org/2000/svg" id="Layer_1" data-name="Layer 1" viewBox="0 0 24 24" width="512" height="512"><path d="M8.5,2.5c0-1.381,1.119-2.5,2.5-2.5s2.5,1.119,2.5,2.5-1.119,2.5-2.5,2.5-2.5-1.119-2.5-2.5Zm6.318,6.988c-.248-1.989-1.947-3.488-3.951-3.488s-3.703,1.5-3.951,3.488l-.068,.542,3.706,2.445c.46,.306,.584,.927,.277,1.387-.192,.289-.51,.445-.833,.445-.19,0-.383-.054-.554-.168l-2.874-1.89-.547,4.379c-.106,.854,.158,1.712,.728,2.357,.34,.385,.775,.658,1.249,.826v3.188c0,.552,.447,1,1,1s1-.448,1-1v-3h2v3c0,.552,.447,1,1,1s1-.448,1-1v-3h2c.427,0,.807-.271,.945-.674,.108-.313,1.055-3.112,1.055-4.826,0-2.146-1.258-4.116-3.182-5.012Z"/></svg>
