<?xml version="1.0" encoding="UTF-8"?>
<svg xmlns="http://www.w3.org/2000/svg" id="Layer_1" data-name="Layer 1" viewBox="0 0 24 24" width="512" height="512"><path d="M22,23c0,.55-.45,1-1,1H3c-.55,0-1-.45-1-1s.45-1,1-1H21c.55,0,1,.45,1,1ZM6,14c0-3.31,2.69-6,6-6,1.54,0,2.94,.59,4,1.54V4h-4c-.55,0-1-.45-1-1s.45-1,1-1h4V1c0-.55,.45-1,1-1s1,.45,1,1v1h1c.55,0,1,.45,1,1s-.45,1-1,1h-1v15c0,.55-.45,1-1,1s-1-.45-1-1v-.54c-1.06,.95-2.46,1.54-4,1.54-3.31,0-6-2.69-6-6Zm2,0c0,2.21,1.79,4,4,4s4-1.79,4-4-1.79-4-4-4-4,1.79-4,4Z"/></svg>
