<?xml version="1.0" encoding="UTF-8"?>
<svg xmlns="http://www.w3.org/2000/svg" id="Layer_1" data-name="Layer 1" viewBox="0 0 24 24" width="512" height="512"><path d="M14.081,11.41l-3-2.349c-1.814-1.418-4.348-1.419-6.162,0l-3,2.348c-1.22,.955-1.919,2.39-1.919,3.938v4.152c0,2.481,2.019,4.5,4.5,4.5h7c2.481,0,4.5-2.019,4.5-4.5v-4.152c0-1.548-.699-2.982-1.919-3.938Zm-4.081,6.59c0,.552-.448,1-1,1h-2c-.552,0-1-.448-1-1v-2c0-.552,.448-1,1-1h2c.552,0,1,.448,1,1v2ZM19,0h-4c-2.757,0-5,2.243-5,5v1.306c.819,.245,1.606,.627,2.312,1.179l3.002,2.351c1.707,1.336,2.686,3.346,2.686,5.512v2.652c0-.553,.447-1,1-1h1c.553,0,1,.447,1,1s-.447,1-1,1h-1c-.553,0-1-.447-1-1v1.5c0,1.746-.696,3.331-1.821,4.5h2.821c2.757,0,5-2.243,5-5V5c0-2.757-2.243-5-5-5Zm-4,7h-1c-.553,0-1-.447-1-1s.447-1,1-1h1c.553,0,1,.447,1,1s-.447,1-1,1Zm5,8h-1c-.553,0-1-.447-1-1s.447-1,1-1h1c.553,0,1,.447,1,1s-.447,1-1,1Zm0-4h-1c-.553,0-1-.447-1-1s.447-1,1-1h1c.553,0,1,.447,1,1s-.447,1-1,1Zm0-4h-1c-.553,0-1-.447-1-1s.447-1,1-1h1c.553,0,1,.447,1,1s-.447,1-1,1Z"/></svg>
