<?xml version="1.0" encoding="UTF-8"?>
<svg xmlns="http://www.w3.org/2000/svg" id="Layer_1" data-name="Layer 1" viewBox="0 0 24 24">
  <path d="m23,3h-2v-1c0-.552-.447-1-1-1s-1,.448-1,1v1h-2c-.553,0-1,.448-1,1s.447,1,1,1h2v4c0,1.103-.897,2-2,2,0-1.654-1.346-3-3-3h-4c-1.654,0-3,1.346-3,3-1.103,0-2-.897-2-2v-4h2c.553,0,1-.448,1-1s-.447-1-1-1h-2v-1c0-.552-.447-1-1-1s-1,.448-1,1v1H1c-.553,0-1,.448-1,1s.447,1,1,1h2v4c0,2.206,1.794,4,4,4v1c0,.167.014.33.04.489-2.505,1.658-4.04,4.488-4.04,7.511,0,.552.447,1,1,1s1-.448,1-1c0-2.299,1.143-4.453,3.014-5.754.529.469,1.225.754,1.986.754h4c.761,0,1.456-.285,1.986-.754,1.872,1.301,3.014,3.455,3.014,5.754,0,.552.447,1,1,1s1-.448,1-1c0-3.023-1.535-5.853-4.04-7.511.026-.159.04-.322.04-.489v-1c2.206,0,4-1.794,4-4v-4h2c.553,0,1-.448,1-1s-.447-1-1-1Z"/>
</svg>
