<?xml version="1.0" encoding="UTF-8"?>
<svg xmlns="http://www.w3.org/2000/svg" id="Layer_1" data-name="Layer 1" viewBox="0 0 24 24">
  <path d="m22.037,9.004c-1.009-3.385-3.656-6.032-7.041-7.041-.02-1.086-.906-1.963-1.996-1.963h-2c-1.09,0-1.976.877-1.996,1.963-3.385,1.009-6.032,3.656-7.041,7.041-1.086.02-1.963.906-1.963,1.996v2c0,1.09.877,1.976,1.963,1.996,1.009,3.385,3.656,6.032,7.041,7.041.02,1.086.906,1.963,1.996,1.963h2c1.09,0,1.976-.877,1.996-1.963,3.385-1.009,6.032-3.656,7.041-7.041,1.086-.02,1.963-.906,1.963-1.996v-2c0-1.09-.877-1.976-1.963-1.996Zm-7.042,10.953c-.024-1.082-.908-1.956-1.996-1.956h-2c-1.088,0-1.972.874-1.996,1.956-2.287-.86-4.101-2.673-4.961-4.961,1.082-.024,1.956-.908,1.956-1.996v-2c0-1.088-.874-1.972-1.956-1.996.86-2.287,2.673-4.101,4.961-4.961.024,1.082.908,1.956,1.996,1.956h2c1.088,0,1.972-.874,1.996-1.956,2.287.86,4.101,2.673,4.961,4.961-1.082.024-1.956.908-1.956,1.996v2c0,1.088.874,1.972,1.956,1.996-.86,2.287-2.673,4.101-4.961,4.961Z"/>
</svg>
