<?xml version="1.0" encoding="UTF-8"?>
<svg xmlns="http://www.w3.org/2000/svg" id="Layer_1" data-name="Layer 1" viewBox="0 0 24 24" width="512" height="512"><path d="m13.698.209c-1.115-.279-2.281-.279-3.396,0l-4.715,1.34c-.939.267-1.587,1.125-1.587,2.101h0c0,.827.467,1.584,1.207,1.954l.793.396h0s2,1,6,1,6-1,6-1h0l.793-.396c.74-.37,1.207-1.126,1.207-1.954h0c0-.976-.648-1.834-1.587-2.101L13.698.209Zm-2.212,5.151l-1.643-.985c-.474-.284-.627-.899-.343-1.372h0c.284-.473.898-.627,1.372-.343l1.128.677,1.128-.677c.474-.284,1.088-.131,1.372.343h0c.284.474.131,1.088-.343,1.372l-1.643.985c-.317.19-.712.19-1.029,0Zm6.507,2.784c-.077,3.242-2.733,5.856-5.993,5.856s-5.915-2.615-5.993-5.856c1.064.36,3.046.856,5.993.856s4.929-.496,5.993-.856Zm-6.935,15.91h-7c-.287,0-.56-.123-.75-.338-.19-.216-.278-.502-.243-.786.538-4.304,3.763-7.398,7.992-7.822v8.946Zm9.992-1.124c.036.284-.053.57-.243.786-.189.215-.463.338-.75.338h-7v-8.946c4.229.424,7.454,3.518,7.992,7.822Z"/></svg>
