<?xml version="1.0" encoding="UTF-8"?>
<svg xmlns="http://www.w3.org/2000/svg" id="Layer_1" data-name="Layer 1" viewBox="0 0 24 24" width="512" height="512"><path d="m10.252,16h-4.252V0h9c2.761,0,5,2.239,5,5v5.252c-.639-.164-1.309-.252-2-.252-3.728,0-6.86,2.55-7.748,6Zm-7.857.061c-.87.104-1.696.437-2.395.964V5C0,2.624,1.672.575,4,.1v15.9h-1c-.203,0-.406.02-.605.061Zm10.314,7.939H3c-1.657,0-3-1.343-3-3s1.343-3,3-3h7c0,2.39,1.048,4.534,2.709,6Zm-.709-6c0,3.314,2.686,6,6,6,3.314,0,6-2.686,6-6s-2.686-6-6-6-6,2.686-6,6Zm7.242-2.998l1.5,1.5c.168.168.257.393.257.621,0,.113-.021.227-.067.336-.136.328-.456.541-.812.541h-1.121v3c0,.552-.447,1-1,1s-1-.448-1-1v-3h-1.121c-.355,0-.676-.213-.812-.541-.138-.329-.062-.706.19-.957l1.5-1.5c.685-.685,1.8-.685,2.485,0Z"/></svg>
