<?xml version="1.0" encoding="UTF-8"?>
<svg xmlns="http://www.w3.org/2000/svg" id="Layer_1" data-name="Layer 1" viewBox="0 0 24 24">
  <path d="m23.447,22.74l-2.43-7.17c-.316-.917-1.107-1.509-2.018-1.509s-1.702.593-2.018,1.513l-2.429,7.166c-.177.523.103,1.091.626,1.269.524.178,1.09-.104,1.268-.626l.469-1.383h4.168l.469,1.383c.142.416.53.679.947.679.106,0,.215-.017.321-.053.523-.178.804-.745.626-1.269Zm-5.854-2.74l1.281-3.779c.075-.221.177-.217.25-.004l1.282,3.783h-2.813Zm-2.098-7.454l-6.42,10.457c-.432.65-1.057,1-1.699,1-.259,0-.521-.057-.773-.174-.925-.428-1.373-1.521-1.064-2.6l1.204-5.226h-3.83c-1.08,0-2.064-.593-2.57-1.547-.506-.954-.443-2.103.163-2.996L6.924,1.001c.607-.912,1.593-1.233,2.473-.826.925.428,1.373,1.521,1.064,2.6l-1.205,5.227,3.833.003c1.079,0,2.063.593,2.569,1.547.505.953.443,2.102-.163,2.995Z"/>
</svg>
