<?xml version="1.0" encoding="UTF-8"?>
<svg xmlns="http://www.w3.org/2000/svg" id="Layer_1" data-name="Layer 1" viewBox="0 0 24 24" width="512" height="512"><path d="m12,0C5.383,0,0,5.383,0,12s5.383,12,12,12,12-5.383,12-12S18.617,0,12,0Zm4.009,16.652c-.835.971-2.309,1.598-3.756,1.598h-.455c-2.783,0-5.048-2.284-5.048-5.091v-2.318c0-2.807,2.265-5.091,5.048-5.091h.455c1.485,0,2.904.71,3.797,1.9.332.442.242,1.069-.2,1.4-.442.332-1.068.241-1.399-.2-.509-.679-1.351-1.1-2.197-1.1h-.455c-1.709,0-3.048,1.357-3.048,3.091v2.318c0,1.733,1.339,3.091,3.048,3.091h.455c.861,0,1.782-.371,2.238-.902.362-.419.993-.465,1.41-.106.419.36.467.991.107,1.41Z"/></svg>
