<?xml version="1.0" encoding="UTF-8"?>
<svg xmlns="http://www.w3.org/2000/svg" id="Layer_1" data-name="Layer 1" viewBox="0 0 24 24" width="512" height="512"><path d="M12,0C5.373,0,0,5.373,0,12c0,5.486,3.686,10.103,8.714,11.533-.443-.746-.714-1.605-.714-2.533v-1c0-2.045,1.237-3.802,3-4.576v-4.424c0-.553,.448-1,1-1s1,.447,1,1v4h1c2.058,0,3.829,1.249,4.595,3.029,.791-.107,1.622,.098,2.29,.637,.238,.192,.43,.424,.597,.671,1.573-2.03,2.519-4.57,2.519-7.337C24,5.373,18.627,0,12,0Zm-3,13.397c-1.638-.659-2.645-1.628-2.707-1.69-.391-.391-.391-1.023,0-1.414,.39-.39,1.021-.392,1.412-.002,.024,.023,.502,.473,1.295,.906v2.2Zm-.5-5.397c-.828,0-1.5-.672-1.5-1.5s.672-1.5,1.5-1.5,1.5,.672,1.5,1.5-.672,1.5-1.5,1.5Zm5.5-1.5c0-.828,.672-1.5,1.5-1.5s1.5,.672,1.5,1.5-.672,1.5-1.5,1.5-1.5-.672-1.5-1.5Zm3.707,5.207c-.062,.062-1.069,1.031-2.707,1.69v-2.201c.806-.44,1.287-.897,1.296-.906,.394-.386,1.026-.384,1.413,.008,.388,.391,.388,1.02-.001,1.409Zm1.921,8.515c.43,.347,.497,.977,.15,1.406l-.524,.886c-.759,.94-1.903,1.486-3.111,1.486h-3.144c-1.657,0-3-1.343-3-3v-1c0-1.657,1.343-3,3-3h1c1.657,0,3,1.343,3,3,0,.552-.448,1-1,1s-1-.448-1-1v-.5c0-.276-.224-.5-.5-.5s-.5,.224-.5,.5v.5c0,1.105,.895,2,2,2h.144c.604,0,1.175-.273,1.555-.743l.524-.886c.347-.429,.976-.496,1.406-.149Z"/></svg>
