<?xml version="1.0" encoding="UTF-8"?>
<svg xmlns="http://www.w3.org/2000/svg" id="Layer_1" data-name="Layer 1" viewBox="0 0 24 24" width="512" height="512"><path d="M9,0c-1.9,0-3.49,1.33-3.9,3.1-1.77,.41-3.1,2-3.1,3.9v.02c-1.25,.94-2,2.41-2,3.98,0,.89,.24,1.74,.69,2.5-.45,.76-.69,1.61-.69,2.5,0,1.69,.86,3.24,2.27,4.17,.72,2.28,2.81,3.83,5.23,3.83,.01,0,.03,0,.04,0,1.94-.01,3.46-1.7,3.46-3.64V2.01C11,.9,10.11,0,9,0Zm4,2.01V20.36c0,1.94,1.52,3.63,3.46,3.64,.01,0,.03,0,.04,0,2.42,0,4.51-1.56,5.23-3.83,1.41-.92,2.27-2.48,2.27-4.17,0-.89-.24-1.74-.69-2.5,.45-.76,.69-1.61,.69-2.5,0-1.57-.75-3.04-2-3.98v-.02c0-1.9-1.33-3.49-3.1-3.9C18.49,1.33,16.9,0,15,0c-1.11,0-2,.9-2,2.01Z"/></svg>
