<?xml version="1.0" encoding="UTF-8"?>
<svg xmlns="http://www.w3.org/2000/svg" id="Layer_1" data-name="Layer 1" viewBox="0 0 24 24" width="512" height="512"><path d="m24,12c0,.553-.448,1-1,1h-2.229c-1.046,0-2.032-.557-2.571-1.453l-.564-.936-2.155,5.255,2.043,1.289c.29.184.466.502.466.846v5c0,.553-.448,1-1,1s-1-.447-1-1v-4.448l-4.126-2.604c-1.233-.781-1.726-2.326-1.173-3.675l1.753-4.273h-1.208c-.381,0-.724.212-.894.553l-1.447,2.895c-.247.494-.846.693-1.342.447-.494-.247-.694-.848-.447-1.342l1.447-2.895c.512-1.022,1.54-1.658,2.683-1.658h2.651c.031-.002.063-.002.095,0h1.518c1.046,0,2.031.557,2.57,1.453l1.844,3.062c.18.299.508.484.857.484h2.229c.552,0,1,.447,1,1Zm-18.991,3.99c-.009,0-.016.005-.025.005.127-.002.277-.004.025-.005Zm5.855.825c-.504-.203-1.072.034-1.287.526-.169.386-.52.659-.941.659h-3.631c-.555,0-1.005-.45-1.005-1.005,0-.548.44-.989.985-1-.04,0-.074.001-.096.002.541.029,1.007-.4,1.035-.946.051-.991.077-2.019.077-3.051,0-3.608-.292-12-3-12S0,8.392,0,12s.292,12,3,12c1.153,0,1.884-1.207,2.391-4h3.245c1.233,0,2.327-.74,2.785-1.885.206-.514-.044-1.096-.557-1.301Zm7.125-11.814c1.381,0,2.5-1.119,2.5-2.5s-1.119-2.5-2.5-2.5-2.5,1.119-2.5,2.5,1.119,2.5,2.5,2.5Z"/></svg>
