<?xml version="1.0" encoding="UTF-8"?>
<svg xmlns="http://www.w3.org/2000/svg" id="Layer_1" data-name="Layer 1" viewBox="0 0 24 24">
  <path d="m23,22h-1c0-1.654-1.346-3-3-3H5c-1.654,0-3,1.346-3,3h-1c-.553,0-1,.448-1,1s.447,1,1,1h22c.553,0,1-.448,1-1s-.447-1-1-1Zm-12-5v-2h-1.602c-.843,0-1.325-.963-.819-1.637l.907-1.343h-.141c-.732,0-1.149-.835-.71-1.421l2.414-3.084c.495-.66,1.485-.66,1.98,0l2.414,3.084c.439.585.021,1.421-.71,1.421h-.141l.907,1.343c.506.675.025,1.637-.819,1.637h-1.679v2h8.092c1.169-1.768,1.806-3.853,1.806-6.051C22.897,4.883,17.963-.051,11.897-.051S.897,4.883.897,10.949c0,2.198.636,4.284,1.806,6.051h8.297Zm7.5-8c.828,0,1.5.672,1.5,1.5s-.672,1.5-1.5,1.5-1.5-.672-1.5-1.5.672-1.5,1.5-1.5Zm-4-6c.828,0,1.5.672,1.5,1.5s-.672,1.5-1.5,1.5-1.5-.672-1.5-1.5.672-1.5,1.5-1.5Zm-8,3c.828,0,1.5.672,1.5,1.5s-.672,1.5-1.5,1.5-1.5-.672-1.5-1.5.672-1.5,1.5-1.5Z"/>
</svg>
