<?xml version="1.0" encoding="UTF-8"?>
<svg xmlns="http://www.w3.org/2000/svg" id="Layer_1" data-name="Layer 1" viewBox="0 0 24 24" width="512" height="512"><path d="m15.5,10c0,1.103-.897,2-2,2h-4v-3c0-.552.448-1,1-1h3c1.103,0,2,.897,2,2Zm8.5,2c0,6.617-5.383,12-12,12S0,18.617,0,12,5.383,0,12,0s12,5.383,12,12Zm-8.898,1.66c1.409-.619,2.398-2.024,2.398-3.66,0-2.206-1.794-4-4-4h-3c-1.654,0-3,1.346-3,3v8c0,.553.447,1,1,1s1-.447,1-1v-3h3.516l1.851,3.471c.181.337.526.529.884.529.158,0,.319-.038.47-.117.487-.261.672-.866.412-1.354l-1.53-2.869Z"/></svg>
