<?xml version="1.0" encoding="UTF-8"?>
<svg xmlns="http://www.w3.org/2000/svg" id="Layer_1" data-name="Layer 1" viewBox="0 0 24 24" width="512" height="512"><path d="m18.004,15c-.802,0-1.606-.306-2.219-.918l-1.463-1.347c-.406-.374-.432-1.007-.058-1.413.375-.405,1.007-.43,1.413-.058l1.492,1.375c.472.47,1.189.469,1.631.028l3.504-3.387c.398-.383,1.03-.373,1.414.023.384.397.373,1.03-.023,1.414l-3.492,3.375c-.604.604-1.4.906-2.199.906Zm-1.392,1.786c-1.593,2.529-4.403,4.214-7.612,4.214C4.029,21,0,16.971,0,12S4.029,3,9,3c4.483,0,8.189,3.281,8.876,7.57l-.847-.78c-1.216-1.114-3.113-1.033-4.235.178-.542.589-.823,1.354-.79,2.154.032.801.375,1.542.965,2.085l1.403,1.289c.631.631,1.405,1.055,2.241,1.29Zm-8.612-4.786c0,.552.448,1,1,1s1-.448,1-1v-4c0-.552-.448-1-1-1s-1,.448-1,1v4Zm2.5,4.5c0-.828-.672-1.5-1.5-1.5s-1.5.672-1.5,1.5.672,1.5,1.5,1.5,1.5-.672,1.5-1.5Z"/></svg>
