<?xml version="1.0" encoding="UTF-8"?>
<svg xmlns="http://www.w3.org/2000/svg" id="Layer_1" data-name="Layer 1" viewBox="0 0 24 24" width="512" height="512"><path d="M6,18.5c0-3.54,2.43-6.68,5.77-7.47h0c2.41-.57,4.23-2.95,4.23-5.53,0-1.21-.39-2.33-1.06-3.24C13.62,.45,11.23-.18,9.06,.36,3.86,1.68,0,6.4,0,12c0,5.08,3.17,9.43,7.65,11.18-1.03-1.28-1.65-2.91-1.65-4.68ZM10.5,4c.83,0,1.5,.67,1.5,1.5s-.67,1.5-1.5,1.5-1.5-.67-1.5-1.5,.67-1.5,1.5-1.5ZM16.35,.82c1.03,1.28,1.65,2.91,1.65,4.68,0,3.53-2.43,6.68-5.77,7.47h0c-2.41,.57-4.23,2.95-4.23,5.53,0,1.21,.39,2.33,1.06,3.24,1.32,1.8,3.71,2.44,5.88,1.89,5.2-1.31,9.06-6.03,9.06-11.64,0-5.08-3.17-9.43-7.65-11.18Zm-2.85,19.18c-.83,0-1.5-.67-1.5-1.5s.67-1.5,1.5-1.5,1.5,.67,1.5,1.5-.67,1.5-1.5,1.5Z"/></svg>
