<?xml version="1.0" encoding="UTF-8"?>
<svg xmlns="http://www.w3.org/2000/svg" id="Layer_1" data-name="Layer 1" viewBox="0 0 24 24" width="512" height="512"><path d="m12,16.5c-1.381,0-2.5-1.119-2.5-2.5s1.119-2.5,2.5-2.5,2.5,1.119,2.5,2.5-1.119,2.5-2.5,2.5Zm1-15.5c0-.552-.447-1-1-1s-1,.448-1,1v3h2V1Zm11,18.998c0,1.07-.415,2.074-1.17,2.827-.748.748-1.777,1.176-2.826,1.176-.396.026-.856-.07-1.269-.208l-2.578-.685c-1.861-.494-3.157-2.179-3.157-4.105v-.624c.5-.114.965-.313,1.386-.579l.622.622c-.001.026-.008.051-.008.078,0,.828.672,1.5,1.5,1.5s1.5-.672,1.5-1.5-.672-1.5-1.5-1.5c-.027,0-.052.006-.078.008l-.622-.622c.266-.421.465-.887.579-1.386h.621c.553,0,1-.448,1-1s-.447-1-1-1h-.621c-.114-.5-.313-.965-.579-1.386l.622-.622c.026.001.051.008.078.008.828,0,1.5-.672,1.5-1.5s-.672-1.5-1.5-1.5-1.5.672-1.5,1.5c0,.027.006.052.008.078l-.622.622c-.421-.266-.887-.465-1.386-.579v-.621c0-.552-.448-1-1-1s-1,.448-1,1v.621c-.5.114-.965.313-1.386.579l-.622-.622c.001-.026.008-.051.008-.078,0-.828-.672-1.5-1.5-1.5s-1.5.672-1.5,1.5.672,1.5,1.5,1.5c.027,0,.052-.006.078-.008l.622.622c-.266.421-.465.887-.579,1.386h-.621c-.553,0-1,.448-1,1s.447,1,1,1h.621c.114.5.313.965.579,1.386l-.622.622c-.026-.001-.051-.008-.078-.008-.828,0-1.5.672-1.5,1.5s.672,1.5,1.5,1.5,1.5-.672,1.5-1.5c0-.027-.006-.052-.008-.078l.622-.622c.421.266.887.465,1.386.579v.621c0,1.926-1.295,3.612-3.156,4.107l-2.638.703c-.352.12-.777.189-1.204.19h-.006c-1.049,0-2.078-.428-2.826-1.176-.755-.753-1.17-1.757-1.17-2.827,0-1.402.16-2.805.475-4.169l1.656-7.177c.628-2.723,3.053-4.651,5.847-4.651h3.022v2.184c.314-.112.647-.184,1-.184s.686.072,1,.184v-2.184h3.022c2.794,0,5.219,1.929,5.847,4.651l1.656,7.177c.314,1.364.475,2.767.475,4.169Z"/></svg>
