<?xml version="1.0" encoding="UTF-8"?>
<svg xmlns="http://www.w3.org/2000/svg" id="Layer_1" data-name="Layer 1" viewBox="0 0 24 24" width="512" height="512"><path d="M.101,6c.399-1.956,1.943-3.501,3.899-3.899v3.899H.101Zm3.899,2H0v9c0,2.414,1.721,4.435,4,4.899V8Zm2-2H23.899c-.465-2.279-2.485-4-4.899-4H6V6Zm18,2v9c0,2.757-2.243,5-5,5H6V8H24Zm-2.293,3.752l-1.075-1.076c-.871-.871-2.391-.871-3.263,0l-1.076,1.076c-.391,.391-.391,1.023,0,1.414s1.024,.391,1.414,0l.293-.293v2.127c0,.552-.449,1-1,1h-2.127l.293-.293c.391-.391,.391-1.023,0-1.414s-1.024-.391-1.414,0l-1.075,1.076c-.436,.435-.676,1.015-.676,1.631s.24,1.196,.676,1.631l1.076,1.076c.195,.195,.451,.293,.707,.293s.512-.098,.707-.293c.391-.391,.391-1.023,0-1.414l-.293-.293h2.127c1.654,0,3-1.346,3-3v-2.127l.293,.293c.195,.195,.451,.293,.707,.293s.512-.098,.707-.293c.391-.391,.391-1.023,0-1.414Z"/></svg>
