<?xml version="1.0" encoding="UTF-8"?>
<svg xmlns="http://www.w3.org/2000/svg" id="Layer_1" data-name="Layer 1" viewBox="0 0 24 24" width="512" height="512"><path d="m19.714,17.465c.583,1.247.154,3.654-.82,4.628l-.443.443c-.938.938-2.209,1.464-3.535,1.464h-5.853c-1.326,0-2.598-.527-3.535-1.464l-.443-.443c-.974-.974-1.403-3.381-.82-4.628.031-.066.063-.13.098-.193.817-1.503,3.069-1.739,4.074-.354.355.489.564,1.09.564,1.742v1.341c0,.553.448,1,1,1s1-.447,1-1v-6h-3c-.552,0-1-.447-1-1s.448-1,1-1h3v-2h-4c-.552,0-1-.447-1-1s.448-1,1-1h4v-2h-5c-.552,0-1-.447-1-1s.448-1,1-1h5v-2h-6c-.552,0-1-.447-1-1s.448-1,1-1h14c.552,0,1,.447,1,1s-.448,1-1,1h-6v2h5c.552,0,1,.447,1,1s-.448,1-1,1h-5v2h4c.552,0,1,.447,1,1s-.448,1-1,1h-4v2h3c.552,0,1,.447,1,1s-.448,1-1,1h-3v6c0,.553.448,1,1,1s1-.447,1-1v-1.341c0-.651.209-1.252.564-1.742,1.004-1.385,3.235-1.149,4.052.354.034.063.067.128.098.193Z"/></svg>
