<?xml version="1.0" encoding="UTF-8"?>
<svg xmlns="http://www.w3.org/2000/svg" id="Layer_1" data-name="Layer 1" viewBox="0 0 24 24" width="512" height="512"><path d="m23,10c.553,0,1-.447,1-1v-1c0-2.757-2.243-5-5-5H6v2c0,.553-.447,1-1,1s-1-.447-1-1v-1.899C1.721,3.566,0,5.586,0,8v8c0,2.414,1.721,4.434,4,4.899v-1.899c0-.553.447-1,1-1s1,.447,1,1v2h13c2.757,0,5-2.243,5-5v-1c0-.553-.447-1-1-1-1.103,0-2-.897-2-2s.897-2,2-2ZM6,15c0,.553-.447,1-1,1s-1-.447-1-1v-1c0-.553.447-1,1-1s1,.447,1,1v1Zm0-5c0,.553-.447,1-1,1s-1-.447-1-1v-1c0-.553.447-1,1-1s1,.447,1,1v1Zm11,3h-1.5l-1.911,2.421c-.195.357-.569.579-.975.579h-.32c-.382,0-.644-.384-.506-.74l.879-2.26h-1.32c-.442,0-.862-.195-1.147-.533l-1.096-1.3c-.297-.52.078-1.167.677-1.167.207,0,.405.082.551.228l1.11.772h1.241l-.891-2.258c-.141-.356.122-.742.505-.742h.298c.407,0,.781.222.975.579l1.929,2.421h1.5c.552,0,1,.448,1,1s-.448,1-1,1Z"/></svg>
