<?xml version="1.0" encoding="UTF-8"?>
<svg xmlns="http://www.w3.org/2000/svg" id="Layer_1" data-name="Layer 1" viewBox="0 0 24 24" width="512" height="512"><path d="m8,19h13c1.657,0,3,1.343,3,3h0c0,1.105-.895,2-2,2H7c-1.105,0-2-.895-2-2h0c0-1.657,1.343-3,3-3Zm-2.205-14.293l.205-1.56c0-.605-.49-1.095-1.095-1.095l-1.038-.053c-.747,0-1.416.314-1.906.804-2.517,2.517-2.711,9.681,0,12.391.49.49,1.159.805,1.906.804l1.038-.053c.605,0,1.095-.49,1.095-1.095l-.205-1.56c0-.605-.49-1.095-1.095-1.095l-1.578-.148c-.91-2.131-.868-4.16,0-6.099l1.578-.148c.605,0,1.095-.49,1.095-1.095ZM23.289,1.061c-.571-.674-1.405-1.061-2.289-1.061h-10c-1.654,0-3,1.346-3,3v1h2c.553,0,1,.448,1,1s-.447,1-1,1h-2v2h2c.553,0,1,.448,1,1s-.447,1-1,1h-2v2h2c.553,0,1,.448,1,1s-.447,1-1,1h-2v2c0,.552.447,1,1,1h11.405c.476,0,.886-.335.98-.801l2.573-12.706c.146-.872-.099-1.758-.67-2.432Z"/></svg>
