<?xml version="1.0" encoding="UTF-8"?>
<svg xmlns="http://www.w3.org/2000/svg" id="Layer_1" data-name="Layer 1" viewBox="0 0 24 24" width="512" height="512"><path d="m18.878,9.721c-.943,1.203-3.484,2.279-6.878,2.279s-5.935-1.064-6.878-2.267v-1c.012-.004-.012-.008,0-.012.603-3.25,3.455-5.721,6.878-5.721s6.274,2.471,6.878,5.721v1Zm1.93.746c-1.236,2.075-4.66,3.533-8.807,3.533s-7.571-1.458-8.807-3.533c-2.567,1.219-3.193,2.682-3.193,3.805,0,3.266,5.159,5.728,12,5.728s12-2.462,12-5.728c0-1.123-.626-2.586-3.193-3.805Zm-16.307,6.533c-.828,0-1.5-.672-1.5-1.5s.672-1.5,1.5-1.5,1.5.672,1.5,1.5-.672,1.5-1.5,1.5Zm7.5,1.5c-.828,0-1.5-.672-1.5-1.5s.672-1.5,1.5-1.5,1.5.672,1.5,1.5-.672,1.5-1.5,1.5Zm7.5-1.5c-.828,0-1.5-.672-1.5-1.5s.672-1.5,1.5-1.5,1.5.672,1.5,1.5-.672,1.5-1.5,1.5Z"/></svg>
