<?xml version="1.0" encoding="UTF-8"?>
<svg xmlns="http://www.w3.org/2000/svg" id="Layer_1" data-name="Layer 1" viewBox="0 0 24 24" width="512" height="512"><path d="M3,22.5c0,.828-.672,1.5-1.5,1.5s-1.5-.672-1.5-1.5,.672-1.5,1.5-1.5,1.5,.672,1.5,1.5Zm3-5.5c-1.105,0-2,.895-2,2s.895,2,2,2,2-.895,2-2-.895-2-2-2Zm9.485-1.138c.221-.162,.532-.209,.817-.12,1.137,.35,2.298,.346,3.452-.014,2.258-.701,3.949-2.729,4.207-5.044,.309-2.77-1.302-5.364-3.917-6.311-.292-.105-.515-.301-.627-.548-1.049-2.324-3.372-3.826-5.918-3.826-1.691,0-3.293,.65-4.51,1.833-.233,.227-.563,.329-.852,.276-.847-.165-1.716-.143-2.583,.062C3.263,2.72,1.466,4.656,1.084,6.989c-.53,3.22,1.542,6.247,4.719,6.892,.154,.031,.423,.056,.702,.068,.172,.008,.325,.101,.424,.257,1.108,1.749,3.004,2.794,5.071,2.794,1.257,0,2.462-.394,3.485-1.138Z"/></svg>
