<?xml version="1.0" encoding="UTF-8"?>
<svg xmlns="http://www.w3.org/2000/svg" id="Layer_1" data-name="Layer 1" viewBox="0 0 24 24" width="512" height="512"><path d="M9,22c0,1.1-.9,2-2,2s-2-.9-2-2,.9-2,2-2,2,.9,2,2Zm8-2c-1.1,0-2,.9-2,2s.9,2,2,2,2-.9,2-2-.9-2-2-2Zm6.32-15.9c-.57-.7-1.42-1.1-2.32-1.1h-7v6.5l1.32-1.23c.41-.38,1.04-.36,1.41,.05,.38,.4,.35,1.04-.05,1.41l-1.59,1.48c-.57,.57-1.33,.86-2.09,.86s-1.54-.29-2.13-.88l-1.56-1.46c-.4-.38-.42-1.01-.05-1.41,.38-.4,1.01-.43,1.41-.05l1.32,1.23V3H5.24l-.04-.35c-.18-1.51-1.46-2.65-2.98-2.65H1C.45,0,0,.45,0,1s.45,1,1,1h1.22c.51,0,.93,.38,.99,.88l1.38,11.7c.3,2.52,2.43,4.42,4.97,4.42h9.44c.55,0,1-.45,1-1s-.45-1-1-1H9.56c-1.29,0-2.4-.83-2.82-2h11.42c2.38,0,4.44-1.69,4.9-4.02l.88-4.39c.18-.88-.05-1.79-.62-2.49Z"/></svg>
