<?xml version="1.0" encoding="UTF-8"?>
<svg xmlns="http://www.w3.org/2000/svg" id="Layer_1" data-name="Layer 1" viewBox="0 0 24 24" width="512" height="512"><path d="M14.35,1.76c-.42-.36-.47-.99-.11-1.41,.36-.42,.99-.47,1.41-.12,.1,.09,.64,.57,1.11,1.29,.12-.22,.26-.44,.45-.63C17.83,.27,18.72,.07,19.33,0c.38-.04,.71,.29,.67,.67-.06,.61-.27,1.49-.89,2.12-.1,.1-.22,.19-.33,.27,2.37,.28,4.23,2.38,4.23,4.94,0,.69-.14,1.37-.4,1.99h-6.89c.19-.65,.29-1.32,.29-1.99,0-1.92-.75-3.66-1.96-4.92,.23-.04,.47-.08,.71-.08h.55c-.27-.56-.73-1.05-.95-1.25Zm-.75,8.24c.26-.62,.4-1.3,.4-1.99,0-2.57-1.86-4.67-4.23-4.94,.11-.08,.23-.17,.33-.27,.63-.63,.83-1.51,.89-2.12,.04-.38-.29-.71-.67-.67-.61,.06-1.49,.27-2.12,.89-.19,.19-.33,.41-.45,.63-.47-.72-1.01-1.2-1.11-1.29-.42-.35-1.05-.3-1.41,.12-.36,.42-.31,1.05,.11,1.41,.22,.19,.68,.68,.95,1.25h-.55C3.13,3.01,1,5.25,1,8.01c0,.69,.14,1.37,.4,1.99H13.6ZM5,24h14c2.76,0,5-2.24,5-5H0c0,2.76,2.24,5,5,5Zm19-7v-2c0-1.65-1.35-3-3-3H3c-1.65,0-3,1.35-3,3v2H24Z"/></svg>
