<?xml version="1.0" encoding="UTF-8"?>
<svg xmlns="http://www.w3.org/2000/svg" id="Layer_1" data-name="Layer 1" viewBox="0 0 24 24" width="512" height="512"><path d="M21.002,9.01l-5.208,.003-.914-4.013h1.12v1c0,.553,.448,1,1,1s1-.447,1-1V2c0-.553-.448-1-1-1s-1,.447-1,1v1h-1.467l-.347-1.242c-.171-.797-.744-1.489-1.534-1.689-1.395-.353-2.651,.699-2.651,2.038v.894h-1c-.552,0-1,.447-1,1s.448,1,1,1h1v4H4.528l-1.548-2.333c-.279-.418-.653-.667-1.43-.667-.856,0-1.549,.694-1.549,1.549v8.902c0,.856,.694,1.549,1.549,1.549,.816,0,1.151-.249,1.43-.667l1.673-2.333h5.348v4h-1c-.552,0-1,.447-1,1s.448,1,1,1h1v.73c0,.992,.606,1.947,1.565,2.2,1.194,.314,2.356-.456,2.6-1.594l.363-1.336h1.472v1c0,.553,.448,1,1,1s1-.447,1-1v-4c0-.553-.448-1-1-1s-1,.447-1,1v1h-1.12l.918-4.012,5.204,.002c1.654,.004,2.998-1.336,2.998-2.99s-1.343-2.995-2.998-2.99Z"/></svg>
