<?xml version="1.0" encoding="UTF-8"?>
<svg xmlns="http://www.w3.org/2000/svg" id="Layer_1" data-name="Layer 1" viewBox="0 0 24 24" width="512" height="512"><path d="M19.778,3.222C17.7,1.145,14.938,0,12,0S6.299,1.145,4.222,3.222c-2.078,2.077-3.222,4.839-3.222,7.778s1.144,5.7,3.25,7.805l3.943,3.643c1.023,1.001,2.375,1.552,3.807,1.552s2.784-.551,3.787-1.533l3.992-3.689c2.078-2.078,3.222-4.84,3.222-7.778s-1.145-5.701-3.222-7.778Zm-7.778,15.778c-.828,0-1.5-.672-1.5-1.5s.672-1.5,1.5-1.5,1.5,.672,1.5,1.5-.672,1.5-1.5,1.5Zm1.929-7.495c-.521,.287-.929,.944-.929,1.495v1c0,.552-.448,1-1,1s-1-.448-1-1v-1c0-1.274,.807-2.609,1.963-3.247,.762-.42,1.157-1.254,1.004-2.125-.138-.787-.81-1.458-1.597-1.596-.605-.107-1.195,.047-1.655,.435-.455,.381-.715,.94-.715,1.533,0,.552-.448,1-1,1s-1-.448-1-1c0-1.185,.521-2.302,1.429-3.064,.908-.762,2.106-1.077,3.287-.873,1.613,.283,2.938,1.607,3.221,3.22,.298,1.698-.509,3.395-2.008,4.222Z"/></svg>
