<?xml version="1.0" encoding="UTF-8"?>
<svg xmlns="http://www.w3.org/2000/svg" id="Layer_1" data-name="Layer 1" viewBox="0 0 24 24" width="512" height="512"><path d="M11.674,11.955c.765-1.043,2.221-1.288,3.285-.551h0c1.074,.743,1.351,2.211,.623,3.295l-4.445,6.511c-1.225,1.748-3.226,2.789-5.361,2.789h-1.206c-2.508,0-4.571-2.024-4.574-4.532-.004-2.848,.383-4.895,.806-6.884,.196-.924,1.015-1.583,1.96-1.581l3.89,.007c.934,.002,1.743,.652,1.948,1.563,.203,.904,.398,1.787,.545,2.779l2.53-3.397ZM23,0c-1.22,0-2.362,.6-3.082,1.642l-4.696,7.659c.301,.121,.596,.266,.875,.459,.29,.201,.538,.439,.764,.692l4.727-7.711c.321-.463,.849-.74,1.412-.74,.553,0,1-.447,1-1s-.447-1-1-1Z"/></svg>
