<?xml version="1.0" encoding="UTF-8"?>
<svg xmlns="http://www.w3.org/2000/svg" id="Layer_1" data-name="Layer 1" viewBox="0 0 24 24" width="512" height="512"><path d="m7.187,9.101l.887,3.899h-2.045l.887-3.899c.01-.045.024-.108.135-.108s.125.063.135.108Zm16.813-1.101v8c0,2.757-2.243,5-5,5H5c-2.757,0-5-2.243-5-5v-8C0,5.243,2.243,3,5,3h14c2.757,0,5,2.243,5,5Zm-13.243,7.778l-1.621-7.121c-.227-.996-1.065-1.665-2.085-1.665s-1.859.669-2.085,1.665l-1.621,7.121c-.123.538.215,1.074.753,1.196.538.129,1.074-.214,1.197-.753l.278-1.222h2.956l.278,1.222c.105.464.518.778.974.778.074,0,.148-.008.223-.025.539-.122.876-.658.753-1.196Z"/></svg>
