<?xml version="1.0" encoding="UTF-8"?>
<svg xmlns="http://www.w3.org/2000/svg" id="Layer_1" data-name="Layer 1" viewBox="0 0 24 24">
  <path d="m17.5,3c.828,0,1.5.672,1.5,1.5s-.672,1.5-1.5,1.5-1.5-.672-1.5-1.5.672-1.5,1.5-1.5Zm2.5-1.5c0,.828.672,1.5,1.5,1.5s1.5-.672,1.5-1.5-.672-1.5-1.5-1.5-1.5.672-1.5,1.5Zm0,6c0,.828.672,1.5,1.5,1.5s1.5-.672,1.5-1.5-.672-1.5-1.5-1.5-1.5.672-1.5,1.5Zm-11,6.5c-1.103,0-2,.897-2,2s.897,2,2,2,2-.897,2-2-.897-2-2-2Zm3-6h-6c-2.757,0-5,2.243-5,5v6c0,2.757,2.243,5,5,5h6c2.757,0,5-2.243,5-5v-6c0-2.757-2.243-5-5-5Zm-3,12c-2.206,0-4-1.794-4-4s1.794-4,4-4,4,1.794,4,4-1.794,4-4,4Zm-3-14h6c.339,0,.673.025,1,.072v-3.072c0-1.657-1.343-3-3-3h-2c-1.657,0-3,1.343-3,3v3.072c.327-.047.661-.072,1-.072Z"/>
</svg>
