<?xml version="1.0" encoding="UTF-8"?>
<svg xmlns="http://www.w3.org/2000/svg" id="Layer_1" data-name="Layer 1" viewBox="0 0 24 24" width="512" height="512"><path d="m21.894,9.024c.187.152.41.226.633.226.29,0,.577-.125.774-.367.351-.427.287-1.058-.14-1.407l-3.055-2.5c-.429-.35-1.059-.287-1.407.141-.351.427-.287,1.058.14,1.407l.754.617-1.426,1.743c-.669-.45-1.393-.833-2.166-1.133V2c.553,0,1-.448,1-1s-.447-1-1-1h-8c-.553,0-1,.448-1,1s.447,1,1,1v5.75c-4.217,1.639-7,5.668-7,10.25.062,3.19,2.756,6,6.004,6h9.992c3.248,0,5.942-2.806,6.004-6,0-3.039-1.23-5.831-3.286-7.848l1.427-1.745.753.616Zm-1.894,5.976c0,.552-.447,1-1,1H5c-.553,0-1-.448-1-1s.447-1,1-1h14c.553,0,1,.448,1,1Z"/></svg>
