<?xml version="1.0" encoding="UTF-8"?>
<svg xmlns="http://www.w3.org/2000/svg" id="Layer_1" data-name="Layer 1" viewBox="0 0 24 24" width="512" height="512"><path d="M12,0C5.383,0,0,5.383,0,12s5.383,12,12,12,12-5.383,12-12S18.617,0,12,0ZM5.028,9.645c.131-.537,.671-.863,1.209-.735,.453,.111,2.009,.358,2.971-1.102,.303-.461,.924-.589,1.385-.285,.461,.304,.588,.924,.285,1.385-1.018,1.544-2.526,2.09-3.894,2.09-.428,0-.841-.053-1.221-.146-.537-.131-.866-.672-.735-1.208Zm11.761,8.331c-1.117-.244-2.352-.975-4.793-.976-2.44,0-3.676,.732-4.793,.976-.864,.189-1.527-.771-1.052-1.517,1.02-1.603,2.848-3.458,5.848-3.458s4.822,1.855,5.842,3.458c.475,.746-.188,1.706-1.052,1.517Zm1.448-7.123c-.38,.093-.794,.146-1.221,.146-1.367,0-2.876-.545-3.894-2.09-.304-.461-.176-1.082,.285-1.385,.461-.304,1.082-.176,1.385,.285,.962,1.46,2.518,1.213,2.971,1.102,.54-.128,1.078,.198,1.209,.735,.131,.536-.198,1.077-.735,1.208Z"/></svg>
