<?xml version="1.0" encoding="UTF-8"?>
<svg xmlns="http://www.w3.org/2000/svg" id="Layer_1" data-name="Layer 1" viewBox="0 0 24 24" width="512" height="512"><path d="m14,7V.46c.913.346,1.753.879,2.465,1.59l3.484,3.486c.712.711,1.245,1.551,1.591,2.464h-6.54c-.552,0-1-.449-1-1Zm-5,5c0-.551-.449-1-1-1h-1c-.551,0-1,.449-1,1v1h2c.551,0,1-.449,1-1Zm12.977-2h-6.976c-1.654,0-3-1.346-3-3V.024c-.161-.011-.322-.024-.485-.024h-4.515C4.243,0,2,2.243,2,5v14c0,2.757,2.243,5,5,5h10c2.757,0,5-2.243,5-5v-8.515c0-.163-.013-.324-.024-.485Zm-8.163,10.419c.321.449.217,1.074-.233,1.395-.176.125-.379.186-.58.186-.312,0-.62-.146-.815-.419l-.972-1.36-.972,1.36c-.195.273-.503.419-.815.419-.201,0-.404-.061-.58-.186-.45-.321-.554-.946-.233-1.395l1.371-1.919-2.5-3.5h-1.485v2c0,.552-.448,1-1,1s-1-.448-1-1v-5c0-1.654,1.346-3,3-3h1c1.654,0,3,1.346,3,3,0,1.063-.559,1.993-1.395,2.526l1.61,2.254.972-1.36c.321-.451.946-.553,1.395-.233.45.321.554.946.233,1.395l-1.371,1.919,1.371,1.919Z"/></svg>
