<?xml version="1.0" encoding="UTF-8"?>
<svg xmlns="http://www.w3.org/2000/svg" id="Layer_1" data-name="Layer 1" viewBox="0 0 24 24" width="512" height="512"><path d="m14.003,23.814c-.06,0-.121-.005-.181-.017-2.999-.551-5.752-2.299-7.554-4.794h-1.271C2.241,19.003-.002,16.76-.002,14.003v-4.005C-.002,7.241,2.241,4.998,4.998,4.998h1.271C8.068,2.506,10.821.758,13.822.204c.294-.053.593.024.821.215.229.19.36.472.36.769v21.627c0,.297-.132.579-.36.769-.181.151-.408.231-.64.231Zm4.02-7.042c2.632-2.632,2.632-6.914,0-9.546-.391-.391-1.023-.391-1.414,0s-.391,1.023,0,1.414c1.852,1.852,1.852,4.866,0,6.718-.391.391-.391,1.023,0,1.414.195.195.451.293.707.293s.512-.098.707-.293Z"/></svg>
