<?xml version="1.0" encoding="UTF-8"?>
<svg xmlns="http://www.w3.org/2000/svg" id="Layer_1" data-name="Layer 1" viewBox="0 0 24 24" width="512" height="512"><path d="M14.462,7.945l.231-.246c.383-.388,.388-1.011,.011-1.405h0c-.388-.406-1.033-.416-1.434-.023l-2.81,2.736,1.414,1.414,1.133-1.084,7.211,7.127-1.279,1.022,4.768,4.806c.391,.391,.391,1.024,0,1.415h0c-.39,.39-1.023,.391-1.414,0L.293,1.707C-.098,1.316-.098,.683,.293,.293h0c.39-.39,1.024-.39,1.414,0l1.916,1.878,1.128-.645c.687-.344,1.456-.525,2.227-.525,1.28,0,2.471,.461,3.39,1.298l.617,.593-3.36,3.28,1.414,1.414L14.685,2.073c1.51-1.173,3.618-1.393,5.308-.548l3.156,1.505c.52,.248,.852,.77,.854,1.346,.009,2.607,.035,9.786,.035,10.624,0,1.026-1.038,1-1.038,1h-.326L14.462,7.945ZM1.038,16h1.386c.448,0,.882,.15,1.234,.426l6.138,4.815c1.313,1.03,3.163,1.022,4.467-.02l1.499-1.198L.038,4.299V15c0,.552,.448,1,1,1Z"/></svg>
