<?xml version="1.0" encoding="UTF-8"?>
<svg xmlns="http://www.w3.org/2000/svg" id="Layer_1" data-name="Layer 1" viewBox="0 0 24 24" width="512" height="512"><path d="m2,0C.895,0,0,.895,0,2v20c0,1.105.895,2,2,2s2-.895,2-2V2c0-1.105-.895-2-2-2Zm4,2h12v20H6V2Zm.079,12.75c.089.157.255.255.436.255h3.378l1.68,2.755c.091.149.252.24.427.24s.336-.091.427-.24l1.68-2.755h3.378c.181,0,.347-.098.436-.255.088-.158.085-.351-.009-.505l-1.67-2.742,1.669-2.738c.094-.154.098-.348.009-.505-.088-.158-.255-.255-.436-.255h-3.373l-1.684-2.766c-.182-.298-.673-.298-.854,0l-1.684,2.766h-3.373c-.181,0-.348.098-.436.255-.088.157-.085.351.009.505l1.669,2.738-1.67,2.742c-.094.154-.097.348-.009.505Zm5.921,1.789l-.936-1.534h1.871l-.936,1.534Zm-1.545-2.534l-1.526-2.502,1.521-2.498h3.099l1.521,2.498-1.526,2.502h-3.091Zm6.14,0h-1.878l.94-1.541.939,1.541Zm0-5l-.937,1.537-.936-1.537h1.873Zm-4.594-2.544l.94,1.544h-1.881l.94-1.544Zm-4.594,2.544h1.873l-.936,1.537-.937-1.537Zm.938,3.459l.94,1.541h-1.878l.939-1.541ZM22,0c-1.105,0-2,.895-2,2v20c0,1.105.895,2,2,2s2-.895,2-2V2c0-1.105-.895-2-2-2Z"/></svg>
