<?xml version="1.0" encoding="UTF-8"?>
<svg xmlns="http://www.w3.org/2000/svg" id="Layer_1" data-name="Layer 1" viewBox="0 0 24 24" width="512" height="512"><path d="m23.707,22.293l-3.187-3.187c.917-.746,1.48-1.88,1.48-3.106V6c0-2.206-1.794-4-4-4H6c-.721,0-1.421.193-2.032.554L1.707.293C1.316-.098.684-.098.293.293S-.098,1.316.293,1.707l22,22c.195.195.451.293.707.293s.512-.098.707-.293c.391-.391.391-1.023,0-1.414ZM3.71,7.886c-.285-.288-.716-.375-1.091-.221s-.619.52-.619.925v7.41c0,2.206,1.794,4,4,4h1.775l3.016,2.54c.35.311.788.464,1.221.464.422,0,.839-.146,1.161-.434l1.967-1.59c.22-.178.354-.44.369-.723.016-.282-.089-.558-.288-.759L3.71,7.886Z"/></svg>
