<?xml version="1.0" encoding="UTF-8"?>
<svg xmlns="http://www.w3.org/2000/svg" id="Layer_1" data-name="Layer 1" viewBox="0 0 24 24" width="512" height="512"><path d="m12,0C5.383,0,0,5.383,0,12s5.383,12,12,12,12-5.383,12-12S18.617,0,12,0Zm-2.812,18h-1.376c-.448,0-.812-.364-.812-.812v-.229c0-.502.451-.884.946-.801l1.376.229c.392.065.679.404.679.801,0,.448-.364.812-.812.812Zm4.42-3.547l-.973.973c-.317.317-.831.317-1.148,0-.281-.281-.317-.723-.087-1.046l.811-1.135c.292-.408.88-.457,1.235-.102l.162.162c.317.317.317.831,0,1.148Zm-.042-9.344l-1.102.275c-.289.072-.521.287-.616.57l-.204.613c-.091.271-.042.57.13.799l.7.933c.312.416.312.987,0,1.403l-.623.831c-.221.294-.567.468-.935.468h-.679c-.386,0-.679.346-.616.727l.283,1.697c.057.343-.116.683-.427.838l-.905.452c-.334.167-.739.078-.972-.214l-1.186-1.483c-.231-.288-.648-.341-.944-.12l-1.155.866c-.205.154-.454.237-.71.237h-1.404c-.132-.646-.202-1.315-.202-2C2,6.486,6.486,2,12,2c1.124,0,2.201.195,3.21.538-.409.845-.79,1.618-1.011,2.063-.126.255-.357.439-.633.508Zm1.319,3.76c-.463-.193-.642-.756-.376-1.181l.741-1.182c.211-.336.634-.471,1-.318.414.173.61.648.437,1.062l-.529,1.27c-.173.414-.648.61-1.062.437l-.212-.088Zm3.831,10.519l-2.021-.289c-.435-.062-.812-.334-1.008-.727l-.387-.774c-.188-.377-.188-.821,0-1.198l.408-.815c.185-.37.53-.633.935-.714l1.605-.321c.165-.033.316-.114.434-.232l.849-.849c.276-.276.704-.328,1.038-.128l1.213.728c-.441,2.089-1.542,3.932-3.066,5.319Z"/></svg>
