<?xml version="1.0" encoding="UTF-8"?>
<svg xmlns="http://www.w3.org/2000/svg" id="Layer_1" data-name="Layer 1" viewBox="0 0 24 24" width="512" height="512"><path d="M23,10v5c.552,0,1,.447,1,1s-.448,1-1,1H1c-.552,0-1-.447-1-1s.448-1,1-1v-5H7v5h2v-5h6v5h2v-5h6ZM1,8H23c.552,0,1-.447,1-1s-.448-1-1-1V2.996c0-.526-.213-1.042-.586-1.414l-1-1c-.779-.779-2.049-.779-2.828,0l-1,1c-.373,.372-.586,.888-.586,1.414v3.004h-2V2.996c0-.526-.213-1.042-.586-1.414l-1-1c-.779-.779-2.049-.779-2.828,0l-1,1c-.373,.372-.586,.888-.586,1.414v3.004h-2V2.996c0-.526-.213-1.042-.586-1.414l-1-1C4.635-.197,3.365-.197,2.586,.582L1.586,1.582c-.373,.372-.586,.888-.586,1.414v3.004c-.552,0-1,.447-1,1s.448,1,1,1Zm0,11v2.5c0,1.379,1.122,2.5,2.5,2.5h1c1.378,0,2.5-1.121,2.5-2.5v-2.5H1Zm8,0v2.5c0,1.379,1.122,2.5,2.5,2.5h1c1.378,0,2.5-1.121,2.5-2.5v-2.5h-6Zm8,0v2.5c0,1.379,1.122,2.5,2.5,2.5h1c1.378,0,2.5-1.121,2.5-2.5v-2.5h-6Z"/></svg>
