<?xml version="1.0" encoding="UTF-8"?>
<svg xmlns="http://www.w3.org/2000/svg" id="Layer_1" data-name="Layer 1" viewBox="0 0 24 24" width="512" height="512"><path d="M23.496,8.57c.324,1.087,.504,2.237,.504,3.43,0,3.153-1.226,6.014-3.215,8.155,.136-.507,.215-1.032,.215-1.571v-6.584h-.024l2.521-3.43ZM3,12h.033L.511,8.543c-.329,1.095-.511,2.255-.511,3.457,0,3.229,1.282,6.153,3.356,8.31-.23-.697-.356-1.432-.356-2.186v-6.124Zm2.508,0L1.406,6.376C3.426,2.587,7.415,0,12,0s8.592,2.6,10.607,6.403l-4.113,5.597H5.508Zm7.511-5.196c-.108,.542,.243,1.068,.784,1.177,.93,.186,1.882,.626,2.839,1.31,.418,.299,.999,.216,1.329-.177,.382-.454,.279-1.134-.205-1.477-1.178-.835-2.375-1.377-3.571-1.616-.543-.113-1.069,.242-1.177,.784Zm-6.992,2.31c.33,.393,.911,.476,1.329,.177,.957-.684,1.909-1.124,2.839-1.31,.542-.108,.893-.635,.784-1.177s-.635-.898-1.177-.784c-1.196,.239-2.393,.781-3.571,1.616-.484,.343-.587,1.023-.205,1.477Zm-1.028,9.01c0,1.522,.698,2.954,1.882,3.91,1.125,.907,2.601,1.967,5.118,1.967,2.824,0,4.338-1.333,5.514-2.289,.941-.765,1.486-1.914,1.486-3.127v-4.584H5v4.124Z"/></svg>
