<?xml version="1.0" encoding="UTF-8"?>
<svg xmlns="http://www.w3.org/2000/svg" id="Layer_1" data-name="Layer 1" viewBox="0 0 24 24" width="512" height="512"><path d="M17,9.5c0,.827-.673,1.5-1.5,1.5s-1.5-.673-1.5-1.5,.673-1.5,1.5-1.5,1.5,.673,1.5,1.5Zm7,2.5c0,6.617-5.383,12-12,12S0,18.617,0,12,5.383,0,12,0s12,5.383,12,12ZM6.95,10c.45,0,.945,.249,1.294,.651,.363,.416,.994,.462,1.411,.101s.462-.993,.101-1.411c-.732-.846-1.789-1.308-2.824-1.341-.712,.004-1.757,.241-2.695,1.35-.356,.422-.304,1.053,.117,1.41,.188,.158,.418,.236,.646,.236,.284,0,.566-.12,.765-.354,.358-.424,.755-.641,1.18-.643h.007Zm10.05,5c0-.553-.447-1-1-1H8c-.553,0-1,.447-1,1s.447,1,1,1h1v.6c0,1.636,1.147,3.4,3,3.4s3-1.765,3-3.4v-.6h1c.553,0,1-.447,1-1Zm2-5.5c0-1.93-1.57-3.5-3.5-3.5s-3.5,1.57-3.5,3.5,1.57,3.5,3.5,3.5,3.5-1.57,3.5-3.5Zm-8,7.1c0,.662,.411,1.4,1,1.4s1-.738,1-1.4v-.6h-2v.6Z"/></svg>
