<?xml version="1.0" encoding="UTF-8"?>
<svg xmlns="http://www.w3.org/2000/svg" id="Layer_1" data-name="Layer 1" viewBox="0 0 24 24" width="512" height="512"><path d="m3,12.5c0,.828-.672,1.5-1.5,1.5s-1.5-.672-1.5-1.5.672-1.5,1.5-1.5,1.5.672,1.5,1.5Zm-1.5,3.5c-.828,0-1.5.672-1.5,1.5s.672,1.5,1.5,1.5,1.5-.672,1.5-1.5-.672-1.5-1.5-1.5Zm0,5c-.828,0-1.5.672-1.5,1.5s.672,1.5,1.5,1.5,1.5-.672,1.5-1.5-.672-1.5-1.5-1.5Zm4-7.5c-.828,0-1.5.672-1.5,1.5s.672,1.5,1.5,1.5,1.5-.672,1.5-1.5-.672-1.5-1.5-1.5Zm0,5c-.828,0-1.5.672-1.5,1.5s.672,1.5,1.5,1.5,1.5-.672,1.5-1.5-.672-1.5-1.5-1.5ZM23.293,7l.653-3.44c.167-.881-.065-1.782-.637-2.473-.572-.691-1.414-1.087-2.311-1.087h-2.583c-1.675,0-3.115,1.184-3.439,2.827l-.823,4.173h9.14Zm-9.535,2l-.789,4h-1.47c-1.381,0-2.5,1.119-2.5,2.5v4c0,1.381,1.119,2.5,2.5,2.5h4.805c2.402,0,4.464-1.708,4.912-4.067l1.696-8.933h-9.155Z"/></svg>
