<?xml version="1.0" encoding="UTF-8"?>
<svg xmlns="http://www.w3.org/2000/svg" id="Layer_1" data-name="Layer 1" viewBox="0 0 24 24" width="512" height="512"><path d="M22.94,14.3l-1.28-6.18c-.42-2.36-2.45-4.08-4.84-4.11,.11-.32,.19-.65,.19-1.01,0-1.65-1.35-3-3-3h-4c-1.65,0-3,1.35-3,3,0,.35,.07,.69,.19,1.01-2.39,.04-4.42,1.75-4.84,4.11l-1.28,6.18c-.21,1.17,.11,2.36,.87,3.27,.76,.91,1.88,1.43,3.07,1.43h14c1.19,0,2.31-.52,3.07-1.43s1.08-2.1,.87-3.27ZM10,2h4c.55,0,1,.45,1,1s-.45,1-1,1h-4c-.55,0-1-.45-1-1s.45-1,1-1Zm-1.86,19h7.72c-.45,1.72-2,3-3.86,3s-3.41-1.28-3.86-3Z"/></svg>
