<?xml version="1.0" encoding="UTF-8"?>
<svg xmlns="http://www.w3.org/2000/svg" id="Layer_1" data-name="Layer 1" viewBox="0 0 24 24" width="512" height="512"><path d="m12.007,9.419l2.586,2.586-2.586,2.586-2.586-2.586,2.586-2.586Zm11.993,2.581c0,6.617-5.383,12-12,12S0,18.617,0,12,5.383,0,12,0s12,5.383,12,12Zm-6.578.005l2.293-2.293c.391-.391.391-1.023,0-1.414s-1.023-.391-1.414,0l-2.293,2.293-2.586-2.586,2.293-2.293c.391-.391.391-1.023,0-1.414s-1.023-.391-1.414,0l-2.293,2.293-2.293-2.293c-.391-.391-1.023-.391-1.414,0s-.391,1.023,0,1.414l2.293,2.293-2.586,2.586-2.293-2.293c-.391-.391-1.023-.391-1.414,0s-.391,1.023,0,1.414l2.293,2.293-2.293,2.293c-.391.391-.391,1.023,0,1.414.195.195.451.293.707.293s.512-.098.707-.293l2.293-2.293,2.586,2.586-2.293,2.293c-.391.391-.391,1.023,0,1.414.195.195.451.293.707.293s.512-.098.707-.293l2.293-2.293,2.293,2.293c.195.195.451.293.707.293s.512-.098.707-.293c.391-.391.391-1.023,0-1.414l-2.293-2.293,2.586-2.586,2.293,2.293c.195.195.451.293.707.293s.512-.098.707-.293c.391-.391.391-1.023,0-1.414l-2.293-2.293Z"/></svg>
