<?xml version="1.0" encoding="UTF-8"?>
<svg xmlns="http://www.w3.org/2000/svg" id="Layer_1" data-name="Layer 1" viewBox="0 0 24 24" width="512" height="512"><path d="M8,3.62c0-1.45,1.18-2.62,2.62-2.62h.38c0-.55,.45-1,1-1s1,.45,1,1h.27c1.07,0,2.06,.57,2.6,1.5,.28,.48,.11,1.09-.36,1.37-.48,.28-1.09,.11-1.37-.36-.18-.31-.51-.5-.87-.5h-2.64c-.34,0-.62,.28-.62,.62,0,.31,.22,.57,.52,.62l3.28,.55c1.27,.21,2.19,1.3,2.19,2.59,0,1.45-1.18,2.62-2.62,2.62h-.38c0,.55-.45,1-1,1s-1-.45-1-1h-.27c-1.07,0-2.06-.57-2.6-1.5-.28-.48-.11-1.09,.36-1.37,.48-.28,1.09-.11,1.37,.36,.18,.31,.51,.5,.87,.5h2.64c.34,0,.62-.28,.62-.62,0-.31-.22-.57-.52-.62l-3.28-.55c-1.27-.21-2.19-1.3-2.19-2.59Zm1.71,8.93c-1.01-.93-2.66-.75-3.41,.5,0,0,0,0,0,0-.49,.81-.35,1.85,.25,2.59l1.79,2.3c.34,.44,.26,1.06-.18,1.4-.44,.34-1.06,.26-1.4-.18l-1.79-2.3c-1.12-1.38-1.28-3.34-.38-4.85,.12-.2,.27-.39,.42-.57V5.6c0-1.31-.94-2.5-2.24-2.63C1.26,2.82,0,4,0,5.46v10.55C0,18.14,.85,20.19,2.37,21.69l1.79,1.78c.37,.34,.86,.53,1.36,.53h7.48c.55,0,1-.45,1-1v-3.82c0-1.66-.68-3.24-1.89-4.37l-2.4-2.26ZM21.24,2.97c-1.3,.13-2.24,1.32-2.24,2.63v5.84c.15,.18,.29,.36,.42,.57,.91,1.5,.74,3.47-.38,4.85l-3.04,3.02v3.11c0,.35-.07,.69-.18,1h2.66c.5,0,.99-.19,1.36-.53l1.79-1.77c1.52-1.5,2.37-3.55,2.37-5.68V5.46c0-1.47-1.26-2.64-2.76-2.49Zm-3.54,10.07s0,0,0,0c-.75-1.25-2.4-1.43-3.41-.5l-.83,.78,.02,.02c1.14,1.07,1.92,2.46,2.28,3.97l1.69-1.68c.6-.73,.73-1.78,.25-2.59Z"/></svg>
