<?xml version="1.0" encoding="UTF-8"?>
<svg xmlns="http://www.w3.org/2000/svg" id="Layer_1" data-name="Layer 1" viewBox="0 0 24 24" width="512" height="512"><path d="m9.5,2.5c0-1.381,1.119-2.5,2.5-2.5s2.5,1.119,2.5,2.5-1.119,2.5-2.5,2.5-2.5-1.119-2.5-2.5Zm9.5,19.5H5c-.553,0-1,.447-1,1s.447,1,1,1h14c.553,0,1-.447,1-1s-.447-1-1-1Zm-10-5c-.553,0-1,.447-1,1s.447,1,1,1h6c.553,0,1-.447,1-1s-.447-1-1-1h-6Zm8-4c0-.553-.447-1-1-1h-8c-.553,0-1,.447-1,1s.447,1,1,1h8c.553,0,1-.447,1-1Zm-11-5c0,.553.447,1,1,1h10c.553,0,1-.447,1-1s-.447-1-1-1H7c-.553,0-1,.447-1,1Zm-1.53-1.757l.354-1.418,1.418-.354c.445-.111.757-.511.757-.97s-.312-.859-.757-.97l-1.418-.354-.354-1.418c-.111-.445-.511-.757-.97-.757s-.859.312-.97.757l-.351,1.406-1.404.325C.328,2.591.008,2.985,0,3.444c-.008.459.297.865.74.984l1.432.385.357,1.43c.111.445.511.757.97.757s.859-.312.97-.757Zm19.058,10.061l-1.308-.523-.523-1.308c-.114-.285-.39-.472-.697-.472s-.583.187-.697.472l-.52,1.301-1.299.492c-.287.108-.479.381-.484.687-.005.307.176.586.459.705l1.318.556.526,1.316c.114.285.39.472.697.472s.583-.187.697-.472l.523-1.308,1.308-.523c.285-.114.472-.39.472-.697s-.187-.583-.472-.697Z"/></svg>
