<?xml version="1.0" encoding="UTF-8"?>
<svg xmlns="http://www.w3.org/2000/svg" id="Layer_1" data-name="Layer 1" viewBox="0 0 24 24" width="512" height="512"><path d="m19,0H5C2.243,0,0,2.243,0,5v14c0,2.757,2.243,5,5,5h14c2.757,0,5-2.243,5-5V5c0-2.757-2.243-5-5-5Zm-1.231,6.641l-4.466,5.359,4.466,5.359c.354.425.296,1.056-.128,1.409-.188.155-.414.231-.64.231-.287,0-.571-.122-.77-.359l-4.231-5.078-4.231,5.078c-.198.237-.482.359-.77.359-.226,0-.452-.076-.64-.231-.424-.354-.481-.984-.128-1.409l4.466-5.359-4.466-5.359c-.354-.425-.296-1.056.128-1.409.426-.353,1.056-.296,1.409.128l4.231,5.078,4.231-5.078c.354-.424.983-.48,1.409-.128.424.354.481.984.128,1.409Z"/></svg>
