<?xml version="1.0" encoding="UTF-8"?>
<svg xmlns="http://www.w3.org/2000/svg" id="Layer_1" data-name="Layer 1" viewBox="0 0 24 24" width="512" height="512"><path d="M10,18c0,1.06,.21,2.07,.59,3H5c-2.76,0-5-2.24-5-5V5C0,2.24,2.24,0,5,0V6c0,1.1,.9,2,2,2h7c1.1,0,2-.9,2-2V.28c.33,.15,.64,.35,.89,.61l3.24,3.27c.56,.56,.87,1.31,.87,2.11v3.73c0,.19-.07,.37-.17,.53-.88-.34-1.84-.53-2.83-.53-1.73,0-3.33,.56-4.64,1.5-.63-.9-1.68-1.5-2.86-1.5-1.93,0-3.5,1.57-3.5,3.5,0,1.78,1.35,3.24,3.08,3.46-.04,.34-.08,.69-.08,1.04ZM14,0H7V6h7V0Zm-3.5,12c-.83,0-1.5,.67-1.5,1.5s.67,1.5,1.5,1.5c.03,0,.06,0,.09,0,.31-.77,.74-1.48,1.27-2.11-.24-.52-.76-.88-1.36-.88Zm13.5,6c0,3.31-2.69,6-6,6s-6-2.69-6-6,2.69-6,6-6,6,2.69,6,6Zm-4.59,0l1.29-1.29c.39-.39,.39-1.02,0-1.41s-1.02-.39-1.41,0l-1.29,1.29-1.29-1.29c-.39-.39-1.02-.39-1.41,0s-.39,1.02,0,1.41l1.29,1.29-1.29,1.29c-.39,.39-.39,1.02,0,1.41,.2,.2,.45,.29,.71,.29s.51-.1,.71-.29l1.29-1.29,1.29,1.29c.2,.2,.45,.29,.71,.29s.51-.1,.71-.29c.39-.39,.39-1.02,0-1.41l-1.29-1.29Z"/></svg>
