<?xml version="1.0" encoding="UTF-8"?>
<svg xmlns="http://www.w3.org/2000/svg" id="Layer_1" data-name="Layer 1" viewBox="0 0 24 24" width="512" height="512"><path d="M21.5,16c1.381,0,2.5,1.119,2.5,2.5h0c0,1.381-1.119,2.5-2.5,2.5H2.5c-1.381,0-2.5-1.119-2.5-2.5H0c0-1.381,1.119-2.5,2.5-2.5h5.651c.589,0,1.147,.259,1.527,.708l.247,.292h4.149l.247-.292c.38-.449,.938-.708,1.527-.708h5.652Zm.5-8v6.11c-.323-.067-.656-.11-1-.11h-5.151c-.983,0-1.92,.359-2.646,1h-2.404c-.726-.641-1.663-1-2.646-1H3c-.344,0-.677,.043-1,.11v-6.11c0-2.757,2.243-5,5-5h10c2.757,0,5,2.243,5,5Zm-12.934,.888l1.681-1.681c.391-.391,.391-1.023,0-1.414s-1.023-.391-1.414,0l-1.681,1.681c-.872,.872-.872,2.29,.015,3.176l1.638,1.572c.194,.186,.443,.278,.692,.278,.263,0,.525-.103,.722-.308,.382-.398,.369-1.032-.029-1.414l-1.624-1.557c-.092-.092-.092-.241,0-.333Zm7.279-1.414l-1.681-1.681c-.391-.391-1.023-.391-1.414,0s-.391,1.023,0,1.414l1.681,1.681c.092,.092,.092,.241,.015,.318l-1.638,1.572c-.398,.382-.412,1.016-.029,1.414,.196,.205,.459,.308,.722,.308,.249,0,.499-.092,.692-.278l1.653-1.586c.872-.872,.872-2.29,0-3.161Z"/></svg>
