<?xml version="1.0" encoding="UTF-8"?>
<svg xmlns="http://www.w3.org/2000/svg" id="Layer_1" data-name="Layer 1" viewBox="0 0 24 24" width="512" height="512"><path d="M22.94,6.5c-.68-2.65-3.07-4.5-5.81-4.5h-4.13V1c0-.55-.45-1-1-1s-1,.45-1,1v1H6.87C4.14,2,1.75,3.85,1.06,6.5c-.16,.6-.02,1.23,.36,1.72,.38,.49,.96,.78,1.59,.78H20.99c.62,0,1.2-.28,1.59-.78,.38-.49,.51-1.12,.36-1.72Zm-2.94,4.5H4c-.55,0-1,.45-1,1v2.41c0,4.7,4.14,7.65,6.61,8.98,.75,.41,1.57,.61,2.39,.61s1.64-.2,2.39-.61c2.47-1.34,6.61-4.28,6.61-8.98v-2.41c0-.55-.45-1-1-1Z"/></svg>
