<?xml version="1.0" encoding="UTF-8"?>
<svg xmlns="http://www.w3.org/2000/svg" id="Layer_1" data-name="Layer 1" viewBox="0 0 24 24" width="512" height="512"><path d="m6.431,18.115c-.458,1.145-1.552,1.885-2.785,1.885H1c-.552,0-1-.447-1-1s.448-1,1-1h2.646c.411,0,.776-.247.929-.629.205-.513.785-.764,1.3-.557.513.205.762.787.557,1.301Zm6.569-13.115c1.381,0,2.5-1.119,2.5-2.5s-1.119-2.5-2.5-2.5-2.5,1.119-2.5,2.5,1.119,2.5,2.5,2.5ZM21,0c-2.481,0-2.934,7.045-2.993,11h-1.377c-.351,0-.675-.184-.856-.484l-1.844-3.064c-.543-.901-1.518-1.453-2.57-1.453h-2.367c-.032-.002-.063-.002-.095,0h-2.662c-1.136,0-2.175.642-2.683,1.658l-1.447,2.895c-.247.494-.047,1.095.447,1.342.495.246,1.095.047,1.342-.447l1.447-2.895c.169-.339.515-.552.894-.552h1.218l-1.753,4.273c-.553,1.349-.06,2.894,1.173,3.675l4.125,2.604v4.448c0,.553.448,1,1,1s1-.447,1-1v-5c0-.343-.176-.663-.466-.846l-2.042-1.289,2.5-6.094,1.069,1.776c.543.902,1.518,1.453,2.571,1.453h2.386c.545,0,.987.444.983.989,0,.007,0,.014,0,.02-.004.539-.461.988-1,.99-.551.039-.9.52-.861,1.071.563,7.929,2.233,7.929,2.861,7.929,2.708,0,3-8.392,3-12s-.292-12-3-12Z"/></svg>
