<?xml version="1.0" encoding="UTF-8"?>
<svg xmlns="http://www.w3.org/2000/svg" id="Layer_1" data-name="Layer 1" viewBox="0 0 24 24" width="512" height="512"><path d="m11,11h-2v-1c0-.551.449-1,1-1h1c.551,0,1,.449,1,1s-.449,1-1,1Zm10-4v12c0,2.757-2.243,5-5,5h-8c-2.757,0-5-2.243-5-5V7c0-2.757,2.243-5,5-5h.171c.413-1.164,1.525-2,2.829-2h2c1.304,0,2.416.836,2.829,2h.171c2.757,0,5,2.243,5,5Zm-5.557,9.5l1.371-1.919c.321-.449.217-1.074-.233-1.395-.449-.32-1.075-.217-1.395.233l-.972,1.36-1.606-2.249c.836-.533,1.392-1.468,1.392-2.531,0-1.654-1.346-3-3-3h-1c-1.654,0-3,1.346-3,3v5c0,.552.448,1,1,1s1-.448,1-1v-2h1.485l2.5,3.5-1.371,1.919c-.321.449-.217,1.074.233,1.395.176.125.379.186.58.186.312,0,.62-.146.815-.419l.972-1.36.972,1.36c.195.273.503.419.815.419.201,0,.404-.061.58-.186.45-.321.554-.946.233-1.395l-1.371-1.919Z"/></svg>
