<?xml version="1.0" encoding="UTF-8"?>
<svg xmlns="http://www.w3.org/2000/svg" id="Layer_1" data-name="Layer 1" viewBox="0 0 24 24" width="512" height="512"><path d="m16.5,2.5c0-1.381,1.119-2.5,2.5-2.5s2.5,1.119,2.5,2.5-1.119,2.5-2.5,2.5-2.5-1.119-2.5-2.5Zm6.854,17.481c-.356.408-.83.691-1.354.856v2.163c0,.553-.447,1-1,1s-1-.447-1-1v-2h-2v2c0,.553-.447,1-1,1s-1-.447-1-1v-2.163c-.524-.165-.998-.447-1.354-.856-.503-.577-.724-1.301-.622-2.036l1.348-8.796c.208-1.519,1.553-3.149,3.628-3.149s3.42,1.631,3.63,3.165l1.344,8.766s.002.01.002.015c.102.735-.119,1.459-.622,2.036ZM4,5c1.381,0,2.5-1.119,2.5-2.5S5.381,0,4,0,1.5,1.119,1.5,2.5s1.119,2.5,2.5,2.5Zm4,5v5c0,.883-.391,1.67-1,2.22v5.78c0,.553-.447,1-1,1s-1-.447-1-1v-5h-2v5c0,.553-.447,1-1,1s-1-.447-1-1v-5.78c-.609-.549-1-1.337-1-2.22v-5c0-2.206,1.794-4,4-4s4,1.794,4,4ZM11,0c-.553,0-1,.447-1,1v22c0,.553.447,1,1,1s1-.447,1-1V1c0-.553-.447-1-1-1Z"/></svg>
