<?xml version="1.0" encoding="UTF-8"?>
<svg xmlns="http://www.w3.org/2000/svg" id="Layer_1" data-name="Layer 1" viewBox="0 0 24 24" width="512" height="512"><path d="M19.793,9.366c.191,.232,.267,.535,.209,.826l-.041,.2c-.187,.931-1.011,1.607-1.961,1.607h-1.157c-.92,0-1.718-.623-1.941-1.515l-.277-1.112c.383-.243,.826-.373,1.29-.373h3.105c.301,0,.583,.133,.773,.366Zm4.207,2.634c0,6.617-5.383,12-12,12S0,18.617,0,12,5.383,0,12,0s12,5.383,12,12Zm-6.254,3.336c-.367-.413-.998-.448-1.41-.084-.02,.018-2.005,1.748-4.336,1.748s-4.311-1.726-4.336-1.748c-.412-.365-1.041-.33-1.41,.081-.367,.412-.332,1.044,.08,1.412,.103,.092,2.559,2.254,5.666,2.254s5.563-2.162,5.666-2.254c.411-.367,.446-.997,.08-1.409Zm4.216-4.749c.177-.885-.05-1.792-.622-2.49s-1.418-1.098-2.32-1.098h-3.105c-1.023,0-1.981,.364-2.765,1h-2.298c-.784-.636-1.742-1-2.765-1h-3.085c-.902,0-1.748,.4-2.32,1.098s-.799,1.605-.621,2.494l.039,.192c.372,1.863,2.021,3.216,3.922,3.216h1.137c1.839,0,3.436-1.246,3.881-3.03l.242-.97h1.439l.242,.97c.445,1.784,2.042,3.03,3.881,3.03h1.157c1.9,0,3.55-1.353,3.921-3.212l.041-.2Zm-16.961-1.588c-.301,0-.583,.133-.773,.366-.191,.232-.267,.535-.208,.83l.039,.192c.188,.935,1.012,1.611,1.962,1.611h1.137c.92,0,1.718-.623,1.941-1.515l.277-1.112c-.383-.243-.826-.373-1.29-.373h-3.085Z"/></svg>
