<?xml version="1.0" encoding="UTF-8"?>
<svg xmlns="http://www.w3.org/2000/svg" id="Layer_1" data-name="Layer 1" viewBox="0 0 24 24" width="512" height="512"><path d="M18,10.5c0,1.379-1.122,2.5-2.5,2.5s-2.5-1.121-2.5-2.5,1.122-2.5,2.5-2.5,2.5,1.121,2.5,2.5Zm2,10.426V10.5c0-2.481-2.019-4.5-4.5-4.5s-4.5,2.019-4.5,4.5,2.019,4.5,4.5,4.5c.925,0,1.784-.282,2.5-.762v8.143c-1.766,1.023-3.812,1.619-6,1.619C5.373,24,0,18.627,0,12S5.373,0,12,0s12,5.373,12,12c0,3.55-1.55,6.729-4,8.926ZM6,8.5c0,.828,.672,1.5,1.5,1.5s1.5-.672,1.5-1.5-.672-1.5-1.5-1.5-1.5,.672-1.5,1.5Zm1,5.5c-.552,0-1,.447-1,1s.448,1,1,1c.948,0,3.465,0,5.168,2.555,.193,.289,.51,.445,.833,.445,.19,0,.383-.055,.554-.168,.459-.307,.583-.927,.277-1.387-1.524-2.286-3.823-3.445-6.832-3.445Zm11,9c0,.553,.448,1,1,1s1-.447,1-1v-2.074c-.614,.551-1.282,1.039-2,1.455v.619Z"/></svg>
