<?xml version="1.0" encoding="UTF-8"?>
<svg xmlns="http://www.w3.org/2000/svg" id="Layer_1" data-name="Layer 1" viewBox="0 0 24 24" width="512" height="512"><path d="M14.962,12.5c-.212,0-.424,.081-.585,.242l-4.377,4.377v-1.119c0-.552-.448-1-1-1s-1,.448-1,1v3.58c0,.811,.186,1.625,.612,2.316,.863,1.401,2.292,2.102,3.722,2.102,1.11,0,2.219-.422,3.064-1.267l3.334-3.334c.069-.069,.09-.107,.092-.136,.24-.324,.228-.777-.066-1.071-.162-.162-.373-.242-.585-.242s-.424,.081-.585,.242l-1.84,1.84-.985-.985,3.631-3.631c.323-.323,.323-.847,0-1.171-.162-.162-.374-.242-.585-.242s-.424,.081-.585,.242l-3.634,3.634-1.002-1.002,2.961-2.961c.323-.323,.323-.847,0-1.171-.162-.162-.373-.242-.585-.242h0ZM12,0C5.373,0,0,5.373,0,12c0,4.78,2.802,8.896,6.847,10.825-.55-.942-.847-2.057-.847-3.245v-3.58c0-1.309,.847-2.412,2.018-2.821-.003-.061-.018-.117-.018-.179,0-2.209,1.791-4,4-4,1.278,0,2.403,.61,3.135,1.543,.672,.039,1.331,.292,1.823,.78,.21,.211,.381,.446,.511,.697,.854-.104,1.724,.193,2.339,.808,.534,.534,.828,1.244,.828,1.999,0,.66-.224,1.285-.637,1.789,.06,.05,.117,.104,.173,.159,.925,.925,1.083,2.327,.42,3.434-.095,.185-.225,.358-.379,.524,2.326-2.189,3.787-5.287,3.787-8.733C24,5.373,18.627,0,12,0Zm-1.805,6.98c-1.197,.239-2.428,.858-3.56,1.791-.186,.153-.411,.229-.635,.229-.289,0-.575-.124-.772-.364-.352-.426-.291-1.056,.136-1.407,1.385-1.142,2.92-1.906,4.44-2.209,.539-.113,1.068,.244,1.176,.785,.108,.541-.243,1.068-.785,1.176Zm8.57,1.663c-.198,.235-.481,.356-.767,.356-.227,0-.455-.077-.643-.234-1.129-.949-2.291-1.533-3.553-1.785-.541-.108-.893-.635-.784-1.177,.107-.543,.638-.896,1.177-.784,1.6,.319,3.054,1.044,4.447,2.215,.423,.355,.478,.986,.122,1.409Z"/></svg>
