<?xml version="1.0" encoding="UTF-8"?>
<svg xmlns="http://www.w3.org/2000/svg" id="Layer_1" data-name="Layer 1" viewBox="0 0 24 24">
  <path d="m23.987,2.323c.017-.649-.252-1.277-.737-1.722-.49-.448-1.147-.663-1.802-.586-5.656.654-8.256,4.435-9.448,7.57C10.808,4.45,8.208.669,2.552.015,1.902-.061,1.24.153.75.601.265,1.046-.004,1.674.013,2.323c.087,3.27,1.156,5.867,3.179,7.72,2.607,2.388,6.082,2.863,7.809,2.943v10.014c0,.552.447,1,1,1s1-.448,1-1v-10.014c1.727-.08,5.202-.555,7.809-2.943,2.022-1.853,3.092-4.45,3.179-7.72Z"/>
</svg>
