<?xml version="1.0" encoding="UTF-8"?>
<svg xmlns="http://www.w3.org/2000/svg" id="Layer_1" data-name="Layer 1" viewBox="0 0 24 24" width="512" height="512"><path d="M18,12c-3.31,0-6,2.69-6,6s2.69,6,6,6,6-2.69,6-6-2.69-6-6-6Zm2.41,7.41l-1.71,1.71c-.2,.2-.45,.29-.71,.29s-.51-.1-.71-.29c-.39-.39-.39-1.02,0-1.41l.71-.71h-3c-.55,0-1-.45-1-1s.45-1,1-1h3l-.71-.71c-.39-.39-.39-1.02,0-1.41s1.02-.39,1.41,0l1.71,1.71c.39,.39,.58,.9,.58,1.41,0,0,0,0,0,0s0,0,0,0c0,.51-.2,1.02-.58,1.41Zm-9.83,1.59H5c-2.76,0-5-2.24-5-5V5C0,2.24,2.24,0,5,0V6c0,1.1,.9,2,2,2h7c1.1,0,2-.9,2-2V.28c.33,.15,.64,.35,.89,.61l3.24,3.27c.56,.56,.87,1.31,.87,2.11v3.73c0,.19-.07,.37-.17,.53-.88-.34-1.84-.53-2.83-.53-1.73,0-3.33,.56-4.64,1.5-.63-.9-1.68-1.5-2.86-1.5-1.93,0-3.5,1.57-3.5,3.5,0,1.78,1.35,3.24,3.08,3.46-.04,.34-.08,.69-.08,1.04,0,1.06,.21,2.07,.59,3Zm3.41-15H7V0h7V6Zm-2.14,6.88c-.53,.63-.95,1.34-1.27,2.11-.03,0-.06,0-.09,0-.83,0-1.5-.67-1.5-1.5s.67-1.5,1.5-1.5c.6,0,1.12,.36,1.36,.88Z"/></svg>
