<?xml version="1.0" encoding="UTF-8"?>
<svg xmlns="http://www.w3.org/2000/svg" id="Layer_1" data-name="Layer 1" viewBox="0 0 24 24" width="512" height="512"><path d="m11,9c1.103,0,2,.897,2,2s-.897,2-2,2-2-.897-2-2,.897-2,2-2Zm8.801-4.581C17.882,1.858,15.075.313,12,.042v7.085c1.724.445,3,2.013,3,3.874,0,2.206-1.794,4-4,4s-4-1.794-4-4c0-1.861,1.276-3.429,3-3.874V.044c-.182.016-.364.037-.547.062C4.457.793.501,4.946.046,9.982c-.25,2.77.536,5.501,2.215,7.691.477.624.739,1.46.739,2.355v.971c0,1.654,1.346,3,3,3h7c1.654,0,3-1.346,3-3h.494c2.498,0,4.629-1.867,4.957-4.345l.219-1.655h.33c1.299,0,2-1.03,2-2,0-1.42-2.932-7.014-4.199-8.581Z"/></svg>
