<?xml version="1.0" encoding="UTF-8"?>
<svg xmlns="http://www.w3.org/2000/svg" id="Layer_1" data-name="Layer 1" viewBox="0 0 24 24" width="512" height="512"><path d="m15.707,6.293c.189.188.293.439.293.707s-.104.518-.293.707l-5.707,5.707c-.378.378-.88.586-1.414.586h-.586v-.586c0-.526.214-1.042.586-1.414l5.707-5.707c.391-.39,1.023-.39,1.414,0Zm8.293-2.293v12c0,2.206-1.794,4-4,4h-2.852l-3.848,3.18c-.361.322-.824.484-1.292.484-.476,0-.955-.168-1.337-.507l-3.749-3.157h-2.923c-2.206,0-4-1.794-4-4V4C0,1.794,1.794,0,4,0h16c2.206,0,4,1.794,4,4Zm-6,3c0-.801-.313-1.555-.879-2.121-1.17-1.17-3.072-1.17-4.242,0l-5.707,5.707c-.756.755-1.172,1.76-1.172,2.828v1.586c0,.552.447,1,1,1h1.586c1.068,0,2.073-.417,2.828-1.172l5.707-5.707c.566-.567.879-1.32.879-2.122Z"/></svg>
