<?xml version="1.0" encoding="UTF-8"?>
<svg xmlns="http://www.w3.org/2000/svg" id="Layer_1" data-name="Layer 1" viewBox="0 0 24 24">
  <path d="m18,18c0,.827-.673,1.5-1.5,1.5s-1.5-.673-1.5-1.5.673-1.5,1.5-1.5,1.5.673,1.5,1.5Zm6-6v7c0,2.757-2.243,5-5,5H5c-2.757,0-5-2.243-5-5v-7h24Zm-14,8c0-.552-.447-1-1-1h-4c-.553,0-1,.448-1,1s.447,1,1,1h4c.553,0,1-.448,1-1Zm0-4c0-.552-.447-1-1-1h-4c-.553,0-1,.448-1,1s.447,1,1,1h4c.553,0,1-.448,1-1Zm10,2c0-1.93-1.57-3.5-3.5-3.5s-3.5,1.57-3.5,3.5,1.57,3.5,3.5,3.5,3.5-1.57,3.5-3.5Zm3.899-8c-.465-2.279-2.485-4-4.899-4h-8.954L21.338,1.941c.521-.187.79-.759.604-1.279-.188-.52-.762-.793-1.279-.603L3.447,6.247c-1.69.554-2.986,1.985-3.346,3.753h23.799Z"/>
</svg>
