<?xml version="1.0" encoding="UTF-8"?>
<svg xmlns="http://www.w3.org/2000/svg" id="Layer_1" data-name="Layer 1" viewBox="0 0 24 24" width="512" height="512"><path d="m21.499,2.501c-1.612-1.613-3.757-2.501-6.037-2.501s-4.425.888-6.038,2.501c-2.377,2.377-3.156,7.909-3.41,10.995-.073.884.136,1.754.582,2.495l-3.783,3.783c-.256-.461-.748-.774-1.312-.774-.828,0-1.5.672-1.5,1.5s.672,1.5,1.5,1.5c.231,0,.45-.052.646-.146-.093.196-.146.415-.146.646,0,.828.672,1.5,1.5,1.5s1.5-.672,1.5-1.5c0-.565-.312-1.057-.773-1.312l3.784-3.783c.644.388,1.385.596,2.148.596.115,0,.23-.004.346-.014,1.173-.096,2.953-.292,4.77-.676.51-.108.852-.59.785-1.107-.03-.229-.051-.462-.051-.7,0-3.434,3.137-6.183,6.737-5.354.282.064.58.005.813-.167.234-.171.383-.435.407-.724.212-2.515-.688-4.978-2.467-6.757Z"/></svg>
