<?xml version="1.0" encoding="UTF-8"?>
<svg xmlns="http://www.w3.org/2000/svg" id="Layer_1" data-name="Layer 1" viewBox="0 0 24 24">
  <path d="m23.22,1.219l-.418-.418c-.878-.876-2.24-1.053-3.313-.431-.694.402-1.414.656-2.081.734-.516.06-1.008.25-1.429.545l6.394,6.394c.296-.422.486-.914.546-1.43.078-.667.331-1.387.733-2.08.623-1.073.446-2.436-.431-3.313Z"/>
  <path d="m1.071,16.504c-.691.69-1.071,1.608-1.071,2.584s.38,1.894,1.071,2.584l1.292,1.293c.713.713,1.649,1.069,2.585,1.069s1.871-.356,2.584-1.069c0,0,0-.001.002-.002l13.459-13.473-6.46-6.46c-.99.995-11.876,11.887-13.463,13.474Zm6.477,1.448c-.828,0-1.5-.672-1.5-1.5s.672-1.5,1.5-1.5,1.5.672,1.5,1.5-.672,1.5-1.5,1.5Zm3.5-3.5c-.828,0-1.5-.672-1.5-1.5s.672-1.5,1.5-1.5,1.5.672,1.5,1.5-.672,1.5-1.5,1.5Zm4.952-4.952c0,.828-.672,1.5-1.5,1.5s-1.5-.672-1.5-1.5.672-1.5,1.5-1.5,1.5.672,1.5,1.5Z"/>
</svg>
