<?xml version="1.0" encoding="UTF-8"?>
<svg xmlns="http://www.w3.org/2000/svg" id="Layer_1" data-name="Layer 1" viewBox="0 0 24 24" width="512" height="512"><path d="m5.049,4c-.69,0-1.036-.834-.548-1.322L6.952.227c.303-.303.793-.303,1.096,0l2.451,2.451c.488.488.142,1.322-.548,1.322h-4.901ZM14.049,0c-.69,0-1.036.834-.548,1.322l2.451,2.451c.303.303.793.303,1.096,0l2.451-2.451c.488-.488.142-1.322-.548-1.322h-4.901Zm9.951,11v8c0,2.757-2.243,5-5,5H5c-2.757,0-5-2.243-5-5v-8c0-2.757,2.243-5,5-5h14c2.757,0,5,2.243,5,5Zm-10,1.5c0,1.381,1.119,2.5,2.5,2.5s2.5-1.119,2.5-2.5-1.119-2.5-2.5-2.5-2.5,1.119-2.5,2.5Zm-9,0c0,1.381,1.119,2.5,2.5,2.5s2.5-1.119,2.5-2.5-1.119-2.5-2.5-2.5-2.5,1.119-2.5,2.5Zm6,7c0-1.93-1.57-3.5-3.5-3.5s-3.5,1.57-3.5,3.5v2.316c.314.112.648.184,1,.184h6v-2.5Zm9,0c0-1.93-1.57-3.5-3.5-3.5s-3.5,1.57-3.5,3.5v2.5h6c.352,0,.686-.072,1-.184v-2.316Z"/></svg>
