<?xml version="1.0" encoding="UTF-8"?>
<svg xmlns="http://www.w3.org/2000/svg" id="Layer_1" data-name="Layer 1" viewBox="0 0 24 24" width="512" height="512"><path d="M21.796,5.578L14.797,.856c-1.69-1.14-3.903-1.14-5.594,0L2.204,5.577c-1.378,.93-2.204,2.484-2.204,4.146v9.276c0,2.761,2.239,5,5,5h3.174c.62,0,1.175-.381,1.399-.959l1.564-4.041h-2.755c-1.086,0-1.739-1.204-1.147-2.114l4.952-7.361c.215-.328,.581-.525,.973-.525,.782,0,1.341,.755,1.114,1.503l-1.369,4.497h2.87c.843,0,1.435,.831,1.16,1.628l-2.032,6.054c-.217,.648,.265,1.318,.948,1.318h3.15c2.761,0,5-2.239,5-5V9.724c0-1.662-.826-3.216-2.204-4.146Z"/></svg>
