<?xml version="1.0" encoding="UTF-8"?>
<svg xmlns="http://www.w3.org/2000/svg" id="Layer_1" data-name="Layer 1" viewBox="0 0 24 24" width="512" height="512"><path d="m24,11c0,.553-.447,1-1,1h-1v1c0,1.103-.897,2-2,2h-1v4c0,1.654-1.346,3-3,3h-3v1c0,.553-.447,1-1,1s-1-.447-1-1v-1h-3c-1.654,0-3-1.346-3-3v-4h-1c-1.103,0-2-.897-2-2v-1h-1c-.553,0-1-.447-1-1s.447-1,1-1h22c.553,0,1,.447,1,1ZM7,4h10c.553,0,1-.447,1-1s-.447-1-1-1h-1.184c-.413-1.163-1.512-2-2.816-2h-2c-1.304,0-2.403.837-2.816,2h-1.184c-.553,0-1,.447-1,1s.447,1,1,1Zm5.358,5.984c2.032-.177,3.525-1.96,3.623-3.984h-7.981c0,2.327,1.988,4.19,4.358,3.984Z"/></svg>
