<?xml version="1.0" encoding="UTF-8"?>
<svg xmlns="http://www.w3.org/2000/svg" id="Layer_1" data-name="Layer 1" viewBox="0 0 24 24" width="512" height="512"><path d="m24,11v1h-8v-4c0-1.103.897-2,2-2h1c2.757,0,5,2.243,5,5Zm-8,8h5c1.657,0,3-1.343,3-3v-2h-8v5ZM3.5-.051h-.5C2.448-.051,2,.396,2,.949v5.5c0,.276-.224.5-.5.5h-.5c-.552,0-1,.448-1,1s.448,1,1,1h.5c1.381,0,2.5-1.119,2.5-2.5v-3.338l7.408,8.889H2.5c-1.381,0-2.5,1.119-2.5,2.5v2c0,1.381,1.119,2.5,2.5,2.5h11.5v-7.013L4.268.309c-.19-.228-.471-.36-.768-.36Zm-.442,21.051c-.034.162-.058.328-.058.5,0,1.381,1.119,2.5,2.5,2.5s2.5-1.119,2.5-2.5c0-.172-.024-.338-.058-.5H3.058Zm13,0c-.034.162-.058.328-.058.5,0,1.381,1.119,2.5,2.5,2.5s2.5-1.119,2.5-2.5c0-.172-.024-.338-.058-.5h-4.885Z"/></svg>
