<?xml version="1.0" encoding="UTF-8"?>
<svg xmlns="http://www.w3.org/2000/svg" id="Layer_1" data-name="Layer 1" viewBox="0 0 24 24" width="512" height="512"><path d="M22.12,3.9c-1.2-1.25-2.81-1.91-4.66-1.9-2.25,.05-4.34,1.29-5.44,3.26,0,.01-.01,.02-.02,.03,0-.01-.02-.02-.02-.03-1.11-1.96-3.19-3.21-5.46-3.26-1.84,0-3.44,.66-4.64,1.91C.61,5.22-.07,7.09,0,9.01c0,4.5,4.66,9.4,8.57,12.72,.99,.84,2.21,1.26,3.43,1.26,1.23,0,2.46-.43,3.46-1.28,3.18-2.71,8.53-7.95,8.53-12.63,.07-1.98-.61-3.87-1.88-5.18Zm-7.95,16.29c-.35,.3-.75,.51-1.17,.64V9c0-1.62,.69-2.63,.69-2.63,.02-.03,.04-.06,.06-.1,.75-1.36,2.19-2.23,3.74-2.27,1.27,0,2.37,.45,3.18,1.29,.89,.93,1.37,2.28,1.32,3.76,0,2.81-2.92,6.98-7.82,11.14Z"/></svg>
