<?xml version="1.0" encoding="UTF-8"?>
<svg xmlns="http://www.w3.org/2000/svg" id="Layer_1" data-name="Layer 1" viewBox="0 0 24 24" width="512" height="512"><path d="M16,10.75c0,1.2-1.48,3.14-3.85,5.04-.09,.07-.21,.07-.3,0-2.38-1.91-3.85-3.84-3.85-5.04,0-.96,.67-1.75,1.5-1.75s1.5,.79,1.5,1.75c0,.55,.45,1,1,1s1-.45,1-1c0-.96,.67-1.75,1.5-1.75s1.5,.79,1.5,1.75Zm8-5.75v14c0,2.76-2.24,5-5,5H5c-2.76,0-5-2.24-5-5V5C0,2.24,2.24,0,5,0h14c2.76,0,5,2.24,5,5Zm-6,5.75c0-2.07-1.57-3.75-3.5-3.75-.98,0-1.86,.43-2.5,1.13-.64-.7-1.52-1.13-2.5-1.13-1.93,0-3.5,1.68-3.5,3.75,0,2.41,2.5,4.92,4.6,6.6,.41,.33,.9,.49,1.4,.49s1-.16,1.4-.49c2.1-1.68,4.6-4.2,4.6-6.6Z"/></svg>
