<?xml version="1.0" encoding="UTF-8"?>
<svg xmlns="http://www.w3.org/2000/svg" id="Layer_1" data-name="Layer 1" viewBox="0 0 24 24" width="512" height="512"><path d="M17.109,7c.689,0,1.288,.468,1.455,1.137l.243,.97c1.615,.319,2.991,1.408,3.641,2.97l.321,.77c.293,.703,.515,1.424,.704,2.153H8.526c.189-.729,.411-1.451,.705-2.154l.32-.769c.651-1.562,2.027-2.651,3.642-2.971l.243-.97c.167-.669,.766-1.137,1.455-1.137h2.219ZM2,16c0,1.302,.839,2.402,2,2.816v1.184c0,.552,.448,1,1,1s1-.448,1-1v-1c0-.622,.04-1.263,.125-2l.465-2.502c.045-.173,.091-.335,.137-.498H2v2ZM13.668,.501C11.212-.164,8.788-.164,6.332,.501c-2.141,.58-3.725,2.349-4.183,4.499h15.702c-.458-2.149-2.042-3.918-4.183-4.499Zm-2.131,7.027c.053-.184,.118-.36,.198-.529H2v1c-1.105,0-2,.895-2,2s.895,2,2,2H7.417l.287-.691c.736-1.765,2.135-3.092,3.833-3.78Zm12.324,9.471h-2.86v1c0,.552-.448,1-1,1s-1-.448-1-1v-1h-6v1c0,.552-.448,1-1,1s-1-.448-1-1v-1h-2.86c-.083,.661-.14,1.326-.14,2,0,1.302,.839,2.402,2,2.816v.184c0,1.103,.897,2,2,2s2-.897,2-2h4c0,1.103,.897,2,2,2s2-.897,2-2v-.184c1.161-.414,2-1.514,2-2.816,0-.674-.057-1.339-.14-2Z"/></svg>
