<?xml version="1.0" encoding="UTF-8"?>
<svg xmlns="http://www.w3.org/2000/svg" id="Layer_1" data-name="Layer 1" viewBox="0 0 24 24" width="512" height="512"><path d="m9.5,2.5c0-1.381,1.119-2.5,2.5-2.5s2.5,1.119,2.5,2.5-1.119,2.5-2.5,2.5-2.5-1.119-2.5-2.5Zm-5.341,10.959l3.319-5.163c.924-1.438,2.495-2.296,4.205-2.296h.633c1.71,0,3.281.858,4.206,2.296l3.318,5.163c.299.465.164,1.084-.3,1.382-.168.108-.354.159-.54.159-.329,0-.651-.162-.842-.459l-3.159-4.914v3.373c0,.553-.447,1-1,1h-4c-.553,0-1-.447-1-1v-3.372l-3.159,4.913c-.297.465-.916.601-1.382.3-.464-.298-.599-.917-.3-1.382Zm14.841,8.541H5c-.553,0-1,.447-1,1s.447,1,1,1h14c.553,0,1-.447,1-1s-.447-1-1-1Zm-10-5c-.553,0-1,.447-1,1s.447,1,1,1h6c.553,0,1-.447,1-1s-.447-1-1-1h-6ZM4.47,6.243l.357-1.43,1.432-.385c.443-.119.748-.525.74-.984-.008-.458-.328-.853-.775-.956l-1.404-.325-.351-1.406c-.111-.445-.511-.757-.97-.757s-.859.312-.97.757l-.354,1.418-1.418.354C.312,2.641,0,3.041,0,3.5s.312.859.757.97l1.418.354.354,1.418c.111.445.511.757.97.757s.859-.312.97-.757Zm19.045-1.978l-1.299-.492-.52-1.301c-.114-.285-.39-.472-.697-.472s-.583.187-.697.472l-.523,1.308-1.308.523c-.285.114-.472.39-.472.697s.187.583.472.697l1.308.523.523,1.308c.114.285.39.472.697.472s.583-.187.697-.472l.526-1.316,1.318-.556c.283-.119.464-.398.459-.705-.006-.307-.198-.579-.484-.687Z"/></svg>
