<?xml version="1.0" encoding="UTF-8"?>
<svg xmlns="http://www.w3.org/2000/svg" id="Layer_1" data-name="Layer 1" viewBox="0 0 24 24" width="512" height="512"><path d="m19,0H5C2.243,0,0,2.243,0,5v14c0,2.757,2.243,5,5,5h14c2.757,0,5-2.243,5-5V5c0-2.757-2.243-5-5-5Zm-.012,6.152l-1.749,11.354c-.122.798-.739,1.494-1.751,1.494-.724,0-1.364-.433-1.634-1.122l-1.854-4.764-1.854,4.764c-.294.754-1.046,1.188-1.836,1.111-.804-.089-1.427-.686-1.549-1.484l-1.749-11.353c-.084-.546.29-1.057.836-1.141.55-.08,1.057.29,1.141.836l1.614,10.48,2.466-6.333c.149-.384.52-.637.932-.637s.782.253.932.637l2.466,6.333,1.614-10.48c.084-.546.598-.917,1.141-.836.546.084.92.595.836,1.141Z"/></svg>
