<?xml version="1.0" encoding="UTF-8"?>
<svg xmlns="http://www.w3.org/2000/svg" id="Layer_1" data-name="Layer 1" viewBox="0 0 24 24" width="512" height="512"><path d="M3.101,9H.395C1.732,3.833,6.42,0,12,0s10.268,3.833,11.605,9h-2.706c-.465-2.279-2.484-4-4.899-4-1.641,0-3.088,.806-4,2.031-.912-1.225-2.359-2.031-4-2.031-2.414,0-4.434,1.721-4.899,4Zm8.899,8c.972,0,2.906-.866,3.001-1.344,0-.295-.249-.715-.483-.906-1.018-.319-1.894-.944-2.518-1.781-.609,.818-1.467,1.436-2.455,1.762-.279,.187-.545,.599-.545,.932,0,.487,1.906,1.337,3,1.337Zm-4-4c-1.654,0-3-1.346-3-3s1.346-3,3-3,3,1.346,3,3-1.346,3-3,3Zm1-3c0-.552-.448-1-1-1s-1,.448-1,1,.448,1,1,1,1-.448,1-1Zm14.949,1h-3.05c-.406,1.99-1.999,3.544-4.004,3.909,.063,.244,.105,.495,.105,.754,0,.136-.016,.266-.041,.393l1.108,.789c.45,.32,.555,.944,.234,1.395-.195,.274-.503,.42-.815,.42-.2,0-.403-.061-.579-.186l-1.118-.796c-.339,.248-.721,.458-1.115,.635l.467,1.363c.179,.522-.1,1.091-.622,1.271-.107,.036-.217,.054-.324,.054-.416,0-.804-.261-.946-.676l-.484-1.412c-.306,.057-.573,.088-.764,.088-.21,0-.475-.027-.768-.075l-.48,1.4c-.143,.415-.53,.676-.946,.676-.107,0-.217-.018-.324-.054-.522-.18-.801-.748-.622-1.271l.454-1.324c-.404-.178-.793-.394-1.135-.65l-1.086,.773c-.176,.125-.379,.186-.579,.186-.312,0-.62-.146-.815-.42-.32-.45-.216-1.074,.234-1.395l1.106-.788c-.024-.127-.039-.258-.039-.395,0-.258,.035-.511,.099-.754-2.001-.367-3.592-1.921-3.997-3.909H.051c-.027,.331-.051,.662-.051,1,0,6.617,5.383,12,12,12s12-5.383,12-12c0-.338-.023-.669-.051-1Zm-7.949,2c-1.654,0-3-1.346-3-3s1.346-3,3-3,3,1.346,3,3-1.346,3-3,3Zm0-2c.552,0,1-.448,1-1s-.448-1-1-1-1,.448-1,1,.448,1,1,1Z"/></svg>
