<?xml version="1.0" encoding="UTF-8"?>
<svg xmlns="http://www.w3.org/2000/svg" id="Layer_1" data-name="Layer 1" viewBox="0 0 24 24" width="512" height="512"><path d="M15,13.5c0-1.93-1.57-3.5-3.5-3.5H3.5c-1.93,0-3.5,1.57-3.5,3.5,0,1.391,.822,2.585,2,3.149v2.351H1c-.552,0-1,.447-1,1s.448,1,1,1h1v2c0,.553,.448,1,1,1s1-.447,1-1v-2h7v2c0,.553,.448,1,1,1s1-.447,1-1v-2h1c.552,0,1-.447,1-1s-.448-1-1-1h-1v-2.351c1.178-.564,2-1.758,2-3.149Zm-11,5.5v-2h7v2H4ZM23.544,10.161c.487,.959,.58,1.966,.297,2.966-.523,1.849-2.343,3.05-4.32,2.851-.242-.024-.344,.032-.399,.081-.056,.051-.122,.144-.122,.302v6.64c0,.553-.448,1-1,1s-1-.447-1-1V13.5c0-2.562-1.739-4.765-4.23-5.353-.493-.117-.821-.584-.764-1.087,.094-.821,.667-1.604,1.703-2.327,.271-.189,.294-.521,.292-.656-.011-.542,.092-1.084,.306-1.61,.468-1.151,1.454-2.021,2.637-2.33,.706-.185,1.437-.181,2.143,.008,1.171,.313,2.146,1.184,2.61,2.326,.214,.531,.316,1.075,.303,1.62-.003,.161,.03,.459,.294,.645,1.069,.745,1.707,1.966,1.707,3.265,0,.589-.138,1.177-.41,1.749-.104,.218-.096,.306-.096,.307,.003,.016,.032,.069,.05,.105Z"/></svg>
