<?xml version="1.0" encoding="UTF-8"?>
<svg xmlns="http://www.w3.org/2000/svg" id="Layer_1" data-name="Layer 1" viewBox="0 0 24 24">
  <path d="m17,1.5c0-.828.672-1.5,1.5-1.5s1.5.672,1.5,1.5-.672,1.5-1.5,1.5-1.5-.672-1.5-1.5Zm5.5,2.5c-.828,0-1.5.672-1.5,1.5s.672,1.5,1.5,1.5,1.5-.672,1.5-1.5-.672-1.5-1.5-1.5Zm-11.793,10.707c-.195.195-.451.293-.707.293s-.512-.098-.707-.293c-.391-.391-.391-1.023,0-1.414l7.221-7.221c-1.604-1.295-3.644-2.072-5.862-2.072-.087,0-.174,0-.256.005-1.384.048-2.56.998-2.857,2.31-.197.87-.636,1.664-1.27,2.298-.838.838-1.952,1.329-3.135,1.383-1.245.056-2.345.929-2.736,2.173-.265.842-.398,1.678-.398,2.484,0,2.218.777,4.257,2.072,5.862l3.221-3.221c.391-.391,1.023-.391,1.414,0s.391,1.023,0,1.414l-3.221,3.221c1.604,1.295,3.644,2.072,5.862,2.072.801,0,1.63-.132,2.466-.393,1.271-.396,2.17-1.566,2.188-2.847.016-1.241.509-2.408,1.387-3.287h0c.63-.632,1.421-1.07,2.286-1.269,1.343-.307,2.321-1.499,2.325-2.857,0-2.218-.777-4.257-2.072-5.862l-7.221,7.221Zm7.221-7.221l5.779-5.779c.391-.391.391-1.023,0-1.414s-1.023-.391-1.414,0l-5.779,5.779c.52.42.994.894,1.414,1.414ZM2.072,20.514l-1.779,1.779c-.391.391-.391,1.023,0,1.414.195.195.451.293.707.293s.512-.098.707-.293l1.779-1.779c-.52-.42-.994-.894-1.414-1.414Z"/>
</svg>
