<?xml version="1.0" encoding="UTF-8"?>
<svg xmlns="http://www.w3.org/2000/svg" id="Layer_1" data-name="Layer 1" viewBox="0 0 24 24" width="512" height="512"><path d="m6,2.5c0-1.379,1.121-2.5,2.5-2.5s2.5,1.121,2.5,2.5-1.121,2.5-2.5,2.5-2.5-1.121-2.5-2.5Zm14,19.5h-1.246l-1.378-4.825c-.366-1.28-1.553-2.175-2.885-2.175h-4.491c-.551,0-1-.448-1-1v-2h6c.552,0,1-.447,1-1s-.448-1-1-1h-6v-2c0-.553-.448-1-1-1s-1,.447-1,1v6c0,1.654,1.346,3,3,3h4.491c.444,0,.84.298.962.725l1.378,4.824c.244.854,1.034,1.451,1.923,1.451h1.246c.552,0,1-.447,1-1s-.448-1-1-1Zm-7-3h-3c-2.757,0-5-2.243-5-5v-6c0-.553-.448-1-1-1s-1,.447-1,1v6c0,3.859,3.14,7,7,7h3c.552,0,1-.447,1-1s-.448-1-1-1Z"/></svg>
