<?xml version="1.0" encoding="UTF-8"?>
<svg xmlns="http://www.w3.org/2000/svg" id="Layer_1" data-name="Layer 1" viewBox="0 0 24 24" width="512" height="512"><path d="m21.406,19.469c-2.307,2.88-5.731,4.531-9.395,4.531s-7.099-1.651-9.406-4.531C-.862,15.142-.862,8.858,2.605,4.531,6.61-.467,13.804-1.475,18.982,2.238c.598.429.975,1.101,1.035,1.845.063.772-.215,1.529-.763,2.077l-4.426,4.426c-.188.188-.442.293-.707.293s-.52-.105-.707-.293c-.419-.42-.999-.628-1.589-.578-.599.052-1.125.358-1.479.863-.458.654-.458,1.604,0,2.258.354.505.879.812,1.479.863.594.052,1.17-.159,1.589-.578.39-.391,1.023-.391,1.414,0,.391.391.391,1.023,0,1.414-.837.838-1.996,1.258-3.176,1.157-1.181-.104-2.254-.726-2.943-1.708-.94-1.341-.94-3.214,0-4.555.689-.982,1.762-1.604,2.943-1.708.838-.068,1.669.121,2.379.539l1.445-1.445c-2.27-1.616-5.421-1.462-7.523.461.03.139.047.282.047.43,0,.983-.71,1.8-1.645,1.968-.759,2.118-.292,4.581,1.402,6.275.763.763,1.681,1.277,2.654,1.542.365-.477.941-.785,1.589-.785s1.223.308,1.588.785c.973-.265,1.892-.779,2.655-1.542,1.356-1.356,1.973-3.224,1.693-5.124-.081-.546.297-1.055.843-1.135.541-.087,1.054.297,1.135.844.368,2.494-.476,5.047-2.257,6.829-1.089,1.089-2.417,1.798-3.816,2.126-.305.715-1.014,1.216-1.841,1.216s-1.536-.501-1.841-1.216c-1.4-.329-2.727-1.037-3.816-2.126-2.258-2.258-2.881-5.541-1.87-8.366-.295-.349-.474-.799-.474-1.292,0-1.105.895-2,2-2,.211,0,.414.033.605.093,2.888-2.641,7.258-2.779,10.301-.413l.935-.935c.132-.132.199-.314.184-.5-.009-.113-.053-.271-.208-.382C13.502.77,7.505,1.613,4.166,5.781c-2.886,3.604-2.886,8.834,0,12.438,1.926,2.403,4.781,3.781,7.834,3.781s5.92-1.378,7.846-3.781c2.304-2.876,2.806-6.936,1.279-10.342-.226-.504,0-1.096.503-1.321.503-.227,1.095,0,1.322.503,1.831,4.084,1.225,8.955-1.543,12.41Z"/></svg>
