<?xml version="1.0" encoding="UTF-8"?>
<svg xmlns="http://www.w3.org/2000/svg" id="Layer_1" data-name="Layer 1" viewBox="0 0 24 24" width="512" height="512"><path d="m20.124,11h.376c.827,0,1.5-.673,1.5-1.5v-2c0-.827-.673-1.5-1.5-1.5h-.376C19.053,2.53,15.817,0,12,0S4.947,2.53,3.876,6h-.376c-.827,0-1.5.673-1.5,1.5v2c0,.827.673,1.5,1.5,1.5h.376c.679,2.202,2.232,4.022,4.25,5.061-3.448.432-6.126,3.377-6.126,6.939,0,.553.447,1,1,1h3v-1c0-1.654,1.346-3,3-3h6c1.654,0,3,1.346,3,3v1h3c.553,0,1-.447,1-1,0-3.563-2.678-6.507-6.126-6.939,2.018-1.039,3.571-2.859,4.25-5.061Zm-8.124,3c-3.309,0-6-2.691-6-6,0-.946.862-2,2.101-2h7.899c1.235,0,2,1.038,2,2,0,3.309-2.691,6-6,6Z"/><path d="m7.991,8.082c.009,2.124,1.803,3.918,4.009,3.918,2.193,0,3.98-1.774,4-3.964l-7.899-.036c-.068,0-.097.045-.109.082Z"/><path d="m15,22h-6c-.552,0-1,.448-1,1v1h8v-1c0-.552-.448-1-1-1Z"/></svg>
