<?xml version="1.0" encoding="UTF-8"?>
<svg xmlns="http://www.w3.org/2000/svg" id="Layer_1" data-name="Layer 1" viewBox="0 0 24 24" width="512" height="512"><path d="m12.713,14.905l2.51,3.814c.159.241.067.579-.2.688-.957.389-1.99.583-3.022.583-1.033,0-2.066-.194-3.022-.583-.267-.109-.359-.447-.2-.688l2.51-3.814c.23.056.466.095.713.095s.483-.039.713-.095Zm11.287-2.905c0,6.617-5.383,12-12,12S0,18.617,0,12,5.383,0,12,0s12,5.383,12,12Zm-2.17-1.542c-.241-1.616-.738-2.837-1.473-3.955-.456-.693-.942-1.315-1.724-1.99-.984-.849-2.502-.604-3.217.482l-2.699,4.101c-.231-.057-.469-.096-.717-.096s-.486.039-.717.096l-2.699-4.101c-.714-1.086-2.233-1.331-3.217-.482-.782.675-1.268,1.297-1.724,1.99-.735,1.118-1.232,2.339-1.473,3.955-.199,1.332.797,2.542,2.144,2.544,1.845.003,4.223.007,4.874.009.104.288.249.553.43.792l-2.719,4.132c-.729,1.107-.324,2.631.886,3.172,1.059.474,2.487.895,4.215.895s3.156-.421,4.215-.895c1.21-.541,1.615-2.065.886-3.172l-2.719-4.132c.182-.239.327-.504.43-.792.651-.003,3.029-.006,4.874-.009,1.347-.002,2.343-1.212,2.144-2.544Zm-4.253-4.198c-.19-.184-.508-.139-.653.082l-2.539,3.858c.184.244.33.514.433.807l4.616-.005c.264,0,.476-.24.427-.5-.195-1.03-.592-2.013-1.175-2.9-.323-.491-.694-.939-1.109-1.343Zm-11.154,0c-.416.403-.787.852-1.109,1.343-.583.887-.98,1.87-1.175,2.9-.049.259.163.5.427.5l4.616.005c.104-.293.249-.564.433-.807l-2.539-3.858c-.145-.221-.464-.266-.653-.082Zm5.577,6.74c.552,0,1-.448,1-1s-.448-1-1-1-1,.448-1,1,.448,1,1,1Z"/></svg>
