<?xml version="1.0" encoding="UTF-8"?>
<svg xmlns="http://www.w3.org/2000/svg" id="Layer_1" data-name="Layer 1" viewBox="0 0 24 24" width="512" height="512"><path d="M0,10v9c0,2.76,2.24,5,5,5h14c2.76,0,5-2.24,5-5V10H0Zm18,10H6c-.55,0-1-.45-1-1s.45-1,1-1h12c.55,0,1,.45,1,1s-.45,1-1,1Zm0-4H6c-.55,0-1-.45-1-1s.45-1,1-1h12c.55,0,1,.45,1,1s-.45,1-1,1Zm6-8v-3c0-2.76-2.24-5-5-5H5C2.24,0,0,2.24,0,5v3H24ZM14.08,3h4.87c.69,0,1.03,.83,.54,1.31l-2.44,2.23c-.3,.3-.79,.3-1.09,0l-2.44-2.23c-.48-.48-.14-1.31,.54-1.31Z"/></svg>
