<?xml version="1.0" encoding="UTF-8"?>
<svg xmlns="http://www.w3.org/2000/svg" id="Layer_1" data-name="Layer 1" viewBox="0 0 24 24" width="512" height="512"><path d="m0,12v-5h10v5H0Zm10-7v-1.5c0-1.933-1.567-3.5-3.5-3.5h-3C1.567,0,0,1.567,0,3.5v1.5h10Zm0,9v5c0,2.761-2.239,5-5,5S0,21.761,0,19v-5h10Zm-3.5,5c0-.828-.672-1.5-1.5-1.5s-1.5.672-1.5,1.5.672,1.5,1.5,1.5,1.5-.672,1.5-1.5Zm3.5-14v-1.5c0-1.933-1.567-3.5-3.5-3.5h-3C1.567,0,0,1.567,0,3.5v1.5h10Zm0,9v5c0,2.761-2.239,5-5,5S0,21.761,0,19v-5h10Zm-3.5,5c0-.828-.672-1.5-1.5-1.5s-1.5.672-1.5,1.5.672,1.5,1.5,1.5,1.5-.672,1.5-1.5Zm5.499.072l7.939-7.939c1.367-1.367,1.367-3.583,0-4.95l-2.121-2.121c-1.367-1.367-3.583-1.367-4.95,0l-.867.867s0,14.119,0,14.143Zm-2.1,4.928h10.601c1.933,0,3.5-1.567,3.5-3.5v-3c0-1.933-1.567-3.5-3.5-3.5h-.6l-10.001,10Z"/></svg>
