<?xml version="1.0" encoding="UTF-8"?>
<svg xmlns="http://www.w3.org/2000/svg" id="Layer_1" data-name="Layer 1" viewBox="0 0 24 24" width="512" height="512"><path d="m23.94,23.341c-.147.406-.531.659-.94.659-.113,0-.229-.02-.341-.061l-10.659-3.87-10.659,3.87c-.113.041-.228.061-.341.061-.409,0-.792-.253-.94-.659-.188-.519.08-1.093.599-1.281l8.411-3.054L.659,15.953c-.519-.188-.787-.762-.599-1.281.189-.519.762-.787,1.281-.599l10.659,3.87,10.659-3.87c.52-.189,1.093.08,1.281.599.188.519-.08,1.093-.599,1.281l-8.411,3.054,8.411,3.054c.519.188.787.762.599,1.281ZM5,9v-1.792C5,3.577,7.616.503,11.085.059c2.01-.258,4.026.357,5.535,1.686,1.513,1.331,2.38,3.247,2.38,5.255v2c0,1.654-1.346,3-3,3,0,1.654-1.346,3-3,3h-2c-1.654,0-3-1.346-3-3-1.654,0-3-1.346-3-3Zm8-1.5c0,.828.672,1.5,1.5,1.5s1.5-.672,1.5-1.5-.672-1.5-1.5-1.5-1.5.672-1.5,1.5Zm-5,0c0,.828.672,1.5,1.5,1.5s1.5-.672,1.5-1.5-.672-1.5-1.5-1.5-1.5.672-1.5,1.5Z"/></svg>
