<?xml version="1.0" encoding="UTF-8"?>
<svg xmlns="http://www.w3.org/2000/svg" id="Layer_1" data-name="Layer 1" viewBox="0 0 24 24" width="512" height="512"><path d="M23.707,22.293L13.275,11.861c2.698-.586,4.725-2.99,4.725-5.861,0-3.309-2.691-6-6-6-2.871,0-5.274,2.028-5.861,4.725L1.707,.293C1.316-.098,.684-.098,.293,.293S-.098,1.316,.293,1.707L22.293,23.707c.195,.195,.451,.293,.707,.293s.512-.098,.707-.293c.391-.391,.391-1.023,0-1.414ZM9.977,14.238l9.762,9.762H4c-.552,0-1-.448-1-1,0-4.266,2.987-7.841,6.977-8.762Z"/></svg>
