<?xml version="1.0" encoding="UTF-8"?>
<svg xmlns="http://www.w3.org/2000/svg" id="Layer_1" data-name="Layer 1" viewBox="0 0 24 24" width="512" height="512"><path d="m22,11.95v6.05c0,.521-.399.954-.917.997-.028.002-.056.003-.083.003-.484,0-.904-.35-.985-.835-.389-2.333-3.62-3.165-6.514-3.165h-4.5V4h4.5c2.894,0,6.125-.831,6.514-3.165.086-.513.555-.88,1.069-.832.519.043.917.476.917.997v6.05c1.141.232,2,1.24,2,2.45s-.859,2.218-2,2.45Zm-15,3.05V4h-1.5C2.467,4,0,6.467,0,9.5s2.467,5.5,5.5,5.5h1.5Zm1.523,2h-3.023c-.878,0-1.721-.152-2.505-.431l2.171,5.792c.228.625.686,1.124,1.289,1.405.335.156.692.234,1.05.234.288,0,.577-.051.855-.152.625-.228,1.124-.686,1.405-1.289.281-.604.31-1.28.082-1.904l-1.325-3.656Z"/></svg>
