<?xml version="1.0" encoding="UTF-8"?>
<svg xmlns="http://www.w3.org/2000/svg" id="Layer_1" data-name="Layer 1" viewBox="0 0 24 24" width="512" height="512"><path d="M22.801,6.799c-.277,.253-.573,.507-.891,.762-.52,.418-1.157,.627-1.795,.627s-1.275-.209-1.796-.628c-2.458-1.974-3.704-3.87-3.704-5.635,0-.551,.111-1.075,.308-1.551-.937-.235-1.913-.374-2.923-.374C5.373,0,0,5.373,0,12c0,1.13,.167,2.218,.459,3.255,.404-.156,.836-.255,1.291-.255,.632,0,1.228,.164,1.75,.454,.522-.29,1.118-.454,1.75-.454,.26,0,.513,.028,.758,.081-.022-.264,.056-.535,.246-.747,.369-.411,.998-.446,1.41-.081,.025,.022,2.008,1.748,4.336,1.748s4.316-1.73,4.336-1.748c.412-.365,1.043-.328,1.41,.084,.366,.412,.331,1.042-.08,1.409-.103,.092-2.559,2.254-5.666,2.254-1.297,0-2.465-.38-3.412-.826,.255,.529,.412,1.118,.412,1.75,0,1.272-.658,2.614-1.94,4.002,1.508,.683,3.177,1.073,4.94,1.073,6.627,0,12-5.373,12-12,0-1.866-.438-3.626-1.199-5.201Zm-12.801,5.201c-.553,0-1-.448-1-1,0-1.054-.68-2-1-2s-1,.946-1,2c0,.552-.447,1-1,1s-1-.448-1-1c0-1.892,1.232-4,3-4s3,2.108,3,4c0,.552-.447,1-1,1Zm8,0c-.553,0-1-.448-1-1,0-1.054-.68-2-1-2s-1,.946-1,2c0,.552-.447,1-1,1s-1-.448-1-1c0-1.892,1.232-4,3-4s3,2.108,3,4c0,.552-.447,1-1,1ZM23.615,1.925c0,1.514-1.974,3.288-2.957,4.077-.316,.254-.769,.254-1.085,0-.983-.789-2.957-2.563-2.957-4.077,0-1.063,.784-1.925,1.75-1.925s1.75,.862,1.75,1.925c0-1.063,.784-1.925,1.75-1.925s1.75,.862,1.75,1.925ZM7,18.925c0,1.514-1.974,3.288-2.957,4.077-.316,.254-.769,.254-1.085,0-.983-.789-2.957-2.563-2.957-4.077,0-1.063,.784-1.925,1.75-1.925s1.75,.862,1.75,1.925c0-1.063,.784-1.925,1.75-1.925s1.75,.862,1.75,1.925Z"/></svg>
