<?xml version="1.0" encoding="UTF-8"?>
<svg xmlns="http://www.w3.org/2000/svg" id="Layer_1" data-name="Layer 1" viewBox="0 0 24 24">
  <path d="m17.071,23.973c-1.298,0-2.5-.487-3.385-1.372-.885-.886-1.373-2.062-1.373-3.314s.488-2.43,1.373-3.314l7.893-7.894c.283-.283.439-.659.439-1.061s-.156-.777-.439-1.061c-.566-.565-1.555-.567-2.121,0l-13.5,13.5c-1.321,1.322-3.627,1.322-4.95,0C.346,18.796-.018,17.917-.018,16.982s.364-1.814,1.025-2.475L11.064,4.557c.581-.581.581-1.532-.004-2.117-.566-.566-1.555-.566-2.121,0L1.702,9.572c-.393.389-1.027.383-1.415-.01-.388-.394-.383-1.026.01-1.414L7.53,1.021c1.312-1.312,3.623-1.317,4.945.005,1.364,1.364,1.364,3.585,0,4.949L2.417,15.926c-.279.279-.435.655-.435,1.057s.156.777.439,1.061c.566.565,1.555.567,2.121,0l13.5-13.5c1.321-1.322,3.627-1.322,4.95,0,.661.661,1.025,1.54,1.025,2.475s-.364,1.814-1.025,2.475l-7.893,7.894c-.507.508-.787,1.183-.787,1.9s.28,1.393.787,1.9c.507.507,1.208.786,1.971.786,2.028,0,4.617-1.676,5.362-2.189.453-.313,1.077-.199,1.391.256.313.454.199,1.077-.256,1.391-1.109.765-3.962,2.543-6.497,2.543Z"/>
</svg>
