<?xml version="1.0" encoding="UTF-8"?>
<svg xmlns="http://www.w3.org/2000/svg" id="Layer_1" data-name="Layer 1" viewBox="0 0 24 24">
  <path d="m16.657,10h5.293c-.398.976-.863,1.983-1.418,3h-8.117l2.121-2.121c.559-.559,1.332-.879,2.121-.879Zm-7.365,3.295l-4.697,4.696c-.958-1.251-1.513-2.754-1.585-4.371-.097-2.178.729-4.312,2.266-5.853C10.717,2.31,17.617.575,21.246.027c.763-.113,1.51.13,2.052.672.539.538.783,1.279.669,2.034-.174,1.164-.545,3.058-1.278,5.267h-6.033c-1.335,0-2.591.521-3.535,1.465l-3.827,3.827-.003.003Zm-3.28,6.108c1.363,1.064,3.003,1.604,4.665,1.604,2.109,0,4.239-.843,5.832-2.488,1.087-1.122,2.014-2.312,2.814-3.519h-8.908l-4.403,4.403Zm-1.417-1.412L.293,22.293c-.391.391-.391,1.023,0,1.414.195.195.451.293.707.293s.512-.098.707-.293l4.304-4.304c-.068-.053-1.066-.954-1.417-1.412Z"/>
</svg>
