<?xml version="1.0" encoding="UTF-8"?>
<svg xmlns="http://www.w3.org/2000/svg" id="Layer_1" data-name="Layer 1" viewBox="0 0 24 24">
  <path d="m20,6h2c1.103,0,2-.897,2-2v-2c0-1.103-.897-2-2-2h-2c-1.103,0-2,.897-2,2H6c0-1.103-.897-2-2-2h-2C.897,0,0,.897,0,2v2c0,1.103.897,2,2,2v12c-1.103,0-2,.897-2,2v2c0,1.103.897,2,2,2h2c1.103,0,2-.897,2-2h12c0,1.103.897,2,2,2h2c1.103,0,2-.897,2-2v-2c0-1.103-.897-2-2-2h-2c-.168,0-.328.027-.484.066l-3.674-4.287c.102-.24.158-.503.158-.779v-2c0-.276-.056-.539-.158-.779l3.674-4.287c.156.039.316.066.484.066Zm-14,14c0-1.103-.897-2-2-2V6c1.103,0,2-.897,2-2h12c0,.186.034.363.082.535l-3.848,4.489c-.078-.009-.154-.024-.234-.024h-2c-1.103,0-2,.897-2,2v2c0,1.103.897,2,2,2h2c.08,0,.156-.014.234-.024l3.848,4.489c-.048.171-.082.348-.082.535H6Z"/>
</svg>
