<?xml version="1.0" encoding="UTF-8"?>
<svg xmlns="http://www.w3.org/2000/svg" id="Layer_1" data-name="Layer 1" viewBox="0 0 24 24" width="512" height="512"><path d="m21,18c-.413,0-.807.084-1.165.235l-4.215-4.777c.241-.432.38-.929.38-1.458,0-.534-.141-1.035-.386-1.47l4.183-4.783c.369.162.776.253,1.203.253,1.654,0,3-1.346,3-3s-1.346-3-3-3c-1.304,0-2.415.836-2.828,2H5.828c-.413-1.164-1.524-2-2.828-2C1.346,0,0,1.346,0,3c0,1.304.836,2.415,2,2.828v12.344c-1.164.413-2,1.524-2,2.828,0,1.654,1.346,3,3,3,1.304,0,2.415-.836,2.828-2h12.344c.413,1.164,1.524,2,2.828,2,1.654,0,3-1.346,3-3s-1.346-3-3-3ZM5.828,4h12.344c.046.13.102.257.165.378l-4.228,4.835c-.343-.137-.717-.213-1.109-.213-1.654,0-3,1.346-3,3s1.346,3,3,3c.396,0,.774-.078,1.121-.218l4.236,4.801c-.072.133-.133.273-.185.417H5.828c-.302-.851-.977-1.526-1.828-1.828V5.828c.851-.302,1.526-.977,1.828-1.828Z"/></svg>
