<?xml version="1.0" encoding="UTF-8"?>
<svg xmlns="http://www.w3.org/2000/svg" id="Layer_1" data-name="Layer 1" viewBox="0 0 24 24" width="512" height="512"><path d="M8.84,14.354l2.175-3.624L3.013,8.062c-.583-.194-1.224,.042-1.54,.57l-1.159,1.931c-.667,1.112-.133,2.555,1.097,2.965l5.081,1.694c.889,.296,1.865-.065,2.347-.868Zm2.175,9.646V14.617l-.46,.766c-.742,1.236-2.044,1.945-3.415,1.945-.425,0-.856-.067-1.28-.209l-3.845-1.281v1.653c0,2.152,1.377,4.063,3.419,4.743l4.435,1.478c.374,.121,.758,.22,1.146,.287Zm12.72-13.404l-1.157-1.928c-.329-.549-.995-.795-1.602-.593l-7.961,2.654,2.175,3.624c.482,.804,1.458,1.165,2.347,.868l5.118-1.706c1.211-.404,1.737-1.825,1.08-2.92Zm-6.845,6.733c-1.371,0-2.673-.708-3.415-1.945l-.46-.766v9.378c.422-.074,.84-.182,1.236-.314h.01l4.335-1.446c2.042-.681,3.419-2.591,3.419-4.743v-1.654l-3.845,1.282c-.424,.142-.855,.209-1.28,.209Zm2.237-11.096c-.08,.336-.328,.607-.656,.716l-6.077,2.025c-.103,.034-.21,.052-.316,.052s-.214-.017-.316-.052l-3.683-1.256L13.288,2.528c.782-.783,2.05-.782,2.83-.002l2.745,2.77c.244,.246,.343,.6,.263,.937Zm-14.276,.523c-.331-.109-.58-.385-.658-.725s.026-.695,.276-.939L9.094,.577c.77-.772,2.04-.77,2.819,.009l.303,.303c-.126,.099-.256,.19-.371,.305L5.931,7.088l-1.08-.332Z"/></svg>
