<?xml version="1.0" encoding="UTF-8"?>
<svg xmlns="http://www.w3.org/2000/svg" id="Layer_1" data-name="Layer 1" viewBox="0 0 24 24" width="512" height="512"><path d="M4.794,8.724c-.391-.391-.391-1.023,0-1.414L11.794,.31c.391-.391,1.023-.391,1.414,0s.391,1.023,0,1.414l-7,7c-.195,.195-.451,.293-.707,.293s-.512-.098-.707-.293Zm18.91,2.082c-.391-.391-1.023-.391-1.414,0l-7,7c-.391,.391-.391,1.023,0,1.414,.195,.195,.451,.293,.707,.293s.512-.098,.707-.293l7-7c.391-.391,.391-1.023,0-1.414Zm-4.117-.19c.188-.188,.293-.442,.293-.707s-.105-.52-.293-.707l-4.856-4.855c-.391-.391-1.023-.391-1.414,0l-4.457,4.456c-.188,.188-.293,.442-.293,.707s.105,.52,.293,.707l1.755,1.755L.293,22.293c-.391,.391-.391,1.023,0,1.414,.195,.195,.451,.293,.707,.293s.512-.098,.707-.293L12.03,13.385l1.687,1.687c.195,.195,.451,.293,.707,.293s.512-.098,.707-.293l4.457-4.457Z"/></svg>
