<?xml version="1.0" encoding="UTF-8"?>
<svg xmlns="http://www.w3.org/2000/svg" id="Layer_1" data-name="Layer 1" viewBox="0 0 24 24" width="512" height="512"><path d="m22.149.917c-1.158-.869-2.621-1.136-4.011-.735l-8.056,2.332c-.775.225-1.642.404-2.647.548-1.048.149-2.448.479-3.17,1.202-.58.58-.984,1.646-1.201,3.17-.145,1.006-.324,1.872-.548,2.647L.183,18.137c-.403,1.392-.135,2.854.735,4.012.87,1.158,2.2,1.822,3.649,1.822h6.404c.18,0,4.463-.049,8.707-4.293s4.293-8.526,4.293-8.707v-6.404c0-1.448-.664-2.778-1.822-3.649Zm-3.455,1.187c.238-.069.48-.104.72-.104.546,0,1.081.177,1.533.517.651.488,1.024,1.236,1.024,2.05v4.99l-6.515-6.516,3.238-.937ZM2.517,20.948c-.489-.651-.639-1.473-.413-2.254l.938-3.239,6.516,6.516h-4.99c-.814,0-1.561-.373-2.05-1.023Zm12.288-11.713l-5.434,5.434c-.195.195-.451.293-.707.293s-.512-.098-.707-.293c-.391-.391-.391-1.023,0-1.414l5.434-5.434c.391-.391,1.023-.391,1.414,0s.391,1.023,0,1.414Zm2.828,1.414c.391.391.391,1.023,0,1.414l-5.434,5.435c-.195.195-.451.293-.707.293s-.512-.098-.707-.293c-.391-.391-.391-1.023,0-1.414l5.434-5.435c.391-.391,1.023-.391,1.414,0Z"/></svg>
