<?xml version="1.0" encoding="UTF-8"?>
<svg xmlns="http://www.w3.org/2000/svg" id="Layer_1" data-name="Layer 1" viewBox="0 0 24 24" width="512" height="512"><path d="M19,2H10c-2.76,0-5,2.24-5,5v6c0,1.07,.34,2.06,.91,2.87l6.1-6.1c1.01-1.01,2.66-1.02,3.68,0l1.04,1.04c.23,.23,.62,.23,.85,0l5.95-5.95c-.8-1.69-2.53-2.86-4.52-2.86Zm-9.5,6c-.83,0-1.5-.67-1.5-1.5s.67-1.5,1.5-1.5,1.5,.67,1.5,1.5-.67,1.5-1.5,1.5Zm14.5-.79v5.79c0,2.76-2.24,5-5,5H10c-.97,0-1.87-.28-2.64-.75l6.06-6.06c.23-.23,.62-.23,.85,0l1.04,1.04c.98,.98,2.69,.98,3.67,0l5.02-5.02Zm-6,12.79c-.91,1.21-2.37,2-4,2H5c-2.76,0-5-2.24-5-5v-6c0-2.06,1.25-3.83,3.03-4.59-.02,.2-.03,.39-.03,.59v6c0,3.87,3.13,7,7,7h8Z"/></svg>
