<?xml version="1.0" encoding="UTF-8"?>
<svg xmlns="http://www.w3.org/2000/svg" id="Layer_1" data-name="Layer 1" viewBox="0 0 24 24" width="512" height="512"><path d="m21.5,5c-1.381,0-2.5-1.119-2.5-2.5s1.119-2.5,2.5-2.5,2.5,1.119,2.5,2.5-1.119,2.5-2.5,2.5Zm-.5,8.5c0,5.79-4.71,10.5-10.5,10.5S0,19.29,0,13.5,4.71,3,10.5,3s10.5,4.71,10.5,10.5Zm-6.464-.47l-3.05-1.726c-.318-.199-.685-.304-1.06-.304h-1.536c-.25,0-.489-.099-.666-.276l-.558-.558c-.368-.368-.368-.964,0-1.332l.354-.354c.287-.287.725-.358,1.087-.176l.786.393c.363.181.801.11,1.087-.176.306-.306.364-.78.142-1.151l-.82-1.366c-.185-.308-.179-.693.016-.995.001-.002.002-.004.004-.006-3.283.068-6.114,2.006-7.469,4.791l.852.896c.189.198.451.311.725.311h2.181c.25,0,.489.099.666.276l.448.448c.177.177.276.416.276.666v.781c0,.53.211,1.039.586,1.414l1.138,1.138c.177.177.276.416.276.666v1.482c0,.623.505,1.128,1.128,1.128h.491c.413,0,.793-.226.99-.588l2.254-4.133c.239-.438.095-.985-.328-1.25Z"/></svg>
