<?xml version="1.0" encoding="UTF-8"?>
<svg xmlns="http://www.w3.org/2000/svg" id="Layer_1" data-name="Layer 1" viewBox="0 0 24 24" width="512" height="512"><path d="m12,7c-.552,0-1-.448-1-1v-3c0-.552.448-1,1-1s1,.448,1,1v3c0,.552-.448,1-1,1Zm5.147.02l1.474-2.514c.279-.477.12-1.089-.357-1.369-.477-.28-1.089-.119-1.369.357l-1.474,2.514c-.279.477-.12,1.089.357,1.369.159.093.333.137.505.137.343,0,.677-.177.864-.494Zm-8.875.46c.48-.272.649-.882.377-1.363l-1.478-2.61c-.272-.481-.881-.65-1.363-.377-.48.272-.649.882-.377,1.363l1.478,2.61c.184.325.522.507.871.507.167,0,.336-.042.492-.13Zm15.664,5.162c-.253-1.305-1.335-2.363-2.645-2.591-1.807-.314-3.392.844-3.788,2.468l-3.132-1.178c-.506-.19-1.072.056-1.277.557l-1.093,2.46-1.199-2.501c-.212-.49-.772-.726-1.272-.537l-3.047,1.154c-.415-1.602-1.989-2.737-3.782-2.421-1.306.23-2.384,1.286-2.637,2.588-.28,1.442.384,2.749,1.476,3.442-.272.48-.44,1.026-.44,1.617,0,1.896,1.599,3.419,3.522,3.293,1.124-.074,2.122-.794,2.666-1.78.496-.901.484-1.702.276-2.421l4.436-1.663,4.436,1.663c-.084.289-.136.592-.136.909,0,1.983,1.749,3.558,3.789,3.265,1.223-.176,2.271-1.08,2.649-2.257.315-.98.143-1.883-.278-2.626,1.092-.692,1.756-1.999,1.476-3.441Z"/></svg>
