<?xml version="1.0" encoding="UTF-8"?>
<svg xmlns="http://www.w3.org/2000/svg" id="Layer_1" data-name="Layer 1" viewBox="0 0 24 24" width="512" height="512"><path d="m12,0C6.486,0,2,4.486,2,10v13c0,.487.351.903.831.986.479.08.949-.194,1.112-.653.264-.748,1.167-1.333,2.057-1.333s1.793.585,2.057,1.333c.141.4.519.667.943.667s.802-.267.943-.667c.264-.748,1.167-1.333,2.057-1.333s1.793.585,2.057,1.333c.141.4.519.667.943.667s.802-.267.943-.667c.264-.748,1.167-1.333,2.057-1.333s1.793.585,2.057,1.333c.143.405.525.667.942.667.056,0,.113-.004.169-.014.48-.083.831-.499.831-.986v-13C22,4.486,17.514,0,12,0Zm-3.5,12c-.828,0-1.5-.672-1.5-1.5s.672-1.5,1.5-1.5,1.5.672,1.5,1.5-.672,1.5-1.5,1.5Zm7,0c-.828,0-1.5-.672-1.5-1.5s.672-1.5,1.5-1.5,1.5.672,1.5,1.5-.672,1.5-1.5,1.5Z"/></svg>
