<?xml version="1.0" encoding="UTF-8"?>
<svg xmlns="http://www.w3.org/2000/svg" id="Layer_1" data-name="Layer 1" viewBox="0 0 24 24" width="512" height="512"><path d="m14,23c0,.552-.448,1-1,1H1c-.552,0-1-.448-1-1,0-3.866,3.134-7,7-7s7,3.134,7,7ZM7,6c-2.209,0-4,1.791-4,4s1.791,4,4,4,4-1.791,4-4-1.791-4-4-4Zm17-1v8c0,2.761-2.239,5-5,5h-4.526c-.945-1.406-2.275-2.533-3.839-3.227,1.437-1.096,2.365-2.826,2.365-4.773,0-3.314-2.686-6-6-6-1.084,0-2.102.288-2.979.791.112-2.658,2.294-4.791,4.979-4.791h10c2.761,0,5,2.239,5,5Zm-4,10c0-.553-.448-1-1-1h-3.5c-.552,0-1,.447-1,1s.448,1,1,1h3.5c.552,0,1-.447,1-1Z"/></svg>
