<?xml version="1.0" encoding="UTF-8"?>
<svg xmlns="http://www.w3.org/2000/svg" id="Layer_1" data-name="Layer 1" viewBox="0 0 24 24" width="512" height="512"><path d="M22.604,6.388c-2.111,1.078-5.623,1.612-10.604,1.612S3.507,7.465,1.396,6.388c-.889,1.675-1.396,3.584-1.396,5.612,0,6.627,5.373,12,12,12s12-5.373,12-12c0-2.029-.508-3.937-1.396-5.612ZM5,13c0-1.892,1.232-4,3-4s3,2.108,3,4c0,.552-.447,1-1,1s-1-.448-1-1c0-1.054-.68-2-1-2s-1,.946-1,2c0,.552-.447,1-1,1s-1-.448-1-1Zm12.666,4.746c-.103,.092-2.559,2.254-5.666,2.254s-5.563-2.162-5.666-2.254c-.412-.368-.447-1-.08-1.412,.368-.411,.999-.446,1.41-.081,.025,.022,2.008,1.748,4.336,1.748s4.316-1.73,4.336-1.748c.412-.364,1.043-.328,1.41,.084,.366,.412,.331,1.042-.08,1.409Zm.334-3.746c-.553,0-1-.448-1-1,0-1.054-.68-2-1-2s-1,.946-1,2c0,.552-.447,1-1,1s-1-.448-1-1c0-1.892,1.232-4,3-4s3,2.108,3,4c0,.552-.447,1-1,1ZM12,6c-2.58,0-11-.216-11-3S9.42,0,12,0s11,.216,11,3-8.42,3-11,3ZM3.502,3c1.222,.449,4.139,1,8.498,1s7.276-.551,8.498-1c-1.222-.449-4.139-1-8.498-1s-7.276,.551-8.498,1Zm17.597,.313h0Z"/></svg>
