<?xml version="1.0" encoding="UTF-8"?>
<svg xmlns="http://www.w3.org/2000/svg" id="Layer_1" data-name="Layer 1" viewBox="0 0 24 24" width="512" height="512"><path d="m19.019-.077H5.019C2.262-.077.019,2.166.019,4.923v14c0,2.757,2.243,5,5,5h14c2.757,0,5-2.243,5-5V4.923C24.019,2.166,21.776-.077,19.019-.077Zm-.657,18.956c-.113.041-.229.061-.343.061-.408,0-.792-.252-.939-.658l-1.197-3.282h-7.726l-1.197,3.282c-.189.519-.763.785-1.282.597-.519-.189-.786-.763-.597-1.282l3.831-10.5c.471-1.327,1.692-2.19,3.109-2.19s2.639.863,3.112,2.198l3.827,10.492c.189.519-.078,1.093-.597,1.282Zm-5.112-11.097l1.903,5.218h-6.267l1.906-5.226c.286-.805,1.012-.867,1.227-.867s.942.062,1.23.875Z"/></svg>
