<?xml version="1.0" encoding="UTF-8"?>
<svg xmlns="http://www.w3.org/2000/svg" id="Layer_1" data-name="Layer 1" viewBox="0 0 24 24" width="512" height="512"><path d="M18,12c-3.31,0-6,2.69-6,6s2.69,6,6,6,6-2.69,6-6-2.69-6-6-6Zm1,9c0,.55-.45,1-1,1s-1-.45-1-1v-2c0-.55,.45-1,1-1s1,.45,1,1v2Zm-1-4c-.83,0-1.5-.67-1.5-1.5s.67-1.5,1.5-1.5,1.5,.67,1.5,1.5-.67,1.5-1.5,1.5Zm-6.92,5H5c-2.76,0-5-2.24-5-5V5C0,2.24,2.24,0,5,0h5V5c0,1.65,1.35,3,3,3h5v2c-4.41,0-8,3.59-8,8,0,1.46,.4,2.82,1.08,4Zm.92-17V.15c.46,.15,.88,.39,1.23,.73l3.9,3.94c.33,.33,.56,.73,.7,1.17h-4.83c-.55,0-1-.45-1-1Z"/></svg>
