<?xml version="1.0" encoding="UTF-8"?>
<svg xmlns="http://www.w3.org/2000/svg" id="Layer_1" data-name="Layer 1" viewBox="0 0 24 24">
  <path d="m17.485,22.213c-.058.327-.273.604-.576.739-1.548.695-3.199,1.047-4.909,1.047C5.383,24,0,18.617,0,12c0-1.71.353-3.362,1.048-4.91.135-.3.408-.514.73-.574.323-.06.655.042.888.275l5.468,5.456-1.905,3.29c-.839,1.448.784,3.071,2.233,2.233l3.294-1.907c5.803,5.799,5.815,5.861,5.729,6.35Zm6.222.08c.391.391.391,1.023,0,1.414-.195.195-.451.293-.707.293s-.512-.098-.707-.293L.293,1.707C-.098,1.316-.098.684.293.293S1.316-.098,1.707.293l2.553,2.553C6.425,1.013,9.143,0,12,0c6.617,0,12,5.383,12,12,0,2.853-1.014,5.574-2.846,7.74l2.553,2.553Zm-12.306-14.085c-.568.329-.67,1.108-.206,1.572h0c.32.32.816.385,1.208.158l3.291-1.905c.039-.023.132-.079.241.032.108.108.055.201.031.241l-1.905,3.291c-.227.392-.162.888.158,1.208h0c.465.465,1.243.362,1.572-.206l1.845-3.186c.488-.842.453-1.934-.194-2.662-.712-.8-1.836-.977-2.751-.448l-3.291,1.905Z"/>
</svg>
