<?xml version="1.0" encoding="UTF-8"?>
<svg xmlns="http://www.w3.org/2000/svg" id="Layer_1" data-name="Layer 1" viewBox="0 0 24 24" width="512" height="512"><path d="m12,0C5.383,0,0,5.383,0,12s5.383,12,12,12,12-5.383,12-12S18.617,0,12,0Zm4.404,13.873l-5.212,2.854c-.325.183-.683.274-1.041.274-.373,0-.747-.099-1.087-.297-.667-.39-1.064-1.083-1.064-1.855v-5.699c0-.772.397-1.465,1.064-1.855.665-.389,1.465-.396,2.138-.017l5.192,2.843c.696.391,1.105,1.091,1.105,1.878s-.409,1.487-1.096,1.873Zm-.904-1.873c0,.087-.058.119-.066.125l-5.212,2.855c-.019.01-.077.042-.147-.001-.074-.043-.074-.107-.074-.128v-5.699c0-.021,0-.085.074-.128.027-.016.052-.021.074-.021.036,0,.065.016.083.026l5.192,2.844c.019.011.076.043.076.13Z"/></svg>
