<?xml version="1.0" encoding="UTF-8"?>
<svg xmlns="http://www.w3.org/2000/svg" id="Layer_1" data-name="Layer 1" viewBox="0 0 24 24">
  <path d="m18,16.5v1.5h-7v-1.5c0-1.93,1.57-3.5,3.5-3.5s3.5,1.57,3.5,3.5Zm6-9.5v6c0,2.414-1.721,4.435-4,4.899v-1.399c0-3.032-2.467-5.5-5.5-5.5s-5.5,2.468-5.5,5.5v1.399c-2.279-.465-4-2.485-4-4.899v-6c0-2.757,2.243-5,5-5h9c2.757,0,5,2.243,5,5Zm-7,.5c0-1.379-1.121-2.5-2.5-2.5s-2.5,1.121-2.5,2.5,1.121,2.5,2.5,2.5,2.5-1.121,2.5-2.5Zm1,13.5c0-.553-.448-1-1-1h-7c-3.866,0-7-3.134-7-7v-1.992l.021-2.67c.003-.416-.251-.79-.639-.94-.386-.15-.828-.045-1.105.265-.823.919-1.276,2.104-1.276,3.338v6c0,2.761,2.239,5,5,5h12c.552,0,1-.447,1-1Z"/>
</svg>
