<?xml version="1.0" encoding="UTF-8"?>
<svg xmlns="http://www.w3.org/2000/svg" id="Layer_1" data-name="Layer 1" viewBox="0 0 24 24">
  <path d="m6.455,18.959l-4.748,4.748c-.195.195-.451.293-.707.293s-.512-.098-.707-.293c-.391-.391-.391-1.023,0-1.414l4.746-4.746,1.416,1.412Zm17.544-10.248c-.015.591-.316,1.142-.806,1.472-.035.024-4.203,2.131-4.203,2.131l2.946,1.267c.577.313.919.782,1.027,1.329.108.547-.029,1.111-.377,1.547-.024.031-1.327,1.323-1.327,1.323l1.463,1.528c.277.289.355.716.197,1.084-.157.369-.519.607-.919.607h-2v1.289c0,.597-.303,1.14-.81,1.454-.277.171-.587.258-.899.258-.26,0-.521-.06-.763-.18l-4.986-2.917c-.193-.083-.505-.076-.772.056,0,0-2.207,1.737-2.235,1.755-.505.32-1.135.373-1.686.143s-.957-.715-1.084-1.299l-.309-2.6,6.252-6.252c.391-.391.391-1.023,0-1.414s-1.023-.391-1.414,0l-6.254,6.254-2.502-.295c-.68-.144-1.166-.549-1.396-1.101s-.177-1.182.143-1.686c.019-.029,1.755-2.235,1.755-2.235.132-.268.137-.584.01-.858L.212,6.532c-.298-.594-.269-1.215.045-1.722s.857-.81,1.454-.81h1.289v-2c0-.4.239-.762.607-.919.368-.158.794-.081,1.084.197l1.495,1.431s1.147-1.261,1.188-1.295c.426-.34.976-.481,1.514-.384.537.096,1.005.42,1.286.887l1.676,3.146L14.123.904C14.48.339,15.032.024,15.631.001c.603-.031,1.174.25,1.535.73.037.049.602,1.178.602,1.178l3.072-.855c.629-.142,1.23.032,1.652.453.421.421.595,1.021.466,1.602l-.901,3.239,1.185.833c.499.374.772.938.757,1.529Zm-15.265,12.517h.01-.01Z"/>
</svg>
