<?xml version="1.0" encoding="UTF-8"?>
<svg xmlns="http://www.w3.org/2000/svg" id="Layer_1" data-name="Layer 1" viewBox="0 0 24 24" width="512" height="512"><path d="m19,0H5C2.243,0,0,2.243,0,5v14c0,2.757,2.243,5,5,5h14c2.757,0,5-2.243,5-5V5c0-2.757-2.243-5-5-5Zm-11,8.622c0,.722.485,1.363,1.179,1.561l6.186,1.704c1.556.446,2.635,1.88,2.635,3.487,0,1.999-1.626,3.626-3.626,3.626h-4.786c-1.773,0-3.277-1.268-3.574-3.014-.093-.545.273-1.061.818-1.153.546-.093,1.061.273,1.154.817.133.782.807,1.35,1.603,1.35h4.786c.896,0,1.626-.729,1.626-1.626,0-.721-.484-1.363-1.176-1.562l-6.183-1.703c-1.558-.442-2.641-1.875-2.641-3.486,0-1.997,1.625-3.622,3.622-3.622h4.79c1.773,0,3.277,1.268,3.574,3.014.093.545-.273,1.061-.818,1.153-.54.096-1.061-.273-1.154-.817-.133-.782-.807-1.35-1.603-1.35h-4.79c-.895,0-1.622.728-1.622,1.622Z"/></svg>
