<?xml version="1.0" encoding="UTF-8"?>
<svg xmlns="http://www.w3.org/2000/svg" id="Layer_1" data-name="Layer 1" viewBox="0 0 24 24" width="512" height="512"><path d="M19.962,12.5c-.212,0-.424,.081-.585,.242l-4.377,4.377v-1.119c0-.552-.448-1-1-1s-1,.448-1,1v3.58c0,.811,.186,1.625,.612,2.316,.863,1.401,2.292,2.102,3.722,2.102,1.11,0,2.219-.422,3.064-1.267l3.334-3.334c.069-.069,.09-.107,.092-.136,.24-.324,.228-.777-.066-1.071-.162-.162-.373-.242-.585-.242s-.424,.081-.585,.242l-1.84,1.84-.985-.985,3.631-3.631c.323-.323,.323-.847,0-1.171-.162-.162-.374-.242-.585-.242s-.424,.081-.585,.242l-3.634,3.634-1.002-1.002,2.961-2.961c.323-.323,.323-.847,0-1.171-.162-.162-.373-.242-.585-.242h0Zm-15.932,0c-.212,0-.424,.081-.585,.242-.323,.323-.323,.847,0,1.171l2.961,2.961-1.002,1.002-3.634-3.634c-.162-.162-.373-.242-.585-.242s-.424,.081-.585,.242c-.323,.323-.323,.847,0,1.171l3.631,3.631-.985,.985-1.84-1.84c-.162-.162-.374-.242-.585-.242s-.424,.081-.585,.242c-.294,.294-.307,.747-.066,1.071,.003,.029,.024,.068,.092,.136l3.334,3.334c.845,.845,1.954,1.267,3.064,1.267,1.43,0,2.858-.701,3.722-2.102,.425-.69,.612-1.505,.612-2.316v-3.58c0-.552-.448-1-1-1s-1,.448-1,1v1.119s-4.377-4.377-4.377-4.377c-.162-.162-.374-.242-.585-.242h0Zm-2.508-.48c.13-.25,.299-.483,.508-.692,1.067-1.068,2.932-1.068,3.999,0l2.227,2.227c.49-.349,1.089-.555,1.736-.555,.773,0,1.471,.302,2.004,.784,.532-.482,1.231-.784,2.004-.784,.646,0,1.246,.206,1.736,.555l2.227-2.227c1.067-1.068,2.931-1.068,3.999,0,.207,.207,.377,.44,.509,.692,.521-.061,1.042,.042,1.515,.259,.002-.094,.014-.185,.014-.279C24,5.373,18.627,0,12,0S0,5.373,0,12c0,.093,.012,.183,.014,.275,.471-.214,.99-.316,1.508-.255ZM16,3c1.768,0,3,2.108,3,4,0,.552-.448,1-1,1s-1-.448-1-1c0-1.054-.679-2-1-2s-1,.946-1,2c0,.552-.448,1-1,1s-1-.448-1-1c0-1.892,1.232-4,3-4Zm-.615,6.212c.436-.329,1.061-.251,1.397,.178,.335,.431,.271,1.045-.154,1.388-.155,.125-1.601,1.222-4.628,1.222s-4.473-1.097-4.628-1.222c-.43-.347-.497-.977-.15-1.406,.344-.426,.967-.496,1.395-.159,.042,.031,1.108,.787,3.383,.787,2.312,0,3.374-.78,3.385-.788ZM8,3c1.768,0,3,2.108,3,4,0,.552-.448,1-1,1s-1-.448-1-1c0-1.054-.679-2-1-2s-1,.946-1,2c0,.552-.448,1-1,1s-1-.448-1-1c0-1.892,1.232-4,3-4Z"/></svg>
