<?xml version="1.0" encoding="UTF-8"?>
<svg xmlns="http://www.w3.org/2000/svg" id="Layer_1" data-name="Layer 1" viewBox="0 0 24 24" width="512" height="512"><path d="M19,0H5C2.243,0,0,2.243,0,5v14c0,2.757,2.243,5,5,5h14c2.757,0,5-2.243,5-5V5c0-2.757-2.243-5-5-5Zm-4.098,16.753c-.752,.793-1.81,1.247-2.902,1.247h-3c-.552,0-1-.447-1-1s.448-1,1-1h3c.554,0,1.069-.222,1.451-.624,.381-.401,.575-.929,.546-1.484-.055-1.043-1.027-1.892-2.167-1.892h-2.83c-.552,0-1-.448-1-1v-3c0-1.103,.897-2,2-2h4c.552,0,1,.448,1,1s-.448,1-1,1h-4v2h1.83c2.224,0,4.053,1.663,4.164,3.786,.058,1.109-.33,2.163-1.092,2.967Z"/></svg>
