<?xml version="1.0" encoding="UTF-8"?>
<svg xmlns="http://www.w3.org/2000/svg" id="Layer_1" data-name="Layer 1" viewBox="0 0 24 24" width="512" height="512"><path d="M22,14.56v-1.56c0-2.21-1.79-4-4-4s-4,1.79-4,4v1.56c-1.19,.69-2,1.97-2,3.44v2c0,2.21,1.79,4,4,4h4c2.21,0,4-1.79,4-4v-2c0-1.47-.81-2.75-2-3.44Zm-4,5.94c-.83,0-1.5-.67-1.5-1.5s.67-1.5,1.5-1.5,1.5,.67,1.5,1.5-.67,1.5-1.5,1.5Zm2-6.5h-4v-1c0-1.1,.9-2,2-2s2,.9,2,2v1Zm-9.65,8H5c-2.76,0-5-2.24-5-5V5C0,2.24,2.24,0,5,0h12c2.76,0,5,2.24,5,5v3.54c-.83-.74-1.86-1.26-3-1.45v-2.09c0-1.1-.9-2-2-2h-3.67c-.8,0-1.55,.31-2.12,.88l-3.33,3.33c-.57,.57-.88,1.32-.88,2.12v3.67c0,1.1,.9,2,2,2h1.81c-.35,.61-.6,1.28-.72,2H5V7.81l2.71-3.1c.29-.29,.37-.72,.22-1.09-.15-.37-.52-.62-.92-.62h-2c-1.1,0-2,.9-2,2v12c0,1.1,.9,2,2,2h5v1c0,.7,.13,1.37,.35,2ZM13.33,5h3.67v2.09c-2.83,.48-5,2.94-5,5.91h-3v-3.67c0-.27,.1-.52,.29-.71l3.33-3.33c.19-.19,.44-.29,.71-.29Z"/></svg>
