<?xml version="1.0" encoding="UTF-8"?>
<svg xmlns="http://www.w3.org/2000/svg" id="Layer_1" data-name="Layer 1" viewBox="0 0 24 24" width="512" height="512"><path d="M19,11c0,2.757-2.243,5-5,5s-5-2.243-5-5,2.243-5,5-5,5,2.243,5,5Zm5,4v2c0,2.046-1.236,3.809-3,4.582v1.418c0,.553-.447,1-1,1s-1-.447-1-1v-1H5v1c0,.553-.448,1-1,1s-1-.447-1-1v-1.418c-1.764-.773-3-2.536-3-4.582v-2c0-2.757,2.243-5,5-5h2.072c-.047,.327-.072,.661-.072,1,0,3.859,3.14,7,7,7s7-3.141,7-7c0-.2-.009-.398-.025-.593,1.778,.767,3.025,2.537,3.025,4.593Zm-19-.5c0-.828-.672-1.5-1.5-1.5s-1.5,.672-1.5,1.5,.672,1.5,1.5,1.5,1.5-.672,1.5-1.5ZM14,4c.553,0,1-.447,1-1V1c0-.553-.447-1-1-1s-1,.447-1,1V3c0,.553,.447,1,1,1Zm3.945,.832c.171,.113,.363,.168,.554,.168,.323,0,.641-.156,.833-.445l1-1.5c.307-.46,.183-1.08-.277-1.387-.462-.307-1.081-.182-1.387,.277l-1,1.5c-.307,.46-.183,1.08,.277,1.387Zm-9.277-.277c.193,.289,.51,.445,.833,.445,.19,0,.383-.055,.554-.168,.459-.307,.583-.927,.277-1.387l-1-1.5c-.306-.459-.928-.584-1.387-.277-.459,.307-.583,.927-.277,1.387l1,1.5Z"/></svg>
