<?xml version="1.0" encoding="UTF-8"?>
<svg xmlns="http://www.w3.org/2000/svg" id="Layer_1" data-name="Layer 1" viewBox="0 0 24 24">
  <path d="m18.955,2.952c-.441-.46-1.012-.774-1.637-.9-.976-.185-1.98.125-2.682.828l-2.437,2.479,3.825.881c.528.122.858.649.736,1.177h0c-.121.527-.647.857-1.174.737L2.013,5.045c-.887-.21-1.776.339-1.986,1.225-.21.887.339,1.776,1.225,1.986l9.047,2.244L1.253,12.744c-.887.21-1.435,1.099-1.225,1.986.21.887,1.099,1.435,1.986,1.225l7.262-1.784.86,3.905c.505,2.292,2.536,3.924,4.883,3.924h3.982c2.761,0,5-2.239,5-5v-6.102c0-1.856-.737-3.635-2.048-4.948l-2.997-2.999Z"/>
</svg>
