<?xml version="1.0" encoding="UTF-8"?>
<svg xmlns="http://www.w3.org/2000/svg" id="Layer_1" data-name="Layer 1" viewBox="0 0 24 24" width="512" height="512"><path d="m23.491,11.637c.396-.947.456-1.966.175-2.947-.351-1.227-1.215-2.249-2.371-2.804-.194-.093-.333-.265-.353-.438-.144-1.244-.773-2.337-1.771-3.079-.985-.732-2.195-1.022-3.416-.815-.19.028-.417-.061-.597-.242-.847-.846-1.968-1.312-3.158-1.312s-2.312.466-3.158,1.312c-.181.182-.411.272-.598.242-1.22-.206-2.431.084-3.415.815-.999.742-1.628,1.835-1.772,3.079-.02.172-.158.344-.352.438-1.156.555-2.021,1.578-2.372,2.804-.281.981-.22,2,.175,2.947.1.239.1.492,0,.731-.396.947-.456,1.967-.175,2.947.351,1.227,1.215,2.249,2.372,2.805.191.092.332.268.352.438.144,1.243.773,2.337,1.771,3.079.984.731,2.197,1.021,3.414.815.188-.03.417.061.598.241.846.847,1.968,1.312,3.158,1.312s2.312-.466,3.158-1.312c.181-.182.412-.28.597-.242,1.216.204,2.43-.083,3.416-.815.999-.742,1.628-1.836,1.772-3.08.02-.169.161-.345.352-.437,1.156-.556,2.021-1.578,2.372-2.805.281-.98.22-2-.175-2.947-.1-.239-.1-.492,0-.731Zm-16.991,2.363c-.828,0-1.5-.672-1.5-1.5s.672-1.5,1.5-1.5,1.5.672,1.5,1.5-.672,1.5-1.5,1.5Zm4-9c.828,0,1.5.672,1.5,1.5s-.672,1.5-1.5,1.5-1.5-.672-1.5-1.5.672-1.5,1.5-1.5Zm0,14c-.828,0-1.5-.672-1.5-1.5s.672-1.5,1.5-1.5,1.5.672,1.5,1.5-.672,1.5-1.5,1.5Zm2-6c-.828,0-1.5-.672-1.5-1.5s.672-1.5,1.5-1.5,1.5.672,1.5,1.5-.672,1.5-1.5,1.5Zm5,2c-.828,0-1.5-.672-1.5-1.5s.672-1.5,1.5-1.5,1.5.672,1.5,1.5-.672,1.5-1.5,1.5Z"/></svg>
