<?xml version="1.0" encoding="UTF-8"?>
<svg xmlns="http://www.w3.org/2000/svg" id="Layer_1" data-name="Layer 1" viewBox="0 0 24 24" width="512" height="512"><path d="m16.715,6c-.442,0-.979.212-1.375.406-.794-.385-1.552-.489-2.302-.314.34-4.039,2.934-4.092,2.962-4.092.551,0,1,.449,1.001,1h-.001c-.552,0-1,.448-1,1s.448,1,1,1c1.103,0,2-.897,2-2,0-1.654-1.346-3-3-3-1.121,0-2.884.623-3.99,2.563-.592-1.07-1.441-1.897-2.563-2.457-.495-.248-1.095-.046-1.342.447-.247.494-.047,1.095.447,1.342,1.447.723,2.24,2.102,2.411,4.197-.735-.171-1.476-.077-2.253.29-.434-.253-.913-.381-1.426-.381C4.475,6,0,10.119,0,15s4.485,9,7.302,9c.458,0,.89-.106,1.29-.316.782.345,1.561.391,2.362.131.695.246,1.397.246,2.093,0,.802.26,1.581.214,2.362-.131.4.21.832.316,1.29.316,2.817,0,7.302-4.119,7.302-9s-4.475-9-7.285-9Zm-3.131,6.856l1.21-2.42c.145-.291.425-.436.706-.436s.56.145.706.436l1.21,2.42c.262.524-.119,1.142-.706,1.142h-2.42c-.586,0-.968-.617-.706-1.142Zm-7,.002l1.21-2.42c.145-.291.425-.436.706-.436s.56.145.706.436l1.21,2.42c.262.525-.119,1.142-.706,1.142h-2.42c-.586,0-.968-.617-.706-1.142Zm12.224,3.642c-.668.599-2.79,1.779-3.808,2.267v-.267c0-.552-.448-1-1-1s-1,.448-1,1v.908c-.326.054-.658.092-1,.092-3.5,0-5.547-1.859-6.804-2.988-.443-.398-.074-1.117.51-.999.566.115,2.498.743,3.294.83v.657c0,.552.448,1,1,1s1-.448,1-1v-.519c.323.011.653.019,1,.019,2.169,0,5.123-.753,6.307-.994.573-.116.936.604.501.994Z"/></svg>
