<?xml version="1.0" encoding="UTF-8"?>
<svg xmlns="http://www.w3.org/2000/svg" id="Layer_1" data-name="Layer 1" viewBox="0 0 24 24" width="512" height="512"><path d="M12,0C5.383,0,0,5.383,0,12s5.383,12,12,12,12-5.383,12-12S18.617,0,12,0ZM6,10c-.435,0-.835-.286-.961-.726-.152-.531,.156-1.084,.687-1.236,.965-.275,1.977-.941,2.46-1.619,.321-.449,.945-.554,1.395-.232,.449,.32,.554,.945,.233,1.395-.746,1.045-2.135,1.979-3.54,2.381-.092,.025-.184,.038-.275,.038Zm2.5,0c.828,0,1.5,.672,1.5,1.5s-.672,1.5-1.5,1.5-1.5-.672-1.5-1.5,.672-1.5,1.5-1.5Zm8.167,8.256c.407,.369,.441,1,.074,1.409-.198,.221-.471,.334-.746,.334-.234,0-.469-.082-.659-.25-.104-.092-.826-.762-1.163-1.749h-4.35c-.337,.987-1.058,1.657-1.163,1.749-.19,.168-.427,.251-.662,.251-.277,0-.552-.114-.75-.337-.366-.414-.327-1.046,.086-1.412,.168-.153,.663-.722,.663-1.251s-.495-1.098-.667-1.256c-.407-.369-.441-1-.074-1.409s.993-.449,1.404-.084c.104,.092,.826,.762,1.163,1.749h4.35c.337-.987,1.058-1.657,1.163-1.749,.415-.365,1.046-.326,1.412,.086,.365,.413,.328,1.042-.082,1.408-.174,.158-.667,.727-.667,1.255s.495,1.098,.667,1.256Zm-1.167-5.256c-.828,0-1.5-.672-1.5-1.5s.672-1.5,1.5-1.5,1.5,.672,1.5,1.5-.672,1.5-1.5,1.5Zm3.461-3.726c-.125,.439-.526,.726-.961,.726-.091,0-.183-.013-.275-.038-1.404-.401-2.793-1.336-3.54-2.381-.321-.449-.216-1.074,.233-1.395,.45-.322,1.075-.217,1.395,.232,.484,.678,1.496,1.344,2.46,1.619,.531,.152,.839,.705,.687,1.236Z"/></svg>
