<?xml version="1.0" encoding="UTF-8"?>
<svg xmlns="http://www.w3.org/2000/svg" id="Layer_1" data-name="Layer 1" viewBox="0 0 24 24">
  <path d="m21,4h-3.101c-.465-2.279-2.484-4-4.899-4h-2c-2.414,0-4.434,1.721-4.899,4h-3.101c-.553,0-1,.447-1,1s.447,1,1,1h1v13c0,2.757,2.243,5,5,5h6c2.757,0,5-2.243,5-5V6h1c.553,0,1-.447,1-1s-.447-1-1-1Zm-10-2h2c1.302,0,2.402.839,2.816,2h-7.631c.414-1.161,1.514-2,2.816-2Zm5.23,11.229l-3.046,2.867c-.569.562-1.325.844-2.084.844s-1.522-.283-2.104-.852l-1.186-1.041c-.415-.365-.455-.997-.091-1.411.367-.415.998-.455,1.411-.091l1.225,1.077c.427.414,1.057.415,1.44.033l3.062-2.884c.402-.377,1.034-.359,1.414.043.378.402.359,1.035-.043,1.414Z"/>
</svg>
