<?xml version="1.0" encoding="UTF-8"?>
<svg xmlns="http://www.w3.org/2000/svg" id="Layer_1" data-name="Layer 1" viewBox="0 0 24 24" width="512" height="512"><path d="M14,7V.46c.91,.35,1.75,.88,2.46,1.59l3.48,3.49c.71,.71,1.24,1.55,1.59,2.46h-6.54c-.55,0-1-.45-1-1Zm8,4.5v7.5c0,2.76-2.24,5-5,5H7c-2.76,0-5-2.24-5-5V5C2,2.24,4.24,0,7,0h4.51c.16,0,.32,.01,.49,.02V7c0,1.65,1.35,3,3,3h6.98c.01,.16,.02,1.34,.02,1.5Zm-9,4c0-1.93-1.57-3.5-3.5-3.5s-3.5,1.57-3.5,3.5v2c0,1.93,1.57,3.5,3.5,3.5s3.5-1.57,3.5-3.5v-2Zm5-2.5c0-.4-.24-.77-.62-.92-.37-.16-.8-.07-1.09,.22l-2,2c-.39,.39-.39,1.02,0,1.41s1.02,.39,1.41,0l.29-.29v4.59c0,.55,.45,1,1,1s1-.45,1-1v-7Zm-8.5,1c-.83,0-1.5,.67-1.5,1.5v2c0,.83,.67,1.5,1.5,1.5s1.5-.67,1.5-1.5v-2c0-.83-.67-1.5-1.5-1.5Z"/></svg>
