<?xml version="1.0" encoding="UTF-8"?>
<svg xmlns="http://www.w3.org/2000/svg" id="Layer_1" data-name="Layer 1" viewBox="0 0 24 24" width="512" height="512"><path d="m21.322,2.683C18.561-.078,14.838-.831,13.006,1.001c-1.832,1.832-1.079,5.555,1.682,8.316,2.761,2.761,6.484,3.514,8.316,1.682,1.832-1.832,1.079-5.555-1.682-8.316Zm-2.004,4.629c-.401.401-1.313.138-2.038-.587s-.988-1.637-.587-2.038,1.313-.138,2.038.587c.725.725.988,1.637.587,2.038Zm1.99,6.616c.037-.017.074-.034.111-.051-2.911,2.372-6.573,3.753-10.915,4.109-.115.009-.23.014-.345.014-.763,0-1.505-.208-2.149-.596l-3.783,3.784c.461.256.774.748.774,1.312,0,.828-.672,1.5-1.5,1.5s-1.5-.672-1.5-1.5c0-.231.052-.45.146-.646-.196.093-.415.146-.646.146-.828,0-1.5-.672-1.5-1.5s.672-1.5,1.5-1.5c.565,0,1.057.312,1.312.773l3.783-3.784c-.446-.741-.654-1.61-.581-2.494.352-4.298,1.719-7.936,4.066-10.841-.002.015-.004.029-.006.044-.369,2.535.752,5.584,3.2,8.032,2.144,2.144,4.749,3.272,7.065,3.272.33,0,.652-.028.969-.074Z"/></svg>
