<?xml version="1.0" encoding="UTF-8"?>
<svg xmlns="http://www.w3.org/2000/svg" id="Layer_1" data-name="Layer 1" viewBox="0 0 24 24" width="512" height="512"><path d="M12,0C5.373,0,0,5.373,0,12c0,.565,.053,1.116,.128,1.66,.318-1.249,1.202-2.683,1.799-3.391,.301-.357,.847-.359,1.151-.004,.738,.863,1.922,2.832,1.922,4.235,0,1.381-1.119,2.5-2.5,2.5-.648,0-1.233-.253-1.677-.658,1.742,4.478,6.083,7.658,11.177,7.658,6.627,0,12-5.373,12-12S18.627,0,12,0ZM6,9c-.435,0-.835-.287-.961-.726-.152-.531,.156-1.084,.687-1.236,.965-.276,1.977-.941,2.46-1.62,.321-.449,.945-.553,1.395-.233,.449,.321,.554,.945,.233,1.395-.746,1.045-2.135,1.979-3.54,2.38-.092,.026-.184,.039-.275,.039Zm4,2.5c0,.828-.672,1.5-1.5,1.5s-1.5-.672-1.5-1.5,.672-1.5,1.5-1.5,1.5,.672,1.5,1.5Zm5.983,6.499c-.289,0-.642,0-1.017,0-.168,1.51-1.263,3.001-2.966,3.001s-2.797-1.49-2.966-3c-.38,0-.738,0-1.032,0-.676,0-1.179-.662-.956-1.3,.625-1.787,2.554-3.7,4.953-3.7s4.333,1.917,4.942,3.707c.216,.636-.288,1.292-.96,1.292Zm-.483-4.999c-.828,0-1.5-.672-1.5-1.5s.672-1.5,1.5-1.5,1.5,.672,1.5,1.5-.672,1.5-1.5,1.5Zm3.461-4.726c-.125,.439-.526,.726-.961,.726-.091,0-.183-.013-.275-.039-1.404-.401-2.793-1.335-3.54-2.38-.321-.45-.216-1.074,.233-1.395,.45-.321,1.075-.216,1.395,.233,.484,.678,1.496,1.344,2.46,1.62,.531,.151,.839,.705,.687,1.236Zm-5.961,7.942v1.384c0,.662-.411,1.4-1,1.4s-1-.738-1-1.4v-1.384c.285-.125,.606-.216,1-.216s.715,.091,1,.216Z"/></svg>
