<?xml version="1.0" encoding="UTF-8"?>
<svg xmlns="http://www.w3.org/2000/svg" id="Layer_1" data-name="Layer 1" viewBox="0 0 24 24">
  <path d="m9,9H2c-1.103,0-2-.897-2-2v-2C0,2.243,2.243,0,5,0h4c1.103,0,2,.897,2,2v5c0,1.103-.897,2-2,2Zm10,15h-4c-1.103,0-2-.897-2-2v-5c0-1.103.897-2,2-2h7c1.103,0,2,.897,2,2v2c0,2.757-2.243,5-5,5Zm3-11h-7c-1.103,0-2-.897-2-2V2c0-1.103.897-2,2-2h4c2.757,0,5,2.243,5,5v6c0,1.103-.897,2-2,2Zm-13,11h-4c-2.757,0-5-2.243-5-5v-6c0-1.103.897-2,2-2h7c1.103,0,2,.897,2,2v9c0,1.103-.897,2-2,2Z"/>
</svg>
