<?xml version="1.0" encoding="UTF-8"?>
<svg xmlns="http://www.w3.org/2000/svg" id="Layer_1" data-name="Layer 1" viewBox="0 0 24 24" width="512" height="512"><path d="M5.5,7c-1.93,0-3.5-1.57-3.5-3.5S3.57,0,5.5,0s3.5,1.57,3.5,3.5-1.57,3.5-3.5,3.5Zm9,0c-1.93,0-3.5-1.57-3.5-3.5s1.57-3.5,3.5-3.5,3.5,1.57,3.5,3.5-1.57,3.5-3.5,3.5Zm8.196,12.134l-.974-.562c.166-.497,.278-1.019,.278-1.572s-.111-1.075-.278-1.572l.974-.562c.478-.276,.642-.888,.366-1.366-.277-.479-.887-.644-1.366-.366l-.973,.562c-.705-.794-1.644-1.375-2.723-1.594v-1.101c0-.552-.448-1-1-1s-1,.448-1,1v1.101c-1.079,.22-2.018,.801-2.723,1.594l-.973-.562c-.48-.277-1.09-.113-1.366,.366-.276,.479-.112,1.09,.366,1.366l.974,.562c-.166,.497-.278,1.019-.278,1.572s.111,1.075,.278,1.572l-.974,.562c-.478,.276-.642,.888-.366,1.366,.186,.321,.521,.5,.867,.5,.169,0,.341-.043,.499-.134l.973-.562c.705,.794,1.644,1.375,2.723,1.594v1.101c0,.552,.448,1,1,1s1-.448,1-1v-1.101c1.079-.22,2.018-.801,2.723-1.594l.973,.562c.158,.091,.33,.134,.499,.134,.346,0,.682-.179,.867-.5,.276-.479,.112-1.09-.366-1.366Zm-5.696-.634c-.827,0-1.5-.673-1.5-1.5s.673-1.5,1.5-1.5,1.5,.673,1.5,1.5-.673,1.5-1.5,1.5Zm-4.398-9.348c-.641-.703-1.554-1.152-2.577-1.152-1.93,0-3.5,1.57-3.5,3.5,0,1.318,.741,2.455,1.821,3.052,.653-2.313,2.203-4.247,4.256-5.4Zm-4.602,7.848c0-.305,.016-.606,.046-.904-2.301,.447-4.046,2.474-4.046,4.904,0,.552,.448,1,1,1h4.518c-.958-1.43-1.518-3.149-1.518-5Zm-3.475-5.5c0-1.303,.458-2.5,1.218-3.443C2.648,7.609-.017,10.015,0,13.028c.003,.541,.465,.972,1.006,.972H5.148c-.396-.763-.623-1.614-.623-2.5Z"/></svg>
