<?xml version="1.0" encoding="UTF-8"?>
<svg xmlns="http://www.w3.org/2000/svg" id="Layer_1" data-name="Layer 1" viewBox="0 0 24 24" width="512" height="512"><path d="M23.9,10.525c-.113,.396-.333,.767-.655,1.05l-.435,.383-.834-.956c-.365-.415-.997-.455-1.411-.089-.414,.365-.454,.997-.089,1.411l.834,.956-1.646,1.45-.819-.939c-.365-.415-.997-.455-1.411-.089-.414,.365-.454,.997-.089,1.411l.819,.939-1.162,1.077c-.376,.349-.939,.384-1.367,.102-.782-.515-2.138-1.23-3.637-1.23-2.331,0-4.316,1.73-4.336,1.748-.19,.168-.427,.251-.663,.251-.275,0-.55-.113-.747-.335-.366-.412-.331-1.042,.08-1.409,.103-.092,2.559-2.254,5.666-2.254,.741,0,1.44,.128,2.084,.316l6.598-5.81c.85-.747,2.144-.636,2.866,.249C22.127,3.706,17.501,0,12,0,5.373,0,0,5.373,0,12s5.373,12,12,12,12-5.373,12-12c0-.5-.04-.991-.1-1.475Zm-8.404-2.525c.828,0,1.5,.672,1.5,1.5s-.672,1.5-1.5,1.5-1.5-.672-1.5-1.5,.672-1.5,1.5-1.5Zm-7,0c.828,0,1.5,.672,1.5,1.5s-.672,1.5-1.5,1.5-1.5-.672-1.5-1.5,.672-1.5,1.5-1.5Z"/></svg>
